<svg
	xmlns="http://www.w3.org/2000/svg"
	version="1.1"
	viewBox="0 0 31 31 "
	stroke="none">

	<!-- QrBackground  -->
	<g id="QrBackground" fill="#FFFFFF">
		<rect width="8" height="8" x="23" y="23" rx="1" ry="1" />
		<rect width="31" height="31" rx="4" ry="4" />
	</g>

	<!-- QrBody  -->
	<g id="QrBody">

		<!-- BODY     -->
		<g id="BODY" fill="#011620">
			<circle cx="10.5" cy="1.5" r="0.5"/>
			<circle cx="12.5" cy="1.5" r="0.5"/>
			<circle cx="13.5" cy="1.5" r="0.5"/>
			<circle cx="14.5" cy="1.5" r="0.5"/>
			<circle cx="16.5" cy="1.5" r="0.5"/>
			<circle cx="18.5" cy="1.5" r="0.5"/>
			<circle cx="19.5" cy="1.5" r="0.5"/>
			<circle cx="20.5" cy="1.5" r="0.5"/>
			<circle cx="21.5" cy="1.5" r="0.5"/>
			<circle cx="10.5" cy="2.5" r="0.5"/>
			<circle cx="11.5" cy="2.5" r="0.5"/>
			<circle cx="14.5" cy="2.5" r="0.5"/>
			<circle cx="15.5" cy="2.5" r="0.5"/>
			<circle cx="16.5" cy="2.5" r="0.5"/>
			<circle cx="18.5" cy="2.5" r="0.5"/>
			<circle cx="21.5" cy="2.5" r="0.5"/>
			<circle cx="9.5" cy="3.5" r="0.5"/>
			<circle cx="14.5" cy="3.5" r="0.5"/>
			<circle cx="16.5" cy="3.5" r="0.5"/>
			<circle cx="19.5" cy="3.5" r="0.5"/>
			<circle cx="21.5" cy="3.5" r="0.5"/>
			<circle cx="9.5" cy="4.5" r="0.5"/>
			<circle cx="10.5" cy="4.5" r="0.5"/>
			<circle cx="11.5" cy="4.5" r="0.5"/>
			<circle cx="15.5" cy="4.5" r="0.5"/>
			<circle cx="18.5" cy="4.5" r="0.5"/>
			<circle cx="9.5" cy="5.5" r="0.5"/>
			<circle cx="10.5" cy="5.5" r="0.5"/>
			<circle cx="16.5" cy="5.5" r="0.5"/>
			<circle cx="17.5" cy="5.5" r="0.5"/>
			<circle cx="18.5" cy="5.5" r="0.5"/>
			<circle cx="19.5" cy="5.5" r="0.5"/>
			<circle cx="20.5" cy="5.5" r="0.5"/>
			<circle cx="21.5" cy="5.5" r="0.5"/>
			<circle cx="9.5" cy="6.5" r="0.5"/>
			<circle cx="11.5" cy="6.5" r="0.5"/>
			<circle cx="12.5" cy="6.5" r="0.5"/>
			<circle cx="16.5" cy="6.5" r="0.5"/>
			<circle cx="17.5" cy="6.5" r="0.5"/>
			<circle cx="18.5" cy="6.5" r="0.5"/>
			<circle cx="19.5" cy="6.5" r="0.5"/>
			<circle cx="21.5" cy="6.5" r="0.5"/>
			<circle cx="9.5" cy="7.5" r="0.5"/>
			<circle cx="11.5" cy="7.5" r="0.5"/>
			<circle cx="13.5" cy="7.5" r="0.5"/>
			<circle cx="15.5" cy="7.5" r="0.5"/>
			<circle cx="17.5" cy="7.5" r="0.5"/>
			<circle cx="19.5" cy="7.5" r="0.5"/>
			<circle cx="21.5" cy="7.5" r="0.5"/>
			<circle cx="9.5" cy="8.5" r="0.5"/>
			<circle cx="11.5" cy="8.5" r="0.5"/>
			<circle cx="15.5" cy="8.5" r="0.5"/>
			<circle cx="1.5" cy="9.5" r="0.5"/>
			<circle cx="3.5" cy="9.5" r="0.5"/>
			<circle cx="4.5" cy="9.5" r="0.5"/>
			<circle cx="5.5" cy="9.5" r="0.5"/>
			<circle cx="6.5" cy="9.5" r="0.5"/>
			<circle cx="7.5" cy="9.5" r="0.5"/>
			<circle cx="11.5" cy="9.5" r="0.5"/>
			<circle cx="13.5" cy="9.5" r="0.5"/>
			<circle cx="16.5" cy="9.5" r="0.5"/>
			<circle cx="18.5" cy="9.5" r="0.5"/>
			<circle cx="20.5" cy="9.5" r="0.5"/>
			<circle cx="23.5" cy="9.5" r="0.5"/>
			<circle cx="24.5" cy="9.5" r="0.5"/>
			<circle cx="25.5" cy="9.5" r="0.5"/>
			<circle cx="26.5" cy="9.5" r="0.5"/>
			<circle cx="27.5" cy="9.5" r="0.5"/>
			<circle cx="3.5" cy="10.5" r="0.5"/>
			<circle cx="4.5" cy="10.5" r="0.5"/>
			<circle cx="6.5" cy="10.5" r="0.5"/>
			<circle cx="8.5" cy="10.5" r="0.5"/>
			<circle cx="9.5" cy="10.5" r="0.5"/>
			<circle cx="10.5" cy="10.5" r="0.5"/>
			<circle cx="13.5" cy="10.5" r="0.5"/>
			<circle cx="14.5" cy="10.5" r="0.5"/>
			<circle cx="15.5" cy="10.5" r="0.5"/>
			<circle cx="16.5" cy="10.5" r="0.5"/>
			<circle cx="17.5" cy="10.5" r="0.5"/>
			<circle cx="18.5" cy="10.5" r="0.5"/>
			<circle cx="19.5" cy="10.5" r="0.5"/>
			<circle cx="20.5" cy="10.5" r="0.5"/>
			<circle cx="21.5" cy="10.5" r="0.5"/>
			<circle cx="22.5" cy="10.5" r="0.5"/>
			<circle cx="23.5" cy="10.5" r="0.5"/>
			<circle cx="24.5" cy="10.5" r="0.5"/>
			<circle cx="25.5" cy="10.5" r="0.5"/>
			<circle cx="27.5" cy="10.5" r="0.5"/>
			<circle cx="28.5" cy="10.5" r="0.5"/>
			<circle cx="29.5" cy="10.5" r="0.5"/>
			<circle cx="1.5" cy="11.5" r="0.5"/>
			<circle cx="2.5" cy="11.5" r="0.5"/>
			<circle cx="3.5" cy="11.5" r="0.5"/>
			<circle cx="4.5" cy="11.5" r="0.5"/>
			<circle cx="7.5" cy="11.5" r="0.5"/>
			<circle cx="10.5" cy="11.5" r="0.5"/>
			<circle cx="11.5" cy="11.5" r="0.5"/>
			<circle cx="12.5" cy="11.5" r="0.5"/>
			<circle cx="13.5" cy="11.5" r="0.5"/>
			<circle cx="14.5" cy="11.5" r="0.5"/>
			<circle cx="15.5" cy="11.5" r="0.5"/>
			<circle cx="16.5" cy="11.5" r="0.5"/>
			<circle cx="17.5" cy="11.5" r="0.5"/>
			<circle cx="19.5" cy="11.5" r="0.5"/>
			<circle cx="21.5" cy="11.5" r="0.5"/>
			<circle cx="22.5" cy="11.5" r="0.5"/>
			<circle cx="3.5" cy="12.5" r="0.5"/>
			<circle cx="5.5" cy="12.5" r="0.5"/>
			<circle cx="13.5" cy="12.5" r="0.5"/>
			<circle cx="14.5" cy="12.5" r="0.5"/>
			<circle cx="16.5" cy="12.5" r="0.5"/>
			<circle cx="17.5" cy="12.5" r="0.5"/>
			<circle cx="20.5" cy="12.5" r="0.5"/>
			<circle cx="25.5" cy="12.5" r="0.5"/>
			<circle cx="26.5" cy="12.5" r="0.5"/>
			<circle cx="28.5" cy="12.5" r="0.5"/>
			<circle cx="3.5" cy="13.5" r="0.5"/>
			<circle cx="4.5" cy="13.5" r="0.5"/>
			<circle cx="6.5" cy="13.5" r="0.5"/>
			<circle cx="7.5" cy="13.5" r="0.5"/>
			<circle cx="9.5" cy="13.5" r="0.5"/>
			<circle cx="11.5" cy="13.5" r="0.5"/>
			<circle cx="13.5" cy="13.5" r="0.5"/>
			<circle cx="15.5" cy="13.5" r="0.5"/>
			<circle cx="16.5" cy="13.5" r="0.5"/>
			<circle cx="17.5" cy="13.5" r="0.5"/>
			<circle cx="18.5" cy="13.5" r="0.5"/>
			<circle cx="21.5" cy="13.5" r="0.5"/>
			<circle cx="26.5" cy="13.5" r="0.5"/>
			<circle cx="27.5" cy="13.5" r="0.5"/>
			<circle cx="1.5" cy="14.5" r="0.5"/>
			<circle cx="2.5" cy="14.5" r="0.5"/>
			<circle cx="4.5" cy="14.5" r="0.5"/>
			<circle cx="8.5" cy="14.5" r="0.5"/>
			<circle cx="10.5" cy="14.5" r="0.5"/>
			<circle cx="13.5" cy="14.5" r="0.5"/>
			<circle cx="16.5" cy="14.5" r="0.5"/>
			<circle cx="17.5" cy="14.5" r="0.5"/>
			<circle cx="19.5" cy="14.5" r="0.5"/>
			<circle cx="21.5" cy="14.5" r="0.5"/>
			<circle cx="22.5" cy="14.5" r="0.5"/>
			<circle cx="23.5" cy="14.5" r="0.5"/>
			<circle cx="24.5" cy="14.5" r="0.5"/>
			<circle cx="25.5" cy="14.5" r="0.5"/>
			<circle cx="26.5" cy="14.5" r="0.5"/>
			<circle cx="29.5" cy="14.5" r="0.5"/>
			<circle cx="5.5" cy="15.5" r="0.5"/>
			<circle cx="7.5" cy="15.5" r="0.5"/>
			<circle cx="9.5" cy="15.5" r="0.5"/>
			<circle cx="10.5" cy="15.5" r="0.5"/>
			<circle cx="16.5" cy="15.5" r="0.5"/>
			<circle cx="17.5" cy="15.5" r="0.5"/>
			<circle cx="21.5" cy="15.5" r="0.5"/>
			<circle cx="22.5" cy="15.5" r="0.5"/>
			<circle cx="23.5" cy="15.5" r="0.5"/>
			<circle cx="24.5" cy="15.5" r="0.5"/>
			<circle cx="26.5" cy="15.5" r="0.5"/>
			<circle cx="1.5" cy="16.5" r="0.5"/>
			<circle cx="2.5" cy="16.5" r="0.5"/>
			<circle cx="3.5" cy="16.5" r="0.5"/>
			<circle cx="5.5" cy="16.5" r="0.5"/>
			<circle cx="8.5" cy="16.5" r="0.5"/>
			<circle cx="12.5" cy="16.5" r="0.5"/>
			<circle cx="15.5" cy="16.5" r="0.5"/>
			<circle cx="17.5" cy="16.5" r="0.5"/>
			<circle cx="20.5" cy="16.5" r="0.5"/>
			<circle cx="21.5" cy="16.5" r="0.5"/>
			<circle cx="22.5" cy="16.5" r="0.5"/>
			<circle cx="23.5" cy="16.5" r="0.5"/>
			<circle cx="24.5" cy="16.5" r="0.5"/>
			<circle cx="26.5" cy="16.5" r="0.5"/>
			<circle cx="1.5" cy="17.5" r="0.5"/>
			<circle cx="2.5" cy="17.5" r="0.5"/>
			<circle cx="3.5" cy="17.5" r="0.5"/>
			<circle cx="4.5" cy="17.5" r="0.5"/>
			<circle cx="5.5" cy="17.5" r="0.5"/>
			<circle cx="7.5" cy="17.5" r="0.5"/>
			<circle cx="10.5" cy="17.5" r="0.5"/>
			<circle cx="11.5" cy="17.5" r="0.5"/>
			<circle cx="12.5" cy="17.5" r="0.5"/>
			<circle cx="18.5" cy="17.5" r="0.5"/>
			<circle cx="20.5" cy="17.5" r="0.5"/>
			<circle cx="27.5" cy="17.5" r="0.5"/>
			<circle cx="28.5" cy="17.5" r="0.5"/>
			<circle cx="29.5" cy="17.5" r="0.5"/>
			<circle cx="1.5" cy="18.5" r="0.5"/>
			<circle cx="2.5" cy="18.5" r="0.5"/>
			<circle cx="6.5" cy="18.5" r="0.5"/>
			<circle cx="8.5" cy="18.5" r="0.5"/>
			<circle cx="9.5" cy="18.5" r="0.5"/>
			<circle cx="11.5" cy="18.5" r="0.5"/>
			<circle cx="14.5" cy="18.5" r="0.5"/>
			<circle cx="15.5" cy="18.5" r="0.5"/>
			<circle cx="16.5" cy="18.5" r="0.5"/>
			<circle cx="17.5" cy="18.5" r="0.5"/>
			<circle cx="20.5" cy="18.5" r="0.5"/>
			<circle cx="23.5" cy="18.5" r="0.5"/>
			<circle cx="25.5" cy="18.5" r="0.5"/>
			<circle cx="28.5" cy="18.5" r="0.5"/>
			<circle cx="29.5" cy="18.5" r="0.5"/>
			<circle cx="1.5" cy="19.5" r="0.5"/>
			<circle cx="3.5" cy="19.5" r="0.5"/>
			<circle cx="5.5" cy="19.5" r="0.5"/>
			<circle cx="7.5" cy="19.5" r="0.5"/>
			<circle cx="9.5" cy="19.5" r="0.5"/>
			<circle cx="11.5" cy="19.5" r="0.5"/>
			<circle cx="14.5" cy="19.5" r="0.5"/>
			<circle cx="15.5" cy="19.5" r="0.5"/>
			<circle cx="16.5" cy="19.5" r="0.5"/>
			<circle cx="18.5" cy="19.5" r="0.5"/>
			<circle cx="22.5" cy="19.5" r="0.5"/>
			<circle cx="24.5" cy="19.5" r="0.5"/>
			<circle cx="25.5" cy="19.5" r="0.5"/>
			<circle cx="27.5" cy="19.5" r="0.5"/>
			<circle cx="1.5" cy="20.5" r="0.5"/>
			<circle cx="4.5" cy="20.5" r="0.5"/>
			<circle cx="8.5" cy="20.5" r="0.5"/>
			<circle cx="10.5" cy="20.5" r="0.5"/>
			<circle cx="14.5" cy="20.5" r="0.5"/>
			<circle cx="16.5" cy="20.5" r="0.5"/>
			<circle cx="17.5" cy="20.5" r="0.5"/>
			<circle cx="20.5" cy="20.5" r="0.5"/>
			<circle cx="21.5" cy="20.5" r="0.5"/>
			<circle cx="22.5" cy="20.5" r="0.5"/>
			<circle cx="23.5" cy="20.5" r="0.5"/>
			<circle cx="24.5" cy="20.5" r="0.5"/>
			<circle cx="29.5" cy="20.5" r="0.5"/>
			<circle cx="1.5" cy="21.5" r="0.5"/>
			<circle cx="3.5" cy="21.5" r="0.5"/>
			<circle cx="5.5" cy="21.5" r="0.5"/>
			<circle cx="7.5" cy="21.5" r="0.5"/>
			<circle cx="11.5" cy="21.5" r="0.5"/>
			<circle cx="15.5" cy="21.5" r="0.5"/>
			<circle cx="16.5" cy="21.5" r="0.5"/>
			<circle cx="17.5" cy="21.5" r="0.5"/>
			<circle cx="18.5" cy="21.5" r="0.5"/>
			<circle cx="20.5" cy="21.5" r="0.5"/>
			<circle cx="21.5" cy="21.5" r="0.5"/>
			<circle cx="22.5" cy="21.5" r="0.5"/>
			<circle cx="23.5" cy="21.5" r="0.5"/>
			<circle cx="24.5" cy="21.5" r="0.5"/>
			<circle cx="25.5" cy="21.5" r="0.5"/>
			<circle cx="27.5" cy="21.5" r="0.5"/>
			<circle cx="9.5" cy="22.5" r="0.5"/>
			<circle cx="12.5" cy="22.5" r="0.5"/>
			<circle cx="13.5" cy="22.5" r="0.5"/>
			<circle cx="16.5" cy="22.5" r="0.5"/>
			<circle cx="17.5" cy="22.5" r="0.5"/>
			<circle cx="18.5" cy="22.5" r="0.5"/>
			<circle cx="19.5" cy="22.5" r="0.5"/>
			<circle cx="21.5" cy="22.5" r="0.5"/>
			<circle cx="25.5" cy="22.5" r="0.5"/>
			<circle cx="26.5" cy="22.5" r="0.5"/>
			<circle cx="27.5" cy="22.5" r="0.5"/>
			<circle cx="28.5" cy="22.5" r="0.5"/>
			<circle cx="29.5" cy="22.5" r="0.5"/>
			<circle cx="12.5" cy="23.5" r="0.5"/>
			<circle cx="13.5" cy="23.5" r="0.5"/>
			<circle cx="16.5" cy="23.5" r="0.5"/>
			<circle cx="17.5" cy="23.5" r="0.5"/>
			<circle cx="19.5" cy="23.5" r="0.5"/>
			<circle cx="20.5" cy="23.5" r="0.5"/>
			<circle cx="21.5" cy="23.5" r="0.5"/>
			<circle cx="23.5" cy="23.5" r="0.5"/>
			<circle cx="25.5" cy="23.5" r="0.5"/>
			<circle cx="27.5" cy="23.5" r="0.5"/>
			<circle cx="9.5" cy="24.5" r="0.5"/>
			<circle cx="10.5" cy="24.5" r="0.5"/>
			<circle cx="13.5" cy="24.5" r="0.5"/>
			<circle cx="15.5" cy="24.5" r="0.5"/>
			<circle cx="17.5" cy="24.5" r="0.5"/>
			<circle cx="20.5" cy="24.5" r="0.5"/>
			<circle cx="21.5" cy="24.5" r="0.5"/>
			<circle cx="25.5" cy="24.5" r="0.5"/>
			<circle cx="26.5" cy="24.5" r="0.5"/>
			<circle cx="28.5" cy="24.5" r="0.5"/>
			<circle cx="9.5" cy="25.5" r="0.5"/>
			<circle cx="10.5" cy="25.5" r="0.5"/>
			<circle cx="11.5" cy="25.5" r="0.5"/>
			<circle cx="12.5" cy="25.5" r="0.5"/>
			<circle cx="17.5" cy="25.5" r="0.5"/>
			<circle cx="18.5" cy="25.5" r="0.5"/>
			<circle cx="21.5" cy="25.5" r="0.5"/>
			<circle cx="22.5" cy="25.5" r="0.5"/>
			<circle cx="23.5" cy="25.5" r="0.5"/>
			<circle cx="24.5" cy="25.5" r="0.5"/>
			<circle cx="25.5" cy="25.5" r="0.5"/>
			<circle cx="27.5" cy="25.5" r="0.5"/>
			<circle cx="9.5" cy="26.5" r="0.5"/>
			<circle cx="10.5" cy="26.5" r="0.5"/>
			<circle cx="13.5" cy="26.5" r="0.5"/>
			<circle cx="14.5" cy="26.5" r="0.5"/>
			<circle cx="15.5" cy="26.5" r="0.5"/>
			<circle cx="16.5" cy="26.5" r="0.5"/>
			<circle cx="17.5" cy="26.5" r="0.5"/>
			<circle cx="19.5" cy="26.5" r="0.5"/>
			<circle cx="20.5" cy="26.5" r="0.5"/>
			<circle cx="28.5" cy="26.5" r="0.5"/>
			<circle cx="29.5" cy="26.5" r="0.5"/>
			<circle cx="9.5" cy="27.5" r="0.5"/>
			<circle cx="12.5" cy="27.5" r="0.5"/>
			<circle cx="13.5" cy="27.5" r="0.5"/>
			<circle cx="16.5" cy="27.5" r="0.5"/>
			<circle cx="18.5" cy="27.5" r="0.5"/>
			<circle cx="19.5" cy="27.5" r="0.5"/>
			<circle cx="22.5" cy="27.5" r="0.5"/>
			<circle cx="23.5" cy="27.5" r="0.5"/>
			<circle cx="24.5" cy="27.5" r="0.5"/>
			<circle cx="25.5" cy="27.5" r="0.5"/>
			<circle cx="26.5" cy="27.5" r="0.5"/>
			<circle cx="27.5" cy="27.5" r="0.5"/>
			<circle cx="28.5" cy="27.5" r="0.5"/>
			<circle cx="10.5" cy="28.5" r="0.5"/>
			<circle cx="12.5" cy="28.5" r="0.5"/>
			<circle cx="15.5" cy="28.5" r="0.5"/>
			<circle cx="21.5" cy="28.5" r="0.5"/>
			<circle cx="22.5" cy="28.5" r="0.5"/>
			<circle cx="24.5" cy="28.5" r="0.5"/>
			<circle cx="26.5" cy="28.5" r="0.5"/>
			<circle cx="28.5" cy="28.5" r="0.5"/>
			<circle cx="9.5" cy="29.5" r="0.5"/>
			<circle cx="10.5" cy="29.5" r="0.5"/>
			<circle cx="11.5" cy="29.5" r="0.5"/>
			<circle cx="17.5" cy="29.5" r="0.5"/>
			<circle cx="18.5" cy="29.5" r="0.5"/>
			<circle cx="20.5" cy="29.5" r="0.5"/>
			<circle cx="24.5" cy="29.5" r="0.5"/>
			<circle cx="27.5" cy="29.5" r="0.5"/>
		</g>
		<!-- EYEFRAME -->
		<g id="EYEFRAME"  stroke="#011620" fill="none" stroke-width="1" >
			<circle cx="4.5" cy="4.5" r="3" />
			<circle cx="26.5" cy="4.5" r="3" />
			<circle cx="4.5" cy="26.5" r="3" />
		</g>
		<!-- EYEBALL -->
		<g id="EYEBALL" fill="#011620">
			<circle cx="4.5" cy="4.5" r="1.75"/>
			<circle cx="26.5" cy="4.5" r="1.75"/>
			<circle cx="4.5" cy="26.5" r="1.75"/>
		</g>
	</g>
</svg>
