%TF.GenerationSoftware,KiCad,Pcbnew,9.0.7+1*%
%TF.CreationDate,Date%
%TF.ProjectId,Sienkiewicz_TOUCH,5369656e-6b69-4657-9769-637a5f544f55,2.0.1*%
%TF.SameCoordinates,Original*%
%TF.FileFunction,Copper,L2,Bot*%
%TF.FilePolarity,Positive*%
%FSLAX46Y46*%
G04 Gerber Fmt 4.6, Leading zero omitted, Abs format (unit mm)*
G04 Created by KiCad*
%MOMM*%
%LPD*%
G01*
G04 APERTURE LIST*
%TA.AperFunction,Conductor*%
%ADD10C,0.400000*%
%TD*%
%TA.AperFunction,ComponentPad*%
%ADD11C,0.800000*%
%TD*%
%TA.AperFunction,ComponentPad*%
%ADD12C,6.400000*%
%TD*%
%TA.AperFunction,SMDPad,CuDef*%
%ADD13C,4.000000*%
%TD*%
%TA.AperFunction,ConnectorPad*%
%ADD14C,0.787400*%
%TD*%
%TA.AperFunction,ViaPad*%
%ADD15C,0.550000*%
%TD*%
%TA.AperFunction,Conductor*%
%ADD16C,0.200000*%
%TD*%
G04 APERTURE END LIST*
D10*
%TO.N,VCC*%
X166500000Y-103000000D02*
G75*
G02*
X161500000Y-108000000I-5000000J0D01*
G01*
X165500000Y-77000000D02*
G75*
G02*
X166500000Y-78000000I0J-1000000D01*
G01*
%TD*%
D11*
%TO.P,B1,1,CLK*%
%TO.N,/Project Architecture/Section B - uC/SR_CLK*%
X133100000Y-77000000D03*
X133802944Y-75302944D03*
X133802944Y-78697056D03*
X135500000Y-74600000D03*
D12*
X135500000Y-77000000D03*
D11*
X135500000Y-79400000D03*
X137197056Y-75302944D03*
X137197056Y-78697056D03*
X137900000Y-77000000D03*
%TO.P,B1,2,VCC*%
%TO.N,VCC*%
X159100000Y-77000000D03*
X159802944Y-75302944D03*
X159802944Y-78697056D03*
X161500000Y-74600000D03*
D12*
X161500000Y-77000000D03*
D11*
X161500000Y-79400000D03*
X163197056Y-75302944D03*
X163197056Y-78697056D03*
X163900000Y-77000000D03*
%TO.P,B1,3,LATCH*%
%TO.N,/Project Architecture/Section B - uC/SR_LATCH*%
X159100000Y-103000000D03*
X159802944Y-101302944D03*
X159802944Y-104697056D03*
X161500000Y-100600000D03*
D12*
X161500000Y-103000000D03*
D11*
X161500000Y-105400000D03*
X163197056Y-101302944D03*
X163197056Y-104697056D03*
X163900000Y-103000000D03*
%TO.P,B1,4,SDI*%
%TO.N,/Project Architecture/Section B - uC/SR_SDI*%
X133100000Y-103000000D03*
X133802944Y-101302944D03*
X133802944Y-104697056D03*
X135500000Y-100600000D03*
D12*
X135500000Y-103000000D03*
D11*
X135500000Y-105400000D03*
X137197056Y-101302944D03*
X137197056Y-104697056D03*
X137900000Y-103000000D03*
%TO.P,B1,5,GND*%
%TO.N,GND*%
X146100000Y-100000000D03*
X146802944Y-98302944D03*
X146802944Y-101697056D03*
X148500000Y-97600000D03*
D12*
X148500000Y-100000000D03*
D11*
X148500000Y-102400000D03*
X150197056Y-98302944D03*
X150197056Y-101697056D03*
X150900000Y-100000000D03*
%TD*%
D13*
%TO.P,TouP1,1,TOUCH*%
%TO.N,/Project Architecture/Section C - Touch sensor/TOUCH*%
X148500000Y-89000000D03*
%TD*%
D14*
%TO.P,J1,1,VCC*%
%TO.N,unconnected-(J1-VCC-Pad1)*%
X147230000Y-104865000D03*
%TO.P,J1,2,SWDIO*%
%TO.N,VCC*%
X147230000Y-106135000D03*
%TO.P,J1,3,~{RESET}*%
%TO.N,unconnected-(J1-~{RESET}-Pad3)*%
X148500000Y-104865000D03*
%TO.P,J1,4,SWCLK*%
%TO.N,/Project Architecture/Section B - uC/UPDI*%
X148500000Y-106135000D03*
%TO.P,J1,5,GND*%
%TO.N,GND*%
X149770000Y-104865000D03*
%TO.P,J1,6,SWO*%
%TO.N,unconnected-(J1-SWO-Pad6)*%
X149770000Y-106135000D03*
%TD*%
D15*
%TO.N,GND*%
X164500000Y-82000000D03*
X162500000Y-81000000D03*
X139500000Y-88000000D03*
X160000000Y-95000000D03*
X165500000Y-88000000D03*
X136500000Y-91000000D03*
X136500000Y-73000000D03*
X137000000Y-97500000D03*
X131000000Y-90500000D03*
X157500000Y-77000000D03*
X157500000Y-74000000D03*
X133500000Y-88000000D03*
X165500000Y-86000000D03*
X154500000Y-98000000D03*
X130500000Y-82000000D03*
X143500000Y-81000000D03*
X155500000Y-82000000D03*
X157500000Y-85000000D03*
X163000000Y-99000000D03*
X142500000Y-79000000D03*
X158000000Y-105500000D03*
X143500000Y-104000000D03*
X138500000Y-73000000D03*
X165500000Y-84000000D03*
X146500000Y-81000000D03*
X161500000Y-73000000D03*
X157500000Y-88000000D03*
X139500000Y-91000000D03*
X139500000Y-84000000D03*
X130500000Y-86000000D03*
X163500000Y-85000000D03*
X139500000Y-79000000D03*
X139500000Y-90000000D03*
X153500000Y-81000000D03*
X152500000Y-79000000D03*
X131000000Y-92500000D03*
X138500000Y-91000000D03*
X131500000Y-102000000D03*
X165500000Y-104000000D03*
X157500000Y-73000000D03*
X164500000Y-81000000D03*
X157500000Y-95000000D03*
X139500000Y-77000000D03*
X164500000Y-84000000D03*
X131000000Y-94500000D03*
X165500000Y-87000000D03*
X130500000Y-76000000D03*
X157500000Y-91000000D03*
X131500000Y-77000000D03*
X139500000Y-86000000D03*
X165500000Y-82000000D03*
X164500000Y-83000000D03*
X157500000Y-78000000D03*
X136500000Y-107000000D03*
X133000000Y-97500000D03*
X155500000Y-97000000D03*
X131500000Y-81000000D03*
X160500000Y-73000000D03*
X151500000Y-79000000D03*
X144500000Y-79000000D03*
X143500000Y-79000000D03*
X145000000Y-97500000D03*
X163500000Y-81000000D03*
X157500000Y-75000000D03*
X141000000Y-97500000D03*
X161500000Y-107000000D03*
X131500000Y-103000000D03*
X157500000Y-92000000D03*
X130500000Y-81000000D03*
X141500000Y-82000000D03*
X130500000Y-80000000D03*
X158500000Y-107000000D03*
X137500000Y-73000000D03*
X165500000Y-83000000D03*
X159500000Y-73000000D03*
X157500000Y-106000000D03*
X157500000Y-90000000D03*
X157500000Y-84000000D03*
X131500000Y-83000000D03*
X130500000Y-103000000D03*
X139000000Y-97500000D03*
X130500000Y-77000000D03*
X130500000Y-84000000D03*
X145500000Y-81000000D03*
X140000000Y-97500000D03*
X142500000Y-104000000D03*
X139500000Y-73000000D03*
X157500000Y-86000000D03*
X143000000Y-97500000D03*
X131500000Y-80000000D03*
X150500000Y-81000000D03*
X157500000Y-93000000D03*
X157500000Y-94000000D03*
X153500000Y-99000000D03*
X154500000Y-79000000D03*
X131000000Y-93500000D03*
X134000000Y-97500000D03*
X134500000Y-73000000D03*
X139500000Y-89000000D03*
X157500000Y-87000000D03*
X131500000Y-78000000D03*
X131000000Y-91500000D03*
X132500000Y-84000000D03*
X131500000Y-104000000D03*
X139500000Y-106000000D03*
X163000000Y-97000000D03*
X157500000Y-89000000D03*
X155500000Y-104000000D03*
X163000000Y-98000000D03*
X156500000Y-83000000D03*
X165500000Y-102000000D03*
X152500000Y-81000000D03*
X165500000Y-76000000D03*
X158500000Y-73000000D03*
X135000000Y-97500000D03*
X145500000Y-79000000D03*
X165500000Y-81000000D03*
X142500000Y-81000000D03*
X159000000Y-106500000D03*
X160000000Y-96000000D03*
X130500000Y-78000000D03*
X164500000Y-85000000D03*
X163000000Y-95000000D03*
X135500000Y-107000000D03*
X154500000Y-81000000D03*
X142000000Y-97500000D03*
X144500000Y-81000000D03*
X130500000Y-87000000D03*
X153500000Y-79000000D03*
X131500000Y-84000000D03*
X130500000Y-104000000D03*
X165500000Y-80000000D03*
X165500000Y-78000000D03*
X139000000Y-105500000D03*
X165500000Y-85000000D03*
X138000000Y-106500000D03*
X132000000Y-96500000D03*
X147500000Y-81000000D03*
X132500000Y-88000000D03*
X131500000Y-82000000D03*
X134500000Y-108000000D03*
X165500000Y-103000000D03*
X149500000Y-81000000D03*
X156500000Y-96000000D03*
X130500000Y-102000000D03*
X136000000Y-97500000D03*
X138500000Y-107000000D03*
X151500000Y-81000000D03*
X131500000Y-88000000D03*
X139500000Y-85000000D03*
X139500000Y-87000000D03*
X148500000Y-81000000D03*
X134500000Y-107000000D03*
X165500000Y-79000000D03*
X130500000Y-88000000D03*
X134500000Y-88000000D03*
X136500000Y-108000000D03*
X157500000Y-76000000D03*
X139500000Y-75000000D03*
X154500000Y-104000000D03*
X140500000Y-83000000D03*
X131000000Y-95500000D03*
X160500000Y-107000000D03*
X138000000Y-97500000D03*
X130500000Y-83000000D03*
X144000000Y-97500000D03*
X135500000Y-108000000D03*
X163000000Y-96000000D03*
X162500000Y-73000000D03*
X139500000Y-74000000D03*
X139500000Y-78000000D03*
X165500000Y-89000000D03*
X162500000Y-85000000D03*
X132500000Y-80000000D03*
X130500000Y-85000000D03*
X137500000Y-91000000D03*
X152500000Y-99000000D03*
X139500000Y-76000000D03*
X131500000Y-76000000D03*
X162500000Y-107000000D03*
%TO.N,/Project Architecture/Section B - uC/UPDI*%
X148500000Y-107000000D03*
%TO.N,/Project Architecture/Section C - Touch sensor/TOUCH*%
X144500000Y-95000000D03*
X143500000Y-95000000D03*
%TD*%
D16*
%TO.N,/Project Architecture/Section B - uC/UPDI*%
X148500000Y-106135000D02*
X148500000Y-107000000D01*
D10*
%TO.N,VCC*%
X166500000Y-103000000D02*
X166500000Y-78000000D01*
X147230000Y-107230000D02*
X147230000Y-106135000D01*
X148000000Y-108000000D02*
X147230000Y-107230000D01*
X161500000Y-108000000D02*
X148000000Y-108000000D01*
X165500000Y-77000000D02*
X161500000Y-77000000D01*
D16*
X161500000Y-77000000D02*
X163900000Y-77000000D01*
%TD*%
%TA.AperFunction,Conductor*%
%TO.N,GND*%
G36*
X161501934Y-71250576D02*
G01*
X161947225Y-71268071D01*
X161954956Y-71268680D01*
X162395572Y-71320830D01*
X162403217Y-71322041D01*
X162838394Y-71408603D01*
X162845928Y-71410412D01*
X163272958Y-71530847D01*
X163280329Y-71533242D01*
X163696608Y-71686816D01*
X163703762Y-71689779D01*
X164106701Y-71875536D01*
X164113597Y-71879050D01*
X164500719Y-72095848D01*
X164507326Y-72099897D01*
X164745413Y-72258982D01*
X164876241Y-72346399D01*
X164882529Y-72350968D01*
X165230943Y-72625635D01*
X165236854Y-72630683D01*
X165562653Y-72931849D01*
X165568150Y-72937346D01*
X165869316Y-73263145D01*
X165874364Y-73269056D01*
X166149031Y-73617470D01*
X166153600Y-73623758D01*
X166400095Y-73992662D01*
X166404155Y-73999288D01*
X166553184Y-74265399D01*
X166620941Y-74386387D01*
X166624468Y-74393309D01*
X166772131Y-74713615D01*
X166810214Y-74796224D01*
X166813189Y-74803405D01*
X166966753Y-75219659D01*
X166969155Y-75227052D01*
X167089584Y-75654059D01*
X167091399Y-75661618D01*
X167177955Y-76096765D01*
X167179171Y-76104443D01*
X167231318Y-76545034D01*
X167231928Y-76552783D01*
X167249424Y-76998065D01*
X167249500Y-77001952D01*
X167249500Y-102998047D01*
X167249424Y-103001934D01*
X167231928Y-103447216D01*
X167231318Y-103454965D01*
X167179171Y-103895556D01*
X167177955Y-103903234D01*
X167091399Y-104338381D01*
X167089584Y-104345940D01*
X166969155Y-104772947D01*
X166966753Y-104780340D01*
X166813189Y-105196594D01*
X166810214Y-105203775D01*
X166624470Y-105606686D01*
X166620941Y-105613612D01*
X166404157Y-106000708D01*
X166400095Y-106007337D01*
X166153600Y-106376241D01*
X166149031Y-106382529D01*
X165874364Y-106730943D01*
X165869316Y-106736854D01*
X165568150Y-107062653D01*
X165562653Y-107068150D01*
X165236854Y-107369316D01*
X165230943Y-107374364D01*
X164882529Y-107649031D01*
X164876241Y-107653600D01*
X164507337Y-107900095D01*
X164500708Y-107904157D01*
X164113612Y-108120941D01*
X164106686Y-108124470D01*
X163703775Y-108310214D01*
X163696594Y-108313189D01*
X163280340Y-108466753D01*
X163272947Y-108469155D01*
X162845940Y-108589584D01*
X162838381Y-108591399D01*
X162403234Y-108677955D01*
X162395556Y-108679171D01*
X161954965Y-108731318D01*
X161947216Y-108731928D01*
X161501934Y-108749424D01*
X161498047Y-108749500D01*
X135501953Y-108749500D01*
X135498066Y-108749424D01*
X135052783Y-108731928D01*
X135045034Y-108731318D01*
X134604443Y-108679171D01*
X134596765Y-108677955D01*
X134161618Y-108591399D01*
X134154059Y-108589584D01*
X133727052Y-108469155D01*
X133719659Y-108466753D01*
X133303405Y-108313189D01*
X133296224Y-108310214D01*
X132893313Y-108124470D01*
X132886392Y-108120943D01*
X132499288Y-107904155D01*
X132492662Y-107900095D01*
X132123758Y-107653600D01*
X132117470Y-107649031D01*
X131769056Y-107374364D01*
X131763145Y-107369316D01*
X131437346Y-107068150D01*
X131431849Y-107062653D01*
X131130683Y-106736854D01*
X131125635Y-106730943D01*
X130850968Y-106382529D01*
X130846399Y-106376241D01*
X130725831Y-106195799D01*
X130599897Y-106007326D01*
X130595848Y-106000719D01*
X130379050Y-105613597D01*
X130375536Y-105606701D01*
X130189779Y-105203762D01*
X130186816Y-105196608D01*
X130033242Y-104780329D01*
X130030847Y-104772958D01*
X129910412Y-104345928D01*
X129908603Y-104338394D01*
X129822041Y-103903217D01*
X129820830Y-103895572D01*
X129768680Y-103454956D01*
X129768071Y-103447216D01*
X129766250Y-103400873D01*
X129750576Y-103001934D01*
X129750500Y-102998047D01*
X129750500Y-102832946D01*
X132099500Y-102832946D01*
X132099500Y-103167053D01*
X132132248Y-103499555D01*
X132197431Y-103827253D01*
X132294414Y-104146967D01*
X132422273Y-104455645D01*
X132422286Y-104455672D01*
X132579773Y-104750312D01*
X132698199Y-104927547D01*
X132765399Y-105028118D01*
X132783837Y-105050585D01*
X132975908Y-105284625D01*
X132977357Y-105286390D01*
X133213610Y-105522643D01*
X133471882Y-105734601D01*
X133599989Y-105820200D01*
X133749687Y-105920226D01*
X134044327Y-106077713D01*
X134044346Y-106077723D01*
X134353024Y-106205582D01*
X134353026Y-106205582D01*
X134353032Y-106205585D01*
X134629376Y-106289412D01*
X134672749Y-106302569D01*
X135000441Y-106367751D01*
X135332944Y-106400500D01*
X135332947Y-106400500D01*
X135667053Y-106400500D01*
X135667056Y-106400500D01*
X135999559Y-106367751D01*
X136327251Y-106302569D01*
X136516857Y-106245052D01*
X136646967Y-106205585D01*
X136646969Y-106205583D01*
X136646976Y-106205582D01*
X136955654Y-106077723D01*
X137144562Y-105976750D01*
X137250312Y-105920226D01*
X137272138Y-105905642D01*
X137528118Y-105734601D01*
X137786390Y-105522643D01*
X137877566Y-105431467D01*
X145264200Y-105431467D01*
X145264200Y-105568532D01*
X145290939Y-105702956D01*
X145290939Y-105702958D01*
X145343387Y-105829580D01*
X145343393Y-105829591D01*
X145389202Y-105898148D01*
X145419537Y-105943547D01*
X145516453Y-106040463D01*
X145572202Y-106077713D01*
X145630408Y-106116606D01*
X145630419Y-106116612D01*
X145674812Y-106135000D01*
X145757043Y-106169061D01*
X145891470Y-106195800D01*
X145891471Y-106195800D01*
X146028529Y-106195800D01*
X146028530Y-106195800D01*
X146162957Y-106169061D01*
X146289585Y-106116610D01*
X146403547Y-106040463D01*
X146467260Y-105976750D01*
X146521776Y-105948972D01*
X146582208Y-105958543D01*
X146625473Y-106001807D01*
X146633808Y-106050283D01*
X146635800Y-106050283D01*
X146635800Y-106056772D01*
X146635800Y-106213228D01*
X146665672Y-106324711D01*
X146676295Y-106364357D01*
X146754518Y-106499842D01*
X146754520Y-106499844D01*
X146754522Y-106499847D01*
X146800505Y-106545830D01*
X146828281Y-106600345D01*
X146829500Y-106615832D01*
X146829500Y-107177273D01*
X146829500Y-107282727D01*
X146831975Y-107291963D01*
X146856794Y-107384592D01*
X146909516Y-107475908D01*
X146909517Y-107475909D01*
X146909518Y-107475910D01*
X146909520Y-107475913D01*
X147333702Y-107900095D01*
X147679519Y-108245912D01*
X147679520Y-108245913D01*
X147679519Y-108245913D01*
X147723686Y-108290079D01*
X147754087Y-108320480D01*
X147845413Y-108373207D01*
X147947273Y-108400500D01*
X147947275Y-108400500D01*
X161723358Y-108400500D01*
X161723366Y-108400500D01*
X162168573Y-108363609D01*
X162609213Y-108290079D01*
X163042276Y-108180413D01*
X163464803Y-108035359D01*
X163873909Y-107855908D01*
X164266799Y-107643287D01*
X164640788Y-107398948D01*
X164993323Y-107124559D01*
X165321995Y-106821995D01*
X165624559Y-106493323D01*
X165898948Y-106140788D01*
X166143287Y-105766799D01*
X166355908Y-105373909D01*
X166526777Y-104984368D01*
X166535353Y-104964817D01*
X166535353Y-104964815D01*
X166535359Y-104964803D01*
X166680413Y-104542276D01*
X166790079Y-104109213D01*
X166863609Y-103668573D01*
X166900500Y-103223366D01*
X166900500Y-103000000D01*
X166900500Y-102942417D01*
X166900500Y-77947273D01*
X166900500Y-77889778D01*
X166900500Y-77889774D01*
X166877510Y-77744625D01*
X166866015Y-77672049D01*
X166797895Y-77462394D01*
X166697815Y-77265978D01*
X166568242Y-77087635D01*
X166412365Y-76931758D01*
X166234022Y-76802185D01*
X166234021Y-76802184D01*
X166234019Y-76802183D01*
X166144825Y-76756736D01*
X166037606Y-76702105D01*
X166037602Y-76702104D01*
X166037599Y-76702102D01*
X165827948Y-76633984D01*
X165610225Y-76599500D01*
X165610222Y-76599500D01*
X165552727Y-76599500D01*
X164967236Y-76599500D01*
X164909045Y-76580593D01*
X164873081Y-76531093D01*
X164868713Y-76510205D01*
X164867752Y-76500450D01*
X164867751Y-76500444D01*
X164867751Y-76500441D01*
X164802569Y-76172749D01*
X164779520Y-76096765D01*
X164705585Y-75853032D01*
X164626299Y-75661618D01*
X164577723Y-75544346D01*
X164490477Y-75381119D01*
X164420226Y-75249687D01*
X164327412Y-75110783D01*
X164234601Y-74971882D01*
X164022643Y-74713610D01*
X163786390Y-74477357D01*
X163528118Y-74265399D01*
X163458667Y-74218993D01*
X163250312Y-74079773D01*
X162955672Y-73922286D01*
X162955660Y-73922280D01*
X162955654Y-73922277D01*
X162955649Y-73922274D01*
X162955645Y-73922273D01*
X162646967Y-73794414D01*
X162327253Y-73697431D01*
X162106777Y-73653576D01*
X161999559Y-73632249D01*
X161999557Y-73632248D01*
X161756491Y-73608308D01*
X161667056Y-73599500D01*
X161332944Y-73599500D01*
X161234700Y-73609176D01*
X161000444Y-73632248D01*
X160672746Y-73697431D01*
X160353032Y-73794414D01*
X160044354Y-73922273D01*
X160044327Y-73922286D01*
X159749687Y-74079773D01*
X159471880Y-74265400D01*
X159213615Y-74477352D01*
X158977352Y-74713615D01*
X158765400Y-74971880D01*
X158579773Y-75249687D01*
X158422286Y-75544327D01*
X158422273Y-75544354D01*
X158294414Y-75853032D01*
X158197431Y-76172746D01*
X158132248Y-76500444D01*
X158099500Y-76832946D01*
X158099500Y-77167053D01*
X158132248Y-77499555D01*
X158197431Y-77827253D01*
X158294414Y-78146967D01*
X158422273Y-78455645D01*
X158422286Y-78455672D01*
X158579773Y-78750312D01*
X158718993Y-78958667D01*
X158765399Y-79028118D01*
X158977357Y-79286390D01*
X159213610Y-79522643D01*
X159471882Y-79734601D01*
X159610783Y-79827412D01*
X159749687Y-79920226D01*
X160044327Y-80077713D01*
X160044346Y-80077723D01*
X160353024Y-80205582D01*
X160353026Y-80205582D01*
X160353032Y-80205585D01*
X160629376Y-80289412D01*
X160672749Y-80302569D01*
X161000441Y-80367751D01*
X161332944Y-80400500D01*
X161332947Y-80400500D01*
X161667053Y-80400500D01*
X161667056Y-80400500D01*
X161999559Y-80367751D01*
X162327251Y-80302569D01*
X162516857Y-80245052D01*
X162646967Y-80205585D01*
X162646969Y-80205583D01*
X162646976Y-80205582D01*
X162955654Y-80077723D01*
X163099640Y-80000760D01*
X163250312Y-79920226D01*
X163250315Y-79920224D01*
X163528118Y-79734601D01*
X163786390Y-79522643D01*
X164022643Y-79286390D01*
X164234601Y-79028118D01*
X164420224Y-78750315D01*
X164577723Y-78455654D01*
X164705582Y-78146976D01*
X164802569Y-77827251D01*
X164867751Y-77499559D01*
X164868713Y-77489795D01*
X164893234Y-77433738D01*
X164946021Y-77402800D01*
X164967236Y-77400500D01*
X165442417Y-77400500D01*
X165494444Y-77400500D01*
X165505512Y-77401121D01*
X165622325Y-77414283D01*
X165643921Y-77419212D01*
X165749589Y-77456186D01*
X165769556Y-77465802D01*
X165807740Y-77489795D01*
X165864336Y-77525357D01*
X165881668Y-77539178D01*
X165960821Y-77618331D01*
X165974642Y-77635663D01*
X166034195Y-77730440D01*
X166043815Y-77750415D01*
X166080786Y-77856074D01*
X166085718Y-77877686D01*
X166098877Y-77994470D01*
X166099500Y-78005555D01*
X166099500Y-102997835D01*
X166099406Y-103002153D01*
X166082186Y-103396557D01*
X166081433Y-103405161D01*
X166030186Y-103794413D01*
X166028686Y-103802918D01*
X165943712Y-104186212D01*
X165941477Y-104194555D01*
X165823415Y-104568999D01*
X165820461Y-104577114D01*
X165670216Y-104939840D01*
X165666566Y-104947668D01*
X165485282Y-105295910D01*
X165480964Y-105303390D01*
X165270008Y-105634525D01*
X165265054Y-105641599D01*
X165026054Y-105953069D01*
X165020503Y-105959685D01*
X164755258Y-106249150D01*
X164749150Y-106255258D01*
X164459685Y-106520503D01*
X164453069Y-106526054D01*
X164141599Y-106765054D01*
X164134525Y-106770008D01*
X163803390Y-106980964D01*
X163795910Y-106985282D01*
X163447668Y-107166566D01*
X163439840Y-107170216D01*
X163077114Y-107320461D01*
X163068999Y-107323415D01*
X162694555Y-107441477D01*
X162686212Y-107443712D01*
X162302918Y-107528686D01*
X162294413Y-107530186D01*
X161905161Y-107581433D01*
X161896557Y-107582186D01*
X161502153Y-107599406D01*
X161497835Y-107599500D01*
X148782108Y-107599500D01*
X148723917Y-107580593D01*
X148687953Y-107531093D01*
X148687953Y-107469907D01*
X148723917Y-107420407D01*
X148732598Y-107414769D01*
X148791964Y-107380495D01*
X148880495Y-107291964D01*
X148943095Y-107183536D01*
X148975500Y-107062601D01*
X148975500Y-106937399D01*
X148943095Y-106816464D01*
X148880495Y-106708036D01*
X148880492Y-106708033D01*
X148877250Y-106702417D01*
X148879958Y-106700853D01*
X148863774Y-106655259D01*
X148881108Y-106596580D01*
X148892730Y-106582594D01*
X148975478Y-106499847D01*
X148979245Y-106493323D01*
X149049264Y-106372048D01*
X149094733Y-106331107D01*
X149155584Y-106324711D01*
X149208572Y-106355304D01*
X149220736Y-106372048D01*
X149294518Y-106499842D01*
X149294520Y-106499844D01*
X149294522Y-106499847D01*
X149405153Y-106610478D01*
X149405155Y-106610479D01*
X149405157Y-106610481D01*
X149540643Y-106688704D01*
X149540644Y-106688704D01*
X149540647Y-106688706D01*
X149691772Y-106729200D01*
X149691774Y-106729200D01*
X149848226Y-106729200D01*
X149848228Y-106729200D01*
X149999353Y-106688706D01*
X149999355Y-106688704D01*
X149999357Y-106688704D01*
X150134842Y-106610481D01*
X150134842Y-106610480D01*
X150134847Y-106610478D01*
X150182804Y-106562520D01*
X150237318Y-106534744D01*
X150297750Y-106544315D01*
X150341015Y-106587579D01*
X150349904Y-106613210D01*
X150370939Y-106718958D01*
X150423387Y-106845580D01*
X150423393Y-106845591D01*
X150469202Y-106914148D01*
X150499537Y-106959547D01*
X150596453Y-107056463D01*
X150631643Y-107079976D01*
X150710408Y-107132606D01*
X150710419Y-107132612D01*
X150757193Y-107151986D01*
X150837043Y-107185061D01*
X150971470Y-107211800D01*
X150971471Y-107211800D01*
X151108529Y-107211800D01*
X151108530Y-107211800D01*
X151242957Y-107185061D01*
X151369585Y-107132610D01*
X151483547Y-107056463D01*
X151580463Y-106959547D01*
X151656610Y-106845585D01*
X151709061Y-106718957D01*
X151735800Y-106584530D01*
X151735800Y-106447470D01*
X151709061Y-106313043D01*
X151682596Y-106249150D01*
X151656612Y-106186419D01*
X151656606Y-106186408D01*
X151609969Y-106116612D01*
X151580463Y-106072453D01*
X151483547Y-105975537D01*
X151435669Y-105943546D01*
X151369591Y-105899393D01*
X151369580Y-105899387D01*
X151242957Y-105846939D01*
X151108532Y-105820200D01*
X151108530Y-105820200D01*
X150971470Y-105820200D01*
X150971467Y-105820200D01*
X150837043Y-105846939D01*
X150837041Y-105846939D01*
X150710419Y-105899387D01*
X150710408Y-105899393D01*
X150596453Y-105975537D01*
X150596443Y-105975545D01*
X150517362Y-106054626D01*
X150462845Y-106082403D01*
X150402413Y-106072831D01*
X150359149Y-106029567D01*
X150351735Y-106010254D01*
X150323706Y-105905647D01*
X150323704Y-105905644D01*
X150323704Y-105905642D01*
X150245481Y-105770157D01*
X150245479Y-105770155D01*
X150245478Y-105770153D01*
X150134847Y-105659522D01*
X150057673Y-105614965D01*
X150016734Y-105569497D01*
X150010338Y-105508647D01*
X150040931Y-105455659D01*
X150069295Y-105437764D01*
X150074904Y-105435440D01*
X150128112Y-105399888D01*
X149798996Y-105070772D01*
X149795369Y-105063654D01*
X149788907Y-105058959D01*
X149781743Y-105036910D01*
X149771219Y-105016255D01*
X149770000Y-105000768D01*
X149770000Y-104927231D01*
X149785260Y-104880261D01*
X149770000Y-104865001D01*
X149770000Y-104865000D01*
X149769999Y-104865000D01*
X149769998Y-104864999D01*
X149946775Y-104864999D01*
X150304887Y-105223112D01*
X150340441Y-105169903D01*
X150388962Y-105052761D01*
X150388963Y-105052757D01*
X150391948Y-105037752D01*
X150421843Y-104984368D01*
X150477407Y-104958750D01*
X150537417Y-104970686D01*
X150559050Y-104987060D01*
X150596453Y-105024463D01*
X150658399Y-105065854D01*
X150710408Y-105100606D01*
X150710419Y-105100612D01*
X150757193Y-105119986D01*
X150837043Y-105153061D01*
X150971470Y-105179800D01*
X150971471Y-105179800D01*
X151108529Y-105179800D01*
X151108530Y-105179800D01*
X151242957Y-105153061D01*
X151369585Y-105100610D01*
X151483547Y-105024463D01*
X151580463Y-104927547D01*
X151656610Y-104813585D01*
X151709061Y-104686957D01*
X151735800Y-104552530D01*
X151735800Y-104415470D01*
X151709061Y-104281043D01*
X151656610Y-104154415D01*
X151656609Y-104154413D01*
X151656606Y-104154408D01*
X151625860Y-104108394D01*
X151580463Y-104040453D01*
X151483547Y-103943537D01*
X151438148Y-103913202D01*
X151369591Y-103867393D01*
X151369580Y-103867387D01*
X151242957Y-103814939D01*
X151108532Y-103788200D01*
X151108530Y-103788200D01*
X150971470Y-103788200D01*
X150971467Y-103788200D01*
X150837043Y-103814939D01*
X150837041Y-103814939D01*
X150710419Y-103867387D01*
X150710408Y-103867393D01*
X150596453Y-103943537D01*
X150596449Y-103943540D01*
X150499540Y-104040449D01*
X150499537Y-104040453D01*
X150423393Y-104154408D01*
X150423387Y-104154419D01*
X150370939Y-104281041D01*
X150370939Y-104281043D01*
X150344200Y-104415467D01*
X150344200Y-104426567D01*
X150325293Y-104484758D01*
X150315204Y-104496571D01*
X149946775Y-104864999D01*
X149769998Y-104864999D01*
X149755962Y-104850963D01*
X149752715Y-104854210D01*
X149707770Y-104865000D01*
X149634232Y-104865000D01*
X149576041Y-104846093D01*
X149564229Y-104836004D01*
X149235111Y-104506887D01*
X149199559Y-104560095D01*
X149197231Y-104565715D01*
X149157491Y-104612238D01*
X149097996Y-104626518D01*
X149041469Y-104603100D01*
X149020035Y-104577327D01*
X148975478Y-104500153D01*
X148864847Y-104389522D01*
X148864844Y-104389520D01*
X148864842Y-104389518D01*
X148761944Y-104330110D01*
X149411886Y-104330110D01*
X149769999Y-104688222D01*
X150128111Y-104330110D01*
X150074903Y-104294558D01*
X149957760Y-104246037D01*
X149833401Y-104221300D01*
X149706598Y-104221300D01*
X149582240Y-104246037D01*
X149582238Y-104246037D01*
X149465093Y-104294559D01*
X149465092Y-104294560D01*
X149411886Y-104330110D01*
X148761944Y-104330110D01*
X148729356Y-104311295D01*
X148729357Y-104311295D01*
X148711500Y-104306510D01*
X148578228Y-104270800D01*
X148421772Y-104270800D01*
X148333106Y-104294558D01*
X148270642Y-104311295D01*
X148135157Y-104389518D01*
X148024520Y-104500155D01*
X147950736Y-104627952D01*
X147905266Y-104668892D01*
X147844416Y-104675287D01*
X147791428Y-104644694D01*
X147779264Y-104627952D01*
X147705479Y-104500155D01*
X147705478Y-104500153D01*
X147594847Y-104389522D01*
X147594844Y-104389520D01*
X147594842Y-104389518D01*
X147459356Y-104311295D01*
X147459357Y-104311295D01*
X147441500Y-104306510D01*
X147308228Y-104270800D01*
X147151772Y-104270800D01*
X147063106Y-104294558D01*
X147000642Y-104311295D01*
X146865157Y-104389518D01*
X146754518Y-104500157D01*
X146676295Y-104635642D01*
X146653655Y-104720135D01*
X146637524Y-104780340D01*
X146635800Y-104786773D01*
X146635800Y-104949717D01*
X146633679Y-104949717D01*
X146624259Y-105000499D01*
X146579870Y-105042609D01*
X146519206Y-105050585D01*
X146467260Y-105023250D01*
X146403550Y-104959540D01*
X146403547Y-104959537D01*
X146355198Y-104927231D01*
X146289591Y-104883393D01*
X146289580Y-104883387D01*
X146162957Y-104830939D01*
X146028532Y-104804200D01*
X146028530Y-104804200D01*
X145891470Y-104804200D01*
X145891467Y-104804200D01*
X145757043Y-104830939D01*
X145757041Y-104830939D01*
X145630419Y-104883387D01*
X145630408Y-104883393D01*
X145516453Y-104959537D01*
X145516449Y-104959540D01*
X145419540Y-105056449D01*
X145419537Y-105056453D01*
X145343393Y-105170408D01*
X145343387Y-105170419D01*
X145290939Y-105297041D01*
X145290939Y-105297043D01*
X145264200Y-105431467D01*
X137877566Y-105431467D01*
X138022643Y-105286390D01*
X138234601Y-105028118D01*
X138420224Y-104750315D01*
X138453414Y-104688222D01*
X138512689Y-104577324D01*
X138577723Y-104455654D01*
X138705582Y-104146976D01*
X138802569Y-103827251D01*
X138867751Y-103499559D01*
X138900500Y-103167056D01*
X138900500Y-102832946D01*
X158099500Y-102832946D01*
X158099500Y-103167053D01*
X158132248Y-103499555D01*
X158197431Y-103827253D01*
X158294414Y-104146967D01*
X158422273Y-104455645D01*
X158422286Y-104455672D01*
X158579773Y-104750312D01*
X158698199Y-104927547D01*
X158765399Y-105028118D01*
X158783837Y-105050585D01*
X158975908Y-105284625D01*
X158977357Y-105286390D01*
X159213610Y-105522643D01*
X159471882Y-105734601D01*
X159599989Y-105820200D01*
X159749687Y-105920226D01*
X160044327Y-106077713D01*
X160044346Y-106077723D01*
X160353024Y-106205582D01*
X160353026Y-106205582D01*
X160353032Y-106205585D01*
X160629376Y-106289412D01*
X160672749Y-106302569D01*
X161000441Y-106367751D01*
X161332944Y-106400500D01*
X161332947Y-106400500D01*
X161667053Y-106400500D01*
X161667056Y-106400500D01*
X161999559Y-106367751D01*
X162327251Y-106302569D01*
X162516857Y-106245052D01*
X162646967Y-106205585D01*
X162646969Y-106205583D01*
X162646976Y-106205582D01*
X162955654Y-106077723D01*
X163144562Y-105976750D01*
X163250312Y-105920226D01*
X163272138Y-105905642D01*
X163528118Y-105734601D01*
X163786390Y-105522643D01*
X164022643Y-105286390D01*
X164234601Y-105028118D01*
X164420224Y-104750315D01*
X164453414Y-104688222D01*
X164512689Y-104577324D01*
X164577723Y-104455654D01*
X164705582Y-104146976D01*
X164802569Y-103827251D01*
X164867751Y-103499559D01*
X164900500Y-103167056D01*
X164900500Y-102832944D01*
X164867751Y-102500441D01*
X164802569Y-102172749D01*
X164789412Y-102129376D01*
X164705585Y-101853032D01*
X164577726Y-101544354D01*
X164577723Y-101544346D01*
X164577713Y-101544327D01*
X164420226Y-101249687D01*
X164327412Y-101110783D01*
X164234601Y-100971882D01*
X164022643Y-100713610D01*
X163786390Y-100477357D01*
X163528118Y-100265399D01*
X163458667Y-100218993D01*
X163250312Y-100079773D01*
X162955672Y-99922286D01*
X162955660Y-99922280D01*
X162955654Y-99922277D01*
X162955649Y-99922274D01*
X162955645Y-99922273D01*
X162646967Y-99794414D01*
X162327253Y-99697431D01*
X162106777Y-99653576D01*
X161999559Y-99632249D01*
X161999557Y-99632248D01*
X161756491Y-99608308D01*
X161667056Y-99599500D01*
X161332944Y-99599500D01*
X161234700Y-99609176D01*
X161000444Y-99632248D01*
X160672746Y-99697431D01*
X160353032Y-99794414D01*
X160044354Y-99922273D01*
X160044327Y-99922286D01*
X159749687Y-100079773D01*
X159471880Y-100265400D01*
X159213615Y-100477352D01*
X158977352Y-100713615D01*
X158765400Y-100971880D01*
X158579773Y-101249687D01*
X158422286Y-101544327D01*
X158422273Y-101544354D01*
X158294414Y-101853032D01*
X158197431Y-102172746D01*
X158132248Y-102500444D01*
X158099500Y-102832946D01*
X138900500Y-102832946D01*
X138900500Y-102832944D01*
X138867751Y-102500441D01*
X138802569Y-102172749D01*
X138789412Y-102129376D01*
X138705585Y-101853032D01*
X138577726Y-101544354D01*
X138577723Y-101544346D01*
X138577713Y-101544327D01*
X138420226Y-101249687D01*
X138327412Y-101110783D01*
X138234601Y-100971882D01*
X138022643Y-100713610D01*
X137786390Y-100477357D01*
X137528118Y-100265399D01*
X137458667Y-100218993D01*
X137250312Y-100079773D01*
X136955672Y-99922286D01*
X136955660Y-99922280D01*
X136955654Y-99922277D01*
X136955649Y-99922274D01*
X136955645Y-99922273D01*
X136646967Y-99794414D01*
X136327253Y-99697431D01*
X136106777Y-99653576D01*
X135999559Y-99632249D01*
X135999557Y-99632248D01*
X135756491Y-99608308D01*
X135667056Y-99599500D01*
X135332944Y-99599500D01*
X135234700Y-99609176D01*
X135000444Y-99632248D01*
X134672746Y-99697431D01*
X134353032Y-99794414D01*
X134044354Y-99922273D01*
X134044327Y-99922286D01*
X133749687Y-100079773D01*
X133471880Y-100265400D01*
X133213615Y-100477352D01*
X132977352Y-100713615D01*
X132765400Y-100971880D01*
X132579773Y-101249687D01*
X132422286Y-101544327D01*
X132422273Y-101544354D01*
X132294414Y-101853032D01*
X132197431Y-102172746D01*
X132132248Y-102500444D01*
X132099500Y-102832946D01*
X129750500Y-102832946D01*
X129750500Y-90000286D01*
X140494500Y-90000286D01*
X140494500Y-92999647D01*
X140494507Y-93003366D01*
X140494510Y-93004177D01*
X140494524Y-93007033D01*
X140494939Y-93070514D01*
X140495016Y-93082285D01*
X140495426Y-93105107D01*
X140495427Y-93105151D01*
X140495431Y-93105292D01*
X140495593Y-93110813D01*
X140496542Y-93134051D01*
X140504445Y-93284834D01*
X140506156Y-93310963D01*
X140506662Y-93317402D01*
X140509074Y-93343674D01*
X140523935Y-93485070D01*
X140524827Y-93493548D01*
X140527930Y-93519754D01*
X140527942Y-93519850D01*
X140528784Y-93526247D01*
X140532540Y-93552134D01*
X140552380Y-93677398D01*
X140552390Y-93677461D01*
X140552394Y-93677488D01*
X140556102Y-93700892D01*
X140560563Y-93726850D01*
X140561755Y-93733279D01*
X140566869Y-93758987D01*
X140598185Y-93906326D01*
X140603959Y-93931851D01*
X140605490Y-93938232D01*
X140611975Y-93963772D01*
X140611989Y-93963827D01*
X140650971Y-94109308D01*
X140658131Y-94134692D01*
X140659975Y-94140916D01*
X140667766Y-94166004D01*
X140714299Y-94309217D01*
X140714317Y-94309269D01*
X140722756Y-94334132D01*
X140724901Y-94340190D01*
X140734046Y-94364981D01*
X140787992Y-94505514D01*
X140797803Y-94530103D01*
X140800243Y-94535993D01*
X140810660Y-94560237D01*
X140871868Y-94697716D01*
X140882835Y-94721514D01*
X140885598Y-94727309D01*
X140892130Y-94740556D01*
X140897340Y-94751123D01*
X140965722Y-94885328D01*
X140977233Y-94907205D01*
X140978015Y-94908691D01*
X140981105Y-94914381D01*
X140993947Y-94937310D01*
X141069218Y-95067683D01*
X141069241Y-95067722D01*
X141074128Y-95075937D01*
X141082719Y-95090377D01*
X141085058Y-95094194D01*
X141086084Y-95095867D01*
X141100114Y-95118103D01*
X141182155Y-95244436D01*
X141182174Y-95244464D01*
X141196833Y-95266400D01*
X141200474Y-95271698D01*
X141200489Y-95271719D01*
X141215627Y-95293137D01*
X141215641Y-95293156D01*
X141215651Y-95293170D01*
X141304140Y-95414966D01*
X141319856Y-95436014D01*
X141323829Y-95441192D01*
X141340152Y-95461898D01*
X141434924Y-95578932D01*
X141451794Y-95599214D01*
X141455965Y-95604098D01*
X141455985Y-95604121D01*
X141455998Y-95604136D01*
X141473331Y-95623901D01*
X141574099Y-95735816D01*
X141591995Y-95755175D01*
X141596464Y-95759884D01*
X141614807Y-95778713D01*
X141721286Y-95885192D01*
X141740115Y-95903535D01*
X141744824Y-95908004D01*
X141764183Y-95925900D01*
X141876098Y-96026668D01*
X141895863Y-96044001D01*
X141900799Y-96048217D01*
X141921059Y-96065068D01*
X142038102Y-96159848D01*
X142058824Y-96176183D01*
X142063975Y-96180135D01*
X142085017Y-96195847D01*
X142085067Y-96195883D01*
X142206842Y-96284359D01*
X142228306Y-96299528D01*
X142233716Y-96303246D01*
X142255528Y-96317821D01*
X142255567Y-96317846D01*
X142255577Y-96317853D01*
X142381875Y-96399872D01*
X142404121Y-96413908D01*
X142409656Y-96417300D01*
X142432298Y-96430771D01*
X142562712Y-96506065D01*
X142585624Y-96518897D01*
X142585640Y-96518905D01*
X142585662Y-96518918D01*
X142588274Y-96520336D01*
X142591329Y-96521995D01*
X142614672Y-96534278D01*
X142748860Y-96602651D01*
X142772538Y-96614327D01*
X142778403Y-96617124D01*
X142794589Y-96624584D01*
X142802247Y-96628114D01*
X142939822Y-96689365D01*
X142963950Y-96699732D01*
X142963991Y-96699749D01*
X142964005Y-96699755D01*
X142969895Y-96702195D01*
X142969946Y-96702216D01*
X142994444Y-96711991D01*
X143135040Y-96765961D01*
X143159766Y-96775082D01*
X143165886Y-96777249D01*
X143190782Y-96785700D01*
X143333995Y-96832233D01*
X143359083Y-96840024D01*
X143365307Y-96841868D01*
X143390691Y-96849028D01*
X143536172Y-96888010D01*
X143556455Y-96893159D01*
X143561766Y-96894508D01*
X143561779Y-96894511D01*
X143561814Y-96894520D01*
X143568128Y-96896035D01*
X143593684Y-96901816D01*
X143740977Y-96933123D01*
X143758167Y-96936542D01*
X143766745Y-96938249D01*
X143773170Y-96939440D01*
X143796965Y-96943528D01*
X143799108Y-96943897D01*
X143947837Y-96967454D01*
X143954285Y-96968389D01*
X143973804Y-96971221D01*
X143980229Y-96972067D01*
X143980237Y-96972067D01*
X143980245Y-96972069D01*
X144006470Y-96975174D01*
X144156255Y-96990917D01*
X144182510Y-96993329D01*
X144188981Y-96993838D01*
X144189022Y-96993840D01*
X144189026Y-96993841D01*
X144191312Y-96993990D01*
X144215204Y-96995556D01*
X144344578Y-97002336D01*
X144365998Y-97003459D01*
X144371766Y-97003694D01*
X144389064Y-97004402D01*
X144394742Y-97004569D01*
X144417715Y-97004982D01*
X144492954Y-97005475D01*
X144495823Y-97005490D01*
X144496192Y-97005491D01*
X144496535Y-97005493D01*
X144496536Y-97005493D01*
X144498625Y-97005496D01*
X144500353Y-97005500D01*
X144500438Y-97005500D01*
X147197559Y-97005500D01*
X147197560Y-97005500D01*
X147345096Y-96994617D01*
X147345107Y-96994615D01*
X147345110Y-96994615D01*
X147381076Y-96989280D01*
X147381077Y-96989280D01*
X147381079Y-96989279D01*
X147381089Y-96989278D01*
X147525431Y-96956866D01*
X147718109Y-96898417D01*
X147727524Y-96896058D01*
X148025875Y-96836713D01*
X148035456Y-96835293D01*
X148338200Y-96805477D01*
X148347903Y-96805000D01*
X148652106Y-96805000D01*
X148661809Y-96805477D01*
X148964529Y-96835290D01*
X148974115Y-96836712D01*
X149272497Y-96896063D01*
X149281883Y-96898415D01*
X149474567Y-96956865D01*
X149474576Y-96956867D01*
X149618894Y-96989275D01*
X149618899Y-96989276D01*
X149618903Y-96989276D01*
X149618914Y-96989279D01*
X149654908Y-96994618D01*
X149802440Y-97005500D01*
X152499563Y-97005500D01*
X152499647Y-97005500D01*
X152501358Y-97005496D01*
X152503475Y-97005493D01*
X152503811Y-97005491D01*
X152504185Y-97005490D01*
X152507044Y-97005475D01*
X152582285Y-97004982D01*
X152605263Y-97004569D01*
X152606297Y-97004538D01*
X152610929Y-97004403D01*
X152620362Y-97004016D01*
X152633999Y-97003459D01*
X152784795Y-96995556D01*
X152811018Y-96993838D01*
X152817489Y-96993329D01*
X152843744Y-96990917D01*
X152993529Y-96975174D01*
X153019754Y-96972069D01*
X153020135Y-96972018D01*
X153026194Y-96971221D01*
X153040832Y-96969097D01*
X153052162Y-96967454D01*
X153200891Y-96943897D01*
X153210722Y-96942207D01*
X153226828Y-96939440D01*
X153233253Y-96938249D01*
X153237358Y-96937432D01*
X153259022Y-96933123D01*
X153406315Y-96901816D01*
X153431871Y-96896035D01*
X153438185Y-96894520D01*
X153463827Y-96888010D01*
X153609308Y-96849028D01*
X153634692Y-96841868D01*
X153640916Y-96840024D01*
X153666004Y-96832233D01*
X153809217Y-96785700D01*
X153834113Y-96777249D01*
X153840233Y-96775082D01*
X153864959Y-96765961D01*
X154005555Y-96711991D01*
X154030053Y-96702216D01*
X154036049Y-96699732D01*
X154060177Y-96689365D01*
X154197752Y-96628114D01*
X154221595Y-96617124D01*
X154227456Y-96614329D01*
X154251139Y-96602651D01*
X154385327Y-96534278D01*
X154408670Y-96521995D01*
X154414375Y-96518897D01*
X154437287Y-96506065D01*
X154567701Y-96430771D01*
X154590343Y-96417300D01*
X154595878Y-96413908D01*
X154618124Y-96399872D01*
X154744422Y-96317853D01*
X154766313Y-96303225D01*
X154771663Y-96299548D01*
X154771666Y-96299545D01*
X154771692Y-96299528D01*
X154793156Y-96284359D01*
X154914982Y-96195847D01*
X154936024Y-96180135D01*
X154941175Y-96176183D01*
X154961897Y-96159848D01*
X155078940Y-96065068D01*
X155099200Y-96048217D01*
X155104136Y-96044001D01*
X155123901Y-96026668D01*
X155235816Y-95925900D01*
X155255175Y-95908004D01*
X155259884Y-95903535D01*
X155278713Y-95885192D01*
X155385192Y-95778713D01*
X155403535Y-95759884D01*
X155408004Y-95755175D01*
X155425900Y-95735816D01*
X155526668Y-95623901D01*
X155544001Y-95604136D01*
X155548217Y-95599200D01*
X155565068Y-95578940D01*
X155659848Y-95461897D01*
X155676183Y-95441175D01*
X155680135Y-95436024D01*
X155695847Y-95414982D01*
X155784359Y-95293156D01*
X155784372Y-95293137D01*
X155799528Y-95271692D01*
X155803246Y-95266282D01*
X155817821Y-95244470D01*
X155817825Y-95244464D01*
X155817853Y-95244422D01*
X155899872Y-95118124D01*
X155913908Y-95095878D01*
X155917300Y-95090343D01*
X155930771Y-95067701D01*
X156006065Y-94937287D01*
X156018897Y-94914375D01*
X156021995Y-94908670D01*
X156034278Y-94885327D01*
X156102651Y-94751139D01*
X156114329Y-94727456D01*
X156117124Y-94721595D01*
X156128114Y-94697752D01*
X156189365Y-94560177D01*
X156199732Y-94536049D01*
X156202216Y-94530053D01*
X156211991Y-94505555D01*
X156265961Y-94364959D01*
X156275082Y-94340233D01*
X156277249Y-94334113D01*
X156285700Y-94309217D01*
X156332233Y-94166004D01*
X156340024Y-94140916D01*
X156341868Y-94134692D01*
X156349028Y-94109308D01*
X156388010Y-93963827D01*
X156394520Y-93938185D01*
X156396035Y-93931871D01*
X156401816Y-93906315D01*
X156433123Y-93759022D01*
X156438252Y-93733237D01*
X156439435Y-93726855D01*
X156443897Y-93700891D01*
X156467454Y-93552162D01*
X156471221Y-93526191D01*
X156472069Y-93519754D01*
X156475174Y-93493529D01*
X156490917Y-93343744D01*
X156493329Y-93317489D01*
X156493838Y-93311018D01*
X156495556Y-93284795D01*
X156503459Y-93133999D01*
X156504016Y-93120362D01*
X156504403Y-93110929D01*
X156504568Y-93105292D01*
X156504571Y-93105151D01*
X156504982Y-93082286D01*
X156505475Y-93007049D01*
X156505490Y-93004170D01*
X156505493Y-93003357D01*
X156505500Y-92999647D01*
X156505500Y-90000286D01*
X156505498Y-89998367D01*
X156505497Y-89997843D01*
X156505490Y-89995512D01*
X156504999Y-89879335D01*
X156504825Y-89864379D01*
X156504755Y-89860715D01*
X156504364Y-89845958D01*
X156496510Y-89613565D01*
X156495795Y-89596633D01*
X156495583Y-89592450D01*
X156494578Y-89575468D01*
X156478898Y-89343722D01*
X156477615Y-89326865D01*
X156477525Y-89325812D01*
X156477269Y-89322766D01*
X156477238Y-89322438D01*
X156475680Y-89305697D01*
X156452179Y-89074600D01*
X156450319Y-89057730D01*
X156449825Y-89053571D01*
X156447679Y-89036718D01*
X156416386Y-88806536D01*
X156413928Y-88789545D01*
X156413293Y-88785405D01*
X156410608Y-88768823D01*
X156371568Y-88539885D01*
X156368608Y-88523361D01*
X156368029Y-88520278D01*
X156367835Y-88519243D01*
X156367283Y-88516437D01*
X156364520Y-88502385D01*
X156317754Y-88274821D01*
X156314161Y-88258062D01*
X156313248Y-88253974D01*
X156309443Y-88237584D01*
X156255038Y-88011812D01*
X156252982Y-88003582D01*
X156250962Y-87995493D01*
X156249906Y-87991415D01*
X156245489Y-87974930D01*
X156245485Y-87974914D01*
X156245477Y-87974884D01*
X156183454Y-87750987D01*
X156178748Y-87734543D01*
X156177561Y-87730525D01*
X156172646Y-87714387D01*
X156103119Y-87492790D01*
X156103107Y-87492754D01*
X156097916Y-87476681D01*
X156096613Y-87472761D01*
X156096601Y-87472724D01*
X156091084Y-87456584D01*
X156014093Y-87237407D01*
X156008313Y-87221386D01*
X156006868Y-87217485D01*
X156000855Y-87201662D01*
X155916493Y-86985174D01*
X155910185Y-86969384D01*
X155908626Y-86965575D01*
X155902068Y-86949928D01*
X155810456Y-86736446D01*
X155810435Y-86736397D01*
X155807172Y-86728970D01*
X155803600Y-86720837D01*
X155801883Y-86717016D01*
X155794816Y-86701637D01*
X155696064Y-86491413D01*
X155688751Y-86476180D01*
X155686907Y-86472420D01*
X155679267Y-86457169D01*
X155573462Y-86250377D01*
X155565604Y-86235334D01*
X155563633Y-86231637D01*
X155555508Y-86216703D01*
X155442781Y-86013609D01*
X155434421Y-85998841D01*
X155432327Y-85995214D01*
X155423706Y-85980569D01*
X155304182Y-85781394D01*
X155295237Y-85766773D01*
X155293021Y-85763219D01*
X155284001Y-85749019D01*
X155200033Y-85619240D01*
X155157828Y-85554008D01*
X155156889Y-85552583D01*
X155148527Y-85539894D01*
X155146207Y-85536437D01*
X155136572Y-85522339D01*
X155003859Y-85331665D01*
X155003822Y-85331613D01*
X155003791Y-85331568D01*
X154994027Y-85317791D01*
X154991555Y-85314365D01*
X154991540Y-85314344D01*
X154981537Y-85300723D01*
X154981478Y-85300644D01*
X154842519Y-85114717D01*
X154832139Y-85101071D01*
X154829587Y-85097774D01*
X154819145Y-85084521D01*
X154673866Y-84903245D01*
X154663235Y-84890206D01*
X154660507Y-84886916D01*
X154649517Y-84873893D01*
X154626237Y-84846775D01*
X154498208Y-84697640D01*
X154487050Y-84684861D01*
X154486984Y-84684787D01*
X154484258Y-84681717D01*
X154472887Y-84669131D01*
X154315707Y-84498083D01*
X154304100Y-84485664D01*
X154301210Y-84482624D01*
X154289410Y-84470418D01*
X154126561Y-84304795D01*
X154114513Y-84292748D01*
X154111621Y-84289905D01*
X154099360Y-84278051D01*
X153931017Y-84118028D01*
X153918768Y-84106580D01*
X153918601Y-84106424D01*
X153917927Y-84105805D01*
X153915558Y-84103627D01*
X153902838Y-84092135D01*
X153729240Y-83937937D01*
X153716448Y-83926767D01*
X153713253Y-83924025D01*
X153700378Y-83913160D01*
X153700325Y-83913116D01*
X153700293Y-83913089D01*
X153521518Y-83764787D01*
X153508348Y-83754048D01*
X153505080Y-83751429D01*
X153500837Y-83748088D01*
X153491733Y-83740917D01*
X153404953Y-83673745D01*
X153308077Y-83598757D01*
X153294636Y-83588531D01*
X153294569Y-83588481D01*
X153294531Y-83588452D01*
X153291294Y-83586031D01*
X153277574Y-83575957D01*
X153277537Y-83575930D01*
X153277518Y-83575916D01*
X153089117Y-83440004D01*
X153075089Y-83430066D01*
X153071681Y-83427695D01*
X153057830Y-83418229D01*
X153057807Y-83418213D01*
X152864958Y-83288766D01*
X152850716Y-83279379D01*
X152847205Y-83277108D01*
X152833017Y-83268097D01*
X152758990Y-83221956D01*
X152635780Y-83145158D01*
X152621123Y-83136195D01*
X152617537Y-83134044D01*
X152611270Y-83130356D01*
X152603120Y-83125559D01*
X152595410Y-83121108D01*
X152401906Y-83009388D01*
X152387119Y-83001016D01*
X152387118Y-83001015D01*
X152387066Y-83000986D01*
X152383549Y-82999034D01*
X152368615Y-82990909D01*
X152368597Y-82990899D01*
X152368585Y-82990892D01*
X152368560Y-82990879D01*
X152163597Y-82881601D01*
X152148482Y-82873706D01*
X152144805Y-82871824D01*
X152129730Y-82864271D01*
X151921082Y-82761924D01*
X151921060Y-82761913D01*
X151905711Y-82754545D01*
X151904914Y-82754170D01*
X151901959Y-82752782D01*
X151886648Y-82745748D01*
X151886557Y-82745707D01*
X151674630Y-82650492D01*
X151667383Y-82647309D01*
X151658952Y-82643607D01*
X151655176Y-82641987D01*
X151639586Y-82635454D01*
X151424682Y-82547500D01*
X151424643Y-82547484D01*
X151424620Y-82547475D01*
X151416572Y-82544260D01*
X151408758Y-82541139D01*
X151404975Y-82539665D01*
X151389037Y-82533609D01*
X151171254Y-82452950D01*
X151155287Y-82447189D01*
X151153373Y-82446517D01*
X151151400Y-82445824D01*
X151151339Y-82445803D01*
X151135318Y-82440326D01*
X150914820Y-82367033D01*
X150914696Y-82366993D01*
X150910507Y-82365639D01*
X150898562Y-82361781D01*
X150896402Y-82361103D01*
X150894598Y-82360538D01*
X150891007Y-82359444D01*
X150878419Y-82355612D01*
X150655710Y-82289847D01*
X150645798Y-82287010D01*
X150639586Y-82285232D01*
X150639533Y-82285217D01*
X150639511Y-82285211D01*
X150635648Y-82284140D01*
X150635649Y-82284140D01*
X150635612Y-82284130D01*
X150626114Y-82281583D01*
X150618996Y-82279675D01*
X150393952Y-82221407D01*
X150377645Y-82217331D01*
X150373547Y-82216343D01*
X150356906Y-82212481D01*
X150130234Y-82161895D01*
X150113510Y-82158312D01*
X150109367Y-82157462D01*
X150092900Y-82154224D01*
X150092888Y-82154221D01*
X150092869Y-82154218D01*
X149989769Y-82134839D01*
X149864622Y-82111316D01*
X149864597Y-82111311D01*
X149864573Y-82111307D01*
X149859525Y-82110402D01*
X149847804Y-82108301D01*
X149843808Y-82107620D01*
X149826921Y-82104886D01*
X149597446Y-82069733D01*
X149597425Y-82069730D01*
X149597360Y-82069720D01*
X149580568Y-82067292D01*
X149580192Y-82067241D01*
X149576372Y-82066721D01*
X149559621Y-82064588D01*
X149328886Y-82037180D01*
X149316438Y-82035807D01*
X149312115Y-82035331D01*
X149312106Y-82035330D01*
X149312069Y-82035326D01*
X149308066Y-82034918D01*
X149290972Y-82033325D01*
X149059468Y-82013727D01*
X149042756Y-82012453D01*
X149038563Y-82012168D01*
X149021412Y-82011152D01*
X148789429Y-81999388D01*
X148772445Y-81998671D01*
X148768219Y-81998528D01*
X148751359Y-81998101D01*
X148518978Y-81994177D01*
X148502130Y-81994036D01*
X148502072Y-81994036D01*
X148497928Y-81994036D01*
X148497870Y-81994036D01*
X148481022Y-81994177D01*
X148248638Y-81998101D01*
X148231713Y-81998530D01*
X148228223Y-81998648D01*
X148227541Y-81998672D01*
X148211054Y-81999368D01*
X148210555Y-81999390D01*
X147978539Y-82011156D01*
X147961596Y-82012159D01*
X147957403Y-82012443D01*
X147946917Y-82013242D01*
X147940498Y-82013731D01*
X147940476Y-82013732D01*
X147940461Y-82013734D01*
X147709017Y-82033326D01*
X147697174Y-82034429D01*
X147692158Y-82034896D01*
X147688103Y-82035308D01*
X147688057Y-82035313D01*
X147688038Y-82035315D01*
X147671165Y-82037174D01*
X147440442Y-82064580D01*
X147423519Y-82066736D01*
X147419306Y-82067309D01*
X147402643Y-82069719D01*
X147173088Y-82104884D01*
X147156294Y-82107602D01*
X147152259Y-82108290D01*
X147135478Y-82111296D01*
X146907130Y-82154216D01*
X146890500Y-82157488D01*
X146886499Y-82158310D01*
X146886490Y-82158312D01*
X146886432Y-82158324D01*
X146869775Y-82161893D01*
X146869733Y-82161902D01*
X146643067Y-82212487D01*
X146626512Y-82216328D01*
X146622560Y-82217280D01*
X146606000Y-82221418D01*
X146404370Y-82273624D01*
X146381047Y-82279664D01*
X146380927Y-82279695D01*
X146364534Y-82284087D01*
X146360613Y-82285175D01*
X146345293Y-82289560D01*
X146344350Y-82289830D01*
X146121586Y-82355612D01*
X146121518Y-82355632D01*
X146105267Y-82360579D01*
X146101335Y-82361813D01*
X146085295Y-82366993D01*
X145864595Y-82440354D01*
X145848567Y-82445834D01*
X145844864Y-82447134D01*
X145828733Y-82452954D01*
X145610936Y-82533618D01*
X145602206Y-82536936D01*
X145594928Y-82539703D01*
X145591244Y-82541139D01*
X145591062Y-82541210D01*
X145575318Y-82547499D01*
X145360404Y-82635456D01*
X145344743Y-82642020D01*
X145341030Y-82643613D01*
X145325271Y-82650533D01*
X145113438Y-82745707D01*
X145097938Y-82752830D01*
X145097871Y-82752861D01*
X145095863Y-82753804D01*
X145094103Y-82754631D01*
X145079014Y-82761877D01*
X144870341Y-82864236D01*
X144854961Y-82871943D01*
X144851437Y-82873747D01*
X144851426Y-82873753D01*
X144836470Y-82881566D01*
X144631382Y-82990909D01*
X144616495Y-82999009D01*
X144616379Y-82999072D01*
X144612828Y-83001043D01*
X144598070Y-83009398D01*
X144396949Y-83125517D01*
X144382382Y-83134090D01*
X144378946Y-83136151D01*
X144364288Y-83145115D01*
X144166954Y-83268114D01*
X144152796Y-83277106D01*
X144149283Y-83279379D01*
X144135123Y-83288711D01*
X143942095Y-83418276D01*
X143927891Y-83427989D01*
X143925121Y-83429918D01*
X143924498Y-83430353D01*
X143910913Y-83439983D01*
X143910888Y-83440001D01*
X143722445Y-83575942D01*
X143708816Y-83585949D01*
X143705531Y-83588404D01*
X143691981Y-83598710D01*
X143508177Y-83740986D01*
X143495101Y-83751284D01*
X143491732Y-83753983D01*
X143478538Y-83764738D01*
X143299620Y-83913159D01*
X143286603Y-83924147D01*
X143283558Y-83926762D01*
X143270718Y-83937974D01*
X143097051Y-84092232D01*
X143084319Y-84103739D01*
X143081228Y-84106580D01*
X143069059Y-84117956D01*
X142900616Y-84278074D01*
X142888404Y-84289879D01*
X142885459Y-84292774D01*
X142873467Y-84304765D01*
X142710556Y-84470451D01*
X142698769Y-84482644D01*
X142695933Y-84485627D01*
X142684385Y-84497982D01*
X142527077Y-84669170D01*
X142515723Y-84681737D01*
X142512990Y-84684814D01*
X142501828Y-84697594D01*
X142350416Y-84873969D01*
X142339490Y-84886917D01*
X142336835Y-84890119D01*
X142326128Y-84903250D01*
X142180851Y-85084522D01*
X142170389Y-85097803D01*
X142167891Y-85101030D01*
X142157530Y-85114648D01*
X142018488Y-85300686D01*
X142008452Y-85314354D01*
X142006019Y-85317725D01*
X141996175Y-85331613D01*
X141863400Y-85522376D01*
X141853762Y-85536478D01*
X141851519Y-85539820D01*
X141842154Y-85554032D01*
X141716005Y-85749006D01*
X141707136Y-85762964D01*
X141704937Y-85766488D01*
X141695820Y-85781386D01*
X141576250Y-85980639D01*
X141567710Y-85995145D01*
X141565664Y-85998688D01*
X141557228Y-86013589D01*
X141444481Y-86216718D01*
X141436257Y-86231836D01*
X141434360Y-86235398D01*
X141426596Y-86250263D01*
X141320708Y-86457215D01*
X141313061Y-86472479D01*
X141311277Y-86476116D01*
X141303918Y-86491445D01*
X141205149Y-86701709D01*
X141198076Y-86717105D01*
X141196402Y-86720830D01*
X141189561Y-86736406D01*
X141097907Y-86949986D01*
X141091302Y-86965746D01*
X141089759Y-86969519D01*
X141083527Y-86985120D01*
X140999108Y-87201754D01*
X140993093Y-87217582D01*
X140991688Y-87221377D01*
X140985917Y-87237370D01*
X140908925Y-87456553D01*
X140903416Y-87472666D01*
X140902144Y-87476490D01*
X140896891Y-87492754D01*
X140827333Y-87714452D01*
X140822451Y-87730478D01*
X140821272Y-87734465D01*
X140816561Y-87750922D01*
X140754511Y-87974914D01*
X140750088Y-87991431D01*
X140749038Y-87995487D01*
X140744974Y-88011759D01*
X140690558Y-88237571D01*
X140686755Y-88253954D01*
X140685859Y-88257967D01*
X140682246Y-88274812D01*
X140635481Y-88502373D01*
X140632159Y-88519261D01*
X140631388Y-88523373D01*
X140628439Y-88539831D01*
X140589391Y-88768819D01*
X140586703Y-88785421D01*
X140586075Y-88789511D01*
X140583617Y-88806503D01*
X140552312Y-89036776D01*
X140550188Y-89053447D01*
X140549696Y-89057587D01*
X140547825Y-89074553D01*
X140524311Y-89305786D01*
X140522748Y-89322537D01*
X140522404Y-89326599D01*
X140521103Y-89343677D01*
X140505422Y-89575441D01*
X140504412Y-89592506D01*
X140504207Y-89596560D01*
X140503486Y-89613638D01*
X140495635Y-89845932D01*
X140495244Y-89860668D01*
X140495173Y-89864428D01*
X140494999Y-89879326D01*
X140494510Y-89995581D01*
X140494502Y-89997754D01*
X140494503Y-89997755D01*
X140494503Y-89997840D01*
X140494502Y-89998363D01*
X140494500Y-90000286D01*
X129750500Y-90000286D01*
X129750500Y-77001952D01*
X129750576Y-76998065D01*
X129757064Y-76832946D01*
X132099500Y-76832946D01*
X132099500Y-77167053D01*
X132132248Y-77499555D01*
X132197431Y-77827253D01*
X132294414Y-78146967D01*
X132422273Y-78455645D01*
X132422286Y-78455672D01*
X132579773Y-78750312D01*
X132718993Y-78958667D01*
X132765399Y-79028118D01*
X132977357Y-79286390D01*
X133213610Y-79522643D01*
X133471882Y-79734601D01*
X133610783Y-79827412D01*
X133749687Y-79920226D01*
X134044327Y-80077713D01*
X134044346Y-80077723D01*
X134353024Y-80205582D01*
X134353026Y-80205582D01*
X134353032Y-80205585D01*
X134629376Y-80289412D01*
X134672749Y-80302569D01*
X135000441Y-80367751D01*
X135332944Y-80400500D01*
X135332947Y-80400500D01*
X135667053Y-80400500D01*
X135667056Y-80400500D01*
X135999559Y-80367751D01*
X136327251Y-80302569D01*
X136516857Y-80245052D01*
X136646967Y-80205585D01*
X136646969Y-80205583D01*
X136646976Y-80205582D01*
X136955654Y-80077723D01*
X137099640Y-80000760D01*
X137250312Y-79920226D01*
X137250315Y-79920224D01*
X137528118Y-79734601D01*
X137786390Y-79522643D01*
X138022643Y-79286390D01*
X138234601Y-79028118D01*
X138420224Y-78750315D01*
X138577723Y-78455654D01*
X138705582Y-78146976D01*
X138802569Y-77827251D01*
X138867751Y-77499559D01*
X138900500Y-77167056D01*
X138900500Y-76832944D01*
X138867751Y-76500441D01*
X138802569Y-76172749D01*
X138779520Y-76096765D01*
X138705585Y-75853032D01*
X138626299Y-75661618D01*
X138577723Y-75544346D01*
X138490477Y-75381119D01*
X138420226Y-75249687D01*
X138327412Y-75110783D01*
X138234601Y-74971882D01*
X138022643Y-74713610D01*
X137786390Y-74477357D01*
X137528118Y-74265399D01*
X137458667Y-74218993D01*
X137250312Y-74079773D01*
X136955672Y-73922286D01*
X136955660Y-73922280D01*
X136955654Y-73922277D01*
X136955649Y-73922274D01*
X136955645Y-73922273D01*
X136646967Y-73794414D01*
X136327253Y-73697431D01*
X136106777Y-73653576D01*
X135999559Y-73632249D01*
X135999557Y-73632248D01*
X135756491Y-73608308D01*
X135667056Y-73599500D01*
X135332944Y-73599500D01*
X135234700Y-73609176D01*
X135000444Y-73632248D01*
X134672746Y-73697431D01*
X134353032Y-73794414D01*
X134044354Y-73922273D01*
X134044327Y-73922286D01*
X133749687Y-74079773D01*
X133471880Y-74265400D01*
X133213615Y-74477352D01*
X132977352Y-74713615D01*
X132765400Y-74971880D01*
X132579773Y-75249687D01*
X132422286Y-75544327D01*
X132422273Y-75544354D01*
X132294414Y-75853032D01*
X132197431Y-76172746D01*
X132132248Y-76500444D01*
X132099500Y-76832946D01*
X129757064Y-76832946D01*
X129757312Y-76826627D01*
X129762204Y-76702105D01*
X129768071Y-76552772D01*
X129768681Y-76545034D01*
X129770331Y-76531093D01*
X129820831Y-76104423D01*
X129822040Y-76096785D01*
X129908604Y-75661599D01*
X129910410Y-75654077D01*
X130030850Y-75227033D01*
X130033239Y-75219677D01*
X130186819Y-74803382D01*
X130189775Y-74796246D01*
X130375541Y-74393288D01*
X130379044Y-74386412D01*
X130595855Y-73999269D01*
X130599890Y-73992684D01*
X130846404Y-73623750D01*
X130850961Y-73617478D01*
X131125638Y-73269051D01*
X131130683Y-73263145D01*
X131431861Y-72937333D01*
X131437333Y-72931861D01*
X131763149Y-72630679D01*
X131769056Y-72625635D01*
X131830577Y-72577136D01*
X132117478Y-72350961D01*
X132123750Y-72346404D01*
X132492684Y-72099890D01*
X132499269Y-72095855D01*
X132886412Y-71879044D01*
X132893288Y-71875541D01*
X133296246Y-71689775D01*
X133303382Y-71686819D01*
X133719677Y-71533239D01*
X133727033Y-71530850D01*
X134154077Y-71410410D01*
X134161599Y-71408604D01*
X134596785Y-71322040D01*
X134604423Y-71320831D01*
X135045045Y-71268680D01*
X135052772Y-71268071D01*
X135498066Y-71250576D01*
X135501953Y-71250500D01*
X135544170Y-71250500D01*
X161455830Y-71250500D01*
X161498047Y-71250500D01*
X161501934Y-71250576D01*
G37*
%TD.AperFunction*%
%TD*%
%TA.AperFunction,Conductor*%
%TO.N,/Project Architecture/Section C - Touch sensor/TOUCH*%
G36*
X148734347Y-83003458D02*
G01*
X148738493Y-83003598D01*
X148970528Y-83015365D01*
X148974688Y-83015647D01*
X149206196Y-83035245D01*
X149210262Y-83035659D01*
X149440974Y-83063064D01*
X149445100Y-83063625D01*
X149674731Y-83098803D01*
X149678830Y-83099502D01*
X149907126Y-83142413D01*
X149911226Y-83143255D01*
X150137946Y-83193852D01*
X150141987Y-83194826D01*
X150366924Y-83253066D01*
X150370898Y-83254168D01*
X150593698Y-83319960D01*
X150597639Y-83321196D01*
X150818156Y-83394496D01*
X150822002Y-83395847D01*
X151039881Y-83476542D01*
X151043759Y-83478053D01*
X151258784Y-83566057D01*
X151262556Y-83567675D01*
X151474514Y-83662904D01*
X151478242Y-83664655D01*
X151686849Y-83766982D01*
X151690502Y-83768851D01*
X151895540Y-83878169D01*
X151899156Y-83880176D01*
X152100318Y-83996317D01*
X152103904Y-83998468D01*
X152301074Y-84121366D01*
X152304538Y-84123607D01*
X152497440Y-84253090D01*
X152500848Y-84255461D01*
X152633463Y-84351129D01*
X152689249Y-84391373D01*
X152692604Y-84393881D01*
X152876276Y-84536054D01*
X152879544Y-84538673D01*
X153058319Y-84686975D01*
X153061498Y-84689704D01*
X153235163Y-84843961D01*
X153238247Y-84846795D01*
X153406602Y-85006829D01*
X153409588Y-85009765D01*
X153572441Y-85175391D01*
X153575328Y-85178428D01*
X153732497Y-85349465D01*
X153735278Y-85352596D01*
X153886585Y-85528847D01*
X153889259Y-85532071D01*
X154034510Y-85713311D01*
X154037074Y-85716623D01*
X154176130Y-85902678D01*
X154178581Y-85906075D01*
X154311294Y-86096749D01*
X154313614Y-86100206D01*
X154439793Y-86295226D01*
X154442009Y-86298780D01*
X154561533Y-86497955D01*
X154563627Y-86501582D01*
X154676354Y-86704676D01*
X154678325Y-86708373D01*
X154784130Y-86915165D01*
X154785974Y-86918925D01*
X154884726Y-87129149D01*
X154886443Y-87132970D01*
X154978055Y-87346452D01*
X154979614Y-87350261D01*
X155063976Y-87566749D01*
X155065421Y-87570650D01*
X155142412Y-87789827D01*
X155143733Y-87793802D01*
X155213260Y-88015399D01*
X155214447Y-88019417D01*
X155276470Y-88243314D01*
X155277519Y-88247368D01*
X155331924Y-88473140D01*
X155332837Y-88477228D01*
X155379603Y-88704792D01*
X155380376Y-88708909D01*
X155419416Y-88937847D01*
X155420051Y-88941987D01*
X155451344Y-89172169D01*
X155451838Y-89176328D01*
X155475339Y-89407425D01*
X155475692Y-89411599D01*
X155491372Y-89643345D01*
X155491584Y-89647528D01*
X155499438Y-89879921D01*
X155499508Y-89883585D01*
X155499999Y-89999762D01*
X155500000Y-90000286D01*
X155500000Y-92999647D01*
X155499997Y-93000458D01*
X155499997Y-93000460D01*
X155499504Y-93075697D01*
X155499337Y-93081374D01*
X155491434Y-93232170D01*
X155490925Y-93238641D01*
X155475182Y-93388426D01*
X155474334Y-93394863D01*
X155450777Y-93543592D01*
X155449594Y-93549974D01*
X155418287Y-93697267D01*
X155416772Y-93703581D01*
X155377790Y-93849062D01*
X155375946Y-93855286D01*
X155329413Y-93998499D01*
X155327246Y-94004619D01*
X155273276Y-94145215D01*
X155270792Y-94151211D01*
X155209541Y-94288786D01*
X155206746Y-94294647D01*
X155138373Y-94428835D01*
X155135275Y-94434540D01*
X155059981Y-94564954D01*
X155056589Y-94570489D01*
X154974570Y-94696787D01*
X154970893Y-94702137D01*
X154882381Y-94823963D01*
X154878429Y-94829114D01*
X154783649Y-94946157D01*
X154779433Y-94951093D01*
X154678665Y-95063008D01*
X154674196Y-95067717D01*
X154567717Y-95174196D01*
X154563008Y-95178665D01*
X154451093Y-95279433D01*
X154446157Y-95283649D01*
X154329114Y-95378429D01*
X154323963Y-95382381D01*
X154202137Y-95470893D01*
X154196787Y-95474570D01*
X154070489Y-95556589D01*
X154064954Y-95559981D01*
X153934540Y-95635275D01*
X153928835Y-95638373D01*
X153794647Y-95706746D01*
X153788786Y-95709541D01*
X153651211Y-95770792D01*
X153645215Y-95773276D01*
X153504619Y-95827246D01*
X153498499Y-95829413D01*
X153355286Y-95875946D01*
X153349062Y-95877790D01*
X153203581Y-95916772D01*
X153197267Y-95918287D01*
X153049974Y-95949594D01*
X153043592Y-95950777D01*
X152894863Y-95974334D01*
X152888426Y-95975182D01*
X152738641Y-95990925D01*
X152732170Y-95991434D01*
X152581374Y-95999337D01*
X152575697Y-95999504D01*
X152501666Y-95999989D01*
X152500456Y-95999997D01*
X152499647Y-96000000D01*
X149802440Y-96000000D01*
X149766446Y-95994661D01*
X149521869Y-95920470D01*
X149521868Y-95920469D01*
X149521859Y-95920467D01*
X149521848Y-95920464D01*
X149117084Y-95839952D01*
X148807741Y-95809485D01*
X148706357Y-95799500D01*
X148293643Y-95799500D01*
X148199966Y-95808726D01*
X147882915Y-95839952D01*
X147478151Y-95920464D01*
X147478140Y-95920467D01*
X147382121Y-95949594D01*
X147233553Y-95994661D01*
X147197560Y-96000000D01*
X144500353Y-96000000D01*
X144499542Y-95999997D01*
X144499097Y-95999994D01*
X144424303Y-95999504D01*
X144418625Y-95999337D01*
X144267829Y-95991434D01*
X144261358Y-95990925D01*
X144111573Y-95975182D01*
X144105136Y-95974334D01*
X143956407Y-95950777D01*
X143950025Y-95949594D01*
X143802732Y-95918287D01*
X143796418Y-95916772D01*
X143650937Y-95877790D01*
X143644713Y-95875946D01*
X143501500Y-95829413D01*
X143495380Y-95827246D01*
X143354784Y-95773276D01*
X143348788Y-95770792D01*
X143211213Y-95709541D01*
X143205352Y-95706746D01*
X143071164Y-95638373D01*
X143065459Y-95635275D01*
X142935045Y-95559981D01*
X142929510Y-95556589D01*
X142803212Y-95474570D01*
X142797862Y-95470893D01*
X142676036Y-95382381D01*
X142670885Y-95378429D01*
X142553842Y-95283649D01*
X142548906Y-95279433D01*
X142436991Y-95178665D01*
X142432282Y-95174196D01*
X142325803Y-95067717D01*
X142321334Y-95063008D01*
X142220566Y-94951093D01*
X142216350Y-94946157D01*
X142121570Y-94829114D01*
X142117618Y-94823963D01*
X142029095Y-94702121D01*
X142025440Y-94696804D01*
X141943399Y-94570471D01*
X141940029Y-94564972D01*
X141864724Y-94434540D01*
X141861626Y-94428835D01*
X141860993Y-94427594D01*
X141793244Y-94294630D01*
X141790458Y-94288786D01*
X141729207Y-94151211D01*
X141726723Y-94145215D01*
X141672753Y-94004619D01*
X141670586Y-93998499D01*
X141624053Y-93855286D01*
X141622209Y-93849062D01*
X141583227Y-93703581D01*
X141581712Y-93697267D01*
X141550405Y-93549974D01*
X141549222Y-93543592D01*
X141545514Y-93520186D01*
X141525662Y-93394843D01*
X141524819Y-93388447D01*
X141509071Y-93238612D01*
X141508567Y-93232199D01*
X141500661Y-93081359D01*
X141500495Y-93075695D01*
X141500003Y-93000458D01*
X141500000Y-92999647D01*
X141500000Y-90000286D01*
X141500001Y-89999763D01*
X141500491Y-89883586D01*
X141500561Y-89879921D01*
X141508415Y-89647528D01*
X141508627Y-89643345D01*
X141524311Y-89411541D01*
X141524655Y-89407483D01*
X141548161Y-89176323D01*
X141548655Y-89172169D01*
X141579948Y-88941987D01*
X141580583Y-88937847D01*
X141619629Y-88708873D01*
X141620387Y-88704836D01*
X141667167Y-88477204D01*
X141668075Y-88473140D01*
X141722480Y-88247368D01*
X141723529Y-88243314D01*
X141785564Y-88019373D01*
X141786721Y-88015458D01*
X141856271Y-87793785D01*
X141857587Y-87789827D01*
X141934587Y-87570623D01*
X141936003Y-87566800D01*
X142020405Y-87350211D01*
X142021915Y-87346520D01*
X142113586Y-87132903D01*
X142115242Y-87129217D01*
X142214039Y-86918895D01*
X142215854Y-86915194D01*
X142321705Y-86708314D01*
X142323613Y-86704734D01*
X142436401Y-86501530D01*
X142438436Y-86498006D01*
X142558006Y-86298752D01*
X142560206Y-86295226D01*
X142686408Y-86100170D01*
X142688677Y-86096789D01*
X142821440Y-85906043D01*
X142823845Y-85902710D01*
X142962956Y-85716581D01*
X142965456Y-85713352D01*
X143110771Y-85532033D01*
X143113382Y-85528885D01*
X143264751Y-85352561D01*
X143267471Y-85349499D01*
X143424699Y-85178398D01*
X143427530Y-85175420D01*
X143590441Y-85009735D01*
X143593367Y-85006858D01*
X143761781Y-84846768D01*
X143764806Y-84843987D01*
X143938534Y-84689675D01*
X143941647Y-84687002D01*
X144120469Y-84538661D01*
X144123723Y-84536054D01*
X144307416Y-84393864D01*
X144310728Y-84391389D01*
X144499179Y-84255442D01*
X144502530Y-84253108D01*
X144695488Y-84123589D01*
X144698898Y-84121383D01*
X144896121Y-83998452D01*
X144899647Y-83996337D01*
X145100868Y-83880161D01*
X145104433Y-83878182D01*
X145309521Y-83768839D01*
X145313126Y-83766994D01*
X145521780Y-83664644D01*
X145525462Y-83662914D01*
X145737464Y-83567665D01*
X145741193Y-83566065D01*
X145956260Y-83478045D01*
X145960098Y-83476549D01*
X146178015Y-83395840D01*
X146181824Y-83394502D01*
X146402376Y-83321191D01*
X146406284Y-83319965D01*
X146629116Y-83254163D01*
X146633060Y-83253070D01*
X146858025Y-83194822D01*
X146862039Y-83193855D01*
X147088785Y-83143252D01*
X147092859Y-83142415D01*
X147321179Y-83099500D01*
X147325258Y-83098805D01*
X147554907Y-83063624D01*
X147559017Y-83063065D01*
X147789742Y-83035658D01*
X147793797Y-83035246D01*
X148025315Y-83015647D01*
X148029467Y-83015366D01*
X148261508Y-83003598D01*
X148265650Y-83003458D01*
X148497928Y-82999536D01*
X148502072Y-82999536D01*
X148734347Y-83003458D01*
G37*
%TD.AperFunction*%
%TD*%
M02*
