%TF.GenerationSoftware,KiCad,Pcbnew,9.0.7+1*%
%TF.CreationDate,Date%
%TF.ProjectId,Sienkiewicz_TOUCH,5369656e-6b69-4657-9769-637a5f544f55,+ (Unreleased)*%
%TF.SameCoordinates,Original*%
%TF.FileFunction,Legend,Top*%
%TF.FilePolarity,Positive*%
%FSLAX46Y46*%
G04 Gerber Fmt 4.6, Leading zero omitted, Abs format (unit mm)*
G04 Created by KiCad*
%MOMM*%
%LPD*%
G01*
G04 APERTURE LIST*
G04 Aperture macros list*
%AMRoundRect*
0 Rectangle with rounded corners*
0 $1 Rounding radius*
0 $2 $3 $4 $5 $6 $7 $8 $9 X,Y pos of 4 corners*
0 Add a 4 corners polygon primitive as box body*
4,1,4,$2,$3,$4,$5,$6,$7,$8,$9,$2,$3,0*
0 Add four circle primitives for the rounded corners*
1,1,$1+$1,$2,$3*
1,1,$1+$1,$4,$5*
1,1,$1+$1,$6,$7*
1,1,$1+$1,$8,$9*
0 Add four rect primitives between the rounded corners*
20,1,$1+$1,$2,$3,$4,$5,0*
20,1,$1+$1,$4,$5,$6,$7,0*
20,1,$1+$1,$6,$7,$8,$9,0*
20,1,$1+$1,$8,$9,$2,$3,0*%
G04 Aperture macros list end*
%ADD10C,0.150000*%
%ADD11C,0.100000*%
%ADD12C,0.120000*%
%ADD13C,0.200000*%
%ADD14RoundRect,0.274390X0.475610X-0.288110X0.475610X0.288110X-0.475610X0.288110X-0.475610X-0.288110X0*%
%ADD15RoundRect,0.270000X0.655000X-0.405000X0.655000X0.405000X-0.655000X0.405000X-0.655000X-0.405000X0*%
%ADD16RoundRect,0.175000X-0.850000X-0.175000X0.850000X-0.175000X0.850000X0.175000X-0.850000X0.175000X0*%
%ADD17RoundRect,0.274390X0.288110X0.475610X-0.288110X0.475610X-0.288110X-0.475610X0.288110X-0.475610X0*%
%ADD18RoundRect,0.274390X-0.475610X0.288110X-0.475610X-0.288110X0.475610X-0.288110X0.475610X0.288110X0*%
%ADD19RoundRect,0.271739X0.353261X1.128261X-0.353261X1.128261X-0.353261X-1.128261X0.353261X-1.128261X0*%
%ADD20RoundRect,0.271739X-0.353261X-1.128261X0.353261X-1.128261X0.353261X1.128261X-0.353261X1.128261X0*%
%ADD21C,0.900000*%
%ADD22C,6.500000*%
%ADD23RoundRect,0.274390X-0.288110X-0.475610X0.288110X-0.475610X0.288110X0.475610X-0.288110X0.475610X0*%
%ADD24RoundRect,0.275000X-0.275000X-0.500000X0.275000X-0.500000X0.275000X0.500000X-0.275000X0.500000X0*%
%ADD25C,1.090600*%
%ADD26C,0.887400*%
%ADD27RoundRect,0.102000X0.350000X0.600000X-0.350000X0.600000X-0.350000X-0.600000X0.350000X-0.600000X0*%
%ADD28RoundRect,0.102000X0.380000X0.600000X-0.380000X0.600000X-0.380000X-0.600000X0.380000X-0.600000X0*%
%ADD29RoundRect,0.102000X0.400000X0.600000X-0.400000X0.600000X-0.400000X-0.600000X0.400000X-0.600000X0*%
%ADD30RoundRect,0.102000X0.900000X0.675000X-0.900000X0.675000X-0.900000X-0.675000X0.900000X-0.675000X0*%
%ADD31RoundRect,0.102000X0.900000X0.750000X-0.900000X0.750000X-0.900000X-0.750000X0.900000X-0.750000X0*%
%ADD32RoundRect,0.175000X-0.537500X-0.175000X0.537500X-0.175000X0.537500X0.175000X-0.537500X0.175000X0*%
G04 APERTURE END LIST*
D10*
X150042857Y-102698342D02*
X149985715Y-102669771D01*
X149985715Y-102669771D02*
X149900000Y-102669771D01*
X149900000Y-102669771D02*
X149814286Y-102698342D01*
X149814286Y-102698342D02*
X149757143Y-102755485D01*
X149757143Y-102755485D02*
X149728572Y-102812628D01*
X149728572Y-102812628D02*
X149700000Y-102926914D01*
X149700000Y-102926914D02*
X149700000Y-103012628D01*
X149700000Y-103012628D02*
X149728572Y-103126914D01*
X149728572Y-103126914D02*
X149757143Y-103184057D01*
X149757143Y-103184057D02*
X149814286Y-103241200D01*
X149814286Y-103241200D02*
X149900000Y-103269771D01*
X149900000Y-103269771D02*
X149957143Y-103269771D01*
X149957143Y-103269771D02*
X150042857Y-103241200D01*
X150042857Y-103241200D02*
X150071429Y-103212628D01*
X150071429Y-103212628D02*
X150071429Y-103012628D01*
X150071429Y-103012628D02*
X149957143Y-103012628D01*
X150328572Y-103269771D02*
X150328572Y-102669771D01*
X150328572Y-102669771D02*
X150671429Y-103269771D01*
X150671429Y-103269771D02*
X150671429Y-102669771D01*
X150957143Y-103269771D02*
X150957143Y-102669771D01*
X150957143Y-102669771D02*
X151100000Y-102669771D01*
X151100000Y-102669771D02*
X151185714Y-102698342D01*
X151185714Y-102698342D02*
X151242857Y-102755485D01*
X151242857Y-102755485D02*
X151271428Y-102812628D01*
X151271428Y-102812628D02*
X151300000Y-102926914D01*
X151300000Y-102926914D02*
X151300000Y-103012628D01*
X151300000Y-103012628D02*
X151271428Y-103126914D01*
X151271428Y-103126914D02*
X151242857Y-103184057D01*
X151242857Y-103184057D02*
X151185714Y-103241200D01*
X151185714Y-103241200D02*
X151100000Y-103269771D01*
X151100000Y-103269771D02*
X150957143Y-103269771D01*
X145800000Y-102669771D02*
X146200000Y-103269771D01*
X146200000Y-102669771D02*
X145800000Y-103269771D01*
X148300000Y-102669771D02*
X148700000Y-103269771D01*
X148700000Y-102669771D02*
X148300000Y-103269771D01*
X147585715Y-101169771D02*
X147585715Y-101655485D01*
X147585715Y-101655485D02*
X147614286Y-101712628D01*
X147614286Y-101712628D02*
X147642858Y-101741200D01*
X147642858Y-101741200D02*
X147700000Y-101769771D01*
X147700000Y-101769771D02*
X147814286Y-101769771D01*
X147814286Y-101769771D02*
X147871429Y-101741200D01*
X147871429Y-101741200D02*
X147900000Y-101712628D01*
X147900000Y-101712628D02*
X147928572Y-101655485D01*
X147928572Y-101655485D02*
X147928572Y-101169771D01*
X148214286Y-101769771D02*
X148214286Y-101169771D01*
X148214286Y-101169771D02*
X148442857Y-101169771D01*
X148442857Y-101169771D02*
X148500000Y-101198342D01*
X148500000Y-101198342D02*
X148528571Y-101226914D01*
X148528571Y-101226914D02*
X148557143Y-101284057D01*
X148557143Y-101284057D02*
X148557143Y-101369771D01*
X148557143Y-101369771D02*
X148528571Y-101426914D01*
X148528571Y-101426914D02*
X148500000Y-101455485D01*
X148500000Y-101455485D02*
X148442857Y-101484057D01*
X148442857Y-101484057D02*
X148214286Y-101484057D01*
X148814286Y-101769771D02*
X148814286Y-101169771D01*
X148814286Y-101169771D02*
X148957143Y-101169771D01*
X148957143Y-101169771D02*
X149042857Y-101198342D01*
X149042857Y-101198342D02*
X149100000Y-101255485D01*
X149100000Y-101255485D02*
X149128571Y-101312628D01*
X149128571Y-101312628D02*
X149157143Y-101426914D01*
X149157143Y-101426914D02*
X149157143Y-101512628D01*
X149157143Y-101512628D02*
X149128571Y-101626914D01*
X149128571Y-101626914D02*
X149100000Y-101684057D01*
X149100000Y-101684057D02*
X149042857Y-101741200D01*
X149042857Y-101741200D02*
X148957143Y-101769771D01*
X148957143Y-101769771D02*
X148814286Y-101769771D01*
X149414286Y-101769771D02*
X149414286Y-101169771D01*
X150300000Y-101169771D02*
X150700000Y-101769771D01*
X150700000Y-101169771D02*
X150300000Y-101769771D01*
X145199999Y-101169771D02*
X145399999Y-101769771D01*
X145399999Y-101769771D02*
X145599999Y-101169771D01*
X146142857Y-101712628D02*
X146114285Y-101741200D01*
X146114285Y-101741200D02*
X146028571Y-101769771D01*
X146028571Y-101769771D02*
X145971428Y-101769771D01*
X145971428Y-101769771D02*
X145885714Y-101741200D01*
X145885714Y-101741200D02*
X145828571Y-101684057D01*
X145828571Y-101684057D02*
X145800000Y-101626914D01*
X145800000Y-101626914D02*
X145771428Y-101512628D01*
X145771428Y-101512628D02*
X145771428Y-101426914D01*
X145771428Y-101426914D02*
X145800000Y-101312628D01*
X145800000Y-101312628D02*
X145828571Y-101255485D01*
X145828571Y-101255485D02*
X145885714Y-101198342D01*
X145885714Y-101198342D02*
X145971428Y-101169771D01*
X145971428Y-101169771D02*
X146028571Y-101169771D01*
X146028571Y-101169771D02*
X146114285Y-101198342D01*
X146114285Y-101198342D02*
X146142857Y-101226914D01*
X146742857Y-101712628D02*
X146714285Y-101741200D01*
X146714285Y-101741200D02*
X146628571Y-101769771D01*
X146628571Y-101769771D02*
X146571428Y-101769771D01*
X146571428Y-101769771D02*
X146485714Y-101741200D01*
X146485714Y-101741200D02*
X146428571Y-101684057D01*
X146428571Y-101684057D02*
X146400000Y-101626914D01*
X146400000Y-101626914D02*
X146371428Y-101512628D01*
X146371428Y-101512628D02*
X146371428Y-101426914D01*
X146371428Y-101426914D02*
X146400000Y-101312628D01*
X146400000Y-101312628D02*
X146428571Y-101255485D01*
X146428571Y-101255485D02*
X146485714Y-101198342D01*
X146485714Y-101198342D02*
X146571428Y-101169771D01*
X146571428Y-101169771D02*
X146628571Y-101169771D01*
X146628571Y-101169771D02*
X146714285Y-101198342D01*
X146714285Y-101198342D02*
X146742857Y-101226914D01*
X140833333Y-103454819D02*
X140500000Y-102978628D01*
X140261905Y-103454819D02*
X140261905Y-102454819D01*
X140261905Y-102454819D02*
X140642857Y-102454819D01*
X140642857Y-102454819D02*
X140738095Y-102502438D01*
X140738095Y-102502438D02*
X140785714Y-102550057D01*
X140785714Y-102550057D02*
X140833333Y-102645295D01*
X140833333Y-102645295D02*
X140833333Y-102788152D01*
X140833333Y-102788152D02*
X140785714Y-102883390D01*
X140785714Y-102883390D02*
X140738095Y-102931009D01*
X140738095Y-102931009D02*
X140642857Y-102978628D01*
X140642857Y-102978628D02*
X140261905Y-102978628D01*
X141214286Y-102550057D02*
X141261905Y-102502438D01*
X141261905Y-102502438D02*
X141357143Y-102454819D01*
X141357143Y-102454819D02*
X141595238Y-102454819D01*
X141595238Y-102454819D02*
X141690476Y-102502438D01*
X141690476Y-102502438D02*
X141738095Y-102550057D01*
X141738095Y-102550057D02*
X141785714Y-102645295D01*
X141785714Y-102645295D02*
X141785714Y-102740533D01*
X141785714Y-102740533D02*
X141738095Y-102883390D01*
X141738095Y-102883390D02*
X141166667Y-103454819D01*
X141166667Y-103454819D02*
X141785714Y-103454819D01*
X152761905Y-103454819D02*
X152761905Y-102454819D01*
X152761905Y-102454819D02*
X153000000Y-102454819D01*
X153000000Y-102454819D02*
X153142857Y-102502438D01*
X153142857Y-102502438D02*
X153238095Y-102597676D01*
X153238095Y-102597676D02*
X153285714Y-102692914D01*
X153285714Y-102692914D02*
X153333333Y-102883390D01*
X153333333Y-102883390D02*
X153333333Y-103026247D01*
X153333333Y-103026247D02*
X153285714Y-103216723D01*
X153285714Y-103216723D02*
X153238095Y-103311961D01*
X153238095Y-103311961D02*
X153142857Y-103407200D01*
X153142857Y-103407200D02*
X153000000Y-103454819D01*
X153000000Y-103454819D02*
X152761905Y-103454819D01*
X154285714Y-103454819D02*
X153714286Y-103454819D01*
X154000000Y-103454819D02*
X154000000Y-102454819D01*
X154000000Y-102454819D02*
X153904762Y-102597676D01*
X153904762Y-102597676D02*
X153809524Y-102692914D01*
X153809524Y-102692914D02*
X153714286Y-102740533D01*
X160738095Y-94954819D02*
X160738095Y-95764342D01*
X160738095Y-95764342D02*
X160785714Y-95859580D01*
X160785714Y-95859580D02*
X160833333Y-95907200D01*
X160833333Y-95907200D02*
X160928571Y-95954819D01*
X160928571Y-95954819D02*
X161119047Y-95954819D01*
X161119047Y-95954819D02*
X161214285Y-95907200D01*
X161214285Y-95907200D02*
X161261904Y-95859580D01*
X161261904Y-95859580D02*
X161309523Y-95764342D01*
X161309523Y-95764342D02*
X161309523Y-94954819D01*
X162309523Y-95954819D02*
X161738095Y-95954819D01*
X162023809Y-95954819D02*
X162023809Y-94954819D01*
X162023809Y-94954819D02*
X161928571Y-95097676D01*
X161928571Y-95097676D02*
X161833333Y-95192914D01*
X161833333Y-95192914D02*
X161738095Y-95240533D01*
X137333333Y-98454819D02*
X137000000Y-97978628D01*
X136761905Y-98454819D02*
X136761905Y-97454819D01*
X136761905Y-97454819D02*
X137142857Y-97454819D01*
X137142857Y-97454819D02*
X137238095Y-97502438D01*
X137238095Y-97502438D02*
X137285714Y-97550057D01*
X137285714Y-97550057D02*
X137333333Y-97645295D01*
X137333333Y-97645295D02*
X137333333Y-97788152D01*
X137333333Y-97788152D02*
X137285714Y-97883390D01*
X137285714Y-97883390D02*
X137238095Y-97931009D01*
X137238095Y-97931009D02*
X137142857Y-97978628D01*
X137142857Y-97978628D02*
X136761905Y-97978628D01*
X137666667Y-97454819D02*
X138285714Y-97454819D01*
X138285714Y-97454819D02*
X137952381Y-97835771D01*
X137952381Y-97835771D02*
X138095238Y-97835771D01*
X138095238Y-97835771D02*
X138190476Y-97883390D01*
X138190476Y-97883390D02*
X138238095Y-97931009D01*
X138238095Y-97931009D02*
X138285714Y-98026247D01*
X138285714Y-98026247D02*
X138285714Y-98264342D01*
X138285714Y-98264342D02*
X138238095Y-98359580D01*
X138238095Y-98359580D02*
X138190476Y-98407200D01*
X138190476Y-98407200D02*
X138095238Y-98454819D01*
X138095238Y-98454819D02*
X137809524Y-98454819D01*
X137809524Y-98454819D02*
X137714286Y-98407200D01*
X137714286Y-98407200D02*
X137666667Y-98359580D01*
X155880952Y-73954819D02*
X155547619Y-73478628D01*
X155309524Y-73954819D02*
X155309524Y-72954819D01*
X155309524Y-72954819D02*
X155690476Y-72954819D01*
X155690476Y-72954819D02*
X155785714Y-73002438D01*
X155785714Y-73002438D02*
X155833333Y-73050057D01*
X155833333Y-73050057D02*
X155880952Y-73145295D01*
X155880952Y-73145295D02*
X155880952Y-73288152D01*
X155880952Y-73288152D02*
X155833333Y-73383390D01*
X155833333Y-73383390D02*
X155785714Y-73431009D01*
X155785714Y-73431009D02*
X155690476Y-73478628D01*
X155690476Y-73478628D02*
X155309524Y-73478628D01*
X156738095Y-73954819D02*
X156738095Y-72954819D01*
X156738095Y-73907200D02*
X156642857Y-73954819D01*
X156642857Y-73954819D02*
X156452381Y-73954819D01*
X156452381Y-73954819D02*
X156357143Y-73907200D01*
X156357143Y-73907200D02*
X156309524Y-73859580D01*
X156309524Y-73859580D02*
X156261905Y-73764342D01*
X156261905Y-73764342D02*
X156261905Y-73478628D01*
X156261905Y-73478628D02*
X156309524Y-73383390D01*
X156309524Y-73383390D02*
X156357143Y-73335771D01*
X156357143Y-73335771D02*
X156452381Y-73288152D01*
X156452381Y-73288152D02*
X156642857Y-73288152D01*
X156642857Y-73288152D02*
X156738095Y-73335771D01*
X157166667Y-73050057D02*
X157214286Y-73002438D01*
X157214286Y-73002438D02*
X157309524Y-72954819D01*
X157309524Y-72954819D02*
X157547619Y-72954819D01*
X157547619Y-72954819D02*
X157642857Y-73002438D01*
X157642857Y-73002438D02*
X157690476Y-73050057D01*
X157690476Y-73050057D02*
X157738095Y-73145295D01*
X157738095Y-73145295D02*
X157738095Y-73240533D01*
X157738095Y-73240533D02*
X157690476Y-73383390D01*
X157690476Y-73383390D02*
X157119048Y-73954819D01*
X157119048Y-73954819D02*
X157738095Y-73954819D01*
X139880952Y-73954819D02*
X139547619Y-73478628D01*
X139309524Y-73954819D02*
X139309524Y-72954819D01*
X139309524Y-72954819D02*
X139690476Y-72954819D01*
X139690476Y-72954819D02*
X139785714Y-73002438D01*
X139785714Y-73002438D02*
X139833333Y-73050057D01*
X139833333Y-73050057D02*
X139880952Y-73145295D01*
X139880952Y-73145295D02*
X139880952Y-73288152D01*
X139880952Y-73288152D02*
X139833333Y-73383390D01*
X139833333Y-73383390D02*
X139785714Y-73431009D01*
X139785714Y-73431009D02*
X139690476Y-73478628D01*
X139690476Y-73478628D02*
X139309524Y-73478628D01*
X140738095Y-73954819D02*
X140738095Y-72954819D01*
X140738095Y-73907200D02*
X140642857Y-73954819D01*
X140642857Y-73954819D02*
X140452381Y-73954819D01*
X140452381Y-73954819D02*
X140357143Y-73907200D01*
X140357143Y-73907200D02*
X140309524Y-73859580D01*
X140309524Y-73859580D02*
X140261905Y-73764342D01*
X140261905Y-73764342D02*
X140261905Y-73478628D01*
X140261905Y-73478628D02*
X140309524Y-73383390D01*
X140309524Y-73383390D02*
X140357143Y-73335771D01*
X140357143Y-73335771D02*
X140452381Y-73288152D01*
X140452381Y-73288152D02*
X140642857Y-73288152D01*
X140642857Y-73288152D02*
X140738095Y-73335771D01*
X141738095Y-73954819D02*
X141166667Y-73954819D01*
X141452381Y-73954819D02*
X141452381Y-72954819D01*
X141452381Y-72954819D02*
X141357143Y-73097676D01*
X141357143Y-73097676D02*
X141261905Y-73192914D01*
X141261905Y-73192914D02*
X141166667Y-73240533D01*
X157808333Y-83359580D02*
X157760714Y-83407200D01*
X157760714Y-83407200D02*
X157617857Y-83454819D01*
X157617857Y-83454819D02*
X157522619Y-83454819D01*
X157522619Y-83454819D02*
X157379762Y-83407200D01*
X157379762Y-83407200D02*
X157284524Y-83311961D01*
X157284524Y-83311961D02*
X157236905Y-83216723D01*
X157236905Y-83216723D02*
X157189286Y-83026247D01*
X157189286Y-83026247D02*
X157189286Y-82883390D01*
X157189286Y-82883390D02*
X157236905Y-82692914D01*
X157236905Y-82692914D02*
X157284524Y-82597676D01*
X157284524Y-82597676D02*
X157379762Y-82502438D01*
X157379762Y-82502438D02*
X157522619Y-82454819D01*
X157522619Y-82454819D02*
X157617857Y-82454819D01*
X157617857Y-82454819D02*
X157760714Y-82502438D01*
X157760714Y-82502438D02*
X157808333Y-82550057D01*
X158760714Y-83454819D02*
X158189286Y-83454819D01*
X158475000Y-83454819D02*
X158475000Y-82454819D01*
X158475000Y-82454819D02*
X158379762Y-82597676D01*
X158379762Y-82597676D02*
X158284524Y-82692914D01*
X158284524Y-82692914D02*
X158189286Y-82740533D01*
X142761905Y-103454819D02*
X142761905Y-102454819D01*
X142761905Y-102454819D02*
X143000000Y-102454819D01*
X143000000Y-102454819D02*
X143142857Y-102502438D01*
X143142857Y-102502438D02*
X143238095Y-102597676D01*
X143238095Y-102597676D02*
X143285714Y-102692914D01*
X143285714Y-102692914D02*
X143333333Y-102883390D01*
X143333333Y-102883390D02*
X143333333Y-103026247D01*
X143333333Y-103026247D02*
X143285714Y-103216723D01*
X143285714Y-103216723D02*
X143238095Y-103311961D01*
X143238095Y-103311961D02*
X143142857Y-103407200D01*
X143142857Y-103407200D02*
X143000000Y-103454819D01*
X143000000Y-103454819D02*
X142761905Y-103454819D01*
X143714286Y-102550057D02*
X143761905Y-102502438D01*
X143761905Y-102502438D02*
X143857143Y-102454819D01*
X143857143Y-102454819D02*
X144095238Y-102454819D01*
X144095238Y-102454819D02*
X144190476Y-102502438D01*
X144190476Y-102502438D02*
X144238095Y-102550057D01*
X144238095Y-102550057D02*
X144285714Y-102645295D01*
X144285714Y-102645295D02*
X144285714Y-102740533D01*
X144285714Y-102740533D02*
X144238095Y-102883390D01*
X144238095Y-102883390D02*
X143666667Y-103454819D01*
X143666667Y-103454819D02*
X144285714Y-103454819D01*
X136880952Y-86359580D02*
X136833333Y-86407200D01*
X136833333Y-86407200D02*
X136690476Y-86454819D01*
X136690476Y-86454819D02*
X136595238Y-86454819D01*
X136595238Y-86454819D02*
X136452381Y-86407200D01*
X136452381Y-86407200D02*
X136357143Y-86311961D01*
X136357143Y-86311961D02*
X136309524Y-86216723D01*
X136309524Y-86216723D02*
X136261905Y-86026247D01*
X136261905Y-86026247D02*
X136261905Y-85883390D01*
X136261905Y-85883390D02*
X136309524Y-85692914D01*
X136309524Y-85692914D02*
X136357143Y-85597676D01*
X136357143Y-85597676D02*
X136452381Y-85502438D01*
X136452381Y-85502438D02*
X136595238Y-85454819D01*
X136595238Y-85454819D02*
X136690476Y-85454819D01*
X136690476Y-85454819D02*
X136833333Y-85502438D01*
X136833333Y-85502438D02*
X136880952Y-85550057D01*
X137738095Y-86454819D02*
X137738095Y-85454819D01*
X137738095Y-86407200D02*
X137642857Y-86454819D01*
X137642857Y-86454819D02*
X137452381Y-86454819D01*
X137452381Y-86454819D02*
X137357143Y-86407200D01*
X137357143Y-86407200D02*
X137309524Y-86359580D01*
X137309524Y-86359580D02*
X137261905Y-86264342D01*
X137261905Y-86264342D02*
X137261905Y-85978628D01*
X137261905Y-85978628D02*
X137309524Y-85883390D01*
X137309524Y-85883390D02*
X137357143Y-85835771D01*
X137357143Y-85835771D02*
X137452381Y-85788152D01*
X137452381Y-85788152D02*
X137642857Y-85788152D01*
X137642857Y-85788152D02*
X137738095Y-85835771D01*
X138166667Y-85550057D02*
X138214286Y-85502438D01*
X138214286Y-85502438D02*
X138309524Y-85454819D01*
X138309524Y-85454819D02*
X138547619Y-85454819D01*
X138547619Y-85454819D02*
X138642857Y-85502438D01*
X138642857Y-85502438D02*
X138690476Y-85550057D01*
X138690476Y-85550057D02*
X138738095Y-85645295D01*
X138738095Y-85645295D02*
X138738095Y-85740533D01*
X138738095Y-85740533D02*
X138690476Y-85883390D01*
X138690476Y-85883390D02*
X138119048Y-86454819D01*
X138119048Y-86454819D02*
X138738095Y-86454819D01*
D11*
X148095238Y-72433609D02*
X148238095Y-72481228D01*
X148238095Y-72481228D02*
X148285714Y-72528847D01*
X148285714Y-72528847D02*
X148333333Y-72624085D01*
X148333333Y-72624085D02*
X148333333Y-72766942D01*
X148333333Y-72766942D02*
X148285714Y-72862180D01*
X148285714Y-72862180D02*
X148238095Y-72909800D01*
X148238095Y-72909800D02*
X148142857Y-72957419D01*
X148142857Y-72957419D02*
X147761905Y-72957419D01*
X147761905Y-72957419D02*
X147761905Y-71957419D01*
X147761905Y-71957419D02*
X148095238Y-71957419D01*
X148095238Y-71957419D02*
X148190476Y-72005038D01*
X148190476Y-72005038D02*
X148238095Y-72052657D01*
X148238095Y-72052657D02*
X148285714Y-72147895D01*
X148285714Y-72147895D02*
X148285714Y-72243133D01*
X148285714Y-72243133D02*
X148238095Y-72338371D01*
X148238095Y-72338371D02*
X148190476Y-72385990D01*
X148190476Y-72385990D02*
X148095238Y-72433609D01*
X148095238Y-72433609D02*
X147761905Y-72433609D01*
X149285714Y-72957419D02*
X148714286Y-72957419D01*
X149000000Y-72957419D02*
X149000000Y-71957419D01*
X149000000Y-71957419D02*
X148904762Y-72100276D01*
X148904762Y-72100276D02*
X148809524Y-72195514D01*
X148809524Y-72195514D02*
X148714286Y-72243133D01*
D10*
X136928571Y-95454819D02*
X136595238Y-94978628D01*
X136357143Y-95454819D02*
X136357143Y-94454819D01*
X136357143Y-94454819D02*
X136738095Y-94454819D01*
X136738095Y-94454819D02*
X136833333Y-94502438D01*
X136833333Y-94502438D02*
X136880952Y-94550057D01*
X136880952Y-94550057D02*
X136928571Y-94645295D01*
X136928571Y-94645295D02*
X136928571Y-94788152D01*
X136928571Y-94788152D02*
X136880952Y-94883390D01*
X136880952Y-94883390D02*
X136833333Y-94931009D01*
X136833333Y-94931009D02*
X136738095Y-94978628D01*
X136738095Y-94978628D02*
X136357143Y-94978628D01*
X137309524Y-95407200D02*
X137404762Y-95454819D01*
X137404762Y-95454819D02*
X137595238Y-95454819D01*
X137595238Y-95454819D02*
X137690476Y-95407200D01*
X137690476Y-95407200D02*
X137738095Y-95311961D01*
X137738095Y-95311961D02*
X137738095Y-95264342D01*
X137738095Y-95264342D02*
X137690476Y-95169104D01*
X137690476Y-95169104D02*
X137595238Y-95121485D01*
X137595238Y-95121485D02*
X137452381Y-95121485D01*
X137452381Y-95121485D02*
X137357143Y-95073866D01*
X137357143Y-95073866D02*
X137309524Y-94978628D01*
X137309524Y-94978628D02*
X137309524Y-94931009D01*
X137309524Y-94931009D02*
X137357143Y-94835771D01*
X137357143Y-94835771D02*
X137452381Y-94788152D01*
X137452381Y-94788152D02*
X137595238Y-94788152D01*
X137595238Y-94788152D02*
X137690476Y-94835771D01*
X138690476Y-95454819D02*
X138119048Y-95454819D01*
X138404762Y-95454819D02*
X138404762Y-94454819D01*
X138404762Y-94454819D02*
X138309524Y-94597676D01*
X138309524Y-94597676D02*
X138214286Y-94692914D01*
X138214286Y-94692914D02*
X138119048Y-94740533D01*
X155833333Y-103454819D02*
X155500000Y-102978628D01*
X155261905Y-103454819D02*
X155261905Y-102454819D01*
X155261905Y-102454819D02*
X155642857Y-102454819D01*
X155642857Y-102454819D02*
X155738095Y-102502438D01*
X155738095Y-102502438D02*
X155785714Y-102550057D01*
X155785714Y-102550057D02*
X155833333Y-102645295D01*
X155833333Y-102645295D02*
X155833333Y-102788152D01*
X155833333Y-102788152D02*
X155785714Y-102883390D01*
X155785714Y-102883390D02*
X155738095Y-102931009D01*
X155738095Y-102931009D02*
X155642857Y-102978628D01*
X155642857Y-102978628D02*
X155261905Y-102978628D01*
X156785714Y-103454819D02*
X156214286Y-103454819D01*
X156500000Y-103454819D02*
X156500000Y-102454819D01*
X156500000Y-102454819D02*
X156404762Y-102597676D01*
X156404762Y-102597676D02*
X156309524Y-102692914D01*
X156309524Y-102692914D02*
X156214286Y-102740533D01*
X136928571Y-93359580D02*
X136880952Y-93407200D01*
X136880952Y-93407200D02*
X136738095Y-93454819D01*
X136738095Y-93454819D02*
X136642857Y-93454819D01*
X136642857Y-93454819D02*
X136500000Y-93407200D01*
X136500000Y-93407200D02*
X136404762Y-93311961D01*
X136404762Y-93311961D02*
X136357143Y-93216723D01*
X136357143Y-93216723D02*
X136309524Y-93026247D01*
X136309524Y-93026247D02*
X136309524Y-92883390D01*
X136309524Y-92883390D02*
X136357143Y-92692914D01*
X136357143Y-92692914D02*
X136404762Y-92597676D01*
X136404762Y-92597676D02*
X136500000Y-92502438D01*
X136500000Y-92502438D02*
X136642857Y-92454819D01*
X136642857Y-92454819D02*
X136738095Y-92454819D01*
X136738095Y-92454819D02*
X136880952Y-92502438D01*
X136880952Y-92502438D02*
X136928571Y-92550057D01*
X137309524Y-93407200D02*
X137404762Y-93454819D01*
X137404762Y-93454819D02*
X137595238Y-93454819D01*
X137595238Y-93454819D02*
X137690476Y-93407200D01*
X137690476Y-93407200D02*
X137738095Y-93311961D01*
X137738095Y-93311961D02*
X137738095Y-93264342D01*
X137738095Y-93264342D02*
X137690476Y-93169104D01*
X137690476Y-93169104D02*
X137595238Y-93121485D01*
X137595238Y-93121485D02*
X137452381Y-93121485D01*
X137452381Y-93121485D02*
X137357143Y-93073866D01*
X137357143Y-93073866D02*
X137309524Y-92978628D01*
X137309524Y-92978628D02*
X137309524Y-92931009D01*
X137309524Y-92931009D02*
X137357143Y-92835771D01*
X137357143Y-92835771D02*
X137452381Y-92788152D01*
X137452381Y-92788152D02*
X137595238Y-92788152D01*
X137595238Y-92788152D02*
X137690476Y-92835771D01*
X138690476Y-93454819D02*
X138119048Y-93454819D01*
X138404762Y-93454819D02*
X138404762Y-92454819D01*
X138404762Y-92454819D02*
X138309524Y-92597676D01*
X138309524Y-92597676D02*
X138214286Y-92692914D01*
X138214286Y-92692914D02*
X138119048Y-92740533D01*
X148233333Y-107562295D02*
X148233333Y-108133723D01*
X148233333Y-108133723D02*
X148195238Y-108248009D01*
X148195238Y-108248009D02*
X148119047Y-108324200D01*
X148119047Y-108324200D02*
X148004762Y-108362295D01*
X148004762Y-108362295D02*
X147928571Y-108362295D01*
X149033333Y-108362295D02*
X148576190Y-108362295D01*
X148804762Y-108362295D02*
X148804762Y-107562295D01*
X148804762Y-107562295D02*
X148728571Y-107676580D01*
X148728571Y-107676580D02*
X148652381Y-107752771D01*
X148652381Y-107752771D02*
X148576190Y-107790866D01*
X148166666Y-80864819D02*
X148166666Y-81579104D01*
X148166666Y-81579104D02*
X148119047Y-81721961D01*
X148119047Y-81721961D02*
X148023809Y-81817200D01*
X148023809Y-81817200D02*
X147880952Y-81864819D01*
X147880952Y-81864819D02*
X147785714Y-81864819D01*
X148595238Y-80960057D02*
X148642857Y-80912438D01*
X148642857Y-80912438D02*
X148738095Y-80864819D01*
X148738095Y-80864819D02*
X148976190Y-80864819D01*
X148976190Y-80864819D02*
X149071428Y-80912438D01*
X149071428Y-80912438D02*
X149119047Y-80960057D01*
X149119047Y-80960057D02*
X149166666Y-81055295D01*
X149166666Y-81055295D02*
X149166666Y-81150533D01*
X149166666Y-81150533D02*
X149119047Y-81293390D01*
X149119047Y-81293390D02*
X148547619Y-81864819D01*
X148547619Y-81864819D02*
X149166666Y-81864819D01*
X136738095Y-89454819D02*
X136738095Y-90264342D01*
X136738095Y-90264342D02*
X136785714Y-90359580D01*
X136785714Y-90359580D02*
X136833333Y-90407200D01*
X136833333Y-90407200D02*
X136928571Y-90454819D01*
X136928571Y-90454819D02*
X137119047Y-90454819D01*
X137119047Y-90454819D02*
X137214285Y-90407200D01*
X137214285Y-90407200D02*
X137261904Y-90359580D01*
X137261904Y-90359580D02*
X137309523Y-90264342D01*
X137309523Y-90264342D02*
X137309523Y-89454819D01*
X137738095Y-89550057D02*
X137785714Y-89502438D01*
X137785714Y-89502438D02*
X137880952Y-89454819D01*
X137880952Y-89454819D02*
X138119047Y-89454819D01*
X138119047Y-89454819D02*
X138214285Y-89502438D01*
X138214285Y-89502438D02*
X138261904Y-89550057D01*
X138261904Y-89550057D02*
X138309523Y-89645295D01*
X138309523Y-89645295D02*
X138309523Y-89740533D01*
X138309523Y-89740533D02*
X138261904Y-89883390D01*
X138261904Y-89883390D02*
X137690476Y-90454819D01*
X137690476Y-90454819D02*
X138309523Y-90454819D01*
D12*
%TO.C,R2*%
X140265000Y-106227064D02*
X140265000Y-105772936D01*
X141735000Y-106227064D02*
X141735000Y-105772936D01*
%TO.C,D1*%
X152365000Y-104400000D02*
X152365000Y-108285000D01*
X152365000Y-108285000D02*
X154635000Y-108285000D01*
X154635000Y-108285000D02*
X154635000Y-104400000D01*
%TO.C,U1*%
X159440000Y-85565000D02*
X163560000Y-85565000D01*
X159440000Y-85630000D02*
X159440000Y-85565000D01*
X159440000Y-94435000D02*
X159440000Y-94370000D01*
X163560000Y-85565000D02*
X163560000Y-85630000D01*
X163560000Y-94370000D02*
X163560000Y-94435000D01*
X163560000Y-94435000D02*
X159440000Y-94435000D01*
X158900000Y-85630000D02*
X158660000Y-85300000D01*
X159140000Y-85300000D01*
X158900000Y-85630000D01*
G36*
X158900000Y-85630000D02*
G01*
X158660000Y-85300000D01*
X159140000Y-85300000D01*
X158900000Y-85630000D01*
G37*
%TO.C,R3*%
X133727064Y-97265000D02*
X133272936Y-97265000D01*
X133727064Y-98735000D02*
X133272936Y-98735000D01*
%TO.C,Rd2*%
X155765000Y-76272936D02*
X155765000Y-76727064D01*
X157235000Y-76272936D02*
X157235000Y-76727064D01*
%TO.C,Rd1*%
X139765000Y-76272936D02*
X139765000Y-76727064D01*
X141235000Y-76272936D02*
X141235000Y-76727064D01*
%TO.C,C1*%
X162211252Y-81640000D02*
X160788748Y-81640000D01*
X162211252Y-84360000D02*
X160788748Y-84360000D01*
%TO.C,D2*%
X142365000Y-104400000D02*
X142365000Y-108285000D01*
X142365000Y-108285000D02*
X144635000Y-108285000D01*
X144635000Y-108285000D02*
X144635000Y-104400000D01*
%TO.C,Cd2*%
X132788748Y-84640000D02*
X134211252Y-84640000D01*
X132788748Y-87360000D02*
X134211252Y-87360000D01*
%TO.C,Rs1*%
X133272936Y-94265000D02*
X133727064Y-94265000D01*
X133272936Y-95735000D02*
X133727064Y-95735000D01*
%TO.C,R1*%
X155265000Y-106227064D02*
X155265000Y-105772936D01*
X156735000Y-106227064D02*
X156735000Y-105772936D01*
%TO.C,Cs1*%
X133238748Y-92265000D02*
X133761252Y-92265000D01*
X133238748Y-93735000D02*
X133761252Y-93735000D01*
%TO.C,J1*%
X146595000Y-107270000D02*
X146595000Y-106635000D01*
X147230000Y-107270000D02*
X146595000Y-107270000D01*
D13*
%TO.C,J2*%
X144030000Y-71150000D02*
X144030000Y-72930000D01*
X144030000Y-71150000D02*
X152970000Y-71150000D01*
X144030000Y-76585000D02*
X144030000Y-75070000D01*
X152970000Y-71150000D02*
X152970000Y-72930000D01*
X152970000Y-76585000D02*
X152970000Y-75070000D01*
D12*
%TO.C,U2*%
X132590000Y-88440000D02*
X134410000Y-88440000D01*
X132590000Y-88490000D02*
X132590000Y-88440000D01*
X132590000Y-91560000D02*
X132590000Y-91510000D01*
X134410000Y-88440000D02*
X134410000Y-88490000D01*
X134410000Y-91510000D02*
X134410000Y-91560000D01*
X134410000Y-91560000D02*
X132590000Y-91560000D01*
X132050000Y-88490000D02*
X131810000Y-88160000D01*
X132290000Y-88160000D01*
X132050000Y-88490000D01*
G36*
X132050000Y-88490000D02*
G01*
X131810000Y-88160000D01*
X132290000Y-88160000D01*
X132050000Y-88490000D01*
G37*
%TD*%
%LPC*%
D14*
%TO.C,R2*%
X141000000Y-106912500D03*
X141000000Y-105087500D03*
%TD*%
D15*
%TO.C,D1*%
X153500000Y-107400000D03*
X153500000Y-104600000D03*
%TD*%
D16*
%TO.C,U1*%
X159025000Y-86190000D03*
X159025000Y-87460000D03*
X159025000Y-88730000D03*
X159025000Y-90000000D03*
X159025000Y-91270000D03*
X159025000Y-92540000D03*
X159025000Y-93810000D03*
X163975000Y-93810000D03*
X163975000Y-92540000D03*
X163975000Y-91270000D03*
X163975000Y-90000000D03*
X163975000Y-88730000D03*
X163975000Y-87460000D03*
X163975000Y-86190000D03*
%TD*%
D17*
%TO.C,R3*%
X134412500Y-98000000D03*
X132587500Y-98000000D03*
%TD*%
D18*
%TO.C,Rd2*%
X156500000Y-75587500D03*
X156500000Y-77412500D03*
%TD*%
%TO.C,Rd1*%
X140500000Y-75587500D03*
X140500000Y-77412500D03*
%TD*%
D19*
%TO.C,C1*%
X162975000Y-83000000D03*
X160025000Y-83000000D03*
%TD*%
D15*
%TO.C,D2*%
X143500000Y-107400000D03*
X143500000Y-104600000D03*
%TD*%
D20*
%TO.C,Cd2*%
X132025000Y-86000000D03*
X134975000Y-86000000D03*
%TD*%
D21*
%TO.C,B1*%
X133100000Y-77000000D03*
X133802944Y-75302944D03*
X133802944Y-78697056D03*
X135500000Y-74600000D03*
D22*
X135500000Y-77000000D03*
D21*
X135500000Y-79400000D03*
X137197056Y-75302944D03*
X137197056Y-78697056D03*
X137900000Y-77000000D03*
X159100000Y-77000000D03*
X159802944Y-75302944D03*
X159802944Y-78697056D03*
X161500000Y-74600000D03*
D22*
X161500000Y-77000000D03*
D21*
X161500000Y-79400000D03*
X163197056Y-75302944D03*
X163197056Y-78697056D03*
X163900000Y-77000000D03*
X159100000Y-103000000D03*
X159802944Y-101302944D03*
X159802944Y-104697056D03*
X161500000Y-100600000D03*
D22*
X161500000Y-103000000D03*
D21*
X161500000Y-105400000D03*
X163197056Y-101302944D03*
X163197056Y-104697056D03*
X163900000Y-103000000D03*
X133100000Y-103000000D03*
X133802944Y-101302944D03*
X133802944Y-104697056D03*
X135500000Y-100600000D03*
D22*
X135500000Y-103000000D03*
D21*
X135500000Y-105400000D03*
X137197056Y-101302944D03*
X137197056Y-104697056D03*
X137900000Y-103000000D03*
X146100000Y-97000000D03*
X146802944Y-95302944D03*
X146802944Y-98697056D03*
X148500000Y-94600000D03*
D22*
X148500000Y-97000000D03*
D21*
X148500000Y-99400000D03*
X150197056Y-95302944D03*
X150197056Y-98697056D03*
X150900000Y-97000000D03*
%TD*%
D23*
%TO.C,Rs1*%
X132587500Y-95000000D03*
X134412500Y-95000000D03*
%TD*%
D14*
%TO.C,R1*%
X156000000Y-106912500D03*
X156000000Y-105087500D03*
%TD*%
D24*
%TO.C,Cs1*%
X132550000Y-93000000D03*
X134450000Y-93000000D03*
%TD*%
D25*
%TO.C,J1*%
X145960000Y-106000000D03*
X151040000Y-104984000D03*
X151040000Y-107016000D03*
D26*
X147230000Y-106635000D03*
X147230000Y-105365000D03*
X148500000Y-106635000D03*
X148500000Y-105365000D03*
X149770000Y-106635000D03*
X149770000Y-105365000D03*
%TD*%
D27*
%TO.C,J2*%
X149000000Y-77635000D03*
D28*
X146980000Y-77635000D03*
D29*
X145750000Y-77635000D03*
D27*
X148000000Y-77635000D03*
D28*
X150020000Y-77635000D03*
D29*
X151250000Y-77635000D03*
D30*
X153625000Y-77580000D03*
D31*
X153625000Y-74000000D03*
X143375000Y-74000000D03*
D30*
X143375000Y-77580000D03*
%TD*%
D32*
%TO.C,U2*%
X132362500Y-89050000D03*
X132362500Y-90000000D03*
X132362500Y-90950000D03*
X134637500Y-90950000D03*
X134637500Y-90000000D03*
X134637500Y-89050000D03*
%TD*%
%LPD*%
M02*
