%TF.GenerationSoftware,KiCad,Pcbnew,9.0.7+1*%
%TF.CreationDate,Date%
%TF.ProjectId,Sienkiewicz_TOUCH,5369656e-6b69-4657-9769-637a5f544f55,+ (Unreleased)*%
%TF.SameCoordinates,Original*%
%TF.FileFunction,Copper,L1,Top*%
%TF.FilePolarity,Positive*%
%FSLAX46Y46*%
G04 Gerber Fmt 4.6, Leading zero omitted, Abs format (unit mm)*
G04 Created by KiCad*
%MOMM*%
%LPD*%
G01*
G04 APERTURE LIST*
G04 Aperture macros list*
%AMRoundRect*
0 Rectangle with rounded corners*
0 $1 Rounding radius*
0 $2 $3 $4 $5 $6 $7 $8 $9 X,Y pos of 4 corners*
0 Add a 4 corners polygon primitive as box body*
4,1,4,$2,$3,$4,$5,$6,$7,$8,$9,$2,$3,0*
0 Add four circle primitives for the rounded corners*
1,1,$1+$1,$2,$3*
1,1,$1+$1,$4,$5*
1,1,$1+$1,$6,$7*
1,1,$1+$1,$8,$9*
0 Add four rect primitives between the rounded corners*
20,1,$1+$1,$2,$3,$4,$5,0*
20,1,$1+$1,$4,$5,$6,$7,0*
20,1,$1+$1,$6,$7,$8,$9,0*
20,1,$1+$1,$8,$9,$2,$3,0*%
G04 Aperture macros list end*
%TA.AperFunction,Conductor*%
%ADD10C,0.200000*%
%TD*%
%TA.AperFunction,SMDPad,CuDef*%
%ADD11RoundRect,0.250000X0.450000X-0.262500X0.450000X0.262500X-0.450000X0.262500X-0.450000X-0.262500X0*%
%TD*%
%TA.AperFunction,SMDPad,CuDef*%
%ADD12RoundRect,0.250000X0.625000X-0.375000X0.625000X0.375000X-0.625000X0.375000X-0.625000X-0.375000X0*%
%TD*%
%TA.AperFunction,SMDPad,CuDef*%
%ADD13RoundRect,0.150000X-0.825000X-0.150000X0.825000X-0.150000X0.825000X0.150000X-0.825000X0.150000X0*%
%TD*%
%TA.AperFunction,SMDPad,CuDef*%
%ADD14C,1.500000*%
%TD*%
%TA.AperFunction,SMDPad,CuDef*%
%ADD15RoundRect,0.250000X0.262500X0.450000X-0.262500X0.450000X-0.262500X-0.450000X0.262500X-0.450000X0*%
%TD*%
%TA.AperFunction,SMDPad,CuDef*%
%ADD16RoundRect,0.250000X-0.450000X0.262500X-0.450000X-0.262500X0.450000X-0.262500X0.450000X0.262500X0*%
%TD*%
%TA.AperFunction,SMDPad,CuDef*%
%ADD17RoundRect,0.250000X0.325000X1.100000X-0.325000X1.100000X-0.325000X-1.100000X0.325000X-1.100000X0*%
%TD*%
%TA.AperFunction,SMDPad,CuDef*%
%ADD18RoundRect,0.250000X-0.325000X-1.100000X0.325000X-1.100000X0.325000X1.100000X-0.325000X1.100000X0*%
%TD*%
%TA.AperFunction,SMDPad,CuDef*%
%ADD19RoundRect,0.250000X-0.262500X-0.450000X0.262500X-0.450000X0.262500X0.450000X-0.262500X0.450000X0*%
%TD*%
%TA.AperFunction,ComponentPad*%
%ADD20C,0.800000*%
%TD*%
%TA.AperFunction,ComponentPad*%
%ADD21C,6.400000*%
%TD*%
%TA.AperFunction,SMDPad,CuDef*%
%ADD22RoundRect,0.250000X-0.250000X-0.475000X0.250000X-0.475000X0.250000X0.475000X-0.250000X0.475000X0*%
%TD*%
%TA.AperFunction,ConnectorPad*%
%ADD23C,0.787400*%
%TD*%
%TA.AperFunction,SMDPad,CuDef*%
%ADD24R,0.700000X1.200000*%
%TD*%
%TA.AperFunction,SMDPad,CuDef*%
%ADD25R,0.760000X1.200000*%
%TD*%
%TA.AperFunction,SMDPad,CuDef*%
%ADD26R,0.800000X1.200000*%
%TD*%
%TA.AperFunction,SMDPad,CuDef*%
%ADD27R,1.800000X1.350000*%
%TD*%
%TA.AperFunction,SMDPad,CuDef*%
%ADD28R,1.800000X1.500000*%
%TD*%
%TA.AperFunction,SMDPad,CuDef*%
%ADD29RoundRect,0.150000X-0.512500X-0.150000X0.512500X-0.150000X0.512500X0.150000X-0.512500X0.150000X0*%
%TD*%
%TA.AperFunction,ViaPad*%
%ADD30C,0.550000*%
%TD*%
%TA.AperFunction,Conductor*%
%ADD31C,0.500000*%
%TD*%
G04 APERTURE END LIST*
D10*
%TO.N,/Project Architecture/Section B - uC/TT*%
X139500000Y-102000000D02*
G75*
G02*
X140000000Y-101500000I500000J0D01*
G01*
%TO.N,/Project Architecture/Section B - uC/SR_SDI*%
X161500000Y-72000000D02*
G75*
G02*
X166500000Y-77000000I0J-5000000D01*
G01*
%TO.N,/Project Architecture/Section B - uC/TT*%
X131000000Y-101500000D02*
G75*
G02*
X131500000Y-102000000I0J-500000D01*
G01*
X131000000Y-101500000D02*
G75*
G02*
X130500000Y-101000000I0J500000D01*
G01*
X139500000Y-103000000D02*
G75*
G02*
X131500000Y-103000000I-4000000J0D01*
G01*
%TD*%
D11*
%TO.P,R2,1*%
%TO.N,Net-(D2-K)*%
X141000000Y-106912500D03*
%TO.P,R2,2*%
%TO.N,GND*%
X141000000Y-105087500D03*
%TD*%
D12*
%TO.P,D1,1,K*%
%TO.N,Net-(D1-K)*%
X153500000Y-107400000D03*
%TO.P,D1,2,A*%
%TO.N,LED1*%
X153500000Y-104600000D03*
%TD*%
D13*
%TO.P,U1,1,VCC*%
%TO.N,VCC*%
X159025000Y-86190000D03*
%TO.P,U1,2,PA4*%
%TO.N,unconnected-(U1-PA4-Pad2)*%
X159025000Y-87460000D03*
%TO.P,U1,3,PA5*%
%TO.N,unconnected-(U1-PA5-Pad3)*%
X159025000Y-88730000D03*
%TO.P,U1,4,PA6*%
%TO.N,unconnected-(U1-PA6-Pad4)*%
X159025000Y-90000000D03*
%TO.P,U1,5,PA7*%
%TO.N,/Project Architecture/Section B - uC/TT*%
X159025000Y-91270000D03*
%TO.P,U1,6,PB3*%
%TO.N,/Project Architecture/Section B - uC/SR_CLK*%
X159025000Y-92540000D03*
%TO.P,U1,7,PB2*%
%TO.N,/Project Architecture/Section B - uC/SR_LATCH*%
X159025000Y-93810000D03*
%TO.P,U1,8,PB1*%
%TO.N,LED1*%
X163975000Y-93810000D03*
%TO.P,U1,9,PB0*%
%TO.N,/Project Architecture/Section B - uC/SR_SDI*%
X163975000Y-92540000D03*
%TO.P,U1,10,~{RESET}/PA0*%
%TO.N,/Project Architecture/Section B - uC/UPDI*%
X163975000Y-91270000D03*
%TO.P,U1,11,PA1*%
%TO.N,unconnected-(U1-PA1-Pad11)*%
X163975000Y-90000000D03*
%TO.P,U1,12,PA2*%
%TO.N,LED2*%
X163975000Y-88730000D03*
%TO.P,U1,13,PA3*%
%TO.N,unconnected-(U1-PA3-Pad13)*%
X163975000Y-87460000D03*
%TO.P,U1,14,GND*%
%TO.N,GND*%
X163975000Y-86190000D03*
%TD*%
D14*
%TO.P,TP1,1,1*%
%TO.N,GND*%
X131500000Y-81000000D03*
%TD*%
D15*
%TO.P,R3,1*%
%TO.N,GND*%
X134412500Y-98000000D03*
%TO.P,R3,2*%
%TO.N,/Project Architecture/Section B - uC/TT*%
X132587500Y-98000000D03*
%TD*%
D16*
%TO.P,Rd2,1*%
%TO.N,Net-(J2-CC)*%
X156500000Y-75587500D03*
%TO.P,Rd2,2*%
%TO.N,GND*%
X156500000Y-77412500D03*
%TD*%
%TO.P,Rd1,1*%
%TO.N,Net-(J2-VCONN)*%
X140500000Y-75587500D03*
%TO.P,Rd1,2*%
%TO.N,GND*%
X140500000Y-77412500D03*
%TD*%
D17*
%TO.P,C1,1*%
%TO.N,GND*%
X162975000Y-83000000D03*
%TO.P,C1,2*%
%TO.N,VCC*%
X160025000Y-83000000D03*
%TD*%
D12*
%TO.P,D2,1,K*%
%TO.N,Net-(D2-K)*%
X143500000Y-107400000D03*
%TO.P,D2,2,A*%
%TO.N,LED2*%
X143500000Y-104600000D03*
%TD*%
D18*
%TO.P,Cd2,1*%
%TO.N,GND*%
X132025000Y-86000000D03*
%TO.P,Cd2,2*%
%TO.N,VCC*%
X134975000Y-86000000D03*
%TD*%
D19*
%TO.P,Rs1,1*%
%TO.N,Net-(U2-SNSK)*%
X132587500Y-95000000D03*
%TO.P,Rs1,2*%
%TO.N,/Project Architecture/Section C - Touch sensor/TOUCH*%
X134412500Y-95000000D03*
%TD*%
D11*
%TO.P,R1,1*%
%TO.N,Net-(D1-K)*%
X156000000Y-106912500D03*
%TO.P,R1,2*%
%TO.N,GND*%
X156000000Y-105087500D03*
%TD*%
D20*
%TO.P,B1,1,SDI*%
%TO.N,/Project Architecture/Section B - uC/SR_SDI*%
X133100000Y-77000000D03*
X133802944Y-75302944D03*
X133802944Y-78697056D03*
X135500000Y-74600000D03*
D21*
X135500000Y-77000000D03*
D20*
X135500000Y-79400000D03*
X137197056Y-75302944D03*
X137197056Y-78697056D03*
X137900000Y-77000000D03*
%TO.P,B1,2,VCC*%
%TO.N,VCC*%
X159100000Y-77000000D03*
X159802944Y-75302944D03*
X159802944Y-78697056D03*
X161500000Y-74600000D03*
D21*
X161500000Y-77000000D03*
D20*
X161500000Y-79400000D03*
X163197056Y-75302944D03*
X163197056Y-78697056D03*
X163900000Y-77000000D03*
%TO.P,B1,3,GND*%
%TO.N,GND*%
X159100000Y-103000000D03*
X159802944Y-101302944D03*
X159802944Y-104697056D03*
X161500000Y-100600000D03*
D21*
X161500000Y-103000000D03*
D20*
X161500000Y-105400000D03*
X163197056Y-101302944D03*
X163197056Y-104697056D03*
X163900000Y-103000000D03*
%TO.P,B1,4,CLK*%
%TO.N,/Project Architecture/Section B - uC/SR_CLK*%
X133100000Y-103000000D03*
X133802944Y-101302944D03*
X133802944Y-104697056D03*
X135500000Y-100600000D03*
D21*
X135500000Y-103000000D03*
D20*
X135500000Y-105400000D03*
X137197056Y-101302944D03*
X137197056Y-104697056D03*
X137900000Y-103000000D03*
%TO.P,B1,5,LATCH*%
%TO.N,/Project Architecture/Section B - uC/SR_LATCH*%
X146100000Y-97000000D03*
X146802944Y-95302944D03*
X146802944Y-98697056D03*
X148500000Y-94600000D03*
D21*
X148500000Y-97000000D03*
D20*
X148500000Y-99400000D03*
X150197056Y-95302944D03*
X150197056Y-98697056D03*
X150900000Y-97000000D03*
%TD*%
D22*
%TO.P,Cs1,1*%
%TO.N,Net-(U2-SNSK)*%
X132550000Y-93000000D03*
%TO.P,Cs1,2*%
%TO.N,Net-(U2-SNS)*%
X134450000Y-93000000D03*
%TD*%
D23*
%TO.P,J1,1,VCC*%
%TO.N,unconnected-(J1-VCC-Pad1)*%
X147230000Y-106635000D03*
%TO.P,J1,2,SWDIO*%
%TO.N,VCC*%
X147230000Y-105365000D03*
%TO.P,J1,3,~{RESET}*%
%TO.N,unconnected-(J1-~{RESET}-Pad3)*%
X148500000Y-106635000D03*
%TO.P,J1,4,SWCLK*%
%TO.N,/Project Architecture/Section B - uC/UPDI*%
X148500000Y-105365000D03*
%TO.P,J1,5,GND*%
%TO.N,GND*%
X149770000Y-106635000D03*
%TO.P,J1,6,SWO*%
%TO.N,unconnected-(J1-SWO-Pad6)*%
X149770000Y-105365000D03*
%TD*%
D24*
%TO.P,J2,A5,CC*%
%TO.N,Net-(J2-CC)*%
X149000000Y-77635000D03*
D25*
%TO.P,J2,A9,VBUS_A*%
%TO.N,VCC*%
X146980000Y-77635000D03*
D26*
%TO.P,J2,A12,GND_A*%
%TO.N,GND*%
X145750000Y-77635000D03*
D24*
%TO.P,J2,B5,VCONN*%
%TO.N,Net-(J2-VCONN)*%
X148000000Y-77635000D03*
D25*
%TO.P,J2,B9,VBUS_B*%
%TO.N,VCC*%
X150020000Y-77635000D03*
D26*
%TO.P,J2,B12,GND_B*%
%TO.N,GND*%
X151250000Y-77635000D03*
D27*
%TO.P,J2,S1,SHIELD*%
%TO.N,unconnected-(J2-SHIELD-PadS1)*%
X153625000Y-77580000D03*
D28*
%TO.P,J2,S2,SHIELD*%
%TO.N,unconnected-(J2-SHIELD-PadS1)_2*%
X153625000Y-74000000D03*
%TO.P,J2,S3,SHIELD*%
%TO.N,unconnected-(J2-SHIELD-PadS1)_3*%
X143375000Y-74000000D03*
D27*
%TO.P,J2,S4,SHIELD*%
%TO.N,unconnected-(J2-SHIELD-PadS1)_1*%
X143375000Y-77580000D03*
%TD*%
D29*
%TO.P,U2,1,OUT*%
%TO.N,/Project Architecture/Section B - uC/TT*%
X132362500Y-89050000D03*
%TO.P,U2,2,VSS*%
%TO.N,GND*%
X132362500Y-90000000D03*
%TO.P,U2,3,SNSK*%
%TO.N,Net-(U2-SNSK)*%
X132362500Y-90950000D03*
%TO.P,U2,4,SNS*%
%TO.N,Net-(U2-SNS)*%
X134637500Y-90950000D03*
%TO.P,U2,5,VDD*%
%TO.N,VCC*%
X134637500Y-90000000D03*
%TO.P,U2,6,TIME*%
%TO.N,GND*%
X134637500Y-89050000D03*
%TD*%
D30*
%TO.N,GND*%
X164500000Y-82000000D03*
X139500000Y-84000000D03*
X162500000Y-81000000D03*
X165500000Y-88000000D03*
X148500000Y-76000000D03*
X130500000Y-102000000D03*
X135500000Y-82000000D03*
X165500000Y-89000000D03*
X141500000Y-78500000D03*
X139500000Y-78500000D03*
X140500000Y-78500000D03*
X157500000Y-78500000D03*
X150500000Y-81000000D03*
X146500000Y-81000000D03*
X133500000Y-88000000D03*
X165500000Y-86000000D03*
X165500000Y-104000000D03*
X142500000Y-99000000D03*
X157500000Y-84000000D03*
X140500000Y-74500000D03*
X164500000Y-95000000D03*
X165500000Y-100000000D03*
X156500000Y-98000000D03*
X157500000Y-107000000D03*
X165500000Y-84000000D03*
X161500000Y-73000000D03*
X141500000Y-99000000D03*
X155500000Y-78500000D03*
X130500000Y-86000000D03*
X163500000Y-85000000D03*
X138500000Y-99000000D03*
X133500000Y-84000000D03*
X147500000Y-73000000D03*
X161500000Y-88000000D03*
X140500000Y-108000000D03*
X135500000Y-108000000D03*
X164500000Y-81000000D03*
X164500000Y-84000000D03*
X165500000Y-87000000D03*
X136500000Y-73000000D03*
X160500000Y-88000000D03*
X130500000Y-76000000D03*
X160500000Y-99000000D03*
X131500000Y-77000000D03*
X130500000Y-104000000D03*
X145500000Y-100000000D03*
X134500000Y-82000000D03*
X152500000Y-81000000D03*
X165500000Y-82000000D03*
X164500000Y-83000000D03*
X143500000Y-99000000D03*
X137500000Y-99000000D03*
X131500000Y-100000000D03*
X160500000Y-89000000D03*
X142500000Y-81000000D03*
X156500000Y-74500000D03*
X160500000Y-73000000D03*
X161500000Y-98000000D03*
X149500000Y-75000000D03*
X137500000Y-91000000D03*
X136500000Y-91000000D03*
X163500000Y-81000000D03*
X158500000Y-95000000D03*
X134500000Y-72000000D03*
X140500000Y-104000000D03*
X134500000Y-84000000D03*
X146500000Y-74000000D03*
X136500000Y-108000000D03*
X137500000Y-108000000D03*
X165500000Y-83000000D03*
X130500000Y-77000000D03*
X134500000Y-108000000D03*
X144500000Y-81000000D03*
X130500000Y-84000000D03*
X135500000Y-99000000D03*
X137500000Y-89000000D03*
X154500000Y-81000000D03*
X139500000Y-108000000D03*
X155500000Y-104000000D03*
X157500000Y-106000000D03*
X165500000Y-98000000D03*
X155500000Y-82000000D03*
X144500000Y-100000000D03*
X163500000Y-95000000D03*
X135500000Y-72000000D03*
X151500000Y-73000000D03*
X131500000Y-78000000D03*
X132500000Y-84000000D03*
X157500000Y-105000000D03*
X156500000Y-83000000D03*
X130500000Y-89000000D03*
X139500000Y-99000000D03*
X148500000Y-74000000D03*
X162500000Y-97000000D03*
X141500000Y-108000000D03*
X157500000Y-102000000D03*
X163500000Y-96000000D03*
X165500000Y-76000000D03*
X134500000Y-73000000D03*
X165500000Y-90000000D03*
X165500000Y-81000000D03*
X130500000Y-78000000D03*
X139500000Y-74500000D03*
X164500000Y-85000000D03*
X141500000Y-82000000D03*
X157500000Y-97000000D03*
X134500000Y-81000000D03*
X136500000Y-81000000D03*
X165500000Y-96000000D03*
X130500000Y-87000000D03*
X137500000Y-87000000D03*
X131500000Y-84000000D03*
X140500000Y-83000000D03*
X159500000Y-100000000D03*
X165500000Y-80000000D03*
X136500000Y-72000000D03*
X160500000Y-90000000D03*
X165500000Y-78000000D03*
X157500000Y-104000000D03*
X165500000Y-85000000D03*
X130500000Y-103000000D03*
X132500000Y-88000000D03*
X157500000Y-74500000D03*
X141500000Y-104000000D03*
X165500000Y-91000000D03*
X158500000Y-96000000D03*
X158500000Y-101000000D03*
X138500000Y-91000000D03*
X165500000Y-103000000D03*
X165500000Y-99000000D03*
X155500000Y-99000000D03*
X131500000Y-88000000D03*
X161500000Y-89000000D03*
X141500000Y-74500000D03*
X140500000Y-99000000D03*
X165500000Y-97000000D03*
X138500000Y-108000000D03*
X165500000Y-79000000D03*
X130500000Y-88000000D03*
X165500000Y-95000000D03*
X165500000Y-102000000D03*
X160500000Y-107000000D03*
X149500000Y-73000000D03*
X156500000Y-78500000D03*
X157500000Y-103000000D03*
X150500000Y-74000000D03*
X162500000Y-107000000D03*
X137500000Y-88000000D03*
X156500000Y-104000000D03*
X155500000Y-74500000D03*
X162500000Y-73000000D03*
X165500000Y-94000000D03*
X147500000Y-75000000D03*
X136500000Y-82000000D03*
X134500000Y-88000000D03*
X135500000Y-81000000D03*
X162500000Y-88000000D03*
X165500000Y-101000000D03*
X162500000Y-85000000D03*
X145500000Y-73000000D03*
X130500000Y-85000000D03*
X135500000Y-73000000D03*
X161500000Y-107000000D03*
X136500000Y-99000000D03*
X131500000Y-99000000D03*
X131500000Y-76000000D03*
%TO.N,/Project Architecture/Section C - Touch sensor/TOUCH*%
X139500000Y-95000000D03*
%TO.N,VCC*%
X145500000Y-103000000D03*
X146500000Y-103000000D03*
X146500000Y-104000000D03*
X147500000Y-104000000D03*
X147500000Y-103000000D03*
X145500000Y-104000000D03*
%TD*%
D10*
%TO.N,/Project Architecture/Section B - uC/UPDI*%
X155567100Y-102500000D02*
X149000000Y-102500000D01*
X162000000Y-92000000D02*
X162000000Y-96067100D01*
X148500000Y-103000000D02*
X149000000Y-102500000D01*
X162000000Y-96067100D02*
X155567100Y-102500000D01*
X148500000Y-103000000D02*
X148500000Y-105365000D01*
X163230000Y-91270000D02*
X164507500Y-91270000D01*
X162730000Y-91270000D02*
X162000000Y-92000000D01*
X163975000Y-91270000D02*
X162730000Y-91270000D01*
%TO.N,Net-(U2-SNSK)*%
X132587500Y-91175000D02*
X132362500Y-90950000D01*
X132587500Y-95000000D02*
X132587500Y-91175000D01*
%TO.N,Net-(U2-SNS)*%
X134450000Y-91137500D02*
X134637500Y-90950000D01*
X134450000Y-93000000D02*
X134450000Y-91137500D01*
%TO.N,/Project Architecture/Section B - uC/TT*%
X130500000Y-90000000D02*
X130500000Y-98000000D01*
X155432900Y-101500000D02*
X154000000Y-101500000D01*
X160385000Y-91270000D02*
X161000000Y-91885000D01*
X160966450Y-95966450D02*
X155432900Y-101500000D01*
X161000000Y-95500000D02*
X161000000Y-95932900D01*
X154000000Y-101500000D02*
X140000000Y-101500000D01*
X130500000Y-98000000D02*
X130500000Y-101000000D01*
X131500000Y-102000000D02*
X131500000Y-103000000D01*
X161000000Y-91885000D02*
X161000000Y-95500000D01*
X161000000Y-95932900D02*
X160966450Y-95966450D01*
X132587500Y-98000000D02*
X130500000Y-98000000D01*
X139500000Y-102000000D02*
X139500000Y-103000000D01*
X132362500Y-89050000D02*
X131450000Y-89050000D01*
X159025000Y-91270000D02*
X160385000Y-91270000D01*
X131450000Y-89050000D02*
X130500000Y-90000000D01*
%TO.N,/Project Architecture/Section C - Touch sensor/TOUCH*%
X134412500Y-95000000D02*
X139500000Y-95000000D01*
%TO.N,unconnected-(U1-PA5-Pad3)*%
X159557500Y-88730000D02*
X159770000Y-88730000D01*
D31*
%TO.N,Net-(D2-K)*%
X143012500Y-106912500D02*
X141000000Y-106912500D01*
X143500000Y-107400000D02*
X143012500Y-106912500D01*
%TO.N,Net-(D1-K)*%
X153987500Y-106912500D02*
X153500000Y-107400000D01*
X156000000Y-106912500D02*
X153987500Y-106912500D01*
X153500000Y-107400000D02*
X154100000Y-107400000D01*
D10*
%TO.N,LED1*%
X154000000Y-103000000D02*
X153500000Y-103500000D01*
X162500000Y-96134200D02*
X155634200Y-103000000D01*
X153500000Y-103500000D02*
X153500000Y-104600000D01*
X163975000Y-93810000D02*
X162690000Y-93810000D01*
X155634200Y-103000000D02*
X154000000Y-103000000D01*
X162500000Y-94000000D02*
X162500000Y-96134200D01*
X162690000Y-93810000D02*
X162500000Y-94000000D01*
%TO.N,/Project Architecture/Section B - uC/SR_SDI*%
X165960000Y-92540000D02*
X166500000Y-92000000D01*
X166500000Y-77000000D02*
X166500000Y-92000000D01*
X140500000Y-72000000D02*
X135500000Y-77000000D01*
X164507500Y-92540000D02*
X165960000Y-92540000D01*
X161500000Y-72000000D02*
X140500000Y-72000000D01*
%TO.N,VCC*%
X134975000Y-86000000D02*
X136500000Y-86000000D01*
X150020000Y-77635000D02*
X150020000Y-79520000D01*
X150020000Y-79520000D02*
X158980000Y-79520000D01*
X150020000Y-79520000D02*
X140980000Y-79520000D01*
X136000000Y-90000000D02*
X134637500Y-90000000D01*
X146980000Y-77635000D02*
X146980000Y-79480000D01*
X158980000Y-79520000D02*
X161500000Y-77000000D01*
X136500000Y-89500000D02*
X136000000Y-90000000D01*
D31*
X147230000Y-104270000D02*
X147500000Y-104000000D01*
D10*
X136500000Y-86000000D02*
X136500000Y-89500000D01*
D31*
X147230000Y-105365000D02*
X147230000Y-104270000D01*
D10*
X140980000Y-79520000D02*
X136500000Y-84000000D01*
X136500000Y-84000000D02*
X136500000Y-86000000D01*
%TO.N,Net-(J2-VCONN)*%
X147087500Y-75587500D02*
X140500000Y-75587500D01*
X148000000Y-76500000D02*
X147087500Y-75587500D01*
X148000000Y-77635000D02*
X148000000Y-76500000D01*
%TO.N,Net-(J2-CC)*%
X156500000Y-75587500D02*
X149912500Y-75587500D01*
X149000000Y-76500000D02*
X149000000Y-77635000D01*
X149912500Y-75587500D02*
X149000000Y-76500000D01*
%TO.N,/Project Architecture/Section B - uC/SR_CLK*%
X159025000Y-92540000D02*
X160040000Y-92540000D01*
X160040000Y-92540000D02*
X160500000Y-93000000D01*
X137000000Y-103000000D02*
X139000000Y-101000000D01*
X155365800Y-101000000D02*
X139000000Y-101000000D01*
X160500000Y-93000000D02*
X160500000Y-95865800D01*
X135500000Y-103000000D02*
X137000000Y-103000000D01*
X160500000Y-95865800D02*
X155365800Y-101000000D01*
%TO.N,/Project Architecture/Section B - uC/SR_LATCH*%
X159025000Y-94475000D02*
X159000000Y-94500000D01*
X159500000Y-95000000D02*
X159500000Y-96298700D01*
X159000000Y-94500000D02*
X159500000Y-95000000D01*
X159025000Y-93810000D02*
X159025000Y-94475000D01*
X159500000Y-96298700D02*
X155298700Y-100500000D01*
X152000000Y-100500000D02*
X148500000Y-97000000D01*
X148500000Y-100000000D02*
X148500000Y-97000000D01*
X155298700Y-100500000D02*
X152000000Y-100500000D01*
%TO.N,LED2*%
X144000000Y-102000000D02*
X143500000Y-102500000D01*
X162770000Y-88730000D02*
X161500000Y-90000000D01*
X155500000Y-102000000D02*
X144000000Y-102000000D01*
X161500000Y-90000000D02*
X161500000Y-96000000D01*
X143500000Y-102500000D02*
X143500000Y-104600000D01*
X163975000Y-88730000D02*
X162770000Y-88730000D01*
X161500000Y-96000000D02*
X155500000Y-102000000D01*
%TD*%
%TA.AperFunction,Conductor*%
%TO.N,VCC*%
G36*
X147408691Y-77018907D02*
G01*
X147444655Y-77068407D01*
X147449500Y-77099000D01*
X147449500Y-78254746D01*
X147449501Y-78254758D01*
X147461132Y-78313227D01*
X147461134Y-78313233D01*
X147505445Y-78379548D01*
X147505448Y-78379552D01*
X147571769Y-78423867D01*
X147616231Y-78432711D01*
X147630241Y-78435498D01*
X147630246Y-78435498D01*
X147630252Y-78435500D01*
X147630253Y-78435500D01*
X148369747Y-78435500D01*
X148369748Y-78435500D01*
X148428231Y-78423867D01*
X148444997Y-78412663D01*
X148503885Y-78396054D01*
X148555002Y-78412663D01*
X148571769Y-78423867D01*
X148616231Y-78432711D01*
X148630241Y-78435498D01*
X148630246Y-78435498D01*
X148630252Y-78435500D01*
X148630253Y-78435500D01*
X149369747Y-78435500D01*
X149369748Y-78435500D01*
X149428231Y-78423867D01*
X149494552Y-78379552D01*
X149538867Y-78313231D01*
X149550500Y-78254748D01*
X149550500Y-77099000D01*
X149569407Y-77040809D01*
X149618907Y-77004845D01*
X149649500Y-77000000D01*
X150401000Y-77000000D01*
X150459191Y-77018907D01*
X150495155Y-77068407D01*
X150500000Y-77099000D01*
X150500000Y-79000000D01*
X156500000Y-79000000D01*
X157500000Y-79000000D01*
X157518193Y-78992464D01*
X157518354Y-78992853D01*
X157550020Y-78976719D01*
X157558281Y-78976068D01*
X157562596Y-78975500D01*
X157562601Y-78975500D01*
X157683536Y-78943095D01*
X157791964Y-78880495D01*
X157880495Y-78791964D01*
X157943095Y-78683536D01*
X157975500Y-78562601D01*
X157975500Y-78562596D01*
X157976347Y-78556168D01*
X157978444Y-78556444D01*
X157994407Y-78507317D01*
X158004496Y-78495504D01*
X159471004Y-77028996D01*
X159525521Y-77001219D01*
X159541008Y-77000000D01*
X161401000Y-77000000D01*
X161459191Y-77018907D01*
X161495155Y-77068407D01*
X161500000Y-77099000D01*
X161500000Y-85458992D01*
X161481093Y-85517183D01*
X161471004Y-85528996D01*
X160528996Y-86471004D01*
X160474479Y-86498781D01*
X160458992Y-86500000D01*
X158599000Y-86500000D01*
X158540809Y-86481093D01*
X158504845Y-86431593D01*
X158500000Y-86401000D01*
X158500000Y-83000001D01*
X158500000Y-83000000D01*
X155500000Y-80000000D01*
X155499999Y-80000000D01*
X141500001Y-80000000D01*
X141500000Y-80000000D01*
X136500000Y-85000000D01*
X136500000Y-85000001D01*
X136500000Y-88260992D01*
X136481093Y-88319183D01*
X136431593Y-88355147D01*
X136370407Y-88355147D01*
X136330996Y-88330996D01*
X136260992Y-88260992D01*
X135500000Y-87500000D01*
X135499999Y-87500000D01*
X134599000Y-87500000D01*
X134540809Y-87481093D01*
X134504845Y-87431593D01*
X134500000Y-87401000D01*
X134500000Y-84599000D01*
X134518907Y-84540809D01*
X134568407Y-84504845D01*
X134599000Y-84500000D01*
X135499999Y-84500000D01*
X135500000Y-84500000D01*
X136500000Y-83500000D01*
X137000000Y-83000000D01*
X137000000Y-81041008D01*
X137018907Y-80982817D01*
X137028996Y-80971004D01*
X138971004Y-79028996D01*
X139025521Y-79001219D01*
X139041008Y-79000000D01*
X146499999Y-79000000D01*
X146500000Y-79000000D01*
X146500000Y-77099000D01*
X146518907Y-77040809D01*
X146568407Y-77004845D01*
X146599000Y-77000000D01*
X147350500Y-77000000D01*
X147408691Y-77018907D01*
G37*
%TD.AperFunction*%
%TD*%
%TA.AperFunction,Conductor*%
%TO.N,GND*%
G36*
X161501934Y-71250576D02*
G01*
X161947225Y-71268071D01*
X161954956Y-71268680D01*
X162395572Y-71320830D01*
X162403217Y-71322041D01*
X162838394Y-71408603D01*
X162845928Y-71410412D01*
X163272958Y-71530847D01*
X163280329Y-71533242D01*
X163696608Y-71686816D01*
X163703762Y-71689779D01*
X164106701Y-71875536D01*
X164113597Y-71879050D01*
X164500719Y-72095848D01*
X164507326Y-72099897D01*
X164708032Y-72234005D01*
X164876241Y-72346399D01*
X164882529Y-72350968D01*
X165230943Y-72625635D01*
X165236854Y-72630683D01*
X165562653Y-72931849D01*
X165568150Y-72937346D01*
X165869316Y-73263145D01*
X165874364Y-73269056D01*
X166149031Y-73617470D01*
X166153600Y-73623758D01*
X166400095Y-73992662D01*
X166404155Y-73999288D01*
X166604270Y-74356620D01*
X166620941Y-74386387D01*
X166624468Y-74393309D01*
X166798008Y-74769748D01*
X166810214Y-74796224D01*
X166813189Y-74803405D01*
X166966753Y-75219659D01*
X166969155Y-75227052D01*
X167089584Y-75654059D01*
X167091399Y-75661618D01*
X167177955Y-76096765D01*
X167179171Y-76104443D01*
X167231318Y-76545034D01*
X167231928Y-76552783D01*
X167249424Y-76998065D01*
X167249500Y-77001952D01*
X167249500Y-102998047D01*
X167249424Y-103001934D01*
X167231928Y-103447216D01*
X167231318Y-103454965D01*
X167179171Y-103895556D01*
X167177955Y-103903234D01*
X167091399Y-104338381D01*
X167089584Y-104345940D01*
X166969155Y-104772947D01*
X166966753Y-104780340D01*
X166813189Y-105196594D01*
X166810214Y-105203775D01*
X166624470Y-105606686D01*
X166620941Y-105613612D01*
X166404157Y-106000708D01*
X166400095Y-106007337D01*
X166153600Y-106376241D01*
X166149031Y-106382529D01*
X165874364Y-106730943D01*
X165869316Y-106736854D01*
X165568150Y-107062653D01*
X165562653Y-107068150D01*
X165236854Y-107369316D01*
X165230943Y-107374364D01*
X164882529Y-107649031D01*
X164876241Y-107653600D01*
X164507337Y-107900095D01*
X164500708Y-107904157D01*
X164113612Y-108120941D01*
X164106686Y-108124470D01*
X163703775Y-108310214D01*
X163696594Y-108313189D01*
X163280340Y-108466753D01*
X163272947Y-108469155D01*
X162845940Y-108589584D01*
X162838381Y-108591399D01*
X162403234Y-108677955D01*
X162395556Y-108679171D01*
X161954965Y-108731318D01*
X161947216Y-108731928D01*
X161501934Y-108749424D01*
X161498047Y-108749500D01*
X135501953Y-108749500D01*
X135498066Y-108749424D01*
X135052783Y-108731928D01*
X135045034Y-108731318D01*
X134604443Y-108679171D01*
X134596765Y-108677955D01*
X134161618Y-108591399D01*
X134154059Y-108589584D01*
X133727052Y-108469155D01*
X133719659Y-108466753D01*
X133303405Y-108313189D01*
X133296224Y-108310214D01*
X133112465Y-108225500D01*
X132893309Y-108124468D01*
X132886392Y-108120943D01*
X132499288Y-107904155D01*
X132492662Y-107900095D01*
X132432211Y-107859703D01*
X132385780Y-107828678D01*
X132123758Y-107653600D01*
X132117470Y-107649031D01*
X131769056Y-107374364D01*
X131763145Y-107369316D01*
X131437346Y-107068150D01*
X131431849Y-107062653D01*
X131130683Y-106736854D01*
X131125635Y-106730943D01*
X130850968Y-106382529D01*
X130846399Y-106376241D01*
X130749275Y-106230885D01*
X130599897Y-106007326D01*
X130595848Y-106000719D01*
X130379050Y-105613597D01*
X130375536Y-105606701D01*
X130189779Y-105203762D01*
X130186816Y-105196608D01*
X130033242Y-104780329D01*
X130030847Y-104772958D01*
X129910412Y-104345928D01*
X129908603Y-104338394D01*
X129822041Y-103903217D01*
X129820830Y-103895572D01*
X129768680Y-103454956D01*
X129768071Y-103447216D01*
X129765400Y-103379239D01*
X129750576Y-103001934D01*
X129750500Y-102998047D01*
X129750500Y-89960435D01*
X130199500Y-89960435D01*
X130199500Y-101078844D01*
X130230263Y-101233496D01*
X130230263Y-101233498D01*
X130290603Y-101379174D01*
X130290609Y-101379185D01*
X130343312Y-101458059D01*
X130378211Y-101510289D01*
X130489711Y-101621789D01*
X130567876Y-101674017D01*
X130620814Y-101709390D01*
X130620825Y-101709396D01*
X130674638Y-101731685D01*
X130766503Y-101769737D01*
X130921158Y-101800500D01*
X130952405Y-101800500D01*
X130992210Y-101800500D01*
X131007696Y-101801719D01*
X131022753Y-101804103D01*
X131046162Y-101807811D01*
X131075614Y-101817379D01*
X131103294Y-101831483D01*
X131128347Y-101849685D01*
X131150314Y-101871652D01*
X131168517Y-101896707D01*
X131182618Y-101924381D01*
X131192188Y-101953835D01*
X131198281Y-101992302D01*
X131199500Y-102007790D01*
X131199500Y-103198828D01*
X131236190Y-103594778D01*
X131236191Y-103594787D01*
X131309256Y-103985650D01*
X131418078Y-104368119D01*
X131418079Y-104368122D01*
X131561668Y-104738769D01*
X131561731Y-104738930D01*
X131738971Y-105094877D01*
X131948305Y-105432961D01*
X131948307Y-105432964D01*
X131948308Y-105432965D01*
X132187945Y-105750296D01*
X132187949Y-105750300D01*
X132187951Y-105750303D01*
X132278837Y-105850000D01*
X132455839Y-106044161D01*
X132582384Y-106159522D01*
X132711125Y-106276886D01*
X132749704Y-106312055D01*
X133067027Y-106551686D01*
X133067038Y-106551694D01*
X133405122Y-106761028D01*
X133761069Y-106938268D01*
X133761073Y-106938269D01*
X133761082Y-106938274D01*
X134131878Y-107081921D01*
X134514346Y-107190742D01*
X134514350Y-107190743D01*
X134514349Y-107190743D01*
X134905212Y-107263808D01*
X134905215Y-107263808D01*
X134905224Y-107263810D01*
X135301176Y-107300500D01*
X135301181Y-107300500D01*
X135698819Y-107300500D01*
X135698824Y-107300500D01*
X136094776Y-107263810D01*
X136094787Y-107263808D01*
X136485650Y-107190743D01*
X136485654Y-107190742D01*
X136868122Y-107081921D01*
X137238918Y-106938274D01*
X137371918Y-106872048D01*
X137594877Y-106761028D01*
X137743408Y-106669061D01*
X137861849Y-106595725D01*
X140099500Y-106595725D01*
X140099500Y-107229274D01*
X140102353Y-107259694D01*
X140102355Y-107259703D01*
X140147207Y-107387883D01*
X140227845Y-107497144D01*
X140227847Y-107497146D01*
X140227850Y-107497150D01*
X140227853Y-107497152D01*
X140227855Y-107497154D01*
X140337116Y-107577792D01*
X140337117Y-107577792D01*
X140337118Y-107577793D01*
X140465301Y-107622646D01*
X140495725Y-107625499D01*
X140495727Y-107625500D01*
X140495734Y-107625500D01*
X141504273Y-107625500D01*
X141504273Y-107625499D01*
X141534699Y-107622646D01*
X141662882Y-107577793D01*
X141772150Y-107497150D01*
X141799903Y-107459546D01*
X141841480Y-107403212D01*
X141891248Y-107367619D01*
X141921135Y-107363000D01*
X142325500Y-107363000D01*
X142383691Y-107381907D01*
X142419655Y-107431407D01*
X142424500Y-107462000D01*
X142424500Y-107829274D01*
X142427353Y-107859694D01*
X142427355Y-107859703D01*
X142472207Y-107987883D01*
X142552845Y-108097144D01*
X142552847Y-108097146D01*
X142552850Y-108097150D01*
X142552853Y-108097152D01*
X142552855Y-108097154D01*
X142662116Y-108177792D01*
X142662117Y-108177792D01*
X142662118Y-108177793D01*
X142790301Y-108222646D01*
X142820725Y-108225499D01*
X142820727Y-108225500D01*
X142820734Y-108225500D01*
X144179273Y-108225500D01*
X144179273Y-108225499D01*
X144209699Y-108222646D01*
X144337882Y-108177793D01*
X144447150Y-108097150D01*
X144527793Y-107987882D01*
X144572646Y-107859699D01*
X144575499Y-107829273D01*
X144575500Y-107829273D01*
X144575500Y-106970727D01*
X144575499Y-106970725D01*
X144572646Y-106940305D01*
X144572646Y-106940301D01*
X144527793Y-106812118D01*
X144490086Y-106761027D01*
X144447154Y-106702855D01*
X144447152Y-106702853D01*
X144447150Y-106702850D01*
X144447146Y-106702847D01*
X144447144Y-106702845D01*
X144337883Y-106622207D01*
X144209703Y-106577355D01*
X144209694Y-106577353D01*
X144179274Y-106574500D01*
X144179266Y-106574500D01*
X143352028Y-106574500D01*
X143293837Y-106555593D01*
X143291758Y-106554040D01*
X143289109Y-106552007D01*
X143186390Y-106492702D01*
X143186386Y-106492700D01*
X143162173Y-106486212D01*
X143162173Y-106486213D01*
X143071809Y-106462000D01*
X143071807Y-106462000D01*
X141921135Y-106462000D01*
X141862944Y-106443093D01*
X141841480Y-106421788D01*
X141772154Y-106327855D01*
X141772152Y-106327853D01*
X141772150Y-106327850D01*
X141772146Y-106327847D01*
X141772144Y-106327845D01*
X141662883Y-106247207D01*
X141534703Y-106202355D01*
X141534694Y-106202353D01*
X141504274Y-106199500D01*
X141504266Y-106199500D01*
X140495734Y-106199500D01*
X140495725Y-106199500D01*
X140465305Y-106202353D01*
X140465296Y-106202355D01*
X140337116Y-106247207D01*
X140227855Y-106327845D01*
X140227845Y-106327855D01*
X140147207Y-106437116D01*
X140102355Y-106565296D01*
X140102353Y-106565305D01*
X140099500Y-106595725D01*
X137861849Y-106595725D01*
X137932965Y-106551692D01*
X138250296Y-106312055D01*
X138544161Y-106044161D01*
X138812055Y-105750296D01*
X139051692Y-105432965D01*
X139073450Y-105397824D01*
X140049999Y-105397824D01*
X140056401Y-105457370D01*
X140056403Y-105457381D01*
X140106646Y-105592088D01*
X140106647Y-105592090D01*
X140192807Y-105707184D01*
X140192815Y-105707192D01*
X140307909Y-105793352D01*
X140307911Y-105793353D01*
X140442618Y-105843596D01*
X140442629Y-105843598D01*
X140502176Y-105850000D01*
X140874999Y-105850000D01*
X140875000Y-105849999D01*
X140875000Y-105212501D01*
X141125000Y-105212501D01*
X141125000Y-105849999D01*
X141125001Y-105850000D01*
X141497824Y-105850000D01*
X141557370Y-105843598D01*
X141557381Y-105843596D01*
X141692088Y-105793353D01*
X141692090Y-105793352D01*
X141807184Y-105707192D01*
X141807192Y-105707184D01*
X141893352Y-105592090D01*
X141893353Y-105592088D01*
X141943596Y-105457381D01*
X141943598Y-105457370D01*
X141950000Y-105397824D01*
X141950000Y-105212501D01*
X141949999Y-105212500D01*
X141125001Y-105212500D01*
X141125000Y-105212501D01*
X140875000Y-105212501D01*
X140874999Y-105212500D01*
X140050001Y-105212500D01*
X140050000Y-105212501D01*
X140050000Y-105397824D01*
X140049999Y-105397824D01*
X139073450Y-105397824D01*
X139188198Y-105212501D01*
X139245859Y-105119376D01*
X139261028Y-105094877D01*
X139419224Y-104777175D01*
X140050000Y-104777175D01*
X140050000Y-104962499D01*
X140050001Y-104962500D01*
X140874999Y-104962500D01*
X140875000Y-104962499D01*
X140875000Y-104325001D01*
X141125000Y-104325001D01*
X141125000Y-104962499D01*
X141125001Y-104962500D01*
X141949999Y-104962500D01*
X141950000Y-104962499D01*
X141950000Y-104777175D01*
X141943598Y-104717629D01*
X141943596Y-104717618D01*
X141893353Y-104582911D01*
X141893352Y-104582909D01*
X141807192Y-104467815D01*
X141807184Y-104467807D01*
X141692090Y-104381647D01*
X141692088Y-104381646D01*
X141557381Y-104331403D01*
X141557370Y-104331401D01*
X141497824Y-104325000D01*
X141125001Y-104325000D01*
X141125000Y-104325001D01*
X140875000Y-104325001D01*
X140874999Y-104325000D01*
X140502176Y-104325000D01*
X140442629Y-104331401D01*
X140442618Y-104331403D01*
X140307911Y-104381646D01*
X140307909Y-104381647D01*
X140192815Y-104467807D01*
X140192807Y-104467815D01*
X140106647Y-104582909D01*
X140106646Y-104582911D01*
X140056403Y-104717618D01*
X140056401Y-104717629D01*
X140050000Y-104777175D01*
X139419224Y-104777175D01*
X139438268Y-104738930D01*
X139438267Y-104738930D01*
X139438274Y-104738918D01*
X139581921Y-104368122D01*
X139690742Y-103985654D01*
X139720353Y-103827253D01*
X139763808Y-103594787D01*
X139763808Y-103594786D01*
X139763810Y-103594776D01*
X139800500Y-103198824D01*
X139800500Y-103000000D01*
X139800500Y-102952405D01*
X139800500Y-102007790D01*
X139801719Y-101992304D01*
X139807811Y-101953837D01*
X139807812Y-101953835D01*
X139817379Y-101924387D01*
X139831485Y-101896702D01*
X139849682Y-101871655D01*
X139871655Y-101849682D01*
X139896702Y-101831485D01*
X139924387Y-101817379D01*
X139953835Y-101807811D01*
X139982883Y-101803210D01*
X139992304Y-101801719D01*
X140007790Y-101800500D01*
X140047595Y-101800500D01*
X143535521Y-101800500D01*
X143593712Y-101819407D01*
X143629676Y-101868907D01*
X143629676Y-101930093D01*
X143605525Y-101969504D01*
X143315489Y-102259540D01*
X143315488Y-102259539D01*
X143259539Y-102315489D01*
X143219980Y-102384007D01*
X143219978Y-102384011D01*
X143199500Y-102460435D01*
X143199500Y-103675500D01*
X143180593Y-103733691D01*
X143131093Y-103769655D01*
X143100500Y-103774500D01*
X142820725Y-103774500D01*
X142790305Y-103777353D01*
X142790296Y-103777355D01*
X142662116Y-103822207D01*
X142552855Y-103902845D01*
X142552845Y-103902855D01*
X142472207Y-104012116D01*
X142427355Y-104140296D01*
X142427353Y-104140305D01*
X142424500Y-104170725D01*
X142424500Y-105029274D01*
X142427353Y-105059694D01*
X142427355Y-105059703D01*
X142472207Y-105187883D01*
X142552845Y-105297144D01*
X142552847Y-105297146D01*
X142552850Y-105297150D01*
X142552853Y-105297152D01*
X142552855Y-105297154D01*
X142662116Y-105377792D01*
X142662117Y-105377792D01*
X142662118Y-105377793D01*
X142790301Y-105422646D01*
X142820725Y-105425499D01*
X142820727Y-105425500D01*
X142820734Y-105425500D01*
X144179273Y-105425500D01*
X144179273Y-105425499D01*
X144209699Y-105422646D01*
X144337882Y-105377793D01*
X144447150Y-105297150D01*
X144527793Y-105187882D01*
X144572646Y-105059699D01*
X144575499Y-105029273D01*
X144575500Y-105029273D01*
X144575500Y-104170727D01*
X144575499Y-104170725D01*
X144572646Y-104140305D01*
X144572646Y-104140301D01*
X144527793Y-104012118D01*
X144447433Y-103903234D01*
X144447154Y-103902855D01*
X144447152Y-103902853D01*
X144447150Y-103902850D01*
X144447146Y-103902847D01*
X144447144Y-103902845D01*
X144337883Y-103822207D01*
X144209703Y-103777355D01*
X144209694Y-103777353D01*
X144179274Y-103774500D01*
X144179266Y-103774500D01*
X143899500Y-103774500D01*
X143841309Y-103755593D01*
X143805345Y-103706093D01*
X143800500Y-103675500D01*
X143800500Y-102665479D01*
X143819407Y-102607288D01*
X143829496Y-102595475D01*
X144095475Y-102329496D01*
X144149992Y-102301719D01*
X144165479Y-102300500D01*
X144919873Y-102300500D01*
X144978064Y-102319407D01*
X145014028Y-102368907D01*
X145014028Y-102430093D01*
X144989878Y-102469501D01*
X144883686Y-102575694D01*
X144883666Y-102575714D01*
X144872739Y-102587534D01*
X144862645Y-102599353D01*
X144862639Y-102599362D01*
X144823464Y-102669314D01*
X144804556Y-102727507D01*
X144794500Y-102791004D01*
X144794500Y-102791008D01*
X144794500Y-104208992D01*
X144794943Y-104220279D01*
X144795134Y-104225123D01*
X144796353Y-104240602D01*
X144796354Y-104240607D01*
X144818115Y-104317769D01*
X144818117Y-104317775D01*
X144845894Y-104372291D01*
X144883681Y-104424300D01*
X144883683Y-104424302D01*
X144883686Y-104424306D01*
X145075694Y-104616314D01*
X145075707Y-104616326D01*
X145075714Y-104616333D01*
X145087534Y-104627260D01*
X145087544Y-104627269D01*
X145099357Y-104637358D01*
X145169315Y-104676536D01*
X145227506Y-104695443D01*
X145240206Y-104697454D01*
X145291004Y-104705500D01*
X145291008Y-104705500D01*
X146680500Y-104705500D01*
X146695412Y-104710345D01*
X146711093Y-104710345D01*
X146723778Y-104719561D01*
X146738691Y-104724407D01*
X146747907Y-104737092D01*
X146760593Y-104746309D01*
X146765438Y-104761221D01*
X146774655Y-104773907D01*
X146779500Y-104804500D01*
X146779500Y-104934167D01*
X146760593Y-104992358D01*
X146758387Y-104994942D01*
X146758471Y-104995007D01*
X146754518Y-105000157D01*
X146676295Y-105135642D01*
X146662297Y-105187883D01*
X146635903Y-105286390D01*
X146635800Y-105286773D01*
X146635800Y-105449717D01*
X146633679Y-105449717D01*
X146624259Y-105500499D01*
X146579870Y-105542609D01*
X146519206Y-105550585D01*
X146467260Y-105523250D01*
X146403550Y-105459540D01*
X146403547Y-105459537D01*
X146329039Y-105409752D01*
X146289591Y-105383393D01*
X146289580Y-105383387D01*
X146162957Y-105330939D01*
X146028532Y-105304200D01*
X146028530Y-105304200D01*
X145891470Y-105304200D01*
X145891467Y-105304200D01*
X145757043Y-105330939D01*
X145757041Y-105330939D01*
X145630419Y-105383387D01*
X145630408Y-105383393D01*
X145516453Y-105459537D01*
X145516449Y-105459540D01*
X145419540Y-105556449D01*
X145419537Y-105556453D01*
X145343393Y-105670408D01*
X145343387Y-105670419D01*
X145290939Y-105797041D01*
X145290939Y-105797043D01*
X145264200Y-105931467D01*
X145264200Y-106068532D01*
X145275106Y-106123361D01*
X145290251Y-106199500D01*
X145290939Y-106202956D01*
X145290939Y-106202958D01*
X145343387Y-106329580D01*
X145343393Y-106329591D01*
X145378766Y-106382529D01*
X145419537Y-106443547D01*
X145516453Y-106540463D01*
X145571666Y-106577355D01*
X145630408Y-106616606D01*
X145630419Y-106616612D01*
X145643927Y-106622207D01*
X145757043Y-106669061D01*
X145891470Y-106695800D01*
X145891471Y-106695800D01*
X146028529Y-106695800D01*
X146028530Y-106695800D01*
X146162957Y-106669061D01*
X146289585Y-106616610D01*
X146403547Y-106540463D01*
X146467260Y-106476750D01*
X146521776Y-106448972D01*
X146582208Y-106458543D01*
X146625473Y-106501807D01*
X146633808Y-106550283D01*
X146635800Y-106550283D01*
X146635800Y-106556772D01*
X146635800Y-106713228D01*
X146665672Y-106824711D01*
X146676295Y-106864357D01*
X146754518Y-106999842D01*
X146754520Y-106999844D01*
X146754522Y-106999847D01*
X146865153Y-107110478D01*
X146865155Y-107110479D01*
X146865157Y-107110481D01*
X147000643Y-107188704D01*
X147000644Y-107188704D01*
X147000647Y-107188706D01*
X147151772Y-107229200D01*
X147151774Y-107229200D01*
X147308226Y-107229200D01*
X147308228Y-107229200D01*
X147459353Y-107188706D01*
X147459355Y-107188704D01*
X147459357Y-107188704D01*
X147594842Y-107110481D01*
X147594842Y-107110480D01*
X147594847Y-107110478D01*
X147705478Y-106999847D01*
X147722292Y-106970725D01*
X147779264Y-106872048D01*
X147824733Y-106831107D01*
X147885584Y-106824711D01*
X147938572Y-106855304D01*
X147950736Y-106872048D01*
X148024518Y-106999842D01*
X148024520Y-106999844D01*
X148024522Y-106999847D01*
X148135153Y-107110478D01*
X148135155Y-107110479D01*
X148135157Y-107110481D01*
X148270643Y-107188704D01*
X148270644Y-107188704D01*
X148270647Y-107188706D01*
X148421772Y-107229200D01*
X148421774Y-107229200D01*
X148578226Y-107229200D01*
X148578228Y-107229200D01*
X148729353Y-107188706D01*
X148729355Y-107188704D01*
X148729357Y-107188704D01*
X148761949Y-107169887D01*
X149411886Y-107169887D01*
X149465096Y-107205441D01*
X149582239Y-107253962D01*
X149706598Y-107278699D01*
X149706602Y-107278700D01*
X149833398Y-107278700D01*
X149833401Y-107278699D01*
X149957759Y-107253962D01*
X149957761Y-107253962D01*
X150074903Y-107205441D01*
X150128112Y-107169888D01*
X149769999Y-106811775D01*
X149411886Y-107169887D01*
X148761949Y-107169887D01*
X148864842Y-107110481D01*
X148864842Y-107110480D01*
X148864847Y-107110478D01*
X148975478Y-106999847D01*
X149020034Y-106922674D01*
X149065501Y-106881734D01*
X149126351Y-106875338D01*
X149179340Y-106905930D01*
X149197232Y-106934287D01*
X149199558Y-106939904D01*
X149235110Y-106993111D01*
X149564228Y-106663996D01*
X149571344Y-106660370D01*
X149576040Y-106653907D01*
X149598089Y-106646742D01*
X149618744Y-106636219D01*
X149634231Y-106635000D01*
X149707769Y-106635000D01*
X149754737Y-106650260D01*
X149769997Y-106635000D01*
X149770000Y-106635000D01*
X149770000Y-106634999D01*
X149946775Y-106634999D01*
X150315203Y-107003427D01*
X150342981Y-107057944D01*
X150344200Y-107073431D01*
X150344200Y-107084532D01*
X150370939Y-107218956D01*
X150370939Y-107218958D01*
X150423387Y-107345580D01*
X150423393Y-107345591D01*
X150461895Y-107403212D01*
X150499537Y-107459547D01*
X150596453Y-107556463D01*
X150628376Y-107577793D01*
X150710408Y-107632606D01*
X150710419Y-107632612D01*
X150750059Y-107649031D01*
X150837043Y-107685061D01*
X150971470Y-107711800D01*
X150971471Y-107711800D01*
X151108529Y-107711800D01*
X151108530Y-107711800D01*
X151242957Y-107685061D01*
X151369585Y-107632610D01*
X151483547Y-107556463D01*
X151580463Y-107459547D01*
X151656610Y-107345585D01*
X151709061Y-107218957D01*
X151735800Y-107084530D01*
X151735800Y-106970725D01*
X152424500Y-106970725D01*
X152424500Y-107829274D01*
X152427353Y-107859694D01*
X152427355Y-107859703D01*
X152472207Y-107987883D01*
X152552845Y-108097144D01*
X152552847Y-108097146D01*
X152552850Y-108097150D01*
X152552853Y-108097152D01*
X152552855Y-108097154D01*
X152662116Y-108177792D01*
X152662117Y-108177792D01*
X152662118Y-108177793D01*
X152790301Y-108222646D01*
X152820725Y-108225499D01*
X152820727Y-108225500D01*
X152820734Y-108225500D01*
X154179273Y-108225500D01*
X154179273Y-108225499D01*
X154209699Y-108222646D01*
X154337882Y-108177793D01*
X154447150Y-108097150D01*
X154527793Y-107987882D01*
X154572646Y-107859699D01*
X154575499Y-107829273D01*
X154575500Y-107829273D01*
X154575500Y-107462000D01*
X154594407Y-107403809D01*
X154643907Y-107367845D01*
X154674500Y-107363000D01*
X155078865Y-107363000D01*
X155137056Y-107381907D01*
X155158520Y-107403212D01*
X155227845Y-107497144D01*
X155227847Y-107497146D01*
X155227850Y-107497150D01*
X155227853Y-107497152D01*
X155227855Y-107497154D01*
X155337116Y-107577792D01*
X155337117Y-107577792D01*
X155337118Y-107577793D01*
X155465301Y-107622646D01*
X155495725Y-107625499D01*
X155495727Y-107625500D01*
X155495734Y-107625500D01*
X156504273Y-107625500D01*
X156504273Y-107625499D01*
X156534699Y-107622646D01*
X156662882Y-107577793D01*
X156772150Y-107497150D01*
X156852793Y-107387882D01*
X156897646Y-107259699D01*
X156900499Y-107229273D01*
X156900500Y-107229273D01*
X156900500Y-106595727D01*
X156900499Y-106595725D01*
X156897646Y-106565301D01*
X156852793Y-106437118D01*
X156846968Y-106429226D01*
X156772154Y-106327855D01*
X156772152Y-106327853D01*
X156772150Y-106327850D01*
X156772146Y-106327847D01*
X156772144Y-106327845D01*
X156662883Y-106247207D01*
X156534703Y-106202355D01*
X156534694Y-106202353D01*
X156504274Y-106199500D01*
X156504266Y-106199500D01*
X155495734Y-106199500D01*
X155495725Y-106199500D01*
X155465305Y-106202353D01*
X155465296Y-106202355D01*
X155337116Y-106247207D01*
X155227855Y-106327845D01*
X155227845Y-106327855D01*
X155158520Y-106421788D01*
X155108752Y-106457381D01*
X155078865Y-106462000D01*
X153928191Y-106462000D01*
X153901268Y-106469214D01*
X153837825Y-106486213D01*
X153837824Y-106486212D01*
X153813612Y-106492701D01*
X153813609Y-106492702D01*
X153710890Y-106552007D01*
X153708242Y-106554040D01*
X153705987Y-106554838D01*
X153705266Y-106555255D01*
X153705188Y-106555121D01*
X153650567Y-106574466D01*
X153647972Y-106574500D01*
X152820725Y-106574500D01*
X152790305Y-106577353D01*
X152790296Y-106577355D01*
X152662116Y-106622207D01*
X152552855Y-106702845D01*
X152552845Y-106702855D01*
X152472207Y-106812116D01*
X152427355Y-106940296D01*
X152427353Y-106940305D01*
X152424500Y-106970725D01*
X151735800Y-106970725D01*
X151735800Y-106947470D01*
X151709061Y-106813043D01*
X151668148Y-106714270D01*
X151656612Y-106686419D01*
X151656606Y-106686408D01*
X151622255Y-106634999D01*
X151580463Y-106572453D01*
X151483547Y-106475537D01*
X151414238Y-106429226D01*
X151369591Y-106399393D01*
X151369580Y-106399387D01*
X151242957Y-106346939D01*
X151108532Y-106320200D01*
X151108530Y-106320200D01*
X150971470Y-106320200D01*
X150971467Y-106320200D01*
X150837043Y-106346939D01*
X150837041Y-106346939D01*
X150710419Y-106399387D01*
X150710408Y-106399393D01*
X150596453Y-106475537D01*
X150596443Y-106475545D01*
X150559049Y-106512939D01*
X150504532Y-106540716D01*
X150444100Y-106531144D01*
X150400836Y-106487879D01*
X150391948Y-106462248D01*
X150388963Y-106447241D01*
X150388962Y-106447238D01*
X150340441Y-106330096D01*
X150304887Y-106276886D01*
X149946775Y-106634999D01*
X149770000Y-106634999D01*
X149770000Y-106634997D01*
X149784037Y-106620960D01*
X149780790Y-106617713D01*
X149770000Y-106572768D01*
X149770000Y-106499230D01*
X149788907Y-106441039D01*
X149798996Y-106429226D01*
X150128111Y-106100110D01*
X150074904Y-106064558D01*
X150069287Y-106062232D01*
X150022762Y-106022494D01*
X150008480Y-105962999D01*
X150031896Y-105906472D01*
X150057672Y-105885035D01*
X150134847Y-105840478D01*
X150245478Y-105729847D01*
X150274373Y-105679800D01*
X150323704Y-105594357D01*
X150323704Y-105594355D01*
X150323706Y-105594353D01*
X150351734Y-105489750D01*
X150385056Y-105438440D01*
X150442177Y-105416513D01*
X150501278Y-105432348D01*
X150517363Y-105445373D01*
X150596453Y-105524463D01*
X150664394Y-105569860D01*
X150710408Y-105600606D01*
X150710419Y-105600612D01*
X150757193Y-105619986D01*
X150837043Y-105653061D01*
X150971470Y-105679800D01*
X150971471Y-105679800D01*
X151108529Y-105679800D01*
X151108530Y-105679800D01*
X151242957Y-105653061D01*
X151369585Y-105600610D01*
X151483547Y-105524463D01*
X151580463Y-105427547D01*
X151656610Y-105313585D01*
X151709061Y-105186957D01*
X151735800Y-105052530D01*
X151735800Y-104915470D01*
X151709061Y-104781043D01*
X151677770Y-104705500D01*
X151656612Y-104654419D01*
X151656606Y-104654408D01*
X151625860Y-104608394D01*
X151580463Y-104540453D01*
X151483547Y-104443537D01*
X151419352Y-104400643D01*
X151369591Y-104367393D01*
X151369580Y-104367387D01*
X151242957Y-104314939D01*
X151108532Y-104288200D01*
X151108530Y-104288200D01*
X150971470Y-104288200D01*
X150971467Y-104288200D01*
X150837043Y-104314939D01*
X150837041Y-104314939D01*
X150710419Y-104367387D01*
X150710408Y-104367393D01*
X150596453Y-104443537D01*
X150596449Y-104443540D01*
X150499540Y-104540449D01*
X150499537Y-104540453D01*
X150423393Y-104654408D01*
X150423387Y-104654419D01*
X150370939Y-104781041D01*
X150349904Y-104886789D01*
X150320007Y-104940173D01*
X150264441Y-104965788D01*
X150204432Y-104953851D01*
X150182806Y-104937481D01*
X150134847Y-104889522D01*
X150134844Y-104889520D01*
X150134842Y-104889518D01*
X149999356Y-104811295D01*
X149999357Y-104811295D01*
X149981500Y-104806510D01*
X149848228Y-104770800D01*
X149691772Y-104770800D01*
X149616870Y-104790870D01*
X149540642Y-104811295D01*
X149405157Y-104889518D01*
X149294520Y-105000155D01*
X149220736Y-105127952D01*
X149175266Y-105168892D01*
X149114416Y-105175287D01*
X149061428Y-105144694D01*
X149049264Y-105127952D01*
X148975479Y-105000155D01*
X148975478Y-105000153D01*
X148864847Y-104889522D01*
X148864844Y-104889520D01*
X148849999Y-104880949D01*
X148809058Y-104835479D01*
X148800500Y-104795213D01*
X148800500Y-103165479D01*
X148819407Y-103107288D01*
X148829496Y-103095475D01*
X149095475Y-102829496D01*
X149149992Y-102801719D01*
X149165479Y-102800500D01*
X153535521Y-102800500D01*
X153593712Y-102819407D01*
X153629676Y-102868907D01*
X153629676Y-102930093D01*
X153605525Y-102969504D01*
X153315489Y-103259540D01*
X153315488Y-103259539D01*
X153259539Y-103315489D01*
X153219980Y-103384007D01*
X153219978Y-103384011D01*
X153199500Y-103460435D01*
X153199500Y-103675500D01*
X153180593Y-103733691D01*
X153131093Y-103769655D01*
X153100500Y-103774500D01*
X152820725Y-103774500D01*
X152790305Y-103777353D01*
X152790296Y-103777355D01*
X152662116Y-103822207D01*
X152552855Y-103902845D01*
X152552845Y-103902855D01*
X152472207Y-104012116D01*
X152427355Y-104140296D01*
X152427353Y-104140305D01*
X152424500Y-104170725D01*
X152424500Y-105029274D01*
X152427353Y-105059694D01*
X152427355Y-105059703D01*
X152472207Y-105187883D01*
X152552845Y-105297144D01*
X152552847Y-105297146D01*
X152552850Y-105297150D01*
X152552853Y-105297152D01*
X152552855Y-105297154D01*
X152662116Y-105377792D01*
X152662117Y-105377792D01*
X152662118Y-105377793D01*
X152790301Y-105422646D01*
X152820725Y-105425499D01*
X152820727Y-105425500D01*
X152820734Y-105425500D01*
X154179273Y-105425500D01*
X154179273Y-105425499D01*
X154209699Y-105422646D01*
X154280636Y-105397824D01*
X155049999Y-105397824D01*
X155056401Y-105457370D01*
X155056403Y-105457381D01*
X155106646Y-105592088D01*
X155106647Y-105592090D01*
X155192807Y-105707184D01*
X155192815Y-105707192D01*
X155307909Y-105793352D01*
X155307911Y-105793353D01*
X155442618Y-105843596D01*
X155442629Y-105843598D01*
X155502176Y-105850000D01*
X155874999Y-105850000D01*
X155875000Y-105849999D01*
X155875000Y-105212501D01*
X156125000Y-105212501D01*
X156125000Y-105849999D01*
X156125001Y-105850000D01*
X156497824Y-105850000D01*
X156557370Y-105843598D01*
X156557381Y-105843596D01*
X156692088Y-105793353D01*
X156692090Y-105793352D01*
X156807184Y-105707192D01*
X156807192Y-105707184D01*
X156893352Y-105592090D01*
X156893353Y-105592088D01*
X156943596Y-105457381D01*
X156943598Y-105457370D01*
X156950000Y-105397824D01*
X156950000Y-105212501D01*
X156949999Y-105212500D01*
X156125001Y-105212500D01*
X156125000Y-105212501D01*
X155875000Y-105212501D01*
X155874999Y-105212500D01*
X155050001Y-105212500D01*
X155050000Y-105212501D01*
X155050000Y-105397824D01*
X155049999Y-105397824D01*
X154280636Y-105397824D01*
X154337882Y-105377793D01*
X154447150Y-105297150D01*
X154500912Y-105224304D01*
X154527791Y-105187885D01*
X154527792Y-105187883D01*
X154527793Y-105187882D01*
X154572646Y-105059699D01*
X154575499Y-105029273D01*
X154575500Y-105029273D01*
X154575500Y-104777175D01*
X155050000Y-104777175D01*
X155050000Y-104962499D01*
X155050001Y-104962500D01*
X155874999Y-104962500D01*
X155875000Y-104962499D01*
X155875000Y-104325001D01*
X156125000Y-104325001D01*
X156125000Y-104962499D01*
X156125001Y-104962500D01*
X156949999Y-104962500D01*
X156950000Y-104962499D01*
X156950000Y-104777175D01*
X156943598Y-104717629D01*
X156943596Y-104717618D01*
X156893353Y-104582911D01*
X156893352Y-104582909D01*
X156807192Y-104467815D01*
X156807184Y-104467807D01*
X156692090Y-104381647D01*
X156692088Y-104381646D01*
X156557381Y-104331403D01*
X156557370Y-104331401D01*
X156497824Y-104325000D01*
X156125001Y-104325000D01*
X156125000Y-104325001D01*
X155875000Y-104325001D01*
X155874999Y-104325000D01*
X155502176Y-104325000D01*
X155442629Y-104331401D01*
X155442618Y-104331403D01*
X155307911Y-104381646D01*
X155307909Y-104381647D01*
X155192815Y-104467807D01*
X155192807Y-104467815D01*
X155106647Y-104582909D01*
X155106646Y-104582911D01*
X155056403Y-104717618D01*
X155056401Y-104717629D01*
X155050000Y-104777175D01*
X154575500Y-104777175D01*
X154575500Y-104170727D01*
X154575499Y-104170725D01*
X154572646Y-104140305D01*
X154572646Y-104140301D01*
X154527793Y-104012118D01*
X154447433Y-103903234D01*
X154447154Y-103902855D01*
X154447152Y-103902853D01*
X154447150Y-103902850D01*
X154447146Y-103902847D01*
X154447144Y-103902845D01*
X154337883Y-103822207D01*
X154209703Y-103777355D01*
X154209694Y-103777353D01*
X154179274Y-103774500D01*
X154179266Y-103774500D01*
X153899500Y-103774500D01*
X153884588Y-103769655D01*
X153868907Y-103769655D01*
X153856221Y-103760438D01*
X153841309Y-103755593D01*
X153832092Y-103742907D01*
X153819407Y-103733691D01*
X153814561Y-103718778D01*
X153805345Y-103706093D01*
X153800500Y-103675500D01*
X153800500Y-103665479D01*
X153819407Y-103607288D01*
X153829496Y-103595475D01*
X154095475Y-103329496D01*
X154149992Y-103301719D01*
X154165479Y-103300500D01*
X155673763Y-103300500D01*
X155673763Y-103300499D01*
X155750189Y-103280021D01*
X155818711Y-103240460D01*
X155874660Y-103184511D01*
X162740460Y-96318711D01*
X162750974Y-96300500D01*
X162780021Y-96250189D01*
X162800500Y-96173762D01*
X162800500Y-94337876D01*
X162819407Y-94279685D01*
X162868907Y-94243721D01*
X162930093Y-94243721D01*
X162942981Y-94248935D01*
X162943515Y-94249196D01*
X162943517Y-94249198D01*
X163048607Y-94300573D01*
X163116740Y-94310500D01*
X163116743Y-94310500D01*
X164833257Y-94310500D01*
X164833260Y-94310500D01*
X164901393Y-94300573D01*
X165006483Y-94249198D01*
X165089198Y-94166483D01*
X165140573Y-94061393D01*
X165150500Y-93993260D01*
X165150500Y-93626740D01*
X165140573Y-93558607D01*
X165089198Y-93453517D01*
X165006483Y-93370802D01*
X165006481Y-93370801D01*
X164901395Y-93319427D01*
X164874139Y-93315456D01*
X164833260Y-93309500D01*
X163116740Y-93309500D01*
X163082673Y-93314463D01*
X163048604Y-93319427D01*
X162943518Y-93370801D01*
X162860801Y-93453518D01*
X162860577Y-93453978D01*
X162860180Y-93454387D01*
X162856035Y-93460194D01*
X162855164Y-93459572D01*
X162818035Y-93497953D01*
X162771635Y-93509500D01*
X162729562Y-93509500D01*
X162650438Y-93509500D01*
X162603661Y-93522033D01*
X162574007Y-93529979D01*
X162505493Y-93569536D01*
X162505487Y-93569541D01*
X162469503Y-93605525D01*
X162414986Y-93633302D01*
X162354554Y-93623730D01*
X162311290Y-93580465D01*
X162300500Y-93535521D01*
X162300500Y-92165478D01*
X162319407Y-92107287D01*
X162329490Y-92095480D01*
X162759641Y-91665328D01*
X162814158Y-91637552D01*
X162874590Y-91647123D01*
X162899645Y-91665326D01*
X162943517Y-91709198D01*
X162997285Y-91735483D01*
X163048604Y-91760572D01*
X163048605Y-91760572D01*
X163048607Y-91760573D01*
X163116740Y-91770500D01*
X163116743Y-91770500D01*
X164833257Y-91770500D01*
X164833260Y-91770500D01*
X164901393Y-91760573D01*
X165006483Y-91709198D01*
X165089198Y-91626483D01*
X165140573Y-91521393D01*
X165150500Y-91453260D01*
X165150500Y-91086740D01*
X165140573Y-91018607D01*
X165089198Y-90913517D01*
X165006483Y-90830802D01*
X165006481Y-90830801D01*
X164901395Y-90779427D01*
X164874139Y-90775456D01*
X164833260Y-90769500D01*
X163116740Y-90769500D01*
X163082673Y-90774463D01*
X163048604Y-90779427D01*
X162943518Y-90830801D01*
X162860801Y-90913518D01*
X162860577Y-90913978D01*
X162860180Y-90914387D01*
X162856035Y-90920194D01*
X162855164Y-90919572D01*
X162818035Y-90957953D01*
X162771635Y-90969500D01*
X162690435Y-90969500D01*
X162614011Y-90989978D01*
X162564428Y-91018606D01*
X162564424Y-91018608D01*
X162545492Y-91029537D01*
X161969504Y-91605525D01*
X161914987Y-91633302D01*
X161854555Y-91623731D01*
X161811290Y-91580466D01*
X161800500Y-91535521D01*
X161800500Y-90165478D01*
X161819407Y-90107287D01*
X161829490Y-90095480D01*
X162108230Y-89816740D01*
X162799500Y-89816740D01*
X162799500Y-90183260D01*
X162806118Y-90228682D01*
X162809427Y-90251395D01*
X162845230Y-90324630D01*
X162860802Y-90356483D01*
X162943517Y-90439198D01*
X162996032Y-90464871D01*
X163048604Y-90490572D01*
X163048605Y-90490572D01*
X163048607Y-90490573D01*
X163116740Y-90500500D01*
X163116743Y-90500500D01*
X164833257Y-90500500D01*
X164833260Y-90500500D01*
X164901393Y-90490573D01*
X165006483Y-90439198D01*
X165089198Y-90356483D01*
X165140573Y-90251393D01*
X165150500Y-90183260D01*
X165150500Y-89816740D01*
X165140573Y-89748607D01*
X165137908Y-89743156D01*
X165115483Y-89697285D01*
X165089198Y-89643517D01*
X165006483Y-89560802D01*
X164985410Y-89550500D01*
X164901395Y-89509427D01*
X164874139Y-89505456D01*
X164833260Y-89499500D01*
X163116740Y-89499500D01*
X163082673Y-89504463D01*
X163048604Y-89509427D01*
X162943518Y-89560801D01*
X162860801Y-89643518D01*
X162809427Y-89748604D01*
X162809427Y-89748607D01*
X162799500Y-89816740D01*
X162108230Y-89816740D01*
X162779641Y-89145328D01*
X162834158Y-89117552D01*
X162894590Y-89127123D01*
X162919645Y-89145326D01*
X162943517Y-89169198D01*
X162997285Y-89195483D01*
X163048604Y-89220572D01*
X163048605Y-89220572D01*
X163048607Y-89220573D01*
X163116740Y-89230500D01*
X163116743Y-89230500D01*
X164833257Y-89230500D01*
X164833260Y-89230500D01*
X164901393Y-89220573D01*
X165006483Y-89169198D01*
X165089198Y-89086483D01*
X165140573Y-88981393D01*
X165150500Y-88913260D01*
X165150500Y-88546740D01*
X165140573Y-88478607D01*
X165139448Y-88476306D01*
X165089198Y-88373518D01*
X165089198Y-88373517D01*
X165006483Y-88290802D01*
X165006481Y-88290801D01*
X164901395Y-88239427D01*
X164874139Y-88235456D01*
X164833260Y-88229500D01*
X163116740Y-88229500D01*
X163082673Y-88234463D01*
X163048604Y-88239427D01*
X162943518Y-88290801D01*
X162860801Y-88373518D01*
X162860577Y-88373978D01*
X162860180Y-88374387D01*
X162856035Y-88380194D01*
X162855164Y-88379572D01*
X162818035Y-88417953D01*
X162771635Y-88429500D01*
X162730435Y-88429500D01*
X162654014Y-88449977D01*
X162654009Y-88449979D01*
X162608410Y-88476306D01*
X162585491Y-88489538D01*
X161315489Y-89759540D01*
X161315488Y-89759539D01*
X161259539Y-89815489D01*
X161219980Y-89884007D01*
X161219978Y-89884011D01*
X161199500Y-89960435D01*
X161199500Y-91420521D01*
X161180593Y-91478712D01*
X161131093Y-91514676D01*
X161069907Y-91514676D01*
X161030497Y-91490525D01*
X160569510Y-91029539D01*
X160569508Y-91029538D01*
X160550576Y-91018608D01*
X160550576Y-91018607D01*
X160550572Y-91018606D01*
X160509954Y-90995155D01*
X160500988Y-90989978D01*
X160424564Y-90969500D01*
X160424562Y-90969500D01*
X160228365Y-90969500D01*
X160170174Y-90950593D01*
X160144389Y-90919891D01*
X160143965Y-90920194D01*
X160140115Y-90914802D01*
X160139423Y-90913978D01*
X160139198Y-90913518D01*
X160139198Y-90913517D01*
X160056483Y-90830802D01*
X160056481Y-90830801D01*
X159951395Y-90779427D01*
X159924139Y-90775456D01*
X159883260Y-90769500D01*
X158166740Y-90769500D01*
X158132673Y-90774463D01*
X158098604Y-90779427D01*
X157993518Y-90830801D01*
X157910801Y-90913518D01*
X157859427Y-91018604D01*
X157857840Y-91029496D01*
X157849500Y-91086740D01*
X157849500Y-91453260D01*
X157854930Y-91490525D01*
X157859427Y-91521395D01*
X157890341Y-91584629D01*
X157910802Y-91626483D01*
X157993517Y-91709198D01*
X158047285Y-91735483D01*
X158098604Y-91760572D01*
X158098605Y-91760572D01*
X158098607Y-91760573D01*
X158166740Y-91770500D01*
X158166743Y-91770500D01*
X159883257Y-91770500D01*
X159883260Y-91770500D01*
X159951393Y-91760573D01*
X160056483Y-91709198D01*
X160139198Y-91626483D01*
X160139200Y-91626477D01*
X160143965Y-91619806D01*
X160146518Y-91621629D01*
X160179048Y-91587994D01*
X160239311Y-91577414D01*
X160294284Y-91604276D01*
X160295465Y-91605436D01*
X160670504Y-91980475D01*
X160698281Y-92034992D01*
X160699500Y-92050479D01*
X160699500Y-92535521D01*
X160680593Y-92593712D01*
X160631093Y-92629676D01*
X160569907Y-92629676D01*
X160530497Y-92605525D01*
X160224510Y-92299539D01*
X160210842Y-92291648D01*
X160171401Y-92249391D01*
X160157323Y-92220593D01*
X160139198Y-92183517D01*
X160056483Y-92100802D01*
X160056481Y-92100801D01*
X159951395Y-92049427D01*
X159924139Y-92045456D01*
X159883260Y-92039500D01*
X158166740Y-92039500D01*
X158132673Y-92044463D01*
X158098604Y-92049427D01*
X157993518Y-92100801D01*
X157910801Y-92183518D01*
X157859427Y-92288604D01*
X157859427Y-92288607D01*
X157849500Y-92356740D01*
X157849500Y-92723260D01*
X157854786Y-92759540D01*
X157859427Y-92791395D01*
X157907538Y-92889806D01*
X157910802Y-92896483D01*
X157993517Y-92979198D01*
X158040450Y-93002142D01*
X158098604Y-93030572D01*
X158098605Y-93030572D01*
X158098607Y-93030573D01*
X158166740Y-93040500D01*
X158166743Y-93040500D01*
X159883257Y-93040500D01*
X159883260Y-93040500D01*
X159951393Y-93030573D01*
X159991465Y-93010982D01*
X160020986Y-93006805D01*
X160050431Y-93002142D01*
X160051194Y-93002531D01*
X160052043Y-93002411D01*
X160104948Y-93029919D01*
X160170504Y-93095475D01*
X160198281Y-93149992D01*
X160199500Y-93165479D01*
X160199500Y-93282123D01*
X160180593Y-93340314D01*
X160131093Y-93376278D01*
X160069907Y-93376278D01*
X160057020Y-93371064D01*
X159951395Y-93319427D01*
X159924139Y-93315456D01*
X159883260Y-93309500D01*
X158166740Y-93309500D01*
X158132673Y-93314463D01*
X158098604Y-93319427D01*
X157993518Y-93370801D01*
X157910801Y-93453518D01*
X157859427Y-93558604D01*
X157857834Y-93569540D01*
X157849500Y-93626740D01*
X157849500Y-93993260D01*
X157850500Y-94000123D01*
X157859427Y-94061395D01*
X157910801Y-94166481D01*
X157910802Y-94166483D01*
X157993517Y-94249198D01*
X158026657Y-94265399D01*
X158098604Y-94300572D01*
X158098605Y-94300572D01*
X158098607Y-94300573D01*
X158166740Y-94310500D01*
X158610657Y-94310500D01*
X158668848Y-94329407D01*
X158704812Y-94378907D01*
X158706283Y-94435125D01*
X158699500Y-94460437D01*
X158699500Y-94539564D01*
X158719977Y-94615984D01*
X158719978Y-94615985D01*
X158719979Y-94615988D01*
X158759540Y-94684511D01*
X159170505Y-95095476D01*
X159198281Y-95149991D01*
X159199500Y-95165478D01*
X159199500Y-96133221D01*
X159180593Y-96191412D01*
X159170504Y-96203225D01*
X155203225Y-100170504D01*
X155148708Y-100198281D01*
X155133221Y-100199500D01*
X152165479Y-100199500D01*
X152107288Y-100180593D01*
X152095475Y-100170504D01*
X151171155Y-99246184D01*
X151143378Y-99191667D01*
X151152949Y-99131235D01*
X151164628Y-99113379D01*
X151234601Y-99028118D01*
X151420224Y-98750315D01*
X151577723Y-98455654D01*
X151705582Y-98146976D01*
X151802569Y-97827251D01*
X151867751Y-97499559D01*
X151900500Y-97167056D01*
X151900500Y-96832944D01*
X151867751Y-96500441D01*
X151802569Y-96172749D01*
X151723623Y-95912496D01*
X151705585Y-95853032D01*
X151666434Y-95758512D01*
X151577723Y-95544346D01*
X151533587Y-95461773D01*
X151420226Y-95249687D01*
X151253392Y-95000005D01*
X151234601Y-94971882D01*
X151022643Y-94713610D01*
X150786390Y-94477357D01*
X150528118Y-94265399D01*
X150380078Y-94166481D01*
X150250312Y-94079773D01*
X149955672Y-93922286D01*
X149955660Y-93922280D01*
X149955654Y-93922277D01*
X149955649Y-93922274D01*
X149955645Y-93922273D01*
X149646967Y-93794414D01*
X149327253Y-93697431D01*
X149106777Y-93653576D01*
X148999559Y-93632249D01*
X148999557Y-93632248D01*
X148756491Y-93608308D01*
X148667056Y-93599500D01*
X148332944Y-93599500D01*
X148234700Y-93609176D01*
X148000444Y-93632248D01*
X147672746Y-93697431D01*
X147353032Y-93794414D01*
X147044354Y-93922273D01*
X147044327Y-93922286D01*
X146749687Y-94079773D01*
X146471880Y-94265400D01*
X146213615Y-94477352D01*
X145977352Y-94713615D01*
X145765400Y-94971880D01*
X145579773Y-95249687D01*
X145422286Y-95544327D01*
X145422273Y-95544354D01*
X145294414Y-95853032D01*
X145197431Y-96172746D01*
X145132248Y-96500444D01*
X145099500Y-96832946D01*
X145099500Y-97167053D01*
X145132248Y-97499555D01*
X145197431Y-97827253D01*
X145294414Y-98146967D01*
X145422273Y-98455645D01*
X145422286Y-98455672D01*
X145579773Y-98750312D01*
X145678220Y-98897646D01*
X145765399Y-99028118D01*
X145977357Y-99286390D01*
X146213610Y-99522643D01*
X146471882Y-99734601D01*
X146561398Y-99794414D01*
X146749687Y-99920226D01*
X147044327Y-100077713D01*
X147044346Y-100077723D01*
X147353024Y-100205582D01*
X147353026Y-100205582D01*
X147353032Y-100205585D01*
X147629376Y-100289412D01*
X147672749Y-100302569D01*
X148000441Y-100367751D01*
X148332944Y-100400500D01*
X148332947Y-100400500D01*
X148667053Y-100400500D01*
X148667056Y-100400500D01*
X148999559Y-100367751D01*
X149327251Y-100302569D01*
X149516857Y-100245052D01*
X149646967Y-100205585D01*
X149646969Y-100205583D01*
X149646976Y-100205582D01*
X149955654Y-100077723D01*
X150099640Y-100000760D01*
X150250312Y-99920226D01*
X150250315Y-99920224D01*
X150528118Y-99734601D01*
X150613376Y-99664631D01*
X150670351Y-99642331D01*
X150729554Y-99657779D01*
X150746184Y-99671155D01*
X151605525Y-100530496D01*
X151633302Y-100585013D01*
X151623731Y-100645445D01*
X151580466Y-100688710D01*
X151535521Y-100699500D01*
X138960435Y-100699500D01*
X138884011Y-100719978D01*
X138848539Y-100740459D01*
X138848538Y-100740459D01*
X138815489Y-100759539D01*
X138467518Y-101107509D01*
X138413002Y-101135286D01*
X138352570Y-101125715D01*
X138315201Y-101092508D01*
X138234601Y-100971882D01*
X138022643Y-100713610D01*
X137786390Y-100477357D01*
X137528118Y-100265399D01*
X137458667Y-100218993D01*
X137250312Y-100079773D01*
X136955672Y-99922286D01*
X136955660Y-99922280D01*
X136955654Y-99922277D01*
X136955649Y-99922274D01*
X136955645Y-99922273D01*
X136646967Y-99794414D01*
X136327253Y-99697431D01*
X136106777Y-99653576D01*
X135999559Y-99632249D01*
X135999557Y-99632248D01*
X135750392Y-99607708D01*
X135667056Y-99599500D01*
X135332944Y-99599500D01*
X135249608Y-99607708D01*
X135000444Y-99632248D01*
X134672746Y-99697431D01*
X134353032Y-99794414D01*
X134044354Y-99922273D01*
X134044327Y-99922286D01*
X133749687Y-100079773D01*
X133471880Y-100265400D01*
X133213615Y-100477352D01*
X132977352Y-100713615D01*
X132765400Y-100971880D01*
X132579773Y-101249687D01*
X132422286Y-101544327D01*
X132422273Y-101544354D01*
X132294414Y-101853032D01*
X132197431Y-102172746D01*
X132132248Y-102500444D01*
X132114344Y-102682228D01*
X132099500Y-102832944D01*
X132099500Y-103167056D01*
X132106081Y-103233877D01*
X132132248Y-103499555D01*
X132197431Y-103827253D01*
X132294414Y-104146967D01*
X132422273Y-104455645D01*
X132422286Y-104455672D01*
X132579773Y-104750312D01*
X132690130Y-104915471D01*
X132765399Y-105028118D01*
X132977357Y-105286390D01*
X133213610Y-105522643D01*
X133471882Y-105734601D01*
X133526276Y-105770946D01*
X133749687Y-105920226D01*
X134036580Y-106073572D01*
X134044346Y-106077723D01*
X134353024Y-106205582D01*
X134353026Y-106205582D01*
X134353032Y-106205585D01*
X134565887Y-106270153D01*
X134672749Y-106302569D01*
X135000441Y-106367751D01*
X135332944Y-106400500D01*
X135332947Y-106400500D01*
X135667053Y-106400500D01*
X135667056Y-106400500D01*
X135999559Y-106367751D01*
X136327251Y-106302569D01*
X136563563Y-106230885D01*
X136646967Y-106205585D01*
X136646969Y-106205583D01*
X136646976Y-106205582D01*
X136955654Y-106077723D01*
X137099739Y-106000708D01*
X137250312Y-105920226D01*
X137315547Y-105876637D01*
X137528118Y-105734601D01*
X137786390Y-105522643D01*
X138022643Y-105286390D01*
X138234601Y-105028118D01*
X138420224Y-104750315D01*
X138422366Y-104746309D01*
X138532399Y-104540449D01*
X138577723Y-104455654D01*
X138705582Y-104146976D01*
X138707609Y-104140296D01*
X138745052Y-104016857D01*
X138802569Y-103827251D01*
X138867751Y-103499559D01*
X138900500Y-103167056D01*
X138900500Y-102832944D01*
X138867751Y-102500441D01*
X138802569Y-102172749D01*
X138705582Y-101853024D01*
X138691755Y-101819642D01*
X138686954Y-101758645D01*
X138713214Y-101711755D01*
X139095475Y-101329496D01*
X139102591Y-101325870D01*
X139107287Y-101319407D01*
X139129336Y-101312242D01*
X139149991Y-101301719D01*
X139165478Y-101300500D01*
X139328414Y-101300500D01*
X139386605Y-101319407D01*
X139422569Y-101368907D01*
X139422569Y-101430093D01*
X139398418Y-101469504D01*
X139378214Y-101489707D01*
X139378211Y-101489711D01*
X139290609Y-101620814D01*
X139290603Y-101620825D01*
X139230263Y-101766501D01*
X139230263Y-101766503D01*
X139199500Y-101921155D01*
X139199500Y-102997490D01*
X139199373Y-103002504D01*
X139180773Y-103369262D01*
X139179758Y-103379239D01*
X139124532Y-103739732D01*
X139122514Y-103749556D01*
X139031094Y-104102642D01*
X139028091Y-104112210D01*
X138901430Y-104454203D01*
X138897476Y-104463419D01*
X138736854Y-104790870D01*
X138731987Y-104799638D01*
X138539069Y-105109146D01*
X138533340Y-105117378D01*
X138310103Y-105405776D01*
X138303571Y-105413385D01*
X138052288Y-105677735D01*
X138045019Y-105684644D01*
X137768295Y-105922204D01*
X137760364Y-105928343D01*
X137461020Y-106136692D01*
X137452510Y-106141996D01*
X137133630Y-106318989D01*
X137124626Y-106323406D01*
X136789470Y-106467233D01*
X136780066Y-106470716D01*
X136432073Y-106579899D01*
X136422365Y-106582412D01*
X136065128Y-106655827D01*
X136055215Y-106657346D01*
X135692373Y-106694244D01*
X135682357Y-106694752D01*
X135317643Y-106694752D01*
X135307627Y-106694244D01*
X134944784Y-106657346D01*
X134934871Y-106655827D01*
X134577634Y-106582412D01*
X134567926Y-106579899D01*
X134219933Y-106470716D01*
X134210529Y-106467233D01*
X133875373Y-106323406D01*
X133866369Y-106318989D01*
X133547489Y-106141996D01*
X133538979Y-106136692D01*
X133239635Y-105928343D01*
X133231704Y-105922204D01*
X132954980Y-105684644D01*
X132947711Y-105677735D01*
X132696428Y-105413385D01*
X132689896Y-105405776D01*
X132683741Y-105397824D01*
X132466652Y-105117367D01*
X132460930Y-105109146D01*
X132430111Y-105059702D01*
X132268010Y-104799635D01*
X132263145Y-104790870D01*
X132257980Y-104780340D01*
X132102520Y-104463413D01*
X132098569Y-104454203D01*
X132094619Y-104443537D01*
X131971904Y-104112199D01*
X131968909Y-104102655D01*
X131877483Y-103749550D01*
X131875467Y-103739732D01*
X131857810Y-103624471D01*
X131820239Y-103379221D01*
X131819227Y-103369280D01*
X131800627Y-103002504D01*
X131800500Y-102997490D01*
X131800500Y-101921159D01*
X131800499Y-101921155D01*
X131795637Y-101896711D01*
X131769737Y-101766503D01*
X131709795Y-101621788D01*
X131709396Y-101620825D01*
X131709390Y-101620814D01*
X131658282Y-101544327D01*
X131621789Y-101489711D01*
X131510289Y-101378211D01*
X131437382Y-101329496D01*
X131379185Y-101290609D01*
X131379174Y-101290603D01*
X131233497Y-101230263D01*
X131078844Y-101199500D01*
X131078842Y-101199500D01*
X131007790Y-101199500D01*
X130992304Y-101198281D01*
X130978090Y-101196029D01*
X130953835Y-101192188D01*
X130924381Y-101182618D01*
X130896707Y-101168517D01*
X130871652Y-101150314D01*
X130849685Y-101128347D01*
X130831483Y-101103294D01*
X130817379Y-101075614D01*
X130807811Y-101046162D01*
X130801719Y-101007695D01*
X130800500Y-100992209D01*
X130800500Y-98399500D01*
X130819407Y-98341309D01*
X130868907Y-98305345D01*
X130899500Y-98300500D01*
X131775500Y-98300500D01*
X131833691Y-98319407D01*
X131869655Y-98368907D01*
X131874500Y-98399500D01*
X131874500Y-98504274D01*
X131877353Y-98534694D01*
X131877355Y-98534703D01*
X131922207Y-98662883D01*
X132002845Y-98772144D01*
X132002847Y-98772146D01*
X132002850Y-98772150D01*
X132002853Y-98772152D01*
X132002855Y-98772154D01*
X132112116Y-98852792D01*
X132112117Y-98852792D01*
X132112118Y-98852793D01*
X132240301Y-98897646D01*
X132270725Y-98900499D01*
X132270727Y-98900500D01*
X132270734Y-98900500D01*
X132904273Y-98900500D01*
X132904273Y-98900499D01*
X132934699Y-98897646D01*
X133062882Y-98852793D01*
X133172150Y-98772150D01*
X133252793Y-98662882D01*
X133297646Y-98534699D01*
X133300499Y-98504273D01*
X133300500Y-98504273D01*
X133300500Y-98099000D01*
X133305345Y-98084088D01*
X133305345Y-98068407D01*
X133314561Y-98055721D01*
X133319407Y-98040809D01*
X133332092Y-98031592D01*
X133341309Y-98018907D01*
X133356221Y-98014061D01*
X133368907Y-98004845D01*
X133399500Y-98000000D01*
X133551000Y-98000000D01*
X133609191Y-98018907D01*
X133645155Y-98068407D01*
X133650000Y-98099000D01*
X133650000Y-98497824D01*
X133649999Y-98497824D01*
X133656401Y-98557370D01*
X133656403Y-98557381D01*
X133706646Y-98692088D01*
X133706647Y-98692090D01*
X133792807Y-98807184D01*
X133792815Y-98807192D01*
X133907909Y-98893352D01*
X133907911Y-98893353D01*
X134042618Y-98943596D01*
X134042629Y-98943598D01*
X134102176Y-98950000D01*
X134287499Y-98950000D01*
X134287500Y-98949999D01*
X134287500Y-98099000D01*
X134292345Y-98084088D01*
X134292345Y-98068407D01*
X134301561Y-98055721D01*
X134306407Y-98040809D01*
X134319092Y-98031592D01*
X134328309Y-98018907D01*
X134343221Y-98014061D01*
X134355907Y-98004845D01*
X134386500Y-98000000D01*
X134438500Y-98000000D01*
X134496691Y-98018907D01*
X134532655Y-98068407D01*
X134537500Y-98099000D01*
X134537500Y-98949999D01*
X134537501Y-98950000D01*
X134722824Y-98950000D01*
X134782370Y-98943598D01*
X134782381Y-98943596D01*
X134917088Y-98893353D01*
X134917090Y-98893352D01*
X135032184Y-98807192D01*
X135032192Y-98807184D01*
X135118352Y-98692090D01*
X135118353Y-98692088D01*
X135168596Y-98557381D01*
X135168598Y-98557370D01*
X135175000Y-98497824D01*
X135175000Y-98099000D01*
X135193907Y-98040809D01*
X135243407Y-98004845D01*
X135274000Y-98000000D01*
X139499992Y-98000000D01*
X139500000Y-98000000D01*
X139577257Y-97999503D01*
X139731565Y-97991549D01*
X139885259Y-97975661D01*
X140037931Y-97951883D01*
X140189177Y-97920277D01*
X140338596Y-97880927D01*
X140485791Y-97833938D01*
X140630371Y-97779433D01*
X140630384Y-97779426D01*
X140630390Y-97779425D01*
X140771949Y-97717559D01*
X140771954Y-97717557D01*
X140910164Y-97648476D01*
X141044635Y-97572370D01*
X141175009Y-97489444D01*
X141300941Y-97399916D01*
X141422098Y-97304023D01*
X141538158Y-97202021D01*
X141648813Y-97094180D01*
X141753769Y-96980785D01*
X141852750Y-96862137D01*
X141945490Y-96738552D01*
X142031746Y-96610356D01*
X142111289Y-96477889D01*
X142183906Y-96341504D01*
X142249407Y-96201561D01*
X142307616Y-96058432D01*
X142358380Y-95912496D01*
X142401564Y-95764140D01*
X142437054Y-95613758D01*
X142464755Y-95461748D01*
X142484594Y-95308514D01*
X142496519Y-95154462D01*
X142500498Y-95000000D01*
X142496519Y-94845538D01*
X142484594Y-94691486D01*
X142464755Y-94538252D01*
X142437054Y-94386242D01*
X142401564Y-94235860D01*
X142373094Y-94138055D01*
X142358384Y-94087517D01*
X142358382Y-94087513D01*
X142358380Y-94087504D01*
X142307616Y-93941568D01*
X142249407Y-93798439D01*
X142183906Y-93658496D01*
X142111289Y-93522111D01*
X142031746Y-93389644D01*
X141945490Y-93261448D01*
X141887388Y-93184021D01*
X141852762Y-93137878D01*
X141852740Y-93137851D01*
X141753769Y-93019215D01*
X141648816Y-92905823D01*
X141648813Y-92905820D01*
X141581788Y-92840499D01*
X141538164Y-92797984D01*
X141538154Y-92797975D01*
X141422102Y-92695980D01*
X141300951Y-92600092D01*
X141300946Y-92600088D01*
X141300941Y-92600084D01*
X141175009Y-92510556D01*
X141044635Y-92427630D01*
X140910164Y-92351524D01*
X140910146Y-92351515D01*
X140771949Y-92282440D01*
X140630390Y-92220574D01*
X140485803Y-92166066D01*
X140485793Y-92166063D01*
X140485791Y-92166062D01*
X140466919Y-92160037D01*
X140338609Y-92119076D01*
X140248986Y-92095474D01*
X140189177Y-92079723D01*
X140037931Y-92048117D01*
X140037924Y-92048115D01*
X140037915Y-92048114D01*
X139885253Y-92024338D01*
X139885258Y-92024338D01*
X139731566Y-92008451D01*
X139731573Y-92008451D01*
X139588003Y-92001050D01*
X139577257Y-92000497D01*
X139577256Y-92000496D01*
X139577249Y-92000496D01*
X139503968Y-92000025D01*
X139500000Y-92000000D01*
X139499992Y-92000000D01*
X136541008Y-92000000D01*
X136482817Y-91981093D01*
X136471004Y-91971004D01*
X135529496Y-91029496D01*
X135501719Y-90974979D01*
X135500500Y-90959492D01*
X135500500Y-90766743D01*
X135500500Y-90766740D01*
X135490573Y-90698607D01*
X135439198Y-90593517D01*
X135390682Y-90545001D01*
X135384766Y-90533389D01*
X135375062Y-90524691D01*
X135371216Y-90506796D01*
X135362907Y-90490487D01*
X135364945Y-90477612D01*
X135362208Y-90464871D01*
X135369338Y-90449878D01*
X135372478Y-90430055D01*
X135386969Y-90408920D01*
X135388768Y-90406912D01*
X135439198Y-90356483D01*
X135445466Y-90343660D01*
X135454646Y-90333420D01*
X135469791Y-90324630D01*
X135481965Y-90312047D01*
X135498615Y-90307903D01*
X135507566Y-90302709D01*
X135516001Y-90303576D01*
X135528365Y-90300500D01*
X136039563Y-90300500D01*
X136039563Y-90300499D01*
X136115989Y-90280021D01*
X136184511Y-90240460D01*
X136212485Y-90212485D01*
X136240461Y-90184511D01*
X136549972Y-89874999D01*
X136608231Y-89816740D01*
X157849500Y-89816740D01*
X157849500Y-90183260D01*
X157856118Y-90228682D01*
X157859427Y-90251395D01*
X157895230Y-90324630D01*
X157910802Y-90356483D01*
X157993517Y-90439198D01*
X158046032Y-90464871D01*
X158098604Y-90490572D01*
X158098605Y-90490572D01*
X158098607Y-90490573D01*
X158166740Y-90500500D01*
X158166743Y-90500500D01*
X159883257Y-90500500D01*
X159883260Y-90500500D01*
X159951393Y-90490573D01*
X160056483Y-90439198D01*
X160139198Y-90356483D01*
X160190573Y-90251393D01*
X160200500Y-90183260D01*
X160200500Y-89816740D01*
X160190573Y-89748607D01*
X160187908Y-89743156D01*
X160165483Y-89697285D01*
X160139198Y-89643517D01*
X160056483Y-89560802D01*
X160035410Y-89550500D01*
X159951395Y-89509427D01*
X159924139Y-89505456D01*
X159883260Y-89499500D01*
X158166740Y-89499500D01*
X158132673Y-89504463D01*
X158098604Y-89509427D01*
X157993518Y-89560801D01*
X157910801Y-89643518D01*
X157859427Y-89748604D01*
X157859427Y-89748607D01*
X157849500Y-89816740D01*
X136608231Y-89816740D01*
X136740460Y-89684511D01*
X136760748Y-89649371D01*
X136780020Y-89615992D01*
X136780020Y-89615990D01*
X136780022Y-89615988D01*
X136800500Y-89539562D01*
X136800500Y-89460438D01*
X136800500Y-88546740D01*
X157849500Y-88546740D01*
X157849500Y-88913260D01*
X157851211Y-88925000D01*
X157859427Y-88981395D01*
X157903475Y-89071495D01*
X157910802Y-89086483D01*
X157993517Y-89169198D01*
X158047285Y-89195483D01*
X158098604Y-89220572D01*
X158098605Y-89220572D01*
X158098607Y-89220573D01*
X158166740Y-89230500D01*
X158166743Y-89230500D01*
X159883257Y-89230500D01*
X159883260Y-89230500D01*
X159951393Y-89220573D01*
X160056483Y-89169198D01*
X160139198Y-89086483D01*
X160190573Y-88981393D01*
X160200500Y-88913260D01*
X160200500Y-88546740D01*
X160190573Y-88478607D01*
X160189448Y-88476306D01*
X160139198Y-88373518D01*
X160139198Y-88373517D01*
X160056483Y-88290802D01*
X160056481Y-88290801D01*
X159951395Y-88239427D01*
X159924139Y-88235456D01*
X159883260Y-88229500D01*
X158166740Y-88229500D01*
X158132673Y-88234463D01*
X158098604Y-88239427D01*
X157993518Y-88290801D01*
X157910801Y-88373518D01*
X157859427Y-88478604D01*
X157857834Y-88489538D01*
X157849500Y-88546740D01*
X136800500Y-88546740D01*
X136800500Y-87276740D01*
X157849500Y-87276740D01*
X157849500Y-87643260D01*
X157856118Y-87688682D01*
X157859427Y-87711395D01*
X157870721Y-87734496D01*
X157910802Y-87816483D01*
X157993517Y-87899198D01*
X158047285Y-87925483D01*
X158098604Y-87950572D01*
X158098605Y-87950572D01*
X158098607Y-87950573D01*
X158166740Y-87960500D01*
X158166743Y-87960500D01*
X159883257Y-87960500D01*
X159883260Y-87960500D01*
X159951393Y-87950573D01*
X160056483Y-87899198D01*
X160139198Y-87816483D01*
X160190573Y-87711393D01*
X160200500Y-87643260D01*
X160200500Y-87276740D01*
X162799500Y-87276740D01*
X162799500Y-87643260D01*
X162806118Y-87688682D01*
X162809427Y-87711395D01*
X162820721Y-87734496D01*
X162860802Y-87816483D01*
X162943517Y-87899198D01*
X162997285Y-87925483D01*
X163048604Y-87950572D01*
X163048605Y-87950572D01*
X163048607Y-87950573D01*
X163116740Y-87960500D01*
X163116743Y-87960500D01*
X164833257Y-87960500D01*
X164833260Y-87960500D01*
X164901393Y-87950573D01*
X165006483Y-87899198D01*
X165089198Y-87816483D01*
X165140573Y-87711393D01*
X165150500Y-87643260D01*
X165150500Y-87276740D01*
X165140573Y-87208607D01*
X165139968Y-87207370D01*
X165089198Y-87103518D01*
X165089198Y-87103517D01*
X165006483Y-87020802D01*
X165006481Y-87020801D01*
X164901395Y-86969427D01*
X164874139Y-86965456D01*
X164833260Y-86959500D01*
X163116740Y-86959500D01*
X163082673Y-86964463D01*
X163048604Y-86969427D01*
X162943518Y-87020801D01*
X162860801Y-87103518D01*
X162809427Y-87208604D01*
X162809427Y-87208607D01*
X162799500Y-87276740D01*
X160200500Y-87276740D01*
X160190573Y-87208607D01*
X160189968Y-87207370D01*
X160139198Y-87103518D01*
X160139198Y-87103517D01*
X160056483Y-87020802D01*
X160056481Y-87020801D01*
X159951395Y-86969427D01*
X159924139Y-86965456D01*
X159883260Y-86959500D01*
X158166740Y-86959500D01*
X158132673Y-86964463D01*
X158098604Y-86969427D01*
X157993518Y-87020801D01*
X157910801Y-87103518D01*
X157859427Y-87208604D01*
X157859427Y-87208607D01*
X157849500Y-87276740D01*
X136800500Y-87276740D01*
X136800500Y-85960438D01*
X136800500Y-85031128D01*
X136819407Y-84972937D01*
X136829496Y-84961124D01*
X141556124Y-80234496D01*
X141610641Y-80206719D01*
X141626128Y-80205500D01*
X155373872Y-80205500D01*
X155432063Y-80224407D01*
X155443876Y-80234496D01*
X158265504Y-83056124D01*
X158293281Y-83110641D01*
X158294500Y-83126128D01*
X158294500Y-85590500D01*
X158275593Y-85648691D01*
X158226093Y-85684655D01*
X158195500Y-85689500D01*
X158166740Y-85689500D01*
X158132673Y-85694463D01*
X158098604Y-85699427D01*
X157993518Y-85750801D01*
X157910801Y-85833518D01*
X157859427Y-85938604D01*
X157859427Y-85938607D01*
X157849500Y-86006740D01*
X157849500Y-86373260D01*
X157856118Y-86418682D01*
X157859427Y-86441395D01*
X157871041Y-86465151D01*
X157910802Y-86546483D01*
X157993517Y-86629198D01*
X158044470Y-86654107D01*
X158098604Y-86680572D01*
X158098605Y-86680572D01*
X158098607Y-86680573D01*
X158166740Y-86690500D01*
X158504604Y-86690500D01*
X158531654Y-86694783D01*
X158531714Y-86694535D01*
X158534877Y-86695294D01*
X158535195Y-86695344D01*
X158535498Y-86695443D01*
X158535499Y-86695443D01*
X158535502Y-86695444D01*
X158598996Y-86705500D01*
X158599000Y-86705500D01*
X160458978Y-86705500D01*
X160458992Y-86705500D01*
X160475117Y-86704866D01*
X160490604Y-86703647D01*
X160567772Y-86681884D01*
X160622289Y-86654107D01*
X160674306Y-86616314D01*
X160975619Y-86315001D01*
X162750001Y-86315001D01*
X162750001Y-86371485D01*
X162764833Y-86465141D01*
X162764836Y-86465151D01*
X162822358Y-86578043D01*
X162911956Y-86667641D01*
X163024848Y-86725163D01*
X163024852Y-86725164D01*
X163118515Y-86739999D01*
X163849998Y-86739999D01*
X163850000Y-86739998D01*
X163850000Y-86315001D01*
X164100000Y-86315001D01*
X164100000Y-86739998D01*
X164100001Y-86739999D01*
X164831483Y-86739999D01*
X164831485Y-86739998D01*
X164925141Y-86725166D01*
X164925151Y-86725163D01*
X165038043Y-86667641D01*
X165127641Y-86578043D01*
X165185163Y-86465151D01*
X165185164Y-86465147D01*
X165200000Y-86371484D01*
X165200000Y-86315001D01*
X165199999Y-86315000D01*
X164100001Y-86315000D01*
X164100000Y-86315001D01*
X163850000Y-86315001D01*
X163849999Y-86315000D01*
X162750002Y-86315000D01*
X162750001Y-86315001D01*
X160975619Y-86315001D01*
X161282105Y-86008515D01*
X162750000Y-86008515D01*
X162750000Y-86064999D01*
X162750001Y-86065000D01*
X163849999Y-86065000D01*
X163850000Y-86064999D01*
X163850000Y-85640001D01*
X164100000Y-85640001D01*
X164100000Y-86064999D01*
X164100001Y-86065000D01*
X165199998Y-86065000D01*
X165199999Y-86064999D01*
X165199999Y-86008516D01*
X165199998Y-86008514D01*
X165185166Y-85914858D01*
X165185163Y-85914848D01*
X165127641Y-85801956D01*
X165038043Y-85712358D01*
X164925151Y-85654836D01*
X164925147Y-85654835D01*
X164831484Y-85640000D01*
X164100001Y-85640000D01*
X164100000Y-85640001D01*
X163850000Y-85640001D01*
X163849999Y-85640000D01*
X163118516Y-85640000D01*
X163118514Y-85640001D01*
X163024858Y-85654833D01*
X163024848Y-85654836D01*
X162911956Y-85712358D01*
X162822358Y-85801956D01*
X162764836Y-85914848D01*
X162764835Y-85914852D01*
X162750000Y-86008515D01*
X161282105Y-86008515D01*
X161616314Y-85674306D01*
X161627269Y-85662456D01*
X161637358Y-85650643D01*
X161676536Y-85580685D01*
X161695443Y-85522494D01*
X161705500Y-85458992D01*
X161705500Y-84147824D01*
X162149999Y-84147824D01*
X162156401Y-84207370D01*
X162156403Y-84207381D01*
X162206646Y-84342088D01*
X162206647Y-84342090D01*
X162292807Y-84457184D01*
X162292815Y-84457192D01*
X162407909Y-84543352D01*
X162407911Y-84543353D01*
X162542618Y-84593596D01*
X162542629Y-84593598D01*
X162602176Y-84600000D01*
X162849999Y-84600000D01*
X162850000Y-84599999D01*
X162850000Y-83125001D01*
X163100000Y-83125001D01*
X163100000Y-84599999D01*
X163100001Y-84600000D01*
X163347824Y-84600000D01*
X163407370Y-84593598D01*
X163407381Y-84593596D01*
X163542088Y-84543353D01*
X163542090Y-84543352D01*
X163657184Y-84457192D01*
X163657192Y-84457184D01*
X163743352Y-84342090D01*
X163743353Y-84342088D01*
X163793596Y-84207381D01*
X163793598Y-84207370D01*
X163800000Y-84147824D01*
X163800000Y-83125001D01*
X163799999Y-83125000D01*
X163100001Y-83125000D01*
X163100000Y-83125001D01*
X162850000Y-83125001D01*
X162849999Y-83125000D01*
X162150001Y-83125000D01*
X162150000Y-83125001D01*
X162150000Y-84147824D01*
X162149999Y-84147824D01*
X161705500Y-84147824D01*
X161705500Y-81852175D01*
X162150000Y-81852175D01*
X162150000Y-82874999D01*
X162150001Y-82875000D01*
X162849999Y-82875000D01*
X162850000Y-82874999D01*
X162850000Y-81400001D01*
X163100000Y-81400001D01*
X163100000Y-82874999D01*
X163100001Y-82875000D01*
X163799999Y-82875000D01*
X163800000Y-82874999D01*
X163800000Y-81852175D01*
X163793598Y-81792629D01*
X163793596Y-81792618D01*
X163743353Y-81657911D01*
X163743352Y-81657909D01*
X163657192Y-81542815D01*
X163657184Y-81542807D01*
X163542090Y-81456647D01*
X163542088Y-81456646D01*
X163407381Y-81406403D01*
X163407370Y-81406401D01*
X163347824Y-81400000D01*
X163100001Y-81400000D01*
X163100000Y-81400001D01*
X162850000Y-81400001D01*
X162849999Y-81400000D01*
X162602176Y-81400000D01*
X162542629Y-81406401D01*
X162542618Y-81406403D01*
X162407911Y-81456646D01*
X162407909Y-81456647D01*
X162292815Y-81542807D01*
X162292807Y-81542815D01*
X162206647Y-81657909D01*
X162206646Y-81657911D01*
X162156403Y-81792618D01*
X162156401Y-81792629D01*
X162150000Y-81852175D01*
X161705500Y-81852175D01*
X161705500Y-80486441D01*
X161724407Y-80428250D01*
X161773907Y-80392286D01*
X161794796Y-80387918D01*
X161999559Y-80367751D01*
X162327251Y-80302569D01*
X162584918Y-80224407D01*
X162646967Y-80205585D01*
X162646969Y-80205583D01*
X162646976Y-80205582D01*
X162955654Y-80077723D01*
X163101064Y-80000000D01*
X163250312Y-79920226D01*
X163250315Y-79920224D01*
X163528118Y-79734601D01*
X163786390Y-79522643D01*
X164022643Y-79286390D01*
X164234601Y-79028118D01*
X164420224Y-78750315D01*
X164435055Y-78722569D01*
X164541595Y-78523245D01*
X164577723Y-78455654D01*
X164705582Y-78146976D01*
X164802569Y-77827251D01*
X164867751Y-77499559D01*
X164900500Y-77167056D01*
X164900500Y-76832944D01*
X164867751Y-76500441D01*
X164802569Y-76172749D01*
X164769242Y-76062883D01*
X164705585Y-75853032D01*
X164676859Y-75783680D01*
X164577723Y-75544346D01*
X164577713Y-75544327D01*
X164420226Y-75249687D01*
X164301214Y-75071575D01*
X164234601Y-74971882D01*
X164022643Y-74713610D01*
X163786390Y-74477357D01*
X163528118Y-74265399D01*
X163458667Y-74218993D01*
X163250312Y-74079773D01*
X162955672Y-73922286D01*
X162955660Y-73922280D01*
X162955654Y-73922277D01*
X162955649Y-73922274D01*
X162955645Y-73922273D01*
X162646967Y-73794414D01*
X162327253Y-73697431D01*
X162106777Y-73653576D01*
X161999559Y-73632249D01*
X161999557Y-73632248D01*
X161756491Y-73608308D01*
X161667056Y-73599500D01*
X161332944Y-73599500D01*
X161234700Y-73609176D01*
X161000444Y-73632248D01*
X160672746Y-73697431D01*
X160353032Y-73794414D01*
X160044354Y-73922273D01*
X160044327Y-73922286D01*
X159749687Y-74079773D01*
X159471880Y-74265400D01*
X159213615Y-74477352D01*
X158977352Y-74713615D01*
X158765400Y-74971880D01*
X158579773Y-75249687D01*
X158422286Y-75544327D01*
X158422273Y-75544354D01*
X158294414Y-75853032D01*
X158197431Y-76172746D01*
X158132248Y-76500444D01*
X158117518Y-76650001D01*
X158100109Y-76826766D01*
X158099500Y-76832946D01*
X158099500Y-77167053D01*
X158132248Y-77499555D01*
X158197431Y-77827253D01*
X158223193Y-77912178D01*
X158221992Y-77973351D01*
X158198460Y-78010919D01*
X157859179Y-78350200D01*
X157848239Y-78362034D01*
X157838145Y-78373853D01*
X157838136Y-78373866D01*
X157798968Y-78443806D01*
X157789542Y-78472815D01*
X157789542Y-78472816D01*
X157777597Y-78509572D01*
X157777002Y-78509413D01*
X157773957Y-78520774D01*
X157773155Y-78523244D01*
X157773153Y-78523245D01*
X157772864Y-78524135D01*
X157772125Y-78527611D01*
X157754972Y-78591626D01*
X157745082Y-78615503D01*
X157722569Y-78654497D01*
X157706836Y-78675001D01*
X157675001Y-78706836D01*
X157654496Y-78722569D01*
X157615500Y-78745082D01*
X157591628Y-78754971D01*
X157484512Y-78783674D01*
X157482819Y-78785198D01*
X157469511Y-78790009D01*
X157466810Y-78790772D01*
X157439897Y-78794500D01*
X150804500Y-78794500D01*
X150746309Y-78775593D01*
X150710345Y-78726093D01*
X150705500Y-78695500D01*
X150705500Y-78581787D01*
X150724407Y-78523596D01*
X150773907Y-78487632D01*
X150820496Y-78484886D01*
X150820532Y-78484523D01*
X150822830Y-78484749D01*
X150823821Y-78484691D01*
X150825370Y-78484999D01*
X150825377Y-78485000D01*
X151124999Y-78485000D01*
X151125000Y-78484999D01*
X151125000Y-77760001D01*
X151375000Y-77760001D01*
X151375000Y-78484999D01*
X151375001Y-78485000D01*
X151674623Y-78485000D01*
X151674624Y-78484999D01*
X151747546Y-78470493D01*
X151747548Y-78470492D01*
X151830237Y-78415241D01*
X151830241Y-78415237D01*
X151885492Y-78332548D01*
X151885493Y-78332546D01*
X151899999Y-78259624D01*
X151900000Y-78259622D01*
X151900000Y-77760001D01*
X151899999Y-77760000D01*
X151375001Y-77760000D01*
X151375000Y-77760001D01*
X151125000Y-77760001D01*
X151125000Y-76785001D01*
X151375000Y-76785001D01*
X151375000Y-77509999D01*
X151375001Y-77510000D01*
X151899999Y-77510000D01*
X151900000Y-77509999D01*
X151900000Y-77010377D01*
X151899999Y-77010375D01*
X151885493Y-76937453D01*
X151885492Y-76937450D01*
X151884114Y-76935387D01*
X151850615Y-76885253D01*
X152524500Y-76885253D01*
X152524500Y-78274746D01*
X152524501Y-78274758D01*
X152536132Y-78333227D01*
X152536134Y-78333233D01*
X152563276Y-78373853D01*
X152580448Y-78399552D01*
X152646769Y-78443867D01*
X152691231Y-78452711D01*
X152705241Y-78455498D01*
X152705246Y-78455498D01*
X152705252Y-78455500D01*
X152705253Y-78455500D01*
X154544747Y-78455500D01*
X154544748Y-78455500D01*
X154603231Y-78443867D01*
X154669552Y-78399552D01*
X154713867Y-78333231D01*
X154725500Y-78274748D01*
X154725500Y-77722824D01*
X155549999Y-77722824D01*
X155556401Y-77782370D01*
X155556403Y-77782381D01*
X155606646Y-77917088D01*
X155606647Y-77917090D01*
X155692807Y-78032184D01*
X155692815Y-78032192D01*
X155807909Y-78118352D01*
X155807911Y-78118353D01*
X155942618Y-78168596D01*
X155942629Y-78168598D01*
X156002176Y-78175000D01*
X156374999Y-78175000D01*
X156375000Y-78174999D01*
X156375000Y-77537501D01*
X156625000Y-77537501D01*
X156625000Y-78174999D01*
X156625001Y-78175000D01*
X156997824Y-78175000D01*
X157057370Y-78168598D01*
X157057381Y-78168596D01*
X157192088Y-78118353D01*
X157192090Y-78118352D01*
X157307184Y-78032192D01*
X157307192Y-78032184D01*
X157393352Y-77917090D01*
X157393353Y-77917088D01*
X157443596Y-77782381D01*
X157443598Y-77782370D01*
X157450000Y-77722824D01*
X157450000Y-77537501D01*
X157449999Y-77537500D01*
X156625001Y-77537500D01*
X156625000Y-77537501D01*
X156375000Y-77537501D01*
X156374999Y-77537500D01*
X155550001Y-77537500D01*
X155550000Y-77537501D01*
X155550000Y-77722824D01*
X155549999Y-77722824D01*
X154725500Y-77722824D01*
X154725500Y-77102175D01*
X155550000Y-77102175D01*
X155550000Y-77287499D01*
X155550001Y-77287500D01*
X156374999Y-77287500D01*
X156375000Y-77287499D01*
X156375000Y-76650001D01*
X156625000Y-76650001D01*
X156625000Y-77287499D01*
X156625001Y-77287500D01*
X157449999Y-77287500D01*
X157450000Y-77287499D01*
X157450000Y-77102175D01*
X157443598Y-77042629D01*
X157443596Y-77042618D01*
X157393353Y-76907911D01*
X157393352Y-76907909D01*
X157307192Y-76792815D01*
X157307184Y-76792807D01*
X157192090Y-76706647D01*
X157192088Y-76706646D01*
X157057381Y-76656403D01*
X157057370Y-76656401D01*
X156997824Y-76650000D01*
X156625001Y-76650000D01*
X156625000Y-76650001D01*
X156375000Y-76650001D01*
X156374999Y-76650000D01*
X156002176Y-76650000D01*
X155942629Y-76656401D01*
X155942618Y-76656403D01*
X155807911Y-76706646D01*
X155807909Y-76706647D01*
X155692815Y-76792807D01*
X155692807Y-76792815D01*
X155606647Y-76907909D01*
X155606646Y-76907911D01*
X155556403Y-77042618D01*
X155556401Y-77042629D01*
X155550000Y-77102175D01*
X154725500Y-77102175D01*
X154725500Y-76885252D01*
X154713867Y-76826769D01*
X154669552Y-76760448D01*
X154669548Y-76760445D01*
X154603233Y-76716134D01*
X154603231Y-76716133D01*
X154603228Y-76716132D01*
X154603227Y-76716132D01*
X154544758Y-76704501D01*
X154544748Y-76704500D01*
X152705252Y-76704500D01*
X152705251Y-76704500D01*
X152705241Y-76704501D01*
X152646772Y-76716132D01*
X152646766Y-76716134D01*
X152580451Y-76760445D01*
X152580445Y-76760451D01*
X152536134Y-76826766D01*
X152536132Y-76826772D01*
X152524501Y-76885241D01*
X152524500Y-76885253D01*
X151850615Y-76885253D01*
X151830242Y-76854763D01*
X151830237Y-76854758D01*
X151747548Y-76799507D01*
X151747546Y-76799506D01*
X151674624Y-76785000D01*
X151375001Y-76785000D01*
X151375000Y-76785001D01*
X151125000Y-76785001D01*
X151124999Y-76785000D01*
X150825375Y-76785000D01*
X150752453Y-76799506D01*
X150752452Y-76799506D01*
X150677105Y-76849851D01*
X150618216Y-76866459D01*
X150571327Y-76852522D01*
X150522693Y-76823464D01*
X150522690Y-76823463D01*
X150522689Y-76823462D01*
X150464499Y-76804556D01*
X150464500Y-76804556D01*
X150401003Y-76794500D01*
X150401000Y-76794500D01*
X149649500Y-76794500D01*
X149617356Y-76797030D01*
X149586706Y-76801883D01*
X149582218Y-76802646D01*
X149582213Y-76802647D01*
X149494899Y-76839967D01*
X149494768Y-76840089D01*
X149494555Y-76840114D01*
X149493005Y-76840777D01*
X149492809Y-76840320D01*
X149468260Y-76843226D01*
X149442109Y-76848546D01*
X149434007Y-76847281D01*
X149380187Y-76836576D01*
X149326803Y-76806680D01*
X149301186Y-76751115D01*
X149300500Y-76739478D01*
X149300500Y-76665479D01*
X149319407Y-76607288D01*
X149329496Y-76595475D01*
X150007975Y-75916996D01*
X150062492Y-75889219D01*
X150077979Y-75888000D01*
X155515769Y-75888000D01*
X155573960Y-75906907D01*
X155609213Y-75954302D01*
X155647207Y-76062883D01*
X155727845Y-76172144D01*
X155727847Y-76172146D01*
X155727850Y-76172150D01*
X155727853Y-76172152D01*
X155727855Y-76172154D01*
X155837116Y-76252792D01*
X155837117Y-76252792D01*
X155837118Y-76252793D01*
X155965301Y-76297646D01*
X155995725Y-76300499D01*
X155995727Y-76300500D01*
X155995734Y-76300500D01*
X157004273Y-76300500D01*
X157004273Y-76300499D01*
X157034699Y-76297646D01*
X157162882Y-76252793D01*
X157272150Y-76172150D01*
X157352793Y-76062882D01*
X157397646Y-75934699D01*
X157400499Y-75904273D01*
X157400500Y-75904273D01*
X157400500Y-75270727D01*
X157400499Y-75270725D01*
X157397646Y-75240305D01*
X157397646Y-75240301D01*
X157352793Y-75112118D01*
X157283254Y-75017896D01*
X157272154Y-75002855D01*
X157272152Y-75002853D01*
X157272150Y-75002850D01*
X157272146Y-75002847D01*
X157272144Y-75002845D01*
X157162883Y-74922207D01*
X157034703Y-74877355D01*
X157034694Y-74877353D01*
X157004274Y-74874500D01*
X157004266Y-74874500D01*
X155995734Y-74874500D01*
X155995725Y-74874500D01*
X155965305Y-74877353D01*
X155965296Y-74877355D01*
X155837116Y-74922207D01*
X155727855Y-75002845D01*
X155727845Y-75002855D01*
X155647207Y-75112116D01*
X155609213Y-75220698D01*
X155572148Y-75269378D01*
X155515769Y-75287000D01*
X149872935Y-75287000D01*
X149796511Y-75307478D01*
X149757960Y-75329736D01*
X149751994Y-75333181D01*
X149743992Y-75337800D01*
X149727991Y-75347038D01*
X148815489Y-76259540D01*
X148815488Y-76259539D01*
X148759539Y-76315489D01*
X148719980Y-76384007D01*
X148719978Y-76384011D01*
X148699500Y-76460435D01*
X148699500Y-76739478D01*
X148680593Y-76797669D01*
X148633509Y-76832813D01*
X148626793Y-76835187D01*
X148571769Y-76846133D01*
X148544696Y-76864222D01*
X148533009Y-76868356D01*
X148514211Y-76868840D01*
X148496113Y-76873945D01*
X148482888Y-76869648D01*
X148471844Y-76869933D01*
X148461172Y-76862592D01*
X148444999Y-76857337D01*
X148428232Y-76846134D01*
X148428233Y-76846134D01*
X148428231Y-76846133D01*
X148428228Y-76846132D01*
X148428227Y-76846132D01*
X148380184Y-76836575D01*
X148326801Y-76806678D01*
X148301186Y-76751112D01*
X148300500Y-76739478D01*
X148300500Y-76460437D01*
X148300499Y-76460435D01*
X148280021Y-76384011D01*
X148280019Y-76384007D01*
X148240460Y-76315489D01*
X148184511Y-76259539D01*
X148184511Y-76259540D01*
X147272011Y-75347040D01*
X147248007Y-75333181D01*
X147248005Y-75333180D01*
X147219781Y-75316885D01*
X147203488Y-75307478D01*
X147127064Y-75287000D01*
X147127062Y-75287000D01*
X141484231Y-75287000D01*
X141426040Y-75268093D01*
X141390787Y-75220698D01*
X141352792Y-75112116D01*
X141272154Y-75002855D01*
X141272152Y-75002853D01*
X141272150Y-75002850D01*
X141272146Y-75002847D01*
X141272144Y-75002845D01*
X141162883Y-74922207D01*
X141034703Y-74877355D01*
X141034694Y-74877353D01*
X141004274Y-74874500D01*
X141004266Y-74874500D01*
X139995734Y-74874500D01*
X139995725Y-74874500D01*
X139965305Y-74877353D01*
X139965296Y-74877355D01*
X139837116Y-74922207D01*
X139727855Y-75002845D01*
X139727845Y-75002855D01*
X139647207Y-75112116D01*
X139602355Y-75240296D01*
X139602353Y-75240305D01*
X139599500Y-75270725D01*
X139599500Y-75904274D01*
X139602353Y-75934694D01*
X139602355Y-75934703D01*
X139647207Y-76062883D01*
X139727845Y-76172144D01*
X139727847Y-76172146D01*
X139727850Y-76172150D01*
X139727853Y-76172152D01*
X139727855Y-76172154D01*
X139837116Y-76252792D01*
X139837117Y-76252792D01*
X139837118Y-76252793D01*
X139965301Y-76297646D01*
X139995725Y-76300499D01*
X139995727Y-76300500D01*
X139995734Y-76300500D01*
X141004273Y-76300500D01*
X141004273Y-76300499D01*
X141034699Y-76297646D01*
X141162882Y-76252793D01*
X141272150Y-76172150D01*
X141352793Y-76062882D01*
X141390787Y-75954302D01*
X141427852Y-75905622D01*
X141484231Y-75888000D01*
X146922021Y-75888000D01*
X146980212Y-75906907D01*
X146992025Y-75916996D01*
X147670504Y-76595475D01*
X147674130Y-76602592D01*
X147680593Y-76607288D01*
X147687756Y-76629336D01*
X147698281Y-76649992D01*
X147699500Y-76665479D01*
X147699500Y-76739478D01*
X147680593Y-76797669D01*
X147631093Y-76833633D01*
X147619814Y-76836576D01*
X147562904Y-76847896D01*
X147502143Y-76840704D01*
X147492821Y-76835789D01*
X147472193Y-76823464D01*
X147472191Y-76823463D01*
X147472189Y-76823462D01*
X147413999Y-76804556D01*
X147414000Y-76804556D01*
X147350503Y-76794500D01*
X147350500Y-76794500D01*
X146599000Y-76794500D01*
X146566856Y-76797030D01*
X146536206Y-76801883D01*
X146531718Y-76802646D01*
X146531713Y-76802647D01*
X146447616Y-76838591D01*
X146435611Y-76847314D01*
X146377420Y-76866220D01*
X146322420Y-76849535D01*
X146247548Y-76799507D01*
X146247546Y-76799506D01*
X146174624Y-76785000D01*
X145875001Y-76785000D01*
X145875000Y-76785001D01*
X145875000Y-78484999D01*
X145875001Y-78485000D01*
X146174623Y-78485000D01*
X146174629Y-78484999D01*
X146176179Y-78484691D01*
X146176897Y-78484776D01*
X146179468Y-78484523D01*
X146179523Y-78485086D01*
X146236941Y-78491878D01*
X146281874Y-78533407D01*
X146294500Y-78581787D01*
X146294500Y-78695500D01*
X146275593Y-78753691D01*
X146226093Y-78789655D01*
X146195500Y-78794500D01*
X139041008Y-78794500D01*
X139030258Y-78794922D01*
X139024876Y-78795134D01*
X139011331Y-78796200D01*
X139009396Y-78796353D01*
X139009393Y-78796353D01*
X139009392Y-78796354D01*
X138932230Y-78818115D01*
X138932224Y-78818117D01*
X138877708Y-78845894D01*
X138825699Y-78883681D01*
X136883666Y-80825714D01*
X136872739Y-80837534D01*
X136862645Y-80849353D01*
X136862639Y-80849362D01*
X136823464Y-80919314D01*
X136804556Y-80977507D01*
X136794500Y-81041004D01*
X136794500Y-82873872D01*
X136775593Y-82932063D01*
X136765504Y-82943876D01*
X135443876Y-84265504D01*
X135389359Y-84293281D01*
X135373872Y-84294500D01*
X134599000Y-84294500D01*
X134566856Y-84297030D01*
X134536206Y-84301883D01*
X134531718Y-84302646D01*
X134531713Y-84302647D01*
X134447617Y-84338591D01*
X134398118Y-84374555D01*
X134370372Y-84398797D01*
X134323464Y-84477307D01*
X134323462Y-84477310D01*
X134304556Y-84535499D01*
X134293891Y-84602842D01*
X134292745Y-84602660D01*
X134275565Y-84648693D01*
X134247208Y-84687116D01*
X134247205Y-84687121D01*
X134202355Y-84815296D01*
X134202353Y-84815305D01*
X134199500Y-84845725D01*
X134199500Y-87154274D01*
X134202353Y-87184694D01*
X134202355Y-87184703D01*
X134247206Y-87312881D01*
X134275565Y-87351306D01*
X134294604Y-87402323D01*
X134297030Y-87433145D01*
X134301883Y-87463793D01*
X134302646Y-87468281D01*
X134302647Y-87468286D01*
X134338591Y-87552382D01*
X134338592Y-87552383D01*
X134374556Y-87601883D01*
X134398797Y-87629628D01*
X134477307Y-87676536D01*
X134535498Y-87695443D01*
X134548198Y-87697454D01*
X134598996Y-87705500D01*
X134599000Y-87705500D01*
X135373872Y-87705500D01*
X135432063Y-87724407D01*
X135443876Y-87734496D01*
X136170505Y-88461125D01*
X136198281Y-88515640D01*
X136199500Y-88531127D01*
X136199500Y-89334521D01*
X136180593Y-89392712D01*
X136170504Y-89404525D01*
X135904525Y-89670504D01*
X135850008Y-89698281D01*
X135834521Y-89699500D01*
X135528365Y-89699500D01*
X135470174Y-89680593D01*
X135451316Y-89662665D01*
X135444319Y-89653993D01*
X135439198Y-89643517D01*
X135421953Y-89626272D01*
X135418641Y-89622167D01*
X135409519Y-89598276D01*
X135397909Y-89575489D01*
X135398762Y-89570101D01*
X135396817Y-89565007D01*
X135403479Y-89540319D01*
X135407480Y-89515057D01*
X135411960Y-89508890D01*
X135412758Y-89505934D01*
X135416021Y-89503300D01*
X135425687Y-89489998D01*
X135477639Y-89438046D01*
X135477640Y-89438044D01*
X135535163Y-89325151D01*
X135535164Y-89325147D01*
X135550000Y-89231484D01*
X135550000Y-89175001D01*
X135549999Y-89175000D01*
X133725002Y-89175000D01*
X133725001Y-89175001D01*
X133725001Y-89231485D01*
X133739833Y-89325141D01*
X133739836Y-89325151D01*
X133797358Y-89438043D01*
X133849313Y-89489998D01*
X133877090Y-89544515D01*
X133867519Y-89604947D01*
X133849314Y-89630004D01*
X133835803Y-89643514D01*
X133835801Y-89643518D01*
X133784427Y-89748604D01*
X133784427Y-89748607D01*
X133774500Y-89816740D01*
X133774500Y-90183260D01*
X133781118Y-90228682D01*
X133784427Y-90251395D01*
X133820230Y-90324630D01*
X133835802Y-90356483D01*
X133884317Y-90404998D01*
X133912093Y-90459513D01*
X133902522Y-90519945D01*
X133884318Y-90545000D01*
X133849315Y-90580004D01*
X133835801Y-90593518D01*
X133784427Y-90698604D01*
X133774500Y-90766743D01*
X133774500Y-90901000D01*
X133755593Y-90959191D01*
X133706093Y-90995155D01*
X133675500Y-91000000D01*
X133324500Y-91000000D01*
X133266309Y-90981093D01*
X133230345Y-90931593D01*
X133225500Y-90901000D01*
X133225500Y-90766743D01*
X133225500Y-90766740D01*
X133215573Y-90698607D01*
X133164198Y-90593517D01*
X133150684Y-90580003D01*
X133122909Y-90525489D01*
X133132480Y-90465057D01*
X133150687Y-90439998D01*
X133202639Y-90388046D01*
X133202640Y-90388044D01*
X133260163Y-90275151D01*
X133260164Y-90275147D01*
X133275000Y-90181484D01*
X133275000Y-90125001D01*
X133274999Y-90125000D01*
X131450002Y-90125000D01*
X131450001Y-90125001D01*
X131450001Y-90181485D01*
X131464833Y-90275141D01*
X131464836Y-90275151D01*
X131522358Y-90388043D01*
X131574313Y-90439998D01*
X131602090Y-90494515D01*
X131592519Y-90554947D01*
X131574314Y-90580004D01*
X131560803Y-90593514D01*
X131560801Y-90593518D01*
X131509427Y-90698604D01*
X131499500Y-90766743D01*
X131499500Y-90901000D01*
X131480593Y-90959191D01*
X131431093Y-90995155D01*
X131400500Y-91000000D01*
X130899500Y-91000000D01*
X130841309Y-90981093D01*
X130805345Y-90931593D01*
X130800500Y-90901000D01*
X130800500Y-90165478D01*
X130819407Y-90107287D01*
X130829490Y-90095480D01*
X131300658Y-89624311D01*
X131355175Y-89596535D01*
X131415607Y-89606106D01*
X131458872Y-89649371D01*
X131468443Y-89709803D01*
X131464844Y-89724791D01*
X131450000Y-89818515D01*
X131450000Y-89874999D01*
X131450001Y-89875000D01*
X133274998Y-89875000D01*
X133274999Y-89874999D01*
X133274999Y-89818516D01*
X133274998Y-89818514D01*
X133260166Y-89724858D01*
X133260163Y-89724848D01*
X133202641Y-89611956D01*
X133150686Y-89560001D01*
X133122909Y-89505484D01*
X133132480Y-89445052D01*
X133150685Y-89419995D01*
X133164198Y-89406483D01*
X133215573Y-89301393D01*
X133225500Y-89233260D01*
X133225500Y-88868515D01*
X133725000Y-88868515D01*
X133725000Y-88924999D01*
X133725001Y-88925000D01*
X134512499Y-88925000D01*
X134512500Y-88924999D01*
X134512500Y-88500001D01*
X134762500Y-88500001D01*
X134762500Y-88924999D01*
X134762501Y-88925000D01*
X135549998Y-88925000D01*
X135549999Y-88924999D01*
X135549999Y-88868516D01*
X135549998Y-88868514D01*
X135535166Y-88774858D01*
X135535163Y-88774848D01*
X135477641Y-88661956D01*
X135388043Y-88572358D01*
X135275151Y-88514836D01*
X135275147Y-88514835D01*
X135181484Y-88500000D01*
X134762501Y-88500000D01*
X134762500Y-88500001D01*
X134512500Y-88500001D01*
X134512499Y-88500000D01*
X134093516Y-88500000D01*
X134093514Y-88500001D01*
X133999858Y-88514833D01*
X133999848Y-88514836D01*
X133886956Y-88572358D01*
X133797358Y-88661956D01*
X133739836Y-88774848D01*
X133739835Y-88774852D01*
X133725000Y-88868515D01*
X133225500Y-88868515D01*
X133225500Y-88866740D01*
X133215573Y-88798607D01*
X133164198Y-88693517D01*
X133081483Y-88610802D01*
X133081481Y-88610801D01*
X132976395Y-88559427D01*
X132949139Y-88555456D01*
X132908260Y-88549500D01*
X131816740Y-88549500D01*
X131782673Y-88554463D01*
X131748604Y-88559427D01*
X131643518Y-88610801D01*
X131560801Y-88693518D01*
X131560577Y-88693978D01*
X131560180Y-88694387D01*
X131556035Y-88700194D01*
X131555164Y-88699572D01*
X131518035Y-88737953D01*
X131471635Y-88749500D01*
X131410435Y-88749500D01*
X131334011Y-88769978D01*
X131284428Y-88798606D01*
X131284424Y-88798608D01*
X131265492Y-88809537D01*
X130315489Y-89759540D01*
X130315488Y-89759539D01*
X130259539Y-89815489D01*
X130219980Y-89884007D01*
X130219978Y-89884011D01*
X130199500Y-89960435D01*
X129750500Y-89960435D01*
X129750500Y-87147824D01*
X131199999Y-87147824D01*
X131206401Y-87207370D01*
X131206403Y-87207381D01*
X131256646Y-87342088D01*
X131256647Y-87342090D01*
X131342807Y-87457184D01*
X131342815Y-87457192D01*
X131457909Y-87543352D01*
X131457911Y-87543353D01*
X131592618Y-87593596D01*
X131592629Y-87593598D01*
X131652176Y-87600000D01*
X131899999Y-87600000D01*
X131900000Y-87599999D01*
X131900000Y-86125001D01*
X132150000Y-86125001D01*
X132150000Y-87599999D01*
X132150001Y-87600000D01*
X132397824Y-87600000D01*
X132457370Y-87593598D01*
X132457381Y-87593596D01*
X132592088Y-87543353D01*
X132592090Y-87543352D01*
X132707184Y-87457192D01*
X132707192Y-87457184D01*
X132793352Y-87342090D01*
X132793353Y-87342088D01*
X132843596Y-87207381D01*
X132843598Y-87207370D01*
X132850000Y-87147824D01*
X132850000Y-86125001D01*
X132849999Y-86125000D01*
X132150001Y-86125000D01*
X132150000Y-86125001D01*
X131900000Y-86125001D01*
X131899999Y-86125000D01*
X131200001Y-86125000D01*
X131200000Y-86125001D01*
X131200000Y-87147824D01*
X131199999Y-87147824D01*
X129750500Y-87147824D01*
X129750500Y-84852175D01*
X131200000Y-84852175D01*
X131200000Y-85874999D01*
X131200001Y-85875000D01*
X131899999Y-85875000D01*
X131900000Y-85874999D01*
X131900000Y-84400001D01*
X132150000Y-84400001D01*
X132150000Y-85874999D01*
X132150001Y-85875000D01*
X132849999Y-85875000D01*
X132850000Y-85874999D01*
X132850000Y-84852175D01*
X132843598Y-84792629D01*
X132843596Y-84792618D01*
X132793353Y-84657911D01*
X132793352Y-84657909D01*
X132707192Y-84542815D01*
X132707184Y-84542807D01*
X132592090Y-84456647D01*
X132592088Y-84456646D01*
X132457381Y-84406403D01*
X132457370Y-84406401D01*
X132397824Y-84400000D01*
X132150001Y-84400000D01*
X132150000Y-84400001D01*
X131900000Y-84400001D01*
X131899999Y-84400000D01*
X131652176Y-84400000D01*
X131592629Y-84406401D01*
X131592618Y-84406403D01*
X131457911Y-84456646D01*
X131457909Y-84456647D01*
X131342815Y-84542807D01*
X131342807Y-84542815D01*
X131256647Y-84657909D01*
X131256646Y-84657911D01*
X131206403Y-84792618D01*
X131206401Y-84792629D01*
X131200000Y-84852175D01*
X129750500Y-84852175D01*
X129750500Y-81791766D01*
X130885009Y-81791766D01*
X131026324Y-81886190D01*
X131208310Y-81961570D01*
X131401506Y-81999999D01*
X131401510Y-82000000D01*
X131598490Y-82000000D01*
X131598493Y-81999999D01*
X131791688Y-81961570D01*
X131791690Y-81961570D01*
X131973675Y-81886190D01*
X132114989Y-81791766D01*
X131499999Y-81176776D01*
X130885009Y-81791766D01*
X129750500Y-81791766D01*
X129750500Y-80901506D01*
X130500000Y-80901506D01*
X130500000Y-81098493D01*
X130538429Y-81291688D01*
X130538429Y-81291690D01*
X130613809Y-81473674D01*
X130708232Y-81614989D01*
X131323222Y-80999999D01*
X131676776Y-80999999D01*
X132291766Y-81614989D01*
X132386190Y-81473675D01*
X132461570Y-81291690D01*
X132461570Y-81291688D01*
X132499999Y-81098493D01*
X132500000Y-81098490D01*
X132500000Y-80901509D01*
X132499999Y-80901506D01*
X132461570Y-80708311D01*
X132461570Y-80708309D01*
X132386190Y-80526324D01*
X132386190Y-80526323D01*
X132291766Y-80385009D01*
X131676776Y-80999999D01*
X131323222Y-80999999D01*
X130708232Y-80385009D01*
X130613809Y-80526324D01*
X130538429Y-80708309D01*
X130538429Y-80708311D01*
X130500000Y-80901506D01*
X129750500Y-80901506D01*
X129750500Y-80208232D01*
X130885009Y-80208232D01*
X131499999Y-80823222D01*
X132114989Y-80208232D01*
X131973674Y-80113809D01*
X131791689Y-80038429D01*
X131598493Y-80000000D01*
X131401506Y-80000000D01*
X131208311Y-80038429D01*
X131208309Y-80038429D01*
X131026324Y-80113809D01*
X130885009Y-80208232D01*
X129750500Y-80208232D01*
X129750500Y-77001952D01*
X129750576Y-76998065D01*
X129757064Y-76832946D01*
X132099500Y-76832946D01*
X132099500Y-77167053D01*
X132132248Y-77499555D01*
X132197431Y-77827253D01*
X132294414Y-78146967D01*
X132422273Y-78455645D01*
X132422286Y-78455672D01*
X132579773Y-78750312D01*
X132668892Y-78883686D01*
X132765399Y-79028118D01*
X132977357Y-79286390D01*
X133213610Y-79522643D01*
X133471882Y-79734601D01*
X133610783Y-79827412D01*
X133749687Y-79920226D01*
X134044327Y-80077713D01*
X134044346Y-80077723D01*
X134353024Y-80205582D01*
X134353026Y-80205582D01*
X134353032Y-80205585D01*
X134629376Y-80289412D01*
X134672749Y-80302569D01*
X135000441Y-80367751D01*
X135332944Y-80400500D01*
X135332947Y-80400500D01*
X135667053Y-80400500D01*
X135667056Y-80400500D01*
X135999559Y-80367751D01*
X136327251Y-80302569D01*
X136584918Y-80224407D01*
X136646967Y-80205585D01*
X136646969Y-80205583D01*
X136646976Y-80205582D01*
X136955654Y-80077723D01*
X137101064Y-80000000D01*
X137250312Y-79920226D01*
X137250315Y-79920224D01*
X137528118Y-79734601D01*
X137786390Y-79522643D01*
X138022643Y-79286390D01*
X138234601Y-79028118D01*
X138420224Y-78750315D01*
X138435055Y-78722569D01*
X138541595Y-78523245D01*
X138577723Y-78455654D01*
X138705582Y-78146976D01*
X138802569Y-77827251D01*
X138823341Y-77722824D01*
X139549999Y-77722824D01*
X139556401Y-77782370D01*
X139556403Y-77782381D01*
X139606646Y-77917088D01*
X139606647Y-77917090D01*
X139692807Y-78032184D01*
X139692815Y-78032192D01*
X139807909Y-78118352D01*
X139807911Y-78118353D01*
X139942618Y-78168596D01*
X139942629Y-78168598D01*
X140002176Y-78175000D01*
X140374999Y-78175000D01*
X140375000Y-78174999D01*
X140375000Y-77537501D01*
X140625000Y-77537501D01*
X140625000Y-78174999D01*
X140625001Y-78175000D01*
X140997824Y-78175000D01*
X141057370Y-78168598D01*
X141057381Y-78168596D01*
X141192088Y-78118353D01*
X141192090Y-78118352D01*
X141307184Y-78032192D01*
X141307192Y-78032184D01*
X141393352Y-77917090D01*
X141393353Y-77917088D01*
X141443596Y-77782381D01*
X141443598Y-77782370D01*
X141450000Y-77722824D01*
X141450000Y-77537501D01*
X141449999Y-77537500D01*
X140625001Y-77537500D01*
X140625000Y-77537501D01*
X140375000Y-77537501D01*
X140374999Y-77537500D01*
X139550001Y-77537500D01*
X139550000Y-77537501D01*
X139550000Y-77722824D01*
X139549999Y-77722824D01*
X138823341Y-77722824D01*
X138867751Y-77499559D01*
X138900500Y-77167056D01*
X138900500Y-77102175D01*
X139550000Y-77102175D01*
X139550000Y-77287499D01*
X139550001Y-77287500D01*
X140374999Y-77287500D01*
X140375000Y-77287499D01*
X140375000Y-76650001D01*
X140625000Y-76650001D01*
X140625000Y-77287499D01*
X140625001Y-77287500D01*
X141449999Y-77287500D01*
X141450000Y-77287499D01*
X141450000Y-77102175D01*
X141443598Y-77042629D01*
X141443596Y-77042618D01*
X141395993Y-76914987D01*
X141395992Y-76914986D01*
X141393352Y-76907908D01*
X141376392Y-76885253D01*
X142274500Y-76885253D01*
X142274500Y-78274746D01*
X142274501Y-78274758D01*
X142286132Y-78333227D01*
X142286134Y-78333233D01*
X142313276Y-78373853D01*
X142330448Y-78399552D01*
X142396769Y-78443867D01*
X142441231Y-78452711D01*
X142455241Y-78455498D01*
X142455246Y-78455498D01*
X142455252Y-78455500D01*
X142455253Y-78455500D01*
X144294747Y-78455500D01*
X144294748Y-78455500D01*
X144353231Y-78443867D01*
X144419552Y-78399552D01*
X144463867Y-78333231D01*
X144475500Y-78274748D01*
X144475500Y-77760001D01*
X145100000Y-77760001D01*
X145100000Y-78259624D01*
X145114506Y-78332546D01*
X145114507Y-78332548D01*
X145169758Y-78415237D01*
X145169762Y-78415241D01*
X145252451Y-78470492D01*
X145252453Y-78470493D01*
X145325375Y-78484999D01*
X145325377Y-78485000D01*
X145624999Y-78485000D01*
X145625000Y-78484999D01*
X145625000Y-77760001D01*
X145624999Y-77760000D01*
X145100001Y-77760000D01*
X145100000Y-77760001D01*
X144475500Y-77760001D01*
X144475500Y-77010375D01*
X145100000Y-77010375D01*
X145100000Y-77509999D01*
X145100001Y-77510000D01*
X145624999Y-77510000D01*
X145625000Y-77509999D01*
X145625000Y-76785001D01*
X145624999Y-76785000D01*
X145325375Y-76785000D01*
X145252453Y-76799506D01*
X145252451Y-76799507D01*
X145169762Y-76854758D01*
X145169758Y-76854762D01*
X145114507Y-76937451D01*
X145114506Y-76937453D01*
X145100000Y-77010375D01*
X144475500Y-77010375D01*
X144475500Y-76885252D01*
X144463867Y-76826769D01*
X144419552Y-76760448D01*
X144419548Y-76760445D01*
X144353233Y-76716134D01*
X144353231Y-76716133D01*
X144353228Y-76716132D01*
X144353227Y-76716132D01*
X144294758Y-76704501D01*
X144294748Y-76704500D01*
X142455252Y-76704500D01*
X142455251Y-76704500D01*
X142455241Y-76704501D01*
X142396772Y-76716132D01*
X142396766Y-76716134D01*
X142330451Y-76760445D01*
X142330445Y-76760451D01*
X142286134Y-76826766D01*
X142286132Y-76826772D01*
X142274501Y-76885241D01*
X142274500Y-76885253D01*
X141376392Y-76885253D01*
X141307192Y-76792815D01*
X141307184Y-76792807D01*
X141192090Y-76706647D01*
X141192088Y-76706646D01*
X141057381Y-76656403D01*
X141057370Y-76656401D01*
X140997824Y-76650000D01*
X140625001Y-76650000D01*
X140625000Y-76650001D01*
X140375000Y-76650001D01*
X140374999Y-76650000D01*
X140002176Y-76650000D01*
X139942629Y-76656401D01*
X139942618Y-76656403D01*
X139807911Y-76706646D01*
X139807909Y-76706647D01*
X139692815Y-76792807D01*
X139692807Y-76792815D01*
X139606647Y-76907909D01*
X139606646Y-76907911D01*
X139556403Y-77042618D01*
X139556401Y-77042629D01*
X139550000Y-77102175D01*
X138900500Y-77102175D01*
X138900500Y-76832944D01*
X138867751Y-76500441D01*
X138802569Y-76172749D01*
X138769242Y-76062883D01*
X138705585Y-75853032D01*
X138676859Y-75783680D01*
X138577723Y-75544346D01*
X138577713Y-75544327D01*
X138420226Y-75249687D01*
X138301214Y-75071575D01*
X138234601Y-74971882D01*
X138164631Y-74886623D01*
X138142331Y-74829646D01*
X138157780Y-74770443D01*
X138171150Y-74753819D01*
X139694717Y-73230253D01*
X142274500Y-73230253D01*
X142274500Y-74769746D01*
X142274501Y-74769758D01*
X142286132Y-74828227D01*
X142286134Y-74828233D01*
X142318956Y-74877354D01*
X142330448Y-74894552D01*
X142396769Y-74938867D01*
X142441231Y-74947711D01*
X142455241Y-74950498D01*
X142455246Y-74950498D01*
X142455252Y-74950500D01*
X142455253Y-74950500D01*
X144294747Y-74950500D01*
X144294748Y-74950500D01*
X144353231Y-74938867D01*
X144419552Y-74894552D01*
X144463867Y-74828231D01*
X144475500Y-74769748D01*
X144475500Y-73230253D01*
X152524500Y-73230253D01*
X152524500Y-74769746D01*
X152524501Y-74769758D01*
X152536132Y-74828227D01*
X152536134Y-74828233D01*
X152568956Y-74877354D01*
X152580448Y-74894552D01*
X152646769Y-74938867D01*
X152691231Y-74947711D01*
X152705241Y-74950498D01*
X152705246Y-74950498D01*
X152705252Y-74950500D01*
X152705253Y-74950500D01*
X154544747Y-74950500D01*
X154544748Y-74950500D01*
X154603231Y-74938867D01*
X154669552Y-74894552D01*
X154713867Y-74828231D01*
X154725500Y-74769748D01*
X154725500Y-73230252D01*
X154713867Y-73171769D01*
X154669552Y-73105448D01*
X154669548Y-73105445D01*
X154603233Y-73061134D01*
X154603231Y-73061133D01*
X154603228Y-73061132D01*
X154603227Y-73061132D01*
X154544758Y-73049501D01*
X154544748Y-73049500D01*
X152705252Y-73049500D01*
X152705251Y-73049500D01*
X152705241Y-73049501D01*
X152646772Y-73061132D01*
X152646766Y-73061134D01*
X152580451Y-73105445D01*
X152580445Y-73105451D01*
X152536134Y-73171766D01*
X152536132Y-73171772D01*
X152524501Y-73230241D01*
X152524500Y-73230253D01*
X144475500Y-73230253D01*
X144475500Y-73230252D01*
X144463867Y-73171769D01*
X144419552Y-73105448D01*
X144419548Y-73105445D01*
X144353233Y-73061134D01*
X144353231Y-73061133D01*
X144353228Y-73061132D01*
X144353227Y-73061132D01*
X144294758Y-73049501D01*
X144294748Y-73049500D01*
X142455252Y-73049500D01*
X142455251Y-73049500D01*
X142455241Y-73049501D01*
X142396772Y-73061132D01*
X142396766Y-73061134D01*
X142330451Y-73105445D01*
X142330445Y-73105451D01*
X142286134Y-73171766D01*
X142286132Y-73171772D01*
X142274501Y-73230241D01*
X142274500Y-73230253D01*
X139694717Y-73230253D01*
X140595475Y-72329496D01*
X140649992Y-72301719D01*
X140665479Y-72300500D01*
X161452405Y-72300500D01*
X161497835Y-72300500D01*
X161502152Y-72300593D01*
X161905284Y-72318195D01*
X161913864Y-72318945D01*
X162311776Y-72371332D01*
X162320281Y-72372832D01*
X162431870Y-72397570D01*
X162712108Y-72459698D01*
X162720423Y-72461925D01*
X163085824Y-72577136D01*
X163103201Y-72582615D01*
X163111317Y-72585569D01*
X163482111Y-72739157D01*
X163489923Y-72742799D01*
X163830367Y-72920024D01*
X163845910Y-72928115D01*
X163853390Y-72932433D01*
X164191882Y-73148076D01*
X164198956Y-73153030D01*
X164517354Y-73397345D01*
X164523968Y-73402895D01*
X164819868Y-73674038D01*
X164825961Y-73680131D01*
X164930686Y-73794418D01*
X165097102Y-73976029D01*
X165102654Y-73982645D01*
X165346969Y-74301043D01*
X165351923Y-74308117D01*
X165567566Y-74646609D01*
X165571884Y-74654089D01*
X165757196Y-75010069D01*
X165760846Y-75017896D01*
X165914430Y-75388682D01*
X165917384Y-75396798D01*
X166038069Y-75779560D01*
X166040304Y-75787903D01*
X166127167Y-76179718D01*
X166128667Y-76188223D01*
X166181052Y-76586123D01*
X166181805Y-76594727D01*
X166199406Y-76997847D01*
X166199500Y-77002165D01*
X166199500Y-91834521D01*
X166180593Y-91892712D01*
X166170504Y-91904525D01*
X165864525Y-92210504D01*
X165810008Y-92238281D01*
X165794521Y-92239500D01*
X165178365Y-92239500D01*
X165120174Y-92220593D01*
X165094389Y-92189891D01*
X165093965Y-92190194D01*
X165090115Y-92184802D01*
X165089423Y-92183978D01*
X165089199Y-92183520D01*
X165089198Y-92183517D01*
X165006483Y-92100802D01*
X165006481Y-92100801D01*
X164901395Y-92049427D01*
X164874139Y-92045456D01*
X164833260Y-92039500D01*
X163116740Y-92039500D01*
X163082673Y-92044463D01*
X163048604Y-92049427D01*
X162943518Y-92100801D01*
X162860801Y-92183518D01*
X162809427Y-92288604D01*
X162809427Y-92288607D01*
X162799500Y-92356740D01*
X162799500Y-92723260D01*
X162804786Y-92759540D01*
X162809427Y-92791395D01*
X162857538Y-92889806D01*
X162860802Y-92896483D01*
X162943517Y-92979198D01*
X162990450Y-93002142D01*
X163048604Y-93030572D01*
X163048605Y-93030572D01*
X163048607Y-93030573D01*
X163116740Y-93040500D01*
X163116743Y-93040500D01*
X164833257Y-93040500D01*
X164833260Y-93040500D01*
X164901393Y-93030573D01*
X165006483Y-92979198D01*
X165089198Y-92896483D01*
X165089423Y-92896021D01*
X165089819Y-92895612D01*
X165093965Y-92889806D01*
X165094835Y-92890427D01*
X165131965Y-92852047D01*
X165178365Y-92840500D01*
X165999563Y-92840500D01*
X165999563Y-92840499D01*
X166075989Y-92820021D01*
X166144511Y-92780460D01*
X166200460Y-92724511D01*
X166740460Y-92184511D01*
X166751111Y-92166062D01*
X166780021Y-92115989D01*
X166800500Y-92039562D01*
X166800500Y-76960438D01*
X166800500Y-76780770D01*
X166764292Y-76343807D01*
X166692124Y-75911326D01*
X166584488Y-75486282D01*
X166442121Y-75071579D01*
X166265993Y-74670048D01*
X166057309Y-74284433D01*
X166057307Y-74284431D01*
X166057305Y-74284426D01*
X165817494Y-73917370D01*
X165548187Y-73571364D01*
X165387991Y-73397345D01*
X165251224Y-73248776D01*
X164928638Y-72951815D01*
X164928635Y-72951812D01*
X164582629Y-72682505D01*
X164215573Y-72442694D01*
X163829952Y-72234007D01*
X163829948Y-72234005D01*
X163428424Y-72057880D01*
X163013721Y-71915513D01*
X163013720Y-71915512D01*
X163013718Y-71915512D01*
X162855829Y-71875529D01*
X162588672Y-71807875D01*
X162156193Y-71735708D01*
X161719239Y-71699500D01*
X161719230Y-71699500D01*
X161539562Y-71699500D01*
X140460438Y-71699500D01*
X140460435Y-71699500D01*
X140384011Y-71719978D01*
X140384007Y-71719980D01*
X140315491Y-71759538D01*
X137746184Y-74328843D01*
X137691667Y-74356620D01*
X137631235Y-74347049D01*
X137613375Y-74335367D01*
X137528119Y-74265400D01*
X137250312Y-74079773D01*
X136955672Y-73922286D01*
X136955660Y-73922280D01*
X136955654Y-73922277D01*
X136955649Y-73922274D01*
X136955645Y-73922273D01*
X136646967Y-73794414D01*
X136327253Y-73697431D01*
X136106777Y-73653576D01*
X135999559Y-73632249D01*
X135999557Y-73632248D01*
X135756491Y-73608308D01*
X135667056Y-73599500D01*
X135332944Y-73599500D01*
X135234700Y-73609176D01*
X135000444Y-73632248D01*
X134672746Y-73697431D01*
X134353032Y-73794414D01*
X134044354Y-73922273D01*
X134044327Y-73922286D01*
X133749687Y-74079773D01*
X133471880Y-74265400D01*
X133213615Y-74477352D01*
X132977352Y-74713615D01*
X132765400Y-74971880D01*
X132579773Y-75249687D01*
X132422286Y-75544327D01*
X132422273Y-75544354D01*
X132294414Y-75853032D01*
X132197431Y-76172746D01*
X132132248Y-76500444D01*
X132117518Y-76650001D01*
X132100109Y-76826766D01*
X132099500Y-76832946D01*
X129757064Y-76832946D01*
X129757312Y-76826627D01*
X129762110Y-76704500D01*
X129768071Y-76552772D01*
X129768681Y-76545034D01*
X129778694Y-76460435D01*
X129820831Y-76104423D01*
X129822040Y-76096785D01*
X129908604Y-75661599D01*
X129910410Y-75654077D01*
X130030850Y-75227033D01*
X130033239Y-75219677D01*
X130186819Y-74803382D01*
X130189775Y-74796246D01*
X130375541Y-74393288D01*
X130379044Y-74386412D01*
X130595855Y-73999269D01*
X130599890Y-73992684D01*
X130846404Y-73623750D01*
X130850961Y-73617478D01*
X131125638Y-73269051D01*
X131130683Y-73263145D01*
X131143966Y-73248776D01*
X131431861Y-72937333D01*
X131437333Y-72931861D01*
X131763149Y-72630679D01*
X131769056Y-72625635D01*
X131830577Y-72577136D01*
X132117478Y-72350961D01*
X132123750Y-72346404D01*
X132492684Y-72099890D01*
X132499269Y-72095855D01*
X132886412Y-71879044D01*
X132893288Y-71875541D01*
X133296246Y-71689775D01*
X133303382Y-71686819D01*
X133719677Y-71533239D01*
X133727033Y-71530850D01*
X134154077Y-71410410D01*
X134161599Y-71408604D01*
X134596785Y-71322040D01*
X134604423Y-71320831D01*
X135045045Y-71268680D01*
X135052772Y-71268071D01*
X135498066Y-71250576D01*
X135501953Y-71250500D01*
X135544170Y-71250500D01*
X161455830Y-71250500D01*
X161498047Y-71250500D01*
X161501934Y-71250576D01*
G37*
%TD.AperFunction*%
%TD*%
%TA.AperFunction,Conductor*%
%TO.N,VCC*%
G36*
X147767183Y-102518907D02*
G01*
X147778996Y-102528996D01*
X147971004Y-102721004D01*
X147998781Y-102775521D01*
X148000000Y-102791008D01*
X148000000Y-104208992D01*
X147981093Y-104267183D01*
X147971004Y-104278996D01*
X147778996Y-104471004D01*
X147724479Y-104498781D01*
X147708992Y-104500000D01*
X145291008Y-104500000D01*
X145232817Y-104481093D01*
X145221004Y-104471004D01*
X145028996Y-104278996D01*
X145001219Y-104224479D01*
X145000000Y-104208992D01*
X145000000Y-102791008D01*
X145018907Y-102732817D01*
X145028996Y-102721004D01*
X145221004Y-102528996D01*
X145275521Y-102501219D01*
X145291008Y-102500000D01*
X147708992Y-102500000D01*
X147767183Y-102518907D01*
G37*
%TD.AperFunction*%
%TD*%
M02*
