%TF.GenerationSoftware,KiCad,Pcbnew,9.0.7+1*%
%TF.CreationDate,Date%
%TF.ProjectId,Sienkiewicz_TOUCH,5369656e-6b69-4657-9769-637a5f544f55,+ (Unreleased)*%
%TF.SameCoordinates,Original*%
%TF.FileFunction,Copper,L2,Bot*%
%TF.FilePolarity,Positive*%
%FSLAX46Y46*%
G04 Gerber Fmt 4.6, Leading zero omitted, Abs format (unit mm)*
G04 Created by KiCad*
%MOMM*%
%LPD*%
G01*
G04 APERTURE LIST*
%TA.AperFunction,Conductor*%
%ADD10C,0.400000*%
%TD*%
%TA.AperFunction,ComponentPad*%
%ADD11C,0.800000*%
%TD*%
%TA.AperFunction,ComponentPad*%
%ADD12C,6.400000*%
%TD*%
%TA.AperFunction,ViaPad*%
%ADD13C,0.550000*%
%TD*%
%TA.AperFunction,Conductor*%
%ADD14C,0.200000*%
%TD*%
G04 APERTURE END LIST*
D10*
%TO.N,VCC*%
X152000000Y-103500000D02*
G75*
G02*
X153500000Y-105000000I0J-1500000D01*
G01*
X166500000Y-103000000D02*
G75*
G02*
X161500000Y-108000000I-5000000J0D01*
G01*
X165500000Y-77000000D02*
G75*
G02*
X166500000Y-78000000I0J-1000000D01*
G01*
X155000000Y-108000000D02*
G75*
G02*
X153500000Y-106500000I0J1500000D01*
G01*
%TD*%
D11*
%TO.P,B1,1,SDI*%
%TO.N,SR_SDI*%
X133100000Y-77000000D03*
X133802944Y-75302944D03*
X133802944Y-78697056D03*
X135500000Y-74600000D03*
D12*
X135500000Y-77000000D03*
D11*
X135500000Y-79400000D03*
X137197056Y-75302944D03*
X137197056Y-78697056D03*
X137900000Y-77000000D03*
%TO.P,B1,2,VCC*%
%TO.N,VCC*%
X159100000Y-77000000D03*
X159802944Y-75302944D03*
X159802944Y-78697056D03*
X161500000Y-74600000D03*
D12*
X161500000Y-77000000D03*
D11*
X161500000Y-79400000D03*
X163197056Y-75302944D03*
X163197056Y-78697056D03*
X163900000Y-77000000D03*
%TO.P,B1,3,GND*%
%TO.N,GND*%
X159100000Y-103000000D03*
X159802944Y-101302944D03*
X159802944Y-104697056D03*
X161500000Y-100600000D03*
D12*
X161500000Y-103000000D03*
D11*
X161500000Y-105400000D03*
X163197056Y-101302944D03*
X163197056Y-104697056D03*
X163900000Y-103000000D03*
%TO.P,B1,4,CLK*%
%TO.N,SR_CLK*%
X133100000Y-103000000D03*
X133802944Y-101302944D03*
X133802944Y-104697056D03*
X135500000Y-100600000D03*
D12*
X135500000Y-103000000D03*
D11*
X135500000Y-105400000D03*
X137197056Y-101302944D03*
X137197056Y-104697056D03*
X137900000Y-103000000D03*
%TO.P,B1,5,LATCH*%
%TO.N,SR_LATCH*%
X146100000Y-97000000D03*
X146802944Y-95302944D03*
X146802944Y-98697056D03*
X148500000Y-94600000D03*
D12*
X148500000Y-97000000D03*
D11*
X148500000Y-99400000D03*
X150197056Y-95302944D03*
X150197056Y-98697056D03*
X150900000Y-97000000D03*
%TD*%
D13*
%TO.N,GND*%
X164500000Y-82000000D03*
X162500000Y-81000000D03*
X165500000Y-88000000D03*
X148500000Y-76000000D03*
X130500000Y-102000000D03*
X135500000Y-82000000D03*
X165500000Y-89000000D03*
X141500000Y-78500000D03*
X139500000Y-78500000D03*
X135500000Y-88000000D03*
X140500000Y-78500000D03*
X157500000Y-78500000D03*
X144500000Y-81000000D03*
X133500000Y-88000000D03*
X165500000Y-86000000D03*
X165500000Y-104000000D03*
X142500000Y-99000000D03*
X140500000Y-74500000D03*
X164500000Y-95000000D03*
X165500000Y-100000000D03*
X156500000Y-98000000D03*
X157500000Y-107000000D03*
X165500000Y-84000000D03*
X161500000Y-73000000D03*
X141500000Y-99000000D03*
X155500000Y-78500000D03*
X130500000Y-86000000D03*
X163500000Y-85000000D03*
X138500000Y-99000000D03*
X133500000Y-84000000D03*
X147500000Y-73000000D03*
X161500000Y-88000000D03*
X140500000Y-108000000D03*
X135500000Y-108000000D03*
X164500000Y-81000000D03*
X164500000Y-84000000D03*
X165500000Y-87000000D03*
X136500000Y-73000000D03*
X160500000Y-88000000D03*
X130500000Y-76000000D03*
X160500000Y-99000000D03*
X131500000Y-77000000D03*
X130500000Y-104000000D03*
X134500000Y-82000000D03*
X165500000Y-82000000D03*
X164500000Y-83000000D03*
X143500000Y-99000000D03*
X137500000Y-99000000D03*
X131500000Y-100000000D03*
X160500000Y-89000000D03*
X142500000Y-81000000D03*
X156500000Y-74500000D03*
X160500000Y-73000000D03*
X161500000Y-98000000D03*
X149500000Y-75000000D03*
X137500000Y-91000000D03*
X163500000Y-81000000D03*
X158500000Y-95000000D03*
X134500000Y-72000000D03*
X140500000Y-104000000D03*
X146500000Y-74000000D03*
X136500000Y-108000000D03*
X137500000Y-108000000D03*
X165500000Y-83000000D03*
X130500000Y-77000000D03*
X134500000Y-108000000D03*
X130500000Y-84000000D03*
X135500000Y-99000000D03*
X137500000Y-89000000D03*
X154500000Y-81000000D03*
X139500000Y-108000000D03*
X146500000Y-81000000D03*
X155500000Y-104000000D03*
X157500000Y-106000000D03*
X165500000Y-98000000D03*
X148500000Y-81000000D03*
X163500000Y-95000000D03*
X135500000Y-72000000D03*
X151500000Y-73000000D03*
X131500000Y-78000000D03*
X132500000Y-84000000D03*
X157500000Y-105000000D03*
X152500000Y-81000000D03*
X139500000Y-99000000D03*
X148500000Y-74000000D03*
X162500000Y-97000000D03*
X141500000Y-108000000D03*
X157500000Y-102000000D03*
X163500000Y-96000000D03*
X165500000Y-76000000D03*
X134500000Y-73000000D03*
X165500000Y-90000000D03*
X165500000Y-81000000D03*
X130500000Y-78000000D03*
X139500000Y-74500000D03*
X164500000Y-85000000D03*
X157500000Y-97000000D03*
X134500000Y-81000000D03*
X136500000Y-81000000D03*
X144500000Y-99000000D03*
X165500000Y-96000000D03*
X130500000Y-87000000D03*
X137500000Y-87000000D03*
X131500000Y-84000000D03*
X159500000Y-100000000D03*
X136500000Y-72000000D03*
X160500000Y-90000000D03*
X165500000Y-78000000D03*
X157500000Y-104000000D03*
X165500000Y-85000000D03*
X130500000Y-103000000D03*
X132500000Y-88000000D03*
X157500000Y-74500000D03*
X141500000Y-104000000D03*
X165500000Y-91000000D03*
X158500000Y-96000000D03*
X158500000Y-101000000D03*
X165500000Y-103000000D03*
X165500000Y-99000000D03*
X155500000Y-99000000D03*
X131500000Y-88000000D03*
X161500000Y-89000000D03*
X141500000Y-74500000D03*
X140500000Y-99000000D03*
X165500000Y-97000000D03*
X138500000Y-108000000D03*
X130500000Y-88000000D03*
X165500000Y-95000000D03*
X165500000Y-102000000D03*
X160500000Y-107000000D03*
X149500000Y-73000000D03*
X156500000Y-78500000D03*
X157500000Y-103000000D03*
X150500000Y-74000000D03*
X162500000Y-107000000D03*
X150500000Y-81000000D03*
X137500000Y-88000000D03*
X156500000Y-104000000D03*
X155500000Y-74500000D03*
X162500000Y-73000000D03*
X165500000Y-94000000D03*
X147500000Y-75000000D03*
X136500000Y-82000000D03*
X134500000Y-88000000D03*
X135500000Y-81000000D03*
X162500000Y-88000000D03*
X165500000Y-92000000D03*
X165500000Y-101000000D03*
X162500000Y-85000000D03*
X145500000Y-73000000D03*
X130500000Y-85000000D03*
X135500000Y-73000000D03*
X161500000Y-107000000D03*
X136500000Y-99000000D03*
X131500000Y-99000000D03*
X131500000Y-76000000D03*
%TO.N,/Project Architecture/Section C - Touch sensor/TOUCH*%
X139500000Y-95000000D03*
%TO.N,VCC*%
X145500000Y-103000000D03*
X146500000Y-103000000D03*
X146500000Y-104000000D03*
X147500000Y-104000000D03*
X147500000Y-103000000D03*
X145500000Y-104000000D03*
%TD*%
D14*
%TO.N,/Project Architecture/Section C - Touch sensor/TOUCH*%
X141500000Y-95000000D02*
X142500000Y-94000000D01*
X139500000Y-95000000D02*
X141500000Y-95000000D01*
D10*
%TO.N,VCC*%
X147500000Y-103500000D02*
X152000000Y-103500000D01*
X166500000Y-103000000D02*
X166500000Y-78000000D01*
D14*
X147500000Y-103500000D02*
X147500000Y-104000000D01*
X147500000Y-103000000D02*
X147500000Y-103500000D01*
D10*
X161500000Y-108000000D02*
X155000000Y-108000000D01*
X165500000Y-77000000D02*
X161500000Y-77000000D01*
X153500000Y-105000000D02*
X153500000Y-106500000D01*
D14*
X161500000Y-77000000D02*
X163900000Y-77000000D01*
%TD*%
%TA.AperFunction,Conductor*%
%TO.N,GND*%
G36*
X161501934Y-71250576D02*
G01*
X161947225Y-71268071D01*
X161954956Y-71268680D01*
X162395572Y-71320830D01*
X162403217Y-71322041D01*
X162838394Y-71408603D01*
X162845928Y-71410412D01*
X163272958Y-71530847D01*
X163280329Y-71533242D01*
X163696608Y-71686816D01*
X163703762Y-71689779D01*
X164106701Y-71875536D01*
X164113597Y-71879050D01*
X164500719Y-72095848D01*
X164507326Y-72099897D01*
X164745413Y-72258982D01*
X164876241Y-72346399D01*
X164882529Y-72350968D01*
X165230943Y-72625635D01*
X165236854Y-72630683D01*
X165562653Y-72931849D01*
X165568150Y-72937346D01*
X165869316Y-73263145D01*
X165874364Y-73269056D01*
X166149031Y-73617470D01*
X166153600Y-73623758D01*
X166400095Y-73992662D01*
X166404155Y-73999288D01*
X166553184Y-74265399D01*
X166620941Y-74386387D01*
X166624468Y-74393309D01*
X166772131Y-74713615D01*
X166810214Y-74796224D01*
X166813189Y-74803405D01*
X166966753Y-75219659D01*
X166969155Y-75227052D01*
X167089584Y-75654059D01*
X167091399Y-75661618D01*
X167177955Y-76096765D01*
X167179171Y-76104443D01*
X167231318Y-76545034D01*
X167231928Y-76552783D01*
X167249424Y-76998065D01*
X167249500Y-77001952D01*
X167249500Y-102998047D01*
X167249424Y-103001934D01*
X167231928Y-103447216D01*
X167231318Y-103454965D01*
X167179171Y-103895556D01*
X167177955Y-103903234D01*
X167091399Y-104338381D01*
X167089584Y-104345940D01*
X166969155Y-104772947D01*
X166966753Y-104780340D01*
X166813189Y-105196594D01*
X166810214Y-105203775D01*
X166624470Y-105606686D01*
X166620941Y-105613612D01*
X166404157Y-106000708D01*
X166400095Y-106007337D01*
X166153600Y-106376241D01*
X166149031Y-106382529D01*
X165874364Y-106730943D01*
X165869316Y-106736854D01*
X165568150Y-107062653D01*
X165562653Y-107068150D01*
X165236854Y-107369316D01*
X165230943Y-107374364D01*
X164882529Y-107649031D01*
X164876241Y-107653600D01*
X164507337Y-107900095D01*
X164500708Y-107904157D01*
X164113612Y-108120941D01*
X164106686Y-108124470D01*
X163703775Y-108310214D01*
X163696594Y-108313189D01*
X163280340Y-108466753D01*
X163272947Y-108469155D01*
X162845940Y-108589584D01*
X162838381Y-108591399D01*
X162403234Y-108677955D01*
X162395556Y-108679171D01*
X161954965Y-108731318D01*
X161947216Y-108731928D01*
X161501934Y-108749424D01*
X161498047Y-108749500D01*
X135501953Y-108749500D01*
X135498066Y-108749424D01*
X135052783Y-108731928D01*
X135045034Y-108731318D01*
X134604443Y-108679171D01*
X134596765Y-108677955D01*
X134161618Y-108591399D01*
X134154059Y-108589584D01*
X133727052Y-108469155D01*
X133719659Y-108466753D01*
X133303405Y-108313189D01*
X133296224Y-108310214D01*
X133252548Y-108290079D01*
X132893309Y-108124468D01*
X132886392Y-108120943D01*
X132499288Y-107904155D01*
X132492662Y-107900095D01*
X132123758Y-107653600D01*
X132117470Y-107649031D01*
X131769056Y-107374364D01*
X131763145Y-107369316D01*
X131437346Y-107068150D01*
X131431849Y-107062653D01*
X131382999Y-107009807D01*
X131325372Y-106947467D01*
X150344200Y-106947467D01*
X150344200Y-107084532D01*
X150360518Y-107166566D01*
X150369727Y-107212866D01*
X150370939Y-107218956D01*
X150370939Y-107218958D01*
X150423387Y-107345580D01*
X150423393Y-107345591D01*
X150469202Y-107414148D01*
X150499537Y-107459547D01*
X150596453Y-107556463D01*
X150660298Y-107599123D01*
X150710408Y-107632606D01*
X150710419Y-107632612D01*
X150750059Y-107649031D01*
X150837043Y-107685061D01*
X150971470Y-107711800D01*
X150971471Y-107711800D01*
X151108529Y-107711800D01*
X151108530Y-107711800D01*
X151242957Y-107685061D01*
X151369585Y-107632610D01*
X151483547Y-107556463D01*
X151580463Y-107459547D01*
X151656610Y-107345585D01*
X151709061Y-107218957D01*
X151735800Y-107084530D01*
X151735800Y-106947470D01*
X151709061Y-106813043D01*
X151661942Y-106699288D01*
X151656612Y-106686419D01*
X151656606Y-106686408D01*
X151609969Y-106616612D01*
X151580463Y-106572453D01*
X151483547Y-106475537D01*
X151435669Y-106443546D01*
X151369591Y-106399393D01*
X151369580Y-106399387D01*
X151242957Y-106346939D01*
X151108532Y-106320200D01*
X151108530Y-106320200D01*
X150971470Y-106320200D01*
X150971467Y-106320200D01*
X150837043Y-106346939D01*
X150837041Y-106346939D01*
X150710419Y-106399387D01*
X150710408Y-106399393D01*
X150596453Y-106475537D01*
X150596449Y-106475540D01*
X150499540Y-106572449D01*
X150499537Y-106572453D01*
X150423393Y-106686408D01*
X150423387Y-106686419D01*
X150370939Y-106813041D01*
X150370939Y-106813043D01*
X150344200Y-106947467D01*
X131325372Y-106947467D01*
X131130683Y-106736854D01*
X131125635Y-106730943D01*
X130850968Y-106382529D01*
X130846399Y-106376241D01*
X130732368Y-106205582D01*
X130599897Y-106007326D01*
X130595848Y-106000719D01*
X130379050Y-105613597D01*
X130375536Y-105606701D01*
X130189779Y-105203762D01*
X130186816Y-105196608D01*
X130033242Y-104780329D01*
X130030847Y-104772958D01*
X129910412Y-104345928D01*
X129908603Y-104338394D01*
X129822041Y-103903217D01*
X129820830Y-103895572D01*
X129768680Y-103454956D01*
X129768071Y-103447216D01*
X129766860Y-103416403D01*
X129750576Y-103001934D01*
X129750500Y-102998047D01*
X129750500Y-102832946D01*
X132099500Y-102832946D01*
X132099500Y-103167053D01*
X132132248Y-103499555D01*
X132197431Y-103827253D01*
X132294414Y-104146967D01*
X132422273Y-104455645D01*
X132422286Y-104455672D01*
X132579773Y-104750312D01*
X132690130Y-104915471D01*
X132765399Y-105028118D01*
X132977357Y-105286390D01*
X133213610Y-105522643D01*
X133471882Y-105734601D01*
X133565330Y-105797041D01*
X133749687Y-105920226D01*
X134044327Y-106077713D01*
X134044346Y-106077723D01*
X134353024Y-106205582D01*
X134353026Y-106205582D01*
X134353032Y-106205585D01*
X134629376Y-106289412D01*
X134672749Y-106302569D01*
X135000441Y-106367751D01*
X135332944Y-106400500D01*
X135332947Y-106400500D01*
X135667053Y-106400500D01*
X135667056Y-106400500D01*
X135999559Y-106367751D01*
X136327251Y-106302569D01*
X136516857Y-106245052D01*
X136646967Y-106205585D01*
X136646969Y-106205583D01*
X136646976Y-106205582D01*
X136955654Y-106077723D01*
X137099739Y-106000708D01*
X137229281Y-105931467D01*
X145264200Y-105931467D01*
X145264200Y-106068532D01*
X145290939Y-106202956D01*
X145290939Y-106202958D01*
X145343387Y-106329580D01*
X145343393Y-106329591D01*
X145378766Y-106382529D01*
X145419537Y-106443547D01*
X145516453Y-106540463D01*
X145584394Y-106585860D01*
X145630408Y-106616606D01*
X145630419Y-106616612D01*
X145649620Y-106624565D01*
X145757043Y-106669061D01*
X145891470Y-106695800D01*
X145891471Y-106695800D01*
X146028529Y-106695800D01*
X146028530Y-106695800D01*
X146162957Y-106669061D01*
X146289585Y-106616610D01*
X146403547Y-106540463D01*
X146500463Y-106443547D01*
X146576610Y-106329585D01*
X146629061Y-106202957D01*
X146655800Y-106068530D01*
X146655800Y-105931470D01*
X146629061Y-105797043D01*
X146603196Y-105734599D01*
X146576612Y-105670419D01*
X146576606Y-105670408D01*
X146538655Y-105613612D01*
X146500463Y-105556453D01*
X146403547Y-105459537D01*
X146355669Y-105427546D01*
X146289591Y-105383393D01*
X146289580Y-105383387D01*
X146162957Y-105330939D01*
X146028532Y-105304200D01*
X146028530Y-105304200D01*
X145891470Y-105304200D01*
X145891467Y-105304200D01*
X145757043Y-105330939D01*
X145757041Y-105330939D01*
X145630419Y-105383387D01*
X145630408Y-105383393D01*
X145516453Y-105459537D01*
X145516449Y-105459540D01*
X145419540Y-105556449D01*
X145419537Y-105556453D01*
X145343393Y-105670408D01*
X145343387Y-105670419D01*
X145290939Y-105797041D01*
X145290939Y-105797043D01*
X145264200Y-105931467D01*
X137229281Y-105931467D01*
X137250312Y-105920226D01*
X137363957Y-105844291D01*
X137434670Y-105797041D01*
X137528118Y-105734601D01*
X137786390Y-105522643D01*
X138022643Y-105286390D01*
X138234601Y-105028118D01*
X138309872Y-104915467D01*
X150344200Y-104915467D01*
X150344200Y-105052532D01*
X150370939Y-105186956D01*
X150370939Y-105186958D01*
X150423387Y-105313580D01*
X150423393Y-105313591D01*
X150463696Y-105373907D01*
X150499537Y-105427547D01*
X150596453Y-105524463D01*
X150664394Y-105569860D01*
X150710408Y-105600606D01*
X150710419Y-105600612D01*
X150757193Y-105619986D01*
X150837043Y-105653061D01*
X150971470Y-105679800D01*
X150971471Y-105679800D01*
X151108529Y-105679800D01*
X151108530Y-105679800D01*
X151242957Y-105653061D01*
X151369585Y-105600610D01*
X151483547Y-105524463D01*
X151580463Y-105427547D01*
X151656610Y-105313585D01*
X151709061Y-105186957D01*
X151735800Y-105052530D01*
X151735800Y-104915470D01*
X151709061Y-104781043D01*
X151677770Y-104705500D01*
X151656612Y-104654419D01*
X151656606Y-104654408D01*
X151604959Y-104577114D01*
X151580463Y-104540453D01*
X151483547Y-104443537D01*
X151438148Y-104413202D01*
X151369591Y-104367393D01*
X151369580Y-104367387D01*
X151242957Y-104314939D01*
X151108532Y-104288200D01*
X151108530Y-104288200D01*
X150971470Y-104288200D01*
X150971467Y-104288200D01*
X150837043Y-104314939D01*
X150837041Y-104314939D01*
X150710419Y-104367387D01*
X150710408Y-104367393D01*
X150596453Y-104443537D01*
X150596449Y-104443540D01*
X150499540Y-104540449D01*
X150499537Y-104540453D01*
X150423393Y-104654408D01*
X150423387Y-104654419D01*
X150370939Y-104781041D01*
X150370939Y-104781043D01*
X150344200Y-104915467D01*
X138309872Y-104915467D01*
X138420224Y-104750315D01*
X138444518Y-104704865D01*
X138500760Y-104599640D01*
X138577723Y-104455654D01*
X138705582Y-104146976D01*
X138802569Y-103827251D01*
X138867751Y-103499559D01*
X138900500Y-103167056D01*
X138900500Y-102832944D01*
X138896369Y-102791004D01*
X144794500Y-102791004D01*
X144794500Y-102791008D01*
X144794500Y-104208992D01*
X144794943Y-104220279D01*
X144795134Y-104225123D01*
X144796353Y-104240602D01*
X144796354Y-104240607D01*
X144818115Y-104317769D01*
X144818117Y-104317775D01*
X144845894Y-104372291D01*
X144883681Y-104424300D01*
X144883683Y-104424302D01*
X144883686Y-104424306D01*
X145075694Y-104616314D01*
X145075707Y-104616326D01*
X145075714Y-104616333D01*
X145087534Y-104627260D01*
X145087544Y-104627269D01*
X145099357Y-104637358D01*
X145169315Y-104676536D01*
X145227506Y-104695443D01*
X145240206Y-104697454D01*
X145291004Y-104705500D01*
X145291008Y-104705500D01*
X147708978Y-104705500D01*
X147708992Y-104705500D01*
X147725117Y-104704866D01*
X147740604Y-104703647D01*
X147817772Y-104681884D01*
X147872289Y-104654107D01*
X147924306Y-104616314D01*
X148116314Y-104424306D01*
X148127269Y-104412456D01*
X148137358Y-104400643D01*
X148176536Y-104330685D01*
X148195443Y-104272494D01*
X148200494Y-104240602D01*
X148205500Y-104208995D01*
X148205500Y-103999500D01*
X148224407Y-103941309D01*
X148273907Y-103905345D01*
X148304500Y-103900500D01*
X151942417Y-103900500D01*
X151995681Y-103900500D01*
X152004309Y-103900877D01*
X152182300Y-103916449D01*
X152199281Y-103919442D01*
X152367684Y-103964566D01*
X152383899Y-103970467D01*
X152541905Y-104044147D01*
X152556843Y-104052772D01*
X152637447Y-104109211D01*
X152699646Y-104152763D01*
X152712866Y-104163855D01*
X152836144Y-104287133D01*
X152847236Y-104300353D01*
X152947225Y-104443152D01*
X152955854Y-104458097D01*
X153029531Y-104616099D01*
X153035433Y-104632315D01*
X153080555Y-104800711D01*
X153083551Y-104817705D01*
X153099123Y-104995689D01*
X153099500Y-105004318D01*
X153099500Y-106624566D01*
X153132017Y-106871557D01*
X153132017Y-106871562D01*
X153132018Y-106871565D01*
X153189082Y-107084532D01*
X153196496Y-107112199D01*
X153196500Y-107112212D01*
X153291832Y-107342365D01*
X153291834Y-107342369D01*
X153291836Y-107342373D01*
X153416401Y-107558127D01*
X153416403Y-107558130D01*
X153568056Y-107755769D01*
X153568058Y-107755771D01*
X153568062Y-107755776D01*
X153744224Y-107931938D01*
X153744228Y-107931941D01*
X153744230Y-107931943D01*
X153875485Y-108032658D01*
X153941873Y-108083599D01*
X154157627Y-108208164D01*
X154387793Y-108303502D01*
X154628435Y-108367982D01*
X154875435Y-108400500D01*
X154875436Y-108400500D01*
X161723358Y-108400500D01*
X161723366Y-108400500D01*
X162168573Y-108363609D01*
X162609213Y-108290079D01*
X163042276Y-108180413D01*
X163464803Y-108035359D01*
X163873909Y-107855908D01*
X164266799Y-107643287D01*
X164640788Y-107398948D01*
X164993323Y-107124559D01*
X165321995Y-106821995D01*
X165624559Y-106493323D01*
X165898948Y-106140788D01*
X166143287Y-105766799D01*
X166355908Y-105373909D01*
X166535359Y-104964803D01*
X166680413Y-104542276D01*
X166790079Y-104109213D01*
X166863609Y-103668573D01*
X166900500Y-103223366D01*
X166900500Y-103000000D01*
X166900500Y-102942417D01*
X166900500Y-77947273D01*
X166900500Y-77889778D01*
X166900500Y-77889774D01*
X166877510Y-77744625D01*
X166866015Y-77672049D01*
X166797895Y-77462394D01*
X166697815Y-77265978D01*
X166568242Y-77087635D01*
X166412365Y-76931758D01*
X166234022Y-76802185D01*
X166234021Y-76802184D01*
X166234019Y-76802183D01*
X166144825Y-76756736D01*
X166037606Y-76702105D01*
X166037602Y-76702104D01*
X166037599Y-76702102D01*
X165827948Y-76633984D01*
X165610225Y-76599500D01*
X165610222Y-76599500D01*
X165552727Y-76599500D01*
X164967236Y-76599500D01*
X164909045Y-76580593D01*
X164873081Y-76531093D01*
X164868713Y-76510205D01*
X164867752Y-76500450D01*
X164867751Y-76500444D01*
X164867751Y-76500441D01*
X164802569Y-76172749D01*
X164779520Y-76096765D01*
X164705585Y-75853032D01*
X164626299Y-75661618D01*
X164577723Y-75544346D01*
X164490477Y-75381119D01*
X164420226Y-75249687D01*
X164327412Y-75110783D01*
X164234601Y-74971882D01*
X164022643Y-74713610D01*
X163786390Y-74477357D01*
X163528118Y-74265399D01*
X163458667Y-74218993D01*
X163250312Y-74079773D01*
X162955672Y-73922286D01*
X162955660Y-73922280D01*
X162955654Y-73922277D01*
X162955649Y-73922274D01*
X162955645Y-73922273D01*
X162646967Y-73794414D01*
X162327253Y-73697431D01*
X162106777Y-73653576D01*
X161999559Y-73632249D01*
X161999557Y-73632248D01*
X161756491Y-73608308D01*
X161667056Y-73599500D01*
X161332944Y-73599500D01*
X161234700Y-73609176D01*
X161000444Y-73632248D01*
X160672746Y-73697431D01*
X160353032Y-73794414D01*
X160044354Y-73922273D01*
X160044327Y-73922286D01*
X159749687Y-74079773D01*
X159471880Y-74265400D01*
X159213615Y-74477352D01*
X158977352Y-74713615D01*
X158765400Y-74971880D01*
X158579773Y-75249687D01*
X158422286Y-75544327D01*
X158422273Y-75544354D01*
X158294414Y-75853032D01*
X158197431Y-76172746D01*
X158132248Y-76500444D01*
X158099500Y-76832946D01*
X158099500Y-77167053D01*
X158132248Y-77499555D01*
X158197431Y-77827253D01*
X158294414Y-78146967D01*
X158422273Y-78455645D01*
X158422286Y-78455672D01*
X158579773Y-78750312D01*
X158718993Y-78958667D01*
X158765399Y-79028118D01*
X158977357Y-79286390D01*
X159213610Y-79522643D01*
X159471882Y-79734601D01*
X159610783Y-79827412D01*
X159749687Y-79920226D01*
X160044327Y-80077713D01*
X160044346Y-80077723D01*
X160353024Y-80205582D01*
X160353026Y-80205582D01*
X160353032Y-80205585D01*
X160629376Y-80289412D01*
X160672749Y-80302569D01*
X161000441Y-80367751D01*
X161332944Y-80400500D01*
X161332947Y-80400500D01*
X161667053Y-80400500D01*
X161667056Y-80400500D01*
X161999559Y-80367751D01*
X162327251Y-80302569D01*
X162516857Y-80245052D01*
X162646967Y-80205585D01*
X162646969Y-80205583D01*
X162646976Y-80205582D01*
X162955654Y-80077723D01*
X163099640Y-80000760D01*
X163250312Y-79920226D01*
X163250315Y-79920224D01*
X163528118Y-79734601D01*
X163786390Y-79522643D01*
X164022643Y-79286390D01*
X164234601Y-79028118D01*
X164420224Y-78750315D01*
X164577723Y-78455654D01*
X164705582Y-78146976D01*
X164802569Y-77827251D01*
X164867751Y-77499559D01*
X164868713Y-77489795D01*
X164893234Y-77433738D01*
X164946021Y-77402800D01*
X164967236Y-77400500D01*
X165442417Y-77400500D01*
X165494444Y-77400500D01*
X165505512Y-77401121D01*
X165622325Y-77414283D01*
X165643921Y-77419212D01*
X165749589Y-77456186D01*
X165769556Y-77465802D01*
X165807740Y-77489795D01*
X165864336Y-77525357D01*
X165881668Y-77539178D01*
X165960821Y-77618331D01*
X165974642Y-77635663D01*
X166034195Y-77730440D01*
X166043815Y-77750415D01*
X166080786Y-77856074D01*
X166085718Y-77877686D01*
X166098877Y-77994470D01*
X166099500Y-78005555D01*
X166099500Y-102997835D01*
X166099406Y-103002153D01*
X166082186Y-103396557D01*
X166081433Y-103405161D01*
X166030186Y-103794413D01*
X166028686Y-103802918D01*
X165943712Y-104186212D01*
X165941477Y-104194555D01*
X165823415Y-104568999D01*
X165820461Y-104577114D01*
X165670216Y-104939840D01*
X165666566Y-104947668D01*
X165485282Y-105295910D01*
X165480964Y-105303390D01*
X165270008Y-105634525D01*
X165265054Y-105641599D01*
X165026054Y-105953069D01*
X165020503Y-105959685D01*
X164755258Y-106249150D01*
X164749150Y-106255258D01*
X164459685Y-106520503D01*
X164453069Y-106526054D01*
X164141599Y-106765054D01*
X164134525Y-106770008D01*
X163803390Y-106980964D01*
X163795910Y-106985282D01*
X163447668Y-107166566D01*
X163439840Y-107170216D01*
X163077114Y-107320461D01*
X163068999Y-107323415D01*
X162694555Y-107441477D01*
X162686212Y-107443712D01*
X162302918Y-107528686D01*
X162294413Y-107530186D01*
X161905161Y-107581433D01*
X161896557Y-107582186D01*
X161502153Y-107599406D01*
X161497835Y-107599500D01*
X155004319Y-107599500D01*
X154995691Y-107599123D01*
X154925216Y-107592957D01*
X154817705Y-107583551D01*
X154800711Y-107580555D01*
X154632315Y-107535433D01*
X154616099Y-107529531D01*
X154458097Y-107455854D01*
X154443152Y-107447225D01*
X154300353Y-107347236D01*
X154287133Y-107336144D01*
X154163855Y-107212866D01*
X154152763Y-107199646D01*
X154132156Y-107170216D01*
X154052772Y-107056843D01*
X154044145Y-107041902D01*
X154015729Y-106980964D01*
X153970467Y-106883899D01*
X153964566Y-106867684D01*
X153949925Y-106813043D01*
X153919442Y-106699281D01*
X153916449Y-106682300D01*
X153900877Y-106504309D01*
X153900500Y-106495681D01*
X153900500Y-104875436D01*
X153900500Y-104875435D01*
X153867982Y-104628435D01*
X153803502Y-104387793D01*
X153708164Y-104157627D01*
X153583599Y-103941873D01*
X153552142Y-103900877D01*
X153431943Y-103744230D01*
X153431941Y-103744228D01*
X153431938Y-103744224D01*
X153255776Y-103568062D01*
X153255771Y-103568058D01*
X153255769Y-103568056D01*
X153058130Y-103416403D01*
X153058127Y-103416401D01*
X152842373Y-103291836D01*
X152842369Y-103291834D01*
X152842365Y-103291832D01*
X152612212Y-103196500D01*
X152612211Y-103196499D01*
X152612207Y-103196498D01*
X152371565Y-103132018D01*
X152371562Y-103132017D01*
X152371560Y-103132017D01*
X152124566Y-103099500D01*
X152124565Y-103099500D01*
X152052727Y-103099500D01*
X148304500Y-103099500D01*
X148246309Y-103080593D01*
X148210345Y-103031093D01*
X148205500Y-103000500D01*
X148205500Y-102791021D01*
X148205500Y-102791008D01*
X148204866Y-102774883D01*
X148203647Y-102759396D01*
X148181884Y-102682228D01*
X148154107Y-102627711D01*
X148133510Y-102599362D01*
X148116318Y-102575699D01*
X148116316Y-102575697D01*
X148116314Y-102575694D01*
X147924306Y-102383686D01*
X147924292Y-102383673D01*
X147924285Y-102383666D01*
X147912465Y-102372739D01*
X147912456Y-102372731D01*
X147900643Y-102362642D01*
X147830685Y-102323464D01*
X147772494Y-102304557D01*
X147772491Y-102304556D01*
X147772492Y-102304556D01*
X147708995Y-102294500D01*
X147708992Y-102294500D01*
X145291008Y-102294500D01*
X145280258Y-102294922D01*
X145274876Y-102295134D01*
X145261331Y-102296200D01*
X145259396Y-102296353D01*
X145259393Y-102296353D01*
X145259392Y-102296354D01*
X145182230Y-102318115D01*
X145182224Y-102318117D01*
X145127708Y-102345894D01*
X145075699Y-102383681D01*
X144883666Y-102575714D01*
X144872739Y-102587534D01*
X144862645Y-102599353D01*
X144862639Y-102599362D01*
X144823464Y-102669314D01*
X144804556Y-102727507D01*
X144794500Y-102791004D01*
X138896369Y-102791004D01*
X138867751Y-102500441D01*
X138802569Y-102172749D01*
X138789412Y-102129376D01*
X138705585Y-101853032D01*
X138577726Y-101544354D01*
X138577723Y-101544346D01*
X138577713Y-101544327D01*
X138420226Y-101249687D01*
X138327412Y-101110783D01*
X138234601Y-100971882D01*
X138022643Y-100713610D01*
X137786390Y-100477357D01*
X137528118Y-100265399D01*
X137458667Y-100218993D01*
X137250312Y-100079773D01*
X136955672Y-99922286D01*
X136955660Y-99922280D01*
X136955654Y-99922277D01*
X136955649Y-99922274D01*
X136955645Y-99922273D01*
X136646967Y-99794414D01*
X136327253Y-99697431D01*
X136106777Y-99653576D01*
X135999559Y-99632249D01*
X135999557Y-99632248D01*
X135756491Y-99608308D01*
X135667056Y-99599500D01*
X135332944Y-99599500D01*
X135234700Y-99609176D01*
X135000444Y-99632248D01*
X134672746Y-99697431D01*
X134353032Y-99794414D01*
X134044354Y-99922273D01*
X134044327Y-99922286D01*
X133749687Y-100079773D01*
X133471880Y-100265400D01*
X133213615Y-100477352D01*
X132977352Y-100713615D01*
X132765400Y-100971880D01*
X132579773Y-101249687D01*
X132422286Y-101544327D01*
X132422273Y-101544354D01*
X132294414Y-101853032D01*
X132197431Y-102172746D01*
X132132248Y-102500444D01*
X132099500Y-102832946D01*
X129750500Y-102832946D01*
X129750500Y-95000000D01*
X136500000Y-95000000D01*
X136500496Y-95077243D01*
X136508451Y-95231569D01*
X136524338Y-95385255D01*
X136548114Y-95537915D01*
X136548115Y-95537924D01*
X136548117Y-95537931D01*
X136569203Y-95638836D01*
X136579722Y-95689172D01*
X136619076Y-95838609D01*
X136666066Y-95985803D01*
X136720574Y-96130390D01*
X136782440Y-96271949D01*
X136820906Y-96348907D01*
X136851524Y-96410164D01*
X136905746Y-96505968D01*
X136927624Y-96544624D01*
X136927635Y-96544643D01*
X137000213Y-96658749D01*
X137010556Y-96675009D01*
X137054798Y-96737241D01*
X137100088Y-96800946D01*
X137100092Y-96800951D01*
X137195980Y-96922102D01*
X137297975Y-97038154D01*
X137297984Y-97038164D01*
X137404042Y-97146989D01*
X137405820Y-97148813D01*
X137519215Y-97253769D01*
X137637851Y-97352740D01*
X137637878Y-97352762D01*
X137682442Y-97386203D01*
X137761448Y-97445490D01*
X137889644Y-97531746D01*
X138022111Y-97611289D01*
X138158496Y-97683906D01*
X138158499Y-97683907D01*
X138158500Y-97683908D01*
X138298432Y-97749404D01*
X138298436Y-97749405D01*
X138298439Y-97749407D01*
X138441568Y-97807616D01*
X138587504Y-97858380D01*
X138587513Y-97858382D01*
X138587517Y-97858384D01*
X138638055Y-97873094D01*
X138735860Y-97901564D01*
X138886242Y-97937054D01*
X139038252Y-97964755D01*
X139191486Y-97984594D01*
X139345538Y-97996519D01*
X139481011Y-98000008D01*
X139499994Y-98000498D01*
X139500000Y-98000498D01*
X139500006Y-98000498D01*
X139518607Y-98000018D01*
X139654462Y-97996519D01*
X139808514Y-97984594D01*
X139961748Y-97964755D01*
X140113758Y-97937054D01*
X140264140Y-97901564D01*
X140412496Y-97858380D01*
X140558432Y-97807616D01*
X140701561Y-97749407D01*
X140841504Y-97683906D01*
X140977889Y-97611289D01*
X141110356Y-97531746D01*
X141238552Y-97445490D01*
X141362137Y-97352750D01*
X141480785Y-97253769D01*
X141594180Y-97148813D01*
X141702021Y-97038158D01*
X141804023Y-96922098D01*
X141899916Y-96800941D01*
X141989444Y-96675009D01*
X142072370Y-96544635D01*
X142148476Y-96410164D01*
X142217557Y-96271954D01*
X142257055Y-96181575D01*
X142279425Y-96130390D01*
X142279426Y-96130384D01*
X142279433Y-96130371D01*
X142333938Y-95985791D01*
X142380927Y-95838596D01*
X142411318Y-95723195D01*
X142444420Y-95671740D01*
X142501447Y-95649568D01*
X142560615Y-95665150D01*
X142578959Y-95680362D01*
X142625856Y-95729924D01*
X142625907Y-95729977D01*
X142627997Y-95732153D01*
X142630314Y-95734526D01*
X142632569Y-95736799D01*
X142809633Y-95912471D01*
X142809674Y-95912511D01*
X142809676Y-95912513D01*
X142811990Y-95914773D01*
X142814243Y-95916939D01*
X142816606Y-95919175D01*
X142999168Y-96089209D01*
X143001570Y-96091410D01*
X143003891Y-96093504D01*
X143003938Y-96093546D01*
X143006306Y-96095649D01*
X143194106Y-96259800D01*
X143194133Y-96259823D01*
X143196592Y-96261938D01*
X143198978Y-96263958D01*
X143201471Y-96266035D01*
X143208691Y-96271954D01*
X143377269Y-96410164D01*
X143394396Y-96424205D01*
X143396929Y-96426248D01*
X143399377Y-96428191D01*
X143399394Y-96428204D01*
X143401955Y-96430206D01*
X143599717Y-96582161D01*
X143602224Y-96584056D01*
X143604763Y-96585945D01*
X143607437Y-96587902D01*
X143809980Y-96733597D01*
X143812726Y-96735538D01*
X143815175Y-96737241D01*
X143817857Y-96739076D01*
X144024818Y-96878251D01*
X144024877Y-96878290D01*
X144024880Y-96878292D01*
X144027590Y-96880084D01*
X144030211Y-96881787D01*
X144032941Y-96883530D01*
X144244241Y-97016133D01*
X144247013Y-97017842D01*
X144249686Y-97019461D01*
X144252464Y-97021114D01*
X144467860Y-97146989D01*
X144470684Y-97148609D01*
X144473400Y-97150139D01*
X144476229Y-97151704D01*
X144695494Y-97270718D01*
X144698350Y-97272239D01*
X144701075Y-97273663D01*
X144701115Y-97273683D01*
X144701137Y-97273695D01*
X144703904Y-97275114D01*
X144703936Y-97275130D01*
X144703969Y-97275147D01*
X144863761Y-97355456D01*
X144870917Y-97358719D01*
X144877928Y-97361916D01*
X144890776Y-97367196D01*
X144891788Y-97367612D01*
X144969907Y-97383039D01*
X144970236Y-97383039D01*
X144975158Y-97383161D01*
X144980191Y-97383411D01*
X144985505Y-97384223D01*
X145022272Y-97386498D01*
X145025494Y-97385666D01*
X145036265Y-97386203D01*
X145058456Y-97394654D01*
X145081637Y-97399808D01*
X145086533Y-97405349D01*
X145093444Y-97407981D01*
X145106428Y-97427861D01*
X145122154Y-97445656D01*
X145124859Y-97456080D01*
X145126902Y-97459208D01*
X145126703Y-97463188D01*
X145129866Y-97475374D01*
X145132248Y-97499558D01*
X145197431Y-97827253D01*
X145294414Y-98146967D01*
X145422273Y-98455645D01*
X145422286Y-98455672D01*
X145579773Y-98750312D01*
X145718993Y-98958667D01*
X145765399Y-99028118D01*
X145977357Y-99286390D01*
X146213610Y-99522643D01*
X146471882Y-99734601D01*
X146561398Y-99794414D01*
X146749687Y-99920226D01*
X147044327Y-100077713D01*
X147044346Y-100077723D01*
X147353024Y-100205582D01*
X147353026Y-100205582D01*
X147353032Y-100205585D01*
X147629376Y-100289412D01*
X147672749Y-100302569D01*
X148000441Y-100367751D01*
X148332944Y-100400500D01*
X148332947Y-100400500D01*
X148667053Y-100400500D01*
X148667056Y-100400500D01*
X148999559Y-100367751D01*
X149327251Y-100302569D01*
X149516857Y-100245052D01*
X149646967Y-100205585D01*
X149646969Y-100205583D01*
X149646976Y-100205582D01*
X149955654Y-100077723D01*
X150099640Y-100000760D01*
X150250312Y-99920226D01*
X150250315Y-99920224D01*
X150528118Y-99734601D01*
X150786390Y-99522643D01*
X151022643Y-99286390D01*
X151234601Y-99028118D01*
X151420224Y-98750315D01*
X151577723Y-98455654D01*
X151705582Y-98146976D01*
X151802569Y-97827251D01*
X151867751Y-97499559D01*
X151870599Y-97470644D01*
X151895118Y-97414586D01*
X151947905Y-97383647D01*
X151977882Y-97381736D01*
X152009745Y-97384568D01*
X152070368Y-97376287D01*
X152131926Y-97357727D01*
X152180665Y-97334188D01*
X152183591Y-97332746D01*
X152186384Y-97331342D01*
X152189256Y-97329870D01*
X152410365Y-97214336D01*
X152413227Y-97212812D01*
X152415974Y-97211321D01*
X152418814Y-97209750D01*
X152636171Y-97087291D01*
X152639001Y-97085667D01*
X152641699Y-97084090D01*
X152644471Y-97082440D01*
X152857843Y-96953187D01*
X152860615Y-96951478D01*
X152863263Y-96949816D01*
X152865987Y-96948076D01*
X153075159Y-96812159D01*
X153077848Y-96810382D01*
X153080442Y-96808638D01*
X153083137Y-96806795D01*
X153287939Y-96664326D01*
X153290590Y-96662450D01*
X153293127Y-96660625D01*
X153295743Y-96658712D01*
X153495938Y-96509854D01*
X153498534Y-96507891D01*
X153500329Y-96506511D01*
X153501037Y-96505968D01*
X153501935Y-96505265D01*
X153503561Y-96503996D01*
X153698939Y-96348907D01*
X153701441Y-96346889D01*
X153703858Y-96344908D01*
X153706374Y-96342812D01*
X153896790Y-96181606D01*
X153899261Y-96179481D01*
X153901614Y-96177424D01*
X153904028Y-96175279D01*
X154089240Y-96008160D01*
X154091632Y-96005967D01*
X154093920Y-96003836D01*
X154096276Y-96001608D01*
X154276130Y-95828716D01*
X154278432Y-95826467D01*
X154280651Y-95824266D01*
X154282955Y-95821945D01*
X154457247Y-95643476D01*
X154459523Y-95641107D01*
X154461671Y-95638836D01*
X154463854Y-95636492D01*
X154632443Y-95452590D01*
X154634632Y-95450164D01*
X154636707Y-95447827D01*
X154638826Y-95445402D01*
X154801499Y-95256301D01*
X154803575Y-95253849D01*
X154805576Y-95251448D01*
X154807653Y-95248915D01*
X154964308Y-95054733D01*
X154966338Y-95052176D01*
X154968262Y-95049712D01*
X154970226Y-95047155D01*
X155120644Y-94848161D01*
X155122565Y-94845578D01*
X155124410Y-94843056D01*
X155126319Y-94840403D01*
X155270396Y-94636738D01*
X155272240Y-94634088D01*
X155274005Y-94631508D01*
X155275824Y-94628802D01*
X155413411Y-94420672D01*
X155415182Y-94417947D01*
X155416864Y-94415313D01*
X155418585Y-94412571D01*
X155549499Y-94200259D01*
X155551175Y-94197491D01*
X155552774Y-94194804D01*
X155554416Y-94191995D01*
X155678600Y-93975588D01*
X155680209Y-93972732D01*
X155681721Y-93969997D01*
X155683252Y-93967176D01*
X155800515Y-93747009D01*
X155802012Y-93744143D01*
X155803438Y-93741361D01*
X155804900Y-93738453D01*
X155915166Y-93514670D01*
X155916577Y-93511750D01*
X155917914Y-93508925D01*
X155919279Y-93505980D01*
X156022427Y-93278825D01*
X156023750Y-93275849D01*
X156024997Y-93272983D01*
X156026263Y-93270010D01*
X156122185Y-93039721D01*
X156123412Y-93036708D01*
X156124568Y-93033804D01*
X156125741Y-93030789D01*
X156214343Y-92797592D01*
X156215468Y-92794558D01*
X156216532Y-92791619D01*
X156217615Y-92788552D01*
X156298810Y-92552677D01*
X156299832Y-92549630D01*
X156300803Y-92546659D01*
X156301796Y-92543539D01*
X156375516Y-92305181D01*
X156376458Y-92302044D01*
X156377334Y-92299043D01*
X156378211Y-92295951D01*
X156444358Y-92055425D01*
X156445193Y-92052290D01*
X156445974Y-92049264D01*
X156446760Y-92046118D01*
X156458010Y-91999503D01*
X156505274Y-91803657D01*
X156505287Y-91803602D01*
X156506024Y-91800438D01*
X156506709Y-91797389D01*
X156507394Y-91794223D01*
X156558229Y-91550014D01*
X156558861Y-91546854D01*
X156559450Y-91543784D01*
X156560040Y-91540571D01*
X156603150Y-91294824D01*
X156603692Y-91291587D01*
X156604183Y-91288499D01*
X156604661Y-91285328D01*
X156604668Y-91285277D01*
X156604679Y-91285206D01*
X156639982Y-91038403D01*
X156640413Y-91035214D01*
X156640546Y-91034163D01*
X156640808Y-91032104D01*
X156641194Y-91028858D01*
X156668707Y-90780914D01*
X156669038Y-90777708D01*
X156669334Y-90774596D01*
X156669617Y-90771342D01*
X156689289Y-90522632D01*
X156689520Y-90519382D01*
X156689717Y-90516263D01*
X156689896Y-90513038D01*
X156701706Y-90263864D01*
X156701833Y-90260644D01*
X156701932Y-90257520D01*
X156702009Y-90254256D01*
X156705948Y-90004808D01*
X156705974Y-90001563D01*
X156705974Y-89998437D01*
X156705948Y-89995192D01*
X156702009Y-89745743D01*
X156701932Y-89742479D01*
X156701833Y-89739355D01*
X156701706Y-89736135D01*
X156689896Y-89486961D01*
X156689717Y-89483736D01*
X156689520Y-89480617D01*
X156689289Y-89477367D01*
X156669617Y-89228657D01*
X156669334Y-89225403D01*
X156669038Y-89222291D01*
X156668707Y-89219085D01*
X156641194Y-88971141D01*
X156640808Y-88967895D01*
X156640414Y-88964795D01*
X156639983Y-88961606D01*
X156639982Y-88961595D01*
X156604679Y-88714792D01*
X156604175Y-88711448D01*
X156603690Y-88708400D01*
X156603156Y-88705212D01*
X156603150Y-88705175D01*
X156560040Y-88459428D01*
X156559450Y-88456215D01*
X156558861Y-88453145D01*
X156558229Y-88449985D01*
X156507394Y-88205776D01*
X156506709Y-88202610D01*
X156506024Y-88199561D01*
X156505287Y-88196397D01*
X156505274Y-88196341D01*
X156446769Y-87953917D01*
X156445983Y-87950771D01*
X156445974Y-87950735D01*
X156445193Y-87947709D01*
X156444358Y-87944574D01*
X156378211Y-87704048D01*
X156377334Y-87700956D01*
X156376458Y-87697955D01*
X156375516Y-87694818D01*
X156301796Y-87456460D01*
X156300803Y-87453340D01*
X156299832Y-87450369D01*
X156299824Y-87450345D01*
X156299805Y-87450287D01*
X156298815Y-87447336D01*
X156217624Y-87211472D01*
X156216534Y-87208385D01*
X156216293Y-87207720D01*
X156215468Y-87205441D01*
X156214343Y-87202407D01*
X156125741Y-86969210D01*
X156124568Y-86966195D01*
X156123412Y-86963291D01*
X156122185Y-86960278D01*
X156026263Y-86729989D01*
X156024997Y-86727016D01*
X156024966Y-86726943D01*
X156023745Y-86724139D01*
X156022451Y-86721227D01*
X155972624Y-86611497D01*
X155919279Y-86494019D01*
X155917914Y-86491074D01*
X155916577Y-86488249D01*
X155915166Y-86485329D01*
X155804900Y-86261546D01*
X155803438Y-86258638D01*
X155802012Y-86255856D01*
X155800515Y-86252990D01*
X155683252Y-86032823D01*
X155681721Y-86030002D01*
X155680209Y-86027267D01*
X155678600Y-86024411D01*
X155554416Y-85808004D01*
X155552774Y-85805195D01*
X155551175Y-85802508D01*
X155549499Y-85799740D01*
X155418585Y-85587428D01*
X155416864Y-85584686D01*
X155415182Y-85582052D01*
X155413411Y-85579327D01*
X155275824Y-85371197D01*
X155274005Y-85368491D01*
X155272240Y-85365911D01*
X155270396Y-85363261D01*
X155126319Y-85159596D01*
X155126290Y-85159555D01*
X155124458Y-85157009D01*
X155122510Y-85154346D01*
X155120656Y-85151854D01*
X154970271Y-84952903D01*
X154968210Y-84950219D01*
X154966347Y-84947834D01*
X154965690Y-84947007D01*
X154964308Y-84945266D01*
X154807653Y-84751084D01*
X154805576Y-84748551D01*
X154803575Y-84746150D01*
X154801499Y-84743698D01*
X154638826Y-84554597D01*
X154636707Y-84552172D01*
X154636685Y-84552147D01*
X154636649Y-84552106D01*
X154634646Y-84549851D01*
X154632429Y-84547394D01*
X154463884Y-84363539D01*
X154461652Y-84361141D01*
X154459545Y-84358914D01*
X154457345Y-84356625D01*
X154457341Y-84356621D01*
X154457270Y-84356547D01*
X154282913Y-84178012D01*
X154282895Y-84177994D01*
X154282859Y-84177957D01*
X154280610Y-84175692D01*
X154278451Y-84173551D01*
X154278421Y-84173521D01*
X154276130Y-84171283D01*
X154096276Y-83998391D01*
X154093920Y-83996163D01*
X154093903Y-83996147D01*
X154093869Y-83996115D01*
X154092963Y-83995272D01*
X154091632Y-83994032D01*
X154089827Y-83992377D01*
X154089210Y-83991811D01*
X153904045Y-83824735D01*
X153901606Y-83822568D01*
X153899252Y-83820510D01*
X153896825Y-83818423D01*
X153896790Y-83818393D01*
X153706374Y-83657187D01*
X153703858Y-83655091D01*
X153701441Y-83653110D01*
X153701388Y-83653067D01*
X153698952Y-83651102D01*
X153503558Y-83496001D01*
X153501017Y-83494015D01*
X153498513Y-83492092D01*
X153495959Y-83490160D01*
X153295692Y-83341249D01*
X153293211Y-83339435D01*
X153293173Y-83339408D01*
X153293127Y-83339374D01*
X153291890Y-83338484D01*
X153290563Y-83337529D01*
X153287946Y-83335678D01*
X153083141Y-83193206D01*
X153080349Y-83191298D01*
X153077824Y-83189601D01*
X153075160Y-83187840D01*
X152950753Y-83107003D01*
X152865981Y-83051919D01*
X152865736Y-83051762D01*
X152863349Y-83050238D01*
X152863280Y-83050194D01*
X152863246Y-83050173D01*
X152860604Y-83048515D01*
X152859664Y-83047935D01*
X152857809Y-83046790D01*
X152698873Y-82950513D01*
X152644464Y-82917554D01*
X152643522Y-82916993D01*
X152641633Y-82915869D01*
X152638991Y-82914326D01*
X152636190Y-82912719D01*
X152636171Y-82912708D01*
X152418803Y-82790243D01*
X152415936Y-82788658D01*
X152413212Y-82787180D01*
X152410378Y-82785670D01*
X152189251Y-82670126D01*
X152189186Y-82670092D01*
X152186464Y-82668697D01*
X152186412Y-82668670D01*
X152186383Y-82668656D01*
X152183626Y-82667270D01*
X152180696Y-82665826D01*
X151956006Y-82557309D01*
X151953027Y-82555900D01*
X151953005Y-82555890D01*
X151952942Y-82555860D01*
X151950289Y-82554630D01*
X151947277Y-82553264D01*
X151719330Y-82451918D01*
X151716433Y-82450657D01*
X151714657Y-82449901D01*
X151713561Y-82449434D01*
X151713506Y-82449411D01*
X151710565Y-82448184D01*
X151479451Y-82354053D01*
X151476359Y-82352823D01*
X151473574Y-82351740D01*
X151473556Y-82351733D01*
X151473517Y-82351718D01*
X151470519Y-82350579D01*
X151236608Y-82263813D01*
X151233579Y-82262716D01*
X151233557Y-82262708D01*
X151230604Y-82261665D01*
X151227643Y-82260646D01*
X150990968Y-82181260D01*
X150987910Y-82180262D01*
X150985060Y-82179356D01*
X150984969Y-82179327D01*
X150981868Y-82178368D01*
X150742901Y-82106520D01*
X150739690Y-82105582D01*
X150739656Y-82105572D01*
X150736725Y-82104743D01*
X150733711Y-82103915D01*
X150492717Y-82039681D01*
X150492684Y-82039672D01*
X150492641Y-82039661D01*
X150491048Y-82039249D01*
X150489565Y-82038866D01*
X150486516Y-82038104D01*
X150483463Y-82037365D01*
X150240312Y-81980714D01*
X150237095Y-81979992D01*
X150234203Y-81979365D01*
X150231066Y-81978712D01*
X149986292Y-81929773D01*
X149983045Y-81929150D01*
X149980183Y-81928625D01*
X149978048Y-81928251D01*
X149976908Y-81928051D01*
X149730804Y-81886878D01*
X149727589Y-81886366D01*
X149727563Y-81886362D01*
X149724628Y-81885918D01*
X149721291Y-81885440D01*
X149474055Y-81852064D01*
X149470906Y-81851665D01*
X149470855Y-81851658D01*
X149470816Y-81851654D01*
X149467715Y-81851286D01*
X149467614Y-81851274D01*
X149464555Y-81850935D01*
X149216404Y-81825381D01*
X149214376Y-81825189D01*
X149213120Y-81825070D01*
X149213062Y-81825064D01*
X149213052Y-81825064D01*
X149210188Y-81824814D01*
X149206789Y-81824544D01*
X148958038Y-81806843D01*
X148957872Y-81806832D01*
X148954770Y-81806636D01*
X148954725Y-81806633D01*
X148954654Y-81806629D01*
X148951857Y-81806473D01*
X148951527Y-81806457D01*
X148948443Y-81806311D01*
X148699064Y-81796465D01*
X148699057Y-81796464D01*
X148699012Y-81796463D01*
X148695889Y-81796364D01*
X148692849Y-81796290D01*
X148689567Y-81796238D01*
X148500866Y-81794749D01*
X148440006Y-81794269D01*
X148436789Y-81794269D01*
X148436783Y-81794269D01*
X148433668Y-81794293D01*
X148430439Y-81794344D01*
X148180971Y-81800252D01*
X148177736Y-81800355D01*
X148174658Y-81800477D01*
X148171658Y-81800620D01*
X148171473Y-81800629D01*
X148071705Y-81806147D01*
X147922306Y-81814410D01*
X147918969Y-81814620D01*
X147916094Y-81814824D01*
X147912772Y-81815087D01*
X147664245Y-81836719D01*
X147660916Y-81837036D01*
X147657864Y-81837351D01*
X147654638Y-81837710D01*
X147406903Y-81867179D01*
X147403714Y-81867584D01*
X147403693Y-81867586D01*
X147403668Y-81867590D01*
X147400639Y-81867999D01*
X147397433Y-81868458D01*
X147275538Y-81886878D01*
X147150665Y-81905748D01*
X147148787Y-81906046D01*
X147147491Y-81906253D01*
X147147471Y-81906256D01*
X147147448Y-81906260D01*
X147144540Y-81906746D01*
X147141238Y-81907325D01*
X146895807Y-81952378D01*
X146892518Y-81953011D01*
X146889742Y-81953566D01*
X146886391Y-81954263D01*
X146642637Y-82007013D01*
X146639414Y-82007738D01*
X146636406Y-82008438D01*
X146633382Y-82009168D01*
X146391164Y-82069650D01*
X146388004Y-82070465D01*
X146385122Y-82071233D01*
X146382053Y-82072078D01*
X146141861Y-82140177D01*
X146138688Y-82141104D01*
X146135836Y-82141962D01*
X146134136Y-82142488D01*
X146132726Y-82142925D01*
X146132695Y-82142935D01*
X145894895Y-82218544D01*
X145891945Y-82219507D01*
X145888980Y-82220500D01*
X145885939Y-82221546D01*
X145650649Y-82304623D01*
X145647510Y-82305760D01*
X145644745Y-82306784D01*
X145641705Y-82307939D01*
X145641659Y-82307956D01*
X145641635Y-82307966D01*
X145555973Y-82341289D01*
X145409003Y-82398462D01*
X145406044Y-82399639D01*
X145403371Y-82400728D01*
X145400228Y-82402037D01*
X145170579Y-82499827D01*
X145167674Y-82501092D01*
X145164906Y-82502322D01*
X145161868Y-82503702D01*
X144935526Y-82608642D01*
X144932652Y-82610002D01*
X144929923Y-82611319D01*
X144926987Y-82612767D01*
X144926977Y-82612772D01*
X144703919Y-82724878D01*
X144703884Y-82724895D01*
X144703858Y-82724909D01*
X144701052Y-82726346D01*
X144698323Y-82727772D01*
X144695557Y-82729246D01*
X144476239Y-82848288D01*
X144474217Y-82849406D01*
X144473350Y-82849886D01*
X144473320Y-82849903D01*
X144470684Y-82851387D01*
X144468011Y-82852922D01*
X144252307Y-82978977D01*
X144249703Y-82980526D01*
X144246991Y-82982170D01*
X144244286Y-82983837D01*
X144032973Y-83116447D01*
X144031309Y-83117510D01*
X144030146Y-83118253D01*
X144030113Y-83118273D01*
X144030109Y-83118277D01*
X144027545Y-83119943D01*
X144025019Y-83121615D01*
X144024903Y-83121692D01*
X143824748Y-83256288D01*
X143817822Y-83260947D01*
X143815149Y-83262775D01*
X143812734Y-83264454D01*
X143810009Y-83266381D01*
X143607352Y-83412158D01*
X143604755Y-83414058D01*
X143602326Y-83415865D01*
X143599776Y-83417793D01*
X143401914Y-83569826D01*
X143399324Y-83571848D01*
X143396926Y-83573751D01*
X143394438Y-83575758D01*
X143201447Y-83733980D01*
X143199024Y-83736000D01*
X143196539Y-83738103D01*
X143194179Y-83740134D01*
X143006310Y-83904346D01*
X143003875Y-83906508D01*
X143001538Y-83908617D01*
X142999246Y-83910718D01*
X142999194Y-83910766D01*
X142816606Y-84080824D01*
X142815347Y-84082015D01*
X142814190Y-84083110D01*
X142812030Y-84085186D01*
X142809694Y-84087467D01*
X142632561Y-84263207D01*
X142630258Y-84265529D01*
X142628091Y-84267749D01*
X142625827Y-84270104D01*
X142454410Y-84451262D01*
X142452236Y-84453597D01*
X142450075Y-84455954D01*
X142447985Y-84458269D01*
X142282224Y-84644919D01*
X142280126Y-84647319D01*
X142278150Y-84649615D01*
X142275969Y-84652190D01*
X142116271Y-84843873D01*
X142114211Y-84846386D01*
X142112318Y-84848730D01*
X142110316Y-84851252D01*
X141956666Y-85047988D01*
X141954647Y-85050615D01*
X141952883Y-85052950D01*
X141950929Y-85055578D01*
X141803596Y-85257022D01*
X141801758Y-85259579D01*
X141800002Y-85262059D01*
X141798143Y-85264731D01*
X141657180Y-85470819D01*
X141655366Y-85473516D01*
X141653707Y-85476028D01*
X141651975Y-85478694D01*
X141517606Y-85689103D01*
X141515912Y-85691801D01*
X141514396Y-85694261D01*
X141512626Y-85697182D01*
X141385071Y-85911551D01*
X141383429Y-85914362D01*
X141381962Y-85916917D01*
X141380334Y-85919804D01*
X141259482Y-86138324D01*
X141257982Y-86141087D01*
X141256592Y-86143697D01*
X141255019Y-86146705D01*
X141141185Y-86368816D01*
X141139726Y-86371722D01*
X141138415Y-86374383D01*
X141137040Y-86377230D01*
X141137013Y-86377288D01*
X141030251Y-86602873D01*
X141030229Y-86602921D01*
X141028882Y-86605823D01*
X141027685Y-86608456D01*
X141026371Y-86611410D01*
X140926735Y-86840363D01*
X140925470Y-86843333D01*
X140924267Y-86846222D01*
X140923096Y-86849099D01*
X140923069Y-86849166D01*
X140876478Y-86966195D01*
X140830767Y-87081014D01*
X140829601Y-87084008D01*
X140828552Y-87086769D01*
X140827370Y-87089953D01*
X140742418Y-87324636D01*
X140741340Y-87327689D01*
X140740390Y-87330452D01*
X140739324Y-87333627D01*
X140661863Y-87570753D01*
X140660837Y-87573979D01*
X140659995Y-87576697D01*
X140659049Y-87579843D01*
X140589086Y-87819393D01*
X140588195Y-87822537D01*
X140587388Y-87825467D01*
X140586554Y-87828594D01*
X140524164Y-88070317D01*
X140523378Y-88073465D01*
X140522670Y-88076403D01*
X140521932Y-88079566D01*
X140467230Y-88323022D01*
X140466514Y-88326330D01*
X140465914Y-88329219D01*
X140465299Y-88332294D01*
X140418282Y-88577508D01*
X140417731Y-88580510D01*
X140417189Y-88583597D01*
X140416643Y-88586862D01*
X140377400Y-88833369D01*
X140376918Y-88836561D01*
X140376491Y-88839551D01*
X140376053Y-88842806D01*
X140344630Y-89090285D01*
X140344249Y-89093478D01*
X140343915Y-89096494D01*
X140343583Y-89099704D01*
X140319986Y-89348094D01*
X140319705Y-89351320D01*
X140319461Y-89354379D01*
X140319230Y-89357618D01*
X140303474Y-89606811D01*
X140303299Y-89609983D01*
X140303154Y-89613036D01*
X140303028Y-89616216D01*
X140295138Y-89865984D01*
X140295072Y-89868678D01*
X140295021Y-89871538D01*
X140294993Y-89874201D01*
X140294502Y-89998816D01*
X140294503Y-89998817D01*
X140294501Y-89999821D01*
X140294501Y-90000375D01*
X140294503Y-90001173D01*
X140294993Y-90125792D01*
X140295022Y-90128460D01*
X140295072Y-90131322D01*
X140295138Y-90134009D01*
X140303029Y-90383793D01*
X140303154Y-90386977D01*
X140303297Y-90389997D01*
X140303472Y-90393143D01*
X140303478Y-90393249D01*
X140311454Y-90519382D01*
X140319225Y-90642286D01*
X140319462Y-90645613D01*
X140319699Y-90648605D01*
X140319985Y-90651891D01*
X140343575Y-90900202D01*
X140343925Y-90903604D01*
X140344252Y-90906543D01*
X140344634Y-90909749D01*
X140376059Y-91157241D01*
X140376477Y-91160345D01*
X140376931Y-91163521D01*
X140377399Y-91166620D01*
X140416651Y-91413178D01*
X140417178Y-91416333D01*
X140417713Y-91419385D01*
X140418292Y-91422543D01*
X140465300Y-91667713D01*
X140465908Y-91670750D01*
X140465922Y-91670816D01*
X140466542Y-91673795D01*
X140467230Y-91676974D01*
X140495695Y-91803657D01*
X140521926Y-91920400D01*
X140522675Y-91923617D01*
X140523361Y-91926458D01*
X140523384Y-91926553D01*
X140524176Y-91929726D01*
X140524185Y-91929762D01*
X140549083Y-92026229D01*
X140545317Y-92087298D01*
X140506376Y-92134491D01*
X140447132Y-92149781D01*
X140420698Y-92144473D01*
X140412496Y-92141620D01*
X140412493Y-92141619D01*
X140412487Y-92141617D01*
X140264141Y-92098436D01*
X140113769Y-92062948D01*
X139961773Y-92035249D01*
X139961753Y-92035246D01*
X139961754Y-92035246D01*
X139961748Y-92035245D01*
X139808514Y-92015406D01*
X139654462Y-92003481D01*
X139598294Y-92002034D01*
X139500007Y-91999503D01*
X139499993Y-91999503D01*
X139391876Y-92002287D01*
X139345538Y-92003481D01*
X139229999Y-92012424D01*
X139191485Y-92015406D01*
X139135227Y-92022689D01*
X139038252Y-92035245D01*
X139038247Y-92035245D01*
X139038246Y-92035246D01*
X139038226Y-92035249D01*
X138886230Y-92062948D01*
X138735858Y-92098436D01*
X138587517Y-92141615D01*
X138441590Y-92192376D01*
X138441560Y-92192387D01*
X138298442Y-92250591D01*
X138298432Y-92250595D01*
X138158500Y-92316091D01*
X138158495Y-92316094D01*
X138022126Y-92388702D01*
X138022120Y-92388705D01*
X137889638Y-92468257D01*
X137810164Y-92521731D01*
X137761448Y-92554510D01*
X137761443Y-92554514D01*
X137637878Y-92647237D01*
X137637851Y-92647259D01*
X137519215Y-92746230D01*
X137405823Y-92851183D01*
X137405809Y-92851198D01*
X137297984Y-92961835D01*
X137297975Y-92961845D01*
X137195980Y-93077897D01*
X137100092Y-93199048D01*
X137100088Y-93199053D01*
X137010552Y-93324996D01*
X136927635Y-93455356D01*
X136927624Y-93455375D01*
X136851533Y-93589820D01*
X136851515Y-93589853D01*
X136782440Y-93728050D01*
X136720574Y-93869609D01*
X136666066Y-94014196D01*
X136619076Y-94161390D01*
X136579722Y-94310827D01*
X136548114Y-94462084D01*
X136524338Y-94614744D01*
X136508451Y-94768430D01*
X136500496Y-94922756D01*
X136500000Y-95000000D01*
X129750500Y-95000000D01*
X129750500Y-77001952D01*
X129750576Y-76998065D01*
X129757064Y-76832946D01*
X132099500Y-76832946D01*
X132099500Y-77167053D01*
X132132248Y-77499555D01*
X132197431Y-77827253D01*
X132294414Y-78146967D01*
X132422273Y-78455645D01*
X132422286Y-78455672D01*
X132579773Y-78750312D01*
X132718993Y-78958667D01*
X132765399Y-79028118D01*
X132977357Y-79286390D01*
X133213610Y-79522643D01*
X133471882Y-79734601D01*
X133610783Y-79827412D01*
X133749687Y-79920226D01*
X134044327Y-80077713D01*
X134044346Y-80077723D01*
X134353024Y-80205582D01*
X134353026Y-80205582D01*
X134353032Y-80205585D01*
X134629376Y-80289412D01*
X134672749Y-80302569D01*
X135000441Y-80367751D01*
X135332944Y-80400500D01*
X135332947Y-80400500D01*
X135667053Y-80400500D01*
X135667056Y-80400500D01*
X135999559Y-80367751D01*
X136327251Y-80302569D01*
X136516857Y-80245052D01*
X136646967Y-80205585D01*
X136646969Y-80205583D01*
X136646976Y-80205582D01*
X136955654Y-80077723D01*
X137099640Y-80000760D01*
X137250312Y-79920226D01*
X137250315Y-79920224D01*
X137528118Y-79734601D01*
X137786390Y-79522643D01*
X138022643Y-79286390D01*
X138234601Y-79028118D01*
X138420224Y-78750315D01*
X138577723Y-78455654D01*
X138705582Y-78146976D01*
X138802569Y-77827251D01*
X138867751Y-77499559D01*
X138900500Y-77167056D01*
X138900500Y-76832944D01*
X138867751Y-76500441D01*
X138802569Y-76172749D01*
X138779520Y-76096765D01*
X138705585Y-75853032D01*
X138626299Y-75661618D01*
X138577723Y-75544346D01*
X138490477Y-75381119D01*
X138420226Y-75249687D01*
X138327412Y-75110783D01*
X138234601Y-74971882D01*
X138022643Y-74713610D01*
X137786390Y-74477357D01*
X137528118Y-74265399D01*
X137458667Y-74218993D01*
X137250312Y-74079773D01*
X136955672Y-73922286D01*
X136955660Y-73922280D01*
X136955654Y-73922277D01*
X136955649Y-73922274D01*
X136955645Y-73922273D01*
X136646967Y-73794414D01*
X136327253Y-73697431D01*
X136106777Y-73653576D01*
X135999559Y-73632249D01*
X135999557Y-73632248D01*
X135756491Y-73608308D01*
X135667056Y-73599500D01*
X135332944Y-73599500D01*
X135234700Y-73609176D01*
X135000444Y-73632248D01*
X134672746Y-73697431D01*
X134353032Y-73794414D01*
X134044354Y-73922273D01*
X134044327Y-73922286D01*
X133749687Y-74079773D01*
X133471880Y-74265400D01*
X133213615Y-74477352D01*
X132977352Y-74713615D01*
X132765400Y-74971880D01*
X132579773Y-75249687D01*
X132422286Y-75544327D01*
X132422273Y-75544354D01*
X132294414Y-75853032D01*
X132197431Y-76172746D01*
X132132248Y-76500444D01*
X132099500Y-76832946D01*
X129757064Y-76832946D01*
X129757312Y-76826627D01*
X129762204Y-76702105D01*
X129768071Y-76552772D01*
X129768681Y-76545034D01*
X129770331Y-76531093D01*
X129820831Y-76104423D01*
X129822040Y-76096785D01*
X129908604Y-75661599D01*
X129910410Y-75654077D01*
X130030850Y-75227033D01*
X130033239Y-75219677D01*
X130186819Y-74803382D01*
X130189775Y-74796246D01*
X130375541Y-74393288D01*
X130379044Y-74386412D01*
X130595855Y-73999269D01*
X130599890Y-73992684D01*
X130846404Y-73623750D01*
X130850961Y-73617478D01*
X131125638Y-73269051D01*
X131130683Y-73263145D01*
X131431861Y-72937333D01*
X131437333Y-72931861D01*
X131763149Y-72630679D01*
X131769056Y-72625635D01*
X131830577Y-72577136D01*
X132117478Y-72350961D01*
X132123750Y-72346404D01*
X132492684Y-72099890D01*
X132499269Y-72095855D01*
X132886412Y-71879044D01*
X132893288Y-71875541D01*
X133296246Y-71689775D01*
X133303382Y-71686819D01*
X133719677Y-71533239D01*
X133727033Y-71530850D01*
X134154077Y-71410410D01*
X134161599Y-71408604D01*
X134596785Y-71322040D01*
X134604423Y-71320831D01*
X135045045Y-71268680D01*
X135052772Y-71268071D01*
X135498066Y-71250576D01*
X135501953Y-71250500D01*
X135544170Y-71250500D01*
X161455830Y-71250500D01*
X161498047Y-71250500D01*
X161501934Y-71250576D01*
G37*
%TD.AperFunction*%
%TD*%
%TA.AperFunction,Conductor*%
%TO.N,VCC*%
G36*
X147767183Y-102518907D02*
G01*
X147778996Y-102528996D01*
X147971004Y-102721004D01*
X147998781Y-102775521D01*
X148000000Y-102791008D01*
X148000000Y-104208992D01*
X147981093Y-104267183D01*
X147971004Y-104278996D01*
X147778996Y-104471004D01*
X147724479Y-104498781D01*
X147708992Y-104500000D01*
X145291008Y-104500000D01*
X145232817Y-104481093D01*
X145221004Y-104471004D01*
X145028996Y-104278996D01*
X145001219Y-104224479D01*
X145000000Y-104208992D01*
X145000000Y-102791008D01*
X145018907Y-102732817D01*
X145028996Y-102721004D01*
X145221004Y-102528996D01*
X145275521Y-102501219D01*
X145291008Y-102500000D01*
X147708992Y-102500000D01*
X147767183Y-102518907D01*
G37*
%TD.AperFunction*%
%TD*%
%TA.AperFunction,Conductor*%
%TO.N,/Project Architecture/Section C - Touch sensor/TOUCH*%
G36*
X148439509Y-81999772D02*
G01*
X148687174Y-82001727D01*
X148687609Y-82001732D01*
X148688469Y-82001746D01*
X148688965Y-82001756D01*
X148689925Y-82001779D01*
X148690187Y-82001786D01*
X148691480Y-82001826D01*
X148691717Y-82001835D01*
X148939508Y-82011619D01*
X148939925Y-82011637D01*
X148941004Y-82011688D01*
X148941598Y-82011719D01*
X148942168Y-82011751D01*
X148942727Y-82011784D01*
X148943855Y-82011856D01*
X148944230Y-82011881D01*
X149191299Y-82029463D01*
X149192031Y-82029519D01*
X149192878Y-82029587D01*
X149193335Y-82029624D01*
X149194466Y-82029723D01*
X149194655Y-82029740D01*
X149195963Y-82029864D01*
X149196169Y-82029885D01*
X149442464Y-82055247D01*
X149443111Y-82055316D01*
X149443492Y-82055359D01*
X149443913Y-82055406D01*
X149444436Y-82055465D01*
X149445567Y-82055599D01*
X149446097Y-82055664D01*
X149447092Y-82055790D01*
X149447515Y-82055846D01*
X149693017Y-82088989D01*
X149693484Y-82089054D01*
X149694467Y-82089194D01*
X149695010Y-82089274D01*
X149695852Y-82089402D01*
X149696128Y-82089445D01*
X149697656Y-82089688D01*
X149697735Y-82089701D01*
X149751696Y-82098728D01*
X149942031Y-82130572D01*
X149942543Y-82130660D01*
X149943797Y-82130880D01*
X149944242Y-82130960D01*
X149944838Y-82131070D01*
X149945327Y-82131161D01*
X149946355Y-82131358D01*
X149946897Y-82131464D01*
X150190006Y-82180070D01*
X150190389Y-82180148D01*
X150191125Y-82180302D01*
X150191735Y-82180431D01*
X150192511Y-82180600D01*
X150193024Y-82180713D01*
X150193290Y-82180772D01*
X150194207Y-82180978D01*
X150194528Y-82181051D01*
X150435987Y-82237310D01*
X150436548Y-82237443D01*
X150437192Y-82237599D01*
X150437671Y-82237717D01*
X150438306Y-82237875D01*
X150438603Y-82237949D01*
X150439270Y-82238118D01*
X150440265Y-82238376D01*
X150440454Y-82238425D01*
X150539576Y-82264845D01*
X150680141Y-82302311D01*
X150680241Y-82302338D01*
X150681402Y-82302657D01*
X150681556Y-82302700D01*
X150682599Y-82302995D01*
X150683154Y-82303155D01*
X150683381Y-82303221D01*
X150684308Y-82303492D01*
X150684743Y-82303621D01*
X150747531Y-82322499D01*
X150921561Y-82374824D01*
X150922258Y-82375036D01*
X150923016Y-82375270D01*
X150923726Y-82375492D01*
X150924154Y-82375627D01*
X150924617Y-82375774D01*
X150925251Y-82375979D01*
X150926144Y-82376270D01*
X150926496Y-82376387D01*
X151161473Y-82455203D01*
X151161789Y-82455311D01*
X151162519Y-82455562D01*
X151163221Y-82455806D01*
X151163701Y-82455976D01*
X151164073Y-82456108D01*
X151164641Y-82456311D01*
X151165864Y-82456754D01*
X151265907Y-82493863D01*
X151398294Y-82542971D01*
X151398481Y-82543041D01*
X151399544Y-82543445D01*
X151400102Y-82543660D01*
X151400840Y-82543947D01*
X151401413Y-82544172D01*
X151402544Y-82544622D01*
X151402634Y-82544658D01*
X151632181Y-82638151D01*
X151632846Y-82638426D01*
X151633378Y-82638648D01*
X151633884Y-82638861D01*
X151634867Y-82639280D01*
X151635588Y-82639591D01*
X151636371Y-82639933D01*
X151636964Y-82640194D01*
X151708122Y-82671830D01*
X151862913Y-82740651D01*
X151863339Y-82740842D01*
X151864396Y-82741321D01*
X151864403Y-82741325D01*
X151864908Y-82741556D01*
X151865533Y-82741846D01*
X151865924Y-82742029D01*
X151867175Y-82742621D01*
X151867491Y-82742772D01*
X152090503Y-82850478D01*
X152090832Y-82850639D01*
X152091815Y-82851123D01*
X152092305Y-82851367D01*
X152093069Y-82851751D01*
X152093646Y-82852044D01*
X152094406Y-82852433D01*
X152094971Y-82852726D01*
X152165730Y-82889699D01*
X152314296Y-82967328D01*
X152314950Y-82967673D01*
X152315502Y-82967967D01*
X152316087Y-82968281D01*
X152316790Y-82968663D01*
X152316930Y-82968739D01*
X152317479Y-82969040D01*
X152318373Y-82969534D01*
X152318868Y-82969810D01*
X152534416Y-83091250D01*
X152534881Y-83091515D01*
X152535843Y-83092067D01*
X152536382Y-83092379D01*
X152536872Y-83092665D01*
X152537689Y-83093147D01*
X152538336Y-83093533D01*
X152538786Y-83093802D01*
X152590118Y-83124897D01*
X152750457Y-83222025D01*
X152751031Y-83222376D01*
X152751932Y-83222932D01*
X152752301Y-83223162D01*
X152753022Y-83223614D01*
X152753484Y-83223907D01*
X152754456Y-83224527D01*
X152755038Y-83224903D01*
X152962194Y-83359510D01*
X152962830Y-83359927D01*
X152963620Y-83360449D01*
X152964067Y-83360746D01*
X152964882Y-83361293D01*
X152965341Y-83361605D01*
X152965992Y-83362050D01*
X152966659Y-83362510D01*
X153169707Y-83503759D01*
X153170137Y-83504060D01*
X153170998Y-83504669D01*
X153171417Y-83504968D01*
X153172285Y-83505592D01*
X153172713Y-83505903D01*
X153173228Y-83506279D01*
X153173488Y-83506470D01*
X153174046Y-83506882D01*
X153270997Y-83578971D01*
X153372399Y-83654370D01*
X153372999Y-83654820D01*
X153373734Y-83655376D01*
X153374187Y-83655721D01*
X153374950Y-83656307D01*
X153375318Y-83656591D01*
X153376260Y-83657328D01*
X153376652Y-83657637D01*
X153470462Y-83732102D01*
X153570414Y-83811442D01*
X153570794Y-83811746D01*
X153571577Y-83812379D01*
X153571849Y-83812600D01*
X153572740Y-83813330D01*
X153573276Y-83813773D01*
X153573882Y-83814278D01*
X153574472Y-83814773D01*
X153763174Y-83974528D01*
X153763640Y-83974925D01*
X153764314Y-83975505D01*
X153764887Y-83976003D01*
X153765438Y-83976485D01*
X153765969Y-83976951D01*
X153766720Y-83977619D01*
X153767254Y-83978097D01*
X153950653Y-84143581D01*
X153951204Y-84144082D01*
X153951907Y-84144726D01*
X153952497Y-84145271D01*
X153952947Y-84145690D01*
X153953508Y-84146217D01*
X153954116Y-84146792D01*
X153954700Y-84147349D01*
X154132889Y-84318640D01*
X154133487Y-84319219D01*
X154134067Y-84319786D01*
X154134565Y-84320276D01*
X154135035Y-84320742D01*
X154135596Y-84321303D01*
X154136129Y-84321840D01*
X154136691Y-84322411D01*
X154309449Y-84499308D01*
X154309982Y-84499858D01*
X154310508Y-84500405D01*
X154311093Y-84501018D01*
X154311542Y-84501493D01*
X154311995Y-84501976D01*
X154312788Y-84502829D01*
X154313184Y-84503258D01*
X154397761Y-84595517D01*
X154480090Y-84685323D01*
X154480623Y-84685909D01*
X154481351Y-84686716D01*
X154481735Y-84687144D01*
X154482341Y-84687826D01*
X154482721Y-84688259D01*
X154483323Y-84688948D01*
X154483822Y-84689524D01*
X154644902Y-84876774D01*
X154645426Y-84877388D01*
X154645954Y-84878012D01*
X154646414Y-84878559D01*
X154646956Y-84879209D01*
X154647487Y-84879851D01*
X154647987Y-84880461D01*
X154648473Y-84881059D01*
X154803654Y-85073414D01*
X154804150Y-85074034D01*
X154804669Y-85074688D01*
X154805109Y-85075246D01*
X154805421Y-85075645D01*
X154805975Y-85076360D01*
X154806628Y-85077211D01*
X154807062Y-85077782D01*
X154882497Y-85177579D01*
X154882498Y-85177579D01*
X154956009Y-85274829D01*
X154956422Y-85275380D01*
X154956834Y-85275933D01*
X154957290Y-85276550D01*
X154957945Y-85277445D01*
X154958375Y-85278038D01*
X154958750Y-85278559D01*
X154959220Y-85279218D01*
X155102024Y-85481084D01*
X155102356Y-85481557D01*
X155102819Y-85482222D01*
X155103222Y-85482806D01*
X155103727Y-85483545D01*
X155104165Y-85484192D01*
X155104685Y-85484966D01*
X155105095Y-85485580D01*
X155241381Y-85691742D01*
X155241808Y-85692394D01*
X155242247Y-85693071D01*
X155242563Y-85693561D01*
X155243013Y-85694264D01*
X155243489Y-85695017D01*
X155243818Y-85695541D01*
X155243888Y-85695653D01*
X155244231Y-85696205D01*
X155373976Y-85906621D01*
X155374403Y-85907320D01*
X155374817Y-85908004D01*
X155375115Y-85908501D01*
X155375555Y-85909239D01*
X155375976Y-85909954D01*
X155376451Y-85910768D01*
X155376811Y-85911389D01*
X155438117Y-86018222D01*
X155499793Y-86125701D01*
X155500108Y-86126255D01*
X155500613Y-86127153D01*
X155500934Y-86127729D01*
X155501285Y-86128363D01*
X155501697Y-86129114D01*
X155502081Y-86129822D01*
X155502436Y-86130483D01*
X155618543Y-86348479D01*
X155618899Y-86349153D01*
X155619390Y-86350094D01*
X155619681Y-86350657D01*
X155620006Y-86351291D01*
X155620365Y-86351997D01*
X155620759Y-86352781D01*
X155621068Y-86353402D01*
X155730374Y-86575236D01*
X155730672Y-86575849D01*
X155730993Y-86576514D01*
X155731283Y-86577119D01*
X155731735Y-86578074D01*
X155732024Y-86578692D01*
X155732227Y-86579129D01*
X155732581Y-86579898D01*
X155783807Y-86692710D01*
X155834831Y-86805074D01*
X155835183Y-86805859D01*
X155835490Y-86806551D01*
X155835767Y-86807180D01*
X155836097Y-86807938D01*
X155836464Y-86808792D01*
X155836730Y-86809419D01*
X155836981Y-86810017D01*
X155932032Y-87038214D01*
X155932313Y-87038895D01*
X155932605Y-87039611D01*
X155932912Y-87040372D01*
X155933219Y-87041143D01*
X155933493Y-87041839D01*
X155933759Y-87042522D01*
X155934053Y-87043288D01*
X156021827Y-87274307D01*
X156022105Y-87275046D01*
X156022395Y-87275828D01*
X156022616Y-87276431D01*
X156022887Y-87277181D01*
X156023152Y-87277919D01*
X156023478Y-87278844D01*
X156023716Y-87279528D01*
X156104106Y-87513064D01*
X156104313Y-87513674D01*
X156104619Y-87514583D01*
X156104840Y-87515252D01*
X156105089Y-87516013D01*
X156105377Y-87516907D01*
X156105606Y-87517630D01*
X156105807Y-87518271D01*
X156178829Y-87754369D01*
X156179085Y-87755211D01*
X156179363Y-87756139D01*
X156179534Y-87756716D01*
X156179713Y-87757327D01*
X156179963Y-87758196D01*
X156180177Y-87758952D01*
X156180376Y-87759665D01*
X156245892Y-87997898D01*
X156246086Y-87998613D01*
X156246314Y-87999467D01*
X156246525Y-88000270D01*
X156246678Y-88000863D01*
X156246878Y-88001655D01*
X156247121Y-88002630D01*
X156247297Y-88003346D01*
X156305217Y-88243344D01*
X156305408Y-88244149D01*
X156305614Y-88245035D01*
X156305741Y-88245591D01*
X156305890Y-88246249D01*
X156306108Y-88247233D01*
X156306327Y-88248248D01*
X156306476Y-88248953D01*
X156356806Y-88490737D01*
X156356947Y-88491429D01*
X156357107Y-88492224D01*
X156357228Y-88492842D01*
X156357378Y-88493620D01*
X156357544Y-88494506D01*
X156357716Y-88495444D01*
X156357851Y-88496194D01*
X156400539Y-88739535D01*
X156400678Y-88740345D01*
X156400806Y-88741112D01*
X156400910Y-88741750D01*
X156401017Y-88742418D01*
X156401163Y-88743358D01*
X156401318Y-88744389D01*
X156401420Y-88745088D01*
X156418768Y-88866362D01*
X156418768Y-88866363D01*
X156436358Y-88989336D01*
X156436466Y-88990108D01*
X156436616Y-88991219D01*
X156436704Y-88991898D01*
X156436803Y-88992670D01*
X156436879Y-88993288D01*
X156436983Y-88994157D01*
X156437080Y-88995002D01*
X156464328Y-89240556D01*
X156464415Y-89241371D01*
X156464494Y-89242141D01*
X156464561Y-89242814D01*
X156464650Y-89243744D01*
X156464728Y-89244606D01*
X156464777Y-89245170D01*
X156464841Y-89245933D01*
X156484335Y-89492398D01*
X156484394Y-89493188D01*
X156484447Y-89493934D01*
X156484497Y-89494673D01*
X156484547Y-89495460D01*
X156484597Y-89496304D01*
X156484643Y-89497141D01*
X156484681Y-89497887D01*
X156496385Y-89744820D01*
X156496419Y-89745595D01*
X156496440Y-89746126D01*
X156496467Y-89746886D01*
X156496495Y-89747765D01*
X156496518Y-89748591D01*
X156496538Y-89749442D01*
X156496553Y-89750205D01*
X156500455Y-89997261D01*
X156500463Y-89997949D01*
X156500470Y-89998741D01*
X156500474Y-89999616D01*
X156500474Y-90000330D01*
X156500471Y-90001151D01*
X156500464Y-90001995D01*
X156500455Y-90002737D01*
X156496553Y-90249792D01*
X156496538Y-90250555D01*
X156496518Y-90251406D01*
X156496495Y-90252232D01*
X156496467Y-90253111D01*
X156496440Y-90253871D01*
X156496419Y-90254402D01*
X156496385Y-90255177D01*
X156484681Y-90502110D01*
X156484643Y-90502856D01*
X156484597Y-90503693D01*
X156484547Y-90504537D01*
X156484497Y-90505324D01*
X156484447Y-90506063D01*
X156484394Y-90506809D01*
X156484335Y-90507599D01*
X156464841Y-90754064D01*
X156464777Y-90754827D01*
X156464728Y-90755391D01*
X156464650Y-90756253D01*
X156464561Y-90757183D01*
X156464494Y-90757856D01*
X156464415Y-90758626D01*
X156464328Y-90759441D01*
X156437083Y-91004961D01*
X156437003Y-91005658D01*
X156436893Y-91006589D01*
X156436786Y-91007460D01*
X156436697Y-91008160D01*
X156436590Y-91008979D01*
X156436480Y-91009790D01*
X156436380Y-91010502D01*
X156401432Y-91254824D01*
X156401329Y-91255530D01*
X156401161Y-91256647D01*
X156401047Y-91257388D01*
X156400951Y-91257995D01*
X156400808Y-91258873D01*
X156400652Y-91259805D01*
X156400521Y-91260568D01*
X156357851Y-91503803D01*
X156357716Y-91504553D01*
X156357544Y-91505491D01*
X156357378Y-91506377D01*
X156357228Y-91507155D01*
X156357107Y-91507773D01*
X156356973Y-91508445D01*
X156356806Y-91509260D01*
X156306476Y-91751044D01*
X156306321Y-91751778D01*
X156306079Y-91752898D01*
X156305901Y-91753703D01*
X156305814Y-91754090D01*
X156305643Y-91754840D01*
X156305400Y-91755883D01*
X156305219Y-91756644D01*
X156247294Y-91996663D01*
X156247119Y-91997377D01*
X156246883Y-91998324D01*
X156246661Y-91999199D01*
X156246494Y-91999844D01*
X156246315Y-92000524D01*
X156246097Y-92001342D01*
X156245892Y-92002099D01*
X156180376Y-92240332D01*
X156180177Y-92241045D01*
X156179963Y-92241801D01*
X156179713Y-92242670D01*
X156179534Y-92243281D01*
X156179363Y-92243858D01*
X156179085Y-92244786D01*
X156178829Y-92245628D01*
X156105804Y-92481737D01*
X156105592Y-92482413D01*
X156105383Y-92483072D01*
X156105070Y-92484042D01*
X156104820Y-92484803D01*
X156104663Y-92485276D01*
X156104373Y-92486144D01*
X156104084Y-92486996D01*
X156023701Y-92720509D01*
X156023466Y-92721183D01*
X156023169Y-92722026D01*
X156022855Y-92722906D01*
X156022610Y-92723581D01*
X156022377Y-92724216D01*
X156022096Y-92724974D01*
X156021814Y-92725724D01*
X155934053Y-92956709D01*
X155933759Y-92957475D01*
X155933493Y-92958158D01*
X155933219Y-92958854D01*
X155932912Y-92959625D01*
X155932605Y-92960386D01*
X155932313Y-92961102D01*
X155932032Y-92961783D01*
X155837002Y-93189931D01*
X155836709Y-93190627D01*
X155836392Y-93191372D01*
X155836109Y-93192030D01*
X155835816Y-93192705D01*
X155835423Y-93193598D01*
X155835139Y-93194235D01*
X155834861Y-93194854D01*
X155732584Y-93420092D01*
X155732227Y-93420868D01*
X155732024Y-93421305D01*
X155731735Y-93421923D01*
X155731333Y-93422773D01*
X155730993Y-93423483D01*
X155730672Y-93424148D01*
X155730321Y-93424870D01*
X155621106Y-93646519D01*
X155620759Y-93647216D01*
X155620365Y-93648000D01*
X155620006Y-93648706D01*
X155619681Y-93649340D01*
X155619327Y-93650026D01*
X155618909Y-93650826D01*
X155618543Y-93651518D01*
X155502436Y-93869514D01*
X155502081Y-93870175D01*
X155501697Y-93870883D01*
X155501285Y-93871634D01*
X155500934Y-93872268D01*
X155500613Y-93872844D01*
X155500108Y-93873742D01*
X155499683Y-93874490D01*
X155376811Y-94088608D01*
X155376451Y-94089229D01*
X155375976Y-94090043D01*
X155375516Y-94090825D01*
X155375168Y-94091409D01*
X155374817Y-94091993D01*
X155374403Y-94092677D01*
X155373976Y-94093376D01*
X155244231Y-94303792D01*
X155243888Y-94304344D01*
X155243557Y-94304873D01*
X155243013Y-94305733D01*
X155242563Y-94306436D01*
X155242247Y-94306926D01*
X155241808Y-94307603D01*
X155241329Y-94308335D01*
X155105095Y-94514417D01*
X155104685Y-94515031D01*
X155104165Y-94515805D01*
X155103727Y-94516452D01*
X155103222Y-94517191D01*
X155102692Y-94517959D01*
X155102411Y-94518362D01*
X155102024Y-94518913D01*
X154959306Y-94720657D01*
X154958814Y-94721346D01*
X154958219Y-94722172D01*
X154957793Y-94722759D01*
X154957417Y-94723273D01*
X154957022Y-94723809D01*
X154956473Y-94724549D01*
X154955999Y-94725182D01*
X154923309Y-94768430D01*
X154807026Y-94922264D01*
X154806593Y-94922832D01*
X154806105Y-94923468D01*
X154805562Y-94924170D01*
X154805000Y-94924889D01*
X154804571Y-94925433D01*
X154804165Y-94925945D01*
X154803646Y-94926594D01*
X154648473Y-95118938D01*
X154647987Y-95119536D01*
X154647487Y-95120146D01*
X154646956Y-95120788D01*
X154646414Y-95121438D01*
X154645980Y-95121955D01*
X154645504Y-95122518D01*
X154644954Y-95123163D01*
X154483804Y-95310493D01*
X154483344Y-95311023D01*
X154482830Y-95311612D01*
X154482240Y-95312283D01*
X154481729Y-95312858D01*
X154481237Y-95313407D01*
X154480638Y-95314071D01*
X154480105Y-95314657D01*
X154313205Y-95496716D01*
X154312767Y-95497190D01*
X154312180Y-95497822D01*
X154311475Y-95498574D01*
X154311034Y-95499039D01*
X154310593Y-95499501D01*
X154309933Y-95500188D01*
X154309369Y-95500771D01*
X154136723Y-95677555D01*
X154136144Y-95678143D01*
X154135576Y-95678715D01*
X154135019Y-95679271D01*
X154134567Y-95679719D01*
X154134053Y-95680225D01*
X154133363Y-95680899D01*
X154132793Y-95681450D01*
X153954770Y-95852581D01*
X153954255Y-95853074D01*
X153953588Y-95853706D01*
X153952969Y-95854287D01*
X153952488Y-95854735D01*
X153951901Y-95855277D01*
X153951219Y-95855902D01*
X153950653Y-95856416D01*
X153767259Y-96021895D01*
X153766731Y-96022368D01*
X153766089Y-96022939D01*
X153765370Y-96023573D01*
X153764877Y-96024003D01*
X153764388Y-96024427D01*
X153763677Y-96025039D01*
X153763060Y-96025566D01*
X153574551Y-96185158D01*
X153573903Y-96185702D01*
X153573135Y-96186341D01*
X153572589Y-96186792D01*
X153572189Y-96187120D01*
X153571588Y-96187608D01*
X153570816Y-96188231D01*
X153570194Y-96188729D01*
X153376824Y-96342224D01*
X153376317Y-96342624D01*
X153376300Y-96342636D01*
X153376300Y-96342638D01*
X153375600Y-96343186D01*
X153375599Y-96343185D01*
X153375594Y-96343186D01*
X153375179Y-96343514D01*
X153375077Y-96343593D01*
X153374349Y-96344151D01*
X153374184Y-96344278D01*
X153373770Y-96344593D01*
X153372964Y-96345203D01*
X153372292Y-96345707D01*
X153174067Y-96493100D01*
X153173401Y-96493591D01*
X153172703Y-96494101D01*
X153172172Y-96494486D01*
X153171578Y-96494914D01*
X153170943Y-96495368D01*
X153170387Y-96495762D01*
X153169682Y-96496257D01*
X152966669Y-96637481D01*
X152966098Y-96637875D01*
X152965561Y-96638243D01*
X152964788Y-96638767D01*
X152964170Y-96639182D01*
X152963486Y-96639638D01*
X152962737Y-96640132D01*
X152962172Y-96640502D01*
X152755077Y-96775070D01*
X152754384Y-96775516D01*
X152753616Y-96776006D01*
X152753047Y-96776366D01*
X152752401Y-96776772D01*
X152751656Y-96777236D01*
X152750989Y-96777647D01*
X152750347Y-96778039D01*
X152539038Y-96906042D01*
X152538428Y-96906409D01*
X152537683Y-96906853D01*
X152536942Y-96907290D01*
X152536307Y-96907661D01*
X152535677Y-96908026D01*
X152535012Y-96908408D01*
X152534295Y-96908816D01*
X152318961Y-97030135D01*
X152318280Y-97030515D01*
X152317564Y-97030911D01*
X152316848Y-97031303D01*
X152316175Y-97031668D01*
X152315534Y-97032013D01*
X152314956Y-97032321D01*
X152314247Y-97032695D01*
X152095120Y-97147194D01*
X152094476Y-97147527D01*
X152093644Y-97147953D01*
X152093037Y-97148262D01*
X152092423Y-97148571D01*
X152091603Y-97148979D01*
X152090879Y-97149335D01*
X152090248Y-97149642D01*
X152064131Y-97162255D01*
X152049657Y-97167892D01*
X152033986Y-97172617D01*
X152018820Y-97175919D01*
X152015851Y-97176325D01*
X151997424Y-97177111D01*
X151994486Y-97176962D01*
X151980101Y-97171468D01*
X151972814Y-97171313D01*
X151965856Y-97166027D01*
X151937327Y-97155132D01*
X151903917Y-97103874D01*
X151900500Y-97078089D01*
X151900500Y-96832946D01*
X151895073Y-96777842D01*
X151867751Y-96500441D01*
X151802569Y-96172749D01*
X151782219Y-96105664D01*
X151705585Y-95853032D01*
X151705399Y-95852581D01*
X151577723Y-95544346D01*
X151553753Y-95499501D01*
X151420226Y-95249687D01*
X151253388Y-94999999D01*
X151234601Y-94971882D01*
X151022643Y-94713610D01*
X150786390Y-94477357D01*
X150767761Y-94462069D01*
X150578719Y-94306926D01*
X150528118Y-94265399D01*
X150458667Y-94218993D01*
X150250312Y-94079773D01*
X149955672Y-93922286D01*
X149955660Y-93922280D01*
X149955654Y-93922277D01*
X149955649Y-93922274D01*
X149955645Y-93922273D01*
X149646967Y-93794414D01*
X149327253Y-93697431D01*
X149080459Y-93648341D01*
X148999559Y-93632249D01*
X148999557Y-93632248D01*
X148756491Y-93608308D01*
X148667056Y-93599500D01*
X148332944Y-93599500D01*
X148234700Y-93609176D01*
X148000444Y-93632248D01*
X147672746Y-93697431D01*
X147353032Y-93794414D01*
X147044354Y-93922273D01*
X147044327Y-93922286D01*
X146749687Y-94079773D01*
X146471880Y-94265400D01*
X146213615Y-94477352D01*
X145977352Y-94713615D01*
X145765400Y-94971880D01*
X145579773Y-95249687D01*
X145422286Y-95544327D01*
X145422273Y-95544354D01*
X145294414Y-95853032D01*
X145197431Y-96172746D01*
X145132248Y-96500444D01*
X145111756Y-96708508D01*
X145105073Y-96776366D01*
X145099500Y-96832946D01*
X145099500Y-97078699D01*
X145091782Y-97102450D01*
X145086946Y-97126950D01*
X145082476Y-97131093D01*
X145080593Y-97136890D01*
X145060386Y-97151570D01*
X145042075Y-97168546D01*
X145036024Y-97169270D01*
X145031093Y-97172854D01*
X144981324Y-97175824D01*
X144965972Y-97172793D01*
X144940691Y-97164124D01*
X144797264Y-97092039D01*
X144796565Y-97091685D01*
X144795808Y-97091297D01*
X144795250Y-97091009D01*
X144795239Y-97091003D01*
X144794637Y-97090688D01*
X144794037Y-97090372D01*
X144793047Y-97089845D01*
X144792459Y-97089529D01*
X144772506Y-97078699D01*
X144575354Y-96971687D01*
X144574671Y-96971312D01*
X144573879Y-96970874D01*
X144573229Y-96970512D01*
X144572744Y-96970239D01*
X144572032Y-96969834D01*
X144571077Y-96969286D01*
X144570400Y-96968894D01*
X144357210Y-96844309D01*
X144356587Y-96843941D01*
X144355996Y-96843590D01*
X144355731Y-96843432D01*
X144355152Y-96843084D01*
X144354493Y-96842685D01*
X144353830Y-96842280D01*
X144353116Y-96841840D01*
X144352430Y-96841413D01*
X144251130Y-96777842D01*
X144143205Y-96710113D01*
X144142517Y-96709677D01*
X144141630Y-96709109D01*
X144141194Y-96708828D01*
X144140975Y-96708686D01*
X144140605Y-96708445D01*
X144139887Y-96707976D01*
X144139133Y-96707477D01*
X144138526Y-96707072D01*
X144085978Y-96671735D01*
X144024980Y-96630716D01*
X143933502Y-96569199D01*
X143932859Y-96568763D01*
X143932125Y-96568261D01*
X143931643Y-96567929D01*
X143930967Y-96567459D01*
X143930536Y-96567157D01*
X143929606Y-96566500D01*
X143929035Y-96566092D01*
X143728405Y-96421773D01*
X143727737Y-96421288D01*
X143727054Y-96420788D01*
X143726435Y-96420332D01*
X143725888Y-96419925D01*
X143725299Y-96419483D01*
X143724595Y-96418951D01*
X143723963Y-96418469D01*
X143693903Y-96395372D01*
X143528165Y-96268023D01*
X143527517Y-96267521D01*
X143526766Y-96266934D01*
X143526183Y-96266475D01*
X143525572Y-96265990D01*
X143524996Y-96265529D01*
X143524362Y-96265018D01*
X143523721Y-96264497D01*
X143332696Y-96107884D01*
X143332096Y-96107388D01*
X143331401Y-96106809D01*
X143330811Y-96106314D01*
X143330339Y-96105914D01*
X143329824Y-96105474D01*
X143328980Y-96104748D01*
X143328387Y-96104235D01*
X143238384Y-96025566D01*
X143142367Y-95941640D01*
X143141842Y-95941176D01*
X143141249Y-95940649D01*
X143140665Y-95940126D01*
X143140026Y-95939549D01*
X143139517Y-95939087D01*
X143139019Y-95938631D01*
X143138403Y-95938061D01*
X142957460Y-95769536D01*
X142956986Y-95769092D01*
X142956282Y-95768425D01*
X142955842Y-95768005D01*
X142955261Y-95767446D01*
X142954729Y-95766930D01*
X142954129Y-95766344D01*
X142953664Y-95765887D01*
X142778138Y-95591743D01*
X142777599Y-95591202D01*
X142776934Y-95590531D01*
X142776516Y-95590107D01*
X142776045Y-95589626D01*
X142775401Y-95588962D01*
X142774826Y-95588364D01*
X142774411Y-95587927D01*
X142728227Y-95539120D01*
X142728227Y-95539119D01*
X142728225Y-95539118D01*
X142691389Y-95500188D01*
X142603679Y-95407493D01*
X142601573Y-95405197D01*
X142521165Y-95314657D01*
X142515874Y-95308699D01*
X142491372Y-95252635D01*
X142491423Y-95232774D01*
X142491549Y-95231565D01*
X142499503Y-95077257D01*
X142499503Y-94922743D01*
X142491549Y-94768435D01*
X142475661Y-94614741D01*
X142451883Y-94462069D01*
X142420277Y-94310823D01*
X142380927Y-94161404D01*
X142333938Y-94014209D01*
X142279433Y-93869629D01*
X142279429Y-93869621D01*
X142279425Y-93869609D01*
X142217559Y-93728050D01*
X142178960Y-93650826D01*
X142148476Y-93589836D01*
X142072370Y-93455365D01*
X141989444Y-93324991D01*
X141899916Y-93199059D01*
X141804023Y-93077902D01*
X141702021Y-92961842D01*
X141702015Y-92961835D01*
X141644546Y-92902867D01*
X141594180Y-92851187D01*
X141480785Y-92746231D01*
X141480784Y-92746230D01*
X141362148Y-92647259D01*
X141362121Y-92647237D01*
X141300492Y-92600991D01*
X141238552Y-92554510D01*
X141133821Y-92484042D01*
X141110361Y-92468257D01*
X140977884Y-92388708D01*
X140879781Y-92336474D01*
X140873821Y-92330295D01*
X140865742Y-92327400D01*
X140853003Y-92308713D01*
X140837304Y-92292437D01*
X140831281Y-92276851D01*
X140786335Y-92122961D01*
X140785512Y-92119966D01*
X140723454Y-91879528D01*
X140723256Y-91878746D01*
X140723039Y-91877876D01*
X140722877Y-91877217D01*
X140722715Y-91876548D01*
X140722558Y-91875888D01*
X140722305Y-91874801D01*
X140722238Y-91874508D01*
X140667962Y-91632951D01*
X140667818Y-91632296D01*
X140667633Y-91631443D01*
X140667495Y-91630796D01*
X140667313Y-91629918D01*
X140667242Y-91629576D01*
X140667042Y-91628574D01*
X140666952Y-91628112D01*
X140620271Y-91384651D01*
X140620204Y-91384294D01*
X140620031Y-91383349D01*
X140619935Y-91382809D01*
X140619792Y-91381994D01*
X140619680Y-91381342D01*
X140619507Y-91380309D01*
X140619414Y-91379736D01*
X140600382Y-91260187D01*
X140599936Y-91257388D01*
X140580501Y-91135304D01*
X140580424Y-91134808D01*
X140580288Y-91133903D01*
X140580191Y-91133241D01*
X140580094Y-91132563D01*
X140580000Y-91131889D01*
X140579993Y-91131844D01*
X140579859Y-91130843D01*
X140579822Y-91130560D01*
X140548588Y-90884573D01*
X140548582Y-90884524D01*
X140548401Y-90883001D01*
X140548279Y-90881916D01*
X140548234Y-90881490D01*
X140548089Y-90880077D01*
X140524658Y-90633448D01*
X140524596Y-90632759D01*
X140524513Y-90631803D01*
X140524475Y-90631352D01*
X140524414Y-90630585D01*
X140524366Y-90629948D01*
X140524290Y-90628875D01*
X140524240Y-90628127D01*
X140508629Y-90381239D01*
X140508582Y-90380443D01*
X140508552Y-90379899D01*
X140508518Y-90379237D01*
X140508484Y-90378535D01*
X140508454Y-90377874D01*
X140508403Y-90376558D01*
X140500559Y-90128248D01*
X140500541Y-90127572D01*
X140500532Y-90127183D01*
X140500521Y-90126613D01*
X140500508Y-90125865D01*
X140500499Y-90125247D01*
X140500494Y-90124798D01*
X140500489Y-90124086D01*
X140500001Y-90000330D01*
X140500001Y-90000079D01*
X140500003Y-89999226D01*
X140500002Y-89999224D01*
X140500003Y-89999170D01*
X140500013Y-89999170D01*
X140500003Y-89999041D01*
X140500490Y-89875711D01*
X140500494Y-89875199D01*
X140500500Y-89874630D01*
X140500505Y-89874219D01*
X140500523Y-89873188D01*
X140500530Y-89872847D01*
X140500555Y-89871857D01*
X140508401Y-89623487D01*
X140508450Y-89622218D01*
X140508469Y-89621787D01*
X140508521Y-89620689D01*
X140508538Y-89620347D01*
X140508611Y-89619043D01*
X140524274Y-89371337D01*
X140524306Y-89370862D01*
X140524361Y-89370096D01*
X140524401Y-89369562D01*
X140524470Y-89368698D01*
X140524515Y-89368167D01*
X140524596Y-89367238D01*
X140524666Y-89366474D01*
X140536118Y-89245933D01*
X140548088Y-89119935D01*
X140548123Y-89119585D01*
X140548236Y-89118480D01*
X140548272Y-89118147D01*
X140548384Y-89117130D01*
X140548430Y-89116735D01*
X140548562Y-89115632D01*
X140579828Y-88869380D01*
X140580037Y-88867830D01*
X140580247Y-88866363D01*
X140580293Y-88866055D01*
X140580393Y-88865390D01*
X140580462Y-88864941D01*
X140619471Y-88619905D01*
X140619510Y-88619660D01*
X140619685Y-88618615D01*
X140619770Y-88618120D01*
X140619953Y-88617076D01*
X140620059Y-88616492D01*
X140620162Y-88615931D01*
X140620264Y-88615381D01*
X140666990Y-88371686D01*
X140667046Y-88371397D01*
X140667256Y-88370355D01*
X140667510Y-88369127D01*
X140667610Y-88368656D01*
X140667854Y-88367531D01*
X140722289Y-88125264D01*
X140722306Y-88125187D01*
X140722637Y-88123773D01*
X140722965Y-88122410D01*
X140723272Y-88121180D01*
X140723328Y-88120959D01*
X140785270Y-87880972D01*
X140785450Y-87880283D01*
X140785659Y-87879499D01*
X140785831Y-87878871D01*
X140786031Y-87878146D01*
X140786213Y-87877493D01*
X140786443Y-87876681D01*
X140786621Y-87876061D01*
X140856162Y-87637961D01*
X140856193Y-87637856D01*
X140856429Y-87637069D01*
X140856611Y-87636474D01*
X140856805Y-87635847D01*
X140856982Y-87635281D01*
X140857373Y-87634053D01*
X140934467Y-87398050D01*
X140934905Y-87396744D01*
X140935070Y-87396262D01*
X140935301Y-87395591D01*
X140935520Y-87394962D01*
X140935666Y-87394547D01*
X140935966Y-87393706D01*
X141020374Y-87160525D01*
X141020933Y-87159019D01*
X141021320Y-87157998D01*
X141021538Y-87157436D01*
X141021849Y-87156639D01*
X141022097Y-87156009D01*
X141067827Y-87041143D01*
X141113750Y-86925792D01*
X141114245Y-86924574D01*
X141114344Y-86924333D01*
X141114851Y-86923118D01*
X141115401Y-86921826D01*
X141214536Y-86694020D01*
X141215120Y-86692710D01*
X141215436Y-86692013D01*
X141215669Y-86691503D01*
X141216252Y-86690249D01*
X141216437Y-86689856D01*
X141268841Y-86579129D01*
X141322391Y-86465978D01*
X141322605Y-86465529D01*
X141323031Y-86464648D01*
X141323175Y-86464352D01*
X141323648Y-86463392D01*
X141323760Y-86463167D01*
X141324409Y-86461875D01*
X141437541Y-86241135D01*
X141437635Y-86240953D01*
X141438290Y-86239698D01*
X141438434Y-86239426D01*
X141438890Y-86238571D01*
X141439073Y-86238231D01*
X141439726Y-86237029D01*
X141559792Y-86019932D01*
X141560526Y-86018629D01*
X141560656Y-86018401D01*
X141561230Y-86017403D01*
X141561867Y-86016310D01*
X141561993Y-86016097D01*
X141688928Y-85802769D01*
X141689771Y-85801378D01*
X141690200Y-85800681D01*
X141690533Y-85800146D01*
X141690982Y-85799431D01*
X141691334Y-85798876D01*
X141757591Y-85695124D01*
X141824748Y-85589963D01*
X141825044Y-85589503D01*
X141825525Y-85588763D01*
X141825798Y-85588348D01*
X141826148Y-85587818D01*
X141826501Y-85587286D01*
X141827036Y-85586490D01*
X141827164Y-85586303D01*
X141967366Y-85381327D01*
X141967421Y-85381246D01*
X141968143Y-85380208D01*
X141968363Y-85379895D01*
X141969069Y-85378899D01*
X141969831Y-85377839D01*
X142116462Y-85177357D01*
X142116475Y-85177338D01*
X142117250Y-85176295D01*
X142117626Y-85175795D01*
X142118074Y-85175204D01*
X142119021Y-85173970D01*
X142271909Y-84978210D01*
X142272704Y-84977210D01*
X142273675Y-84976008D01*
X142274433Y-84975081D01*
X142274580Y-84974904D01*
X142433456Y-84784209D01*
X142433470Y-84784192D01*
X142434367Y-84783132D01*
X142434497Y-84782979D01*
X142435320Y-84782022D01*
X142435458Y-84781865D01*
X142436188Y-84781029D01*
X142436340Y-84780857D01*
X142601177Y-84595249D01*
X142601243Y-84595175D01*
X142602012Y-84594322D01*
X142602182Y-84594136D01*
X142603022Y-84593219D01*
X142603319Y-84592899D01*
X142603754Y-84592431D01*
X142604137Y-84592022D01*
X142774656Y-84411812D01*
X142774865Y-84411592D01*
X142775555Y-84410874D01*
X142775972Y-84410445D01*
X142776599Y-84409802D01*
X142776830Y-84409568D01*
X142777687Y-84408703D01*
X142954028Y-84233750D01*
X142954814Y-84232981D01*
X142955099Y-84232704D01*
X142955921Y-84231915D01*
X142956129Y-84231717D01*
X142957152Y-84230750D01*
X142957278Y-84230632D01*
X143138723Y-84061638D01*
X143138780Y-84061584D01*
X143139743Y-84060702D01*
X143140849Y-84059704D01*
X143141098Y-84059481D01*
X143142090Y-84058601D01*
X143329018Y-83895213D01*
X143329833Y-83894510D01*
X143330174Y-83894220D01*
X143330911Y-83893596D01*
X143331341Y-83893236D01*
X143331367Y-83893213D01*
X143331884Y-83892783D01*
X143332253Y-83892477D01*
X143524247Y-83735069D01*
X143525306Y-83734217D01*
X143526265Y-83733454D01*
X143526528Y-83733248D01*
X143527705Y-83732329D01*
X143724383Y-83581205D01*
X143725617Y-83580272D01*
X143725824Y-83580117D01*
X143726580Y-83579554D01*
X143726824Y-83579375D01*
X143727776Y-83578678D01*
X143727908Y-83578583D01*
X143929390Y-83433652D01*
X143929986Y-83433228D01*
X143930663Y-83432750D01*
X143931847Y-83431926D01*
X143933107Y-83431064D01*
X144138841Y-83292715D01*
X144139087Y-83292551D01*
X144140080Y-83291894D01*
X144140370Y-83291703D01*
X144141413Y-83291025D01*
X144141563Y-83290928D01*
X144142534Y-83290308D01*
X144142794Y-83290144D01*
X144352863Y-83158314D01*
X144353090Y-83158172D01*
X144354082Y-83157561D01*
X144354247Y-83157460D01*
X144355438Y-83156738D01*
X144355654Y-83156608D01*
X144356653Y-83156015D01*
X144388585Y-83137353D01*
X144571124Y-83030682D01*
X144571282Y-83030590D01*
X144572061Y-83030143D01*
X144572660Y-83029803D01*
X144573175Y-83029514D01*
X144573704Y-83029219D01*
X144574347Y-83028863D01*
X144574954Y-83028529D01*
X144793041Y-82910155D01*
X144793147Y-82910098D01*
X144794079Y-82909601D01*
X144794357Y-82909454D01*
X144795341Y-82908940D01*
X144795602Y-82908804D01*
X144796770Y-82908206D01*
X144928713Y-82841893D01*
X145018578Y-82796729D01*
X145019838Y-82796106D01*
X145020557Y-82795756D01*
X145020798Y-82795640D01*
X145021049Y-82795520D01*
X145021523Y-82795294D01*
X145022072Y-82795034D01*
X145022616Y-82794778D01*
X145247744Y-82690399D01*
X145249008Y-82689825D01*
X145249153Y-82689760D01*
X145250492Y-82689166D01*
X145251610Y-82688678D01*
X145251810Y-82688593D01*
X145480036Y-82591408D01*
X145481419Y-82590832D01*
X145481811Y-82590671D01*
X145482123Y-82590543D01*
X145482580Y-82590357D01*
X145483292Y-82590070D01*
X145483801Y-82589868D01*
X145484103Y-82589749D01*
X145715524Y-82499724D01*
X145715822Y-82499609D01*
X145716745Y-82499259D01*
X145717020Y-82499157D01*
X145718257Y-82498699D01*
X145719631Y-82498201D01*
X145953789Y-82415524D01*
X145953815Y-82415515D01*
X145954842Y-82415161D01*
X145955343Y-82414991D01*
X145956194Y-82414707D01*
X145956639Y-82414560D01*
X145957566Y-82414257D01*
X145958045Y-82414102D01*
X146194272Y-82338993D01*
X146194349Y-82338968D01*
X146195628Y-82338573D01*
X146195931Y-82338480D01*
X146196880Y-82338194D01*
X146197372Y-82338048D01*
X146198562Y-82337701D01*
X146437439Y-82269974D01*
X146438711Y-82269623D01*
X146439190Y-82269495D01*
X146439823Y-82269326D01*
X146440271Y-82269208D01*
X146441339Y-82268932D01*
X146441675Y-82268847D01*
X146682447Y-82208725D01*
X146683588Y-82208450D01*
X146684075Y-82208335D01*
X146685075Y-82208102D01*
X146685490Y-82208007D01*
X146686530Y-82207773D01*
X146686707Y-82207734D01*
X146929236Y-82155249D01*
X146929231Y-82155249D01*
X146930711Y-82154942D01*
X146931024Y-82154878D01*
X146931798Y-82154723D01*
X146932148Y-82154654D01*
X146933432Y-82154407D01*
X146933605Y-82154375D01*
X147177573Y-82109589D01*
X147177641Y-82109576D01*
X147178949Y-82109346D01*
X147179551Y-82109243D01*
X147180349Y-82109110D01*
X147181080Y-82108993D01*
X147181651Y-82108902D01*
X147182313Y-82108798D01*
X147427178Y-82071796D01*
X147427845Y-82071699D01*
X147428771Y-82071567D01*
X147429330Y-82071489D01*
X147429484Y-82071467D01*
X147429949Y-82071404D01*
X147430585Y-82071321D01*
X147431773Y-82071170D01*
X147431827Y-82071164D01*
X147678081Y-82041870D01*
X147678434Y-82041829D01*
X147679510Y-82041710D01*
X147679917Y-82041666D01*
X147681032Y-82041550D01*
X147681263Y-82041527D01*
X147682516Y-82041408D01*
X147682695Y-82041392D01*
X147929939Y-82019871D01*
X147930071Y-82019860D01*
X147931119Y-82019776D01*
X147931145Y-82019775D01*
X147931738Y-82019731D01*
X147932354Y-82019687D01*
X147932970Y-82019644D01*
X147934325Y-82019559D01*
X147934354Y-82019558D01*
X148181953Y-82005863D01*
X148182382Y-82005841D01*
X148183444Y-82005790D01*
X148183663Y-82005781D01*
X148184849Y-82005733D01*
X148185384Y-82005714D01*
X148186126Y-82005691D01*
X148186624Y-82005677D01*
X148434527Y-81999805D01*
X148434821Y-81999799D01*
X148435747Y-81999785D01*
X148436407Y-81999778D01*
X148436457Y-81999777D01*
X148437230Y-81999772D01*
X148437956Y-81999769D01*
X148438728Y-81999769D01*
X148439509Y-81999772D01*
G37*
%TD.AperFunction*%
%TD*%
%TA.AperFunction,Conductor*%
%TO.N,/Project Architecture/Section C - Touch sensor/TOUCH*%
G36*
X148687914Y-82001732D02*
G01*
X148690957Y-82001805D01*
X148940336Y-82011651D01*
X148943356Y-82011819D01*
X149192285Y-82029533D01*
X149195294Y-82029795D01*
X149443498Y-82055354D01*
X149446599Y-82055722D01*
X149693863Y-82089103D01*
X149696895Y-82089561D01*
X149942999Y-82130734D01*
X149946022Y-82131289D01*
X150190705Y-82180210D01*
X150193689Y-82180856D01*
X150436763Y-82237490D01*
X150439715Y-82238228D01*
X150680792Y-82302485D01*
X150683732Y-82303317D01*
X150922699Y-82375165D01*
X150925671Y-82376110D01*
X151162220Y-82455454D01*
X151165139Y-82456485D01*
X151399050Y-82543251D01*
X151401905Y-82544361D01*
X151633011Y-82638489D01*
X151635865Y-82639705D01*
X151863811Y-82741050D01*
X151866634Y-82742358D01*
X152091324Y-82850875D01*
X152094081Y-82852261D01*
X152315208Y-82967805D01*
X152317932Y-82969283D01*
X152425078Y-83029649D01*
X152535300Y-83091748D01*
X152537991Y-83093320D01*
X152643272Y-83157096D01*
X152751370Y-83222578D01*
X152754012Y-83224236D01*
X152857319Y-83291364D01*
X152963190Y-83360157D01*
X152965773Y-83361893D01*
X153068322Y-83433231D01*
X153170586Y-83504370D01*
X153173123Y-83506195D01*
X153373318Y-83655053D01*
X153375797Y-83656958D01*
X153571175Y-83812047D01*
X153573592Y-83814028D01*
X153764008Y-83975234D01*
X153766361Y-83977291D01*
X153951573Y-84144410D01*
X153953861Y-84146541D01*
X154133715Y-84319433D01*
X154135892Y-84321592D01*
X154310249Y-84500127D01*
X154312374Y-84502374D01*
X154480963Y-84686276D01*
X154483038Y-84688613D01*
X154645711Y-84877714D01*
X154647712Y-84880115D01*
X154804367Y-85074297D01*
X154806291Y-85076761D01*
X154956709Y-85275755D01*
X154958554Y-85278277D01*
X155102631Y-85481942D01*
X155104396Y-85484522D01*
X155241983Y-85692652D01*
X155243665Y-85695286D01*
X155374579Y-85907598D01*
X155376178Y-85910285D01*
X155500362Y-86126692D01*
X155501874Y-86129427D01*
X155619137Y-86349594D01*
X155620563Y-86352376D01*
X155730829Y-86576159D01*
X155732166Y-86578984D01*
X155835314Y-86806139D01*
X155836561Y-86809005D01*
X155932483Y-87039294D01*
X155933639Y-87042198D01*
X156022241Y-87275395D01*
X156023305Y-87278334D01*
X156104500Y-87514209D01*
X156105471Y-87517180D01*
X156179191Y-87755538D01*
X156180067Y-87758539D01*
X156246214Y-87999065D01*
X156246995Y-88002091D01*
X156305522Y-88244607D01*
X156306207Y-88247656D01*
X156331902Y-88371096D01*
X156357042Y-88491865D01*
X156357631Y-88494935D01*
X156400741Y-88740682D01*
X156401232Y-88743770D01*
X156436554Y-88990705D01*
X156436948Y-88993805D01*
X156464461Y-89241749D01*
X156464757Y-89244861D01*
X156484429Y-89493571D01*
X156484626Y-89496690D01*
X156496436Y-89745864D01*
X156496535Y-89748988D01*
X156500474Y-89998437D01*
X156500474Y-90001563D01*
X156496535Y-90251011D01*
X156496436Y-90254135D01*
X156484626Y-90503309D01*
X156484429Y-90506428D01*
X156464757Y-90755138D01*
X156464461Y-90758250D01*
X156436948Y-91006194D01*
X156436554Y-91009294D01*
X156401232Y-91256229D01*
X156400741Y-91259317D01*
X156357631Y-91505064D01*
X156357042Y-91508134D01*
X156306207Y-91752343D01*
X156305522Y-91755392D01*
X156246995Y-91997908D01*
X156246214Y-92000934D01*
X156180067Y-92241460D01*
X156179191Y-92244461D01*
X156105471Y-92482819D01*
X156104500Y-92485790D01*
X156023305Y-92721665D01*
X156022241Y-92724604D01*
X155933639Y-92957801D01*
X155932483Y-92960705D01*
X155836561Y-93190994D01*
X155835314Y-93193860D01*
X155732166Y-93421015D01*
X155730829Y-93423840D01*
X155620563Y-93647623D01*
X155619137Y-93650405D01*
X155501874Y-93870572D01*
X155500362Y-93873307D01*
X155376178Y-94089714D01*
X155374579Y-94092401D01*
X155243665Y-94304713D01*
X155241983Y-94307347D01*
X155104396Y-94515477D01*
X155102631Y-94518057D01*
X154958554Y-94721722D01*
X154956709Y-94724244D01*
X154806291Y-94923238D01*
X154804367Y-94925702D01*
X154647712Y-95119884D01*
X154645711Y-95122285D01*
X154483038Y-95311386D01*
X154480963Y-95313723D01*
X154312374Y-95497625D01*
X154310226Y-95499896D01*
X154135934Y-95678365D01*
X154133715Y-95680566D01*
X153953861Y-95853458D01*
X153951573Y-95855589D01*
X153766361Y-96022708D01*
X153764008Y-96024765D01*
X153573592Y-96185971D01*
X153571175Y-96187952D01*
X153375797Y-96343041D01*
X153373318Y-96344946D01*
X153173123Y-96493804D01*
X153170586Y-96495629D01*
X152965784Y-96638098D01*
X152963190Y-96639842D01*
X152754018Y-96775759D01*
X152751370Y-96777421D01*
X152537998Y-96906674D01*
X152535300Y-96908251D01*
X152317943Y-97030710D01*
X152315196Y-97032201D01*
X152094087Y-97147735D01*
X152091294Y-97149139D01*
X152042555Y-97172678D01*
X151981932Y-97180959D01*
X151928020Y-97152026D01*
X151901411Y-97096929D01*
X151900500Y-97083530D01*
X151900500Y-96832946D01*
X151888338Y-96709467D01*
X151867751Y-96500441D01*
X151802569Y-96172749D01*
X151757055Y-96022708D01*
X151705585Y-95853032D01*
X151699606Y-95838596D01*
X151577723Y-95544346D01*
X151552750Y-95497625D01*
X151420226Y-95249687D01*
X151305001Y-95077242D01*
X151234601Y-94971882D01*
X151022643Y-94713610D01*
X150786390Y-94477357D01*
X150767761Y-94462069D01*
X150528119Y-94265400D01*
X150250312Y-94079773D01*
X149955672Y-93922286D01*
X149955660Y-93922280D01*
X149955654Y-93922277D01*
X149955649Y-93922274D01*
X149955645Y-93922273D01*
X149646967Y-93794414D01*
X149327253Y-93697431D01*
X149076849Y-93647623D01*
X148999559Y-93632249D01*
X148999557Y-93632248D01*
X148756491Y-93608308D01*
X148667056Y-93599500D01*
X148332944Y-93599500D01*
X148234700Y-93609176D01*
X148000444Y-93632248D01*
X147672746Y-93697431D01*
X147353032Y-93794414D01*
X147044354Y-93922273D01*
X147044327Y-93922286D01*
X146749687Y-94079773D01*
X146471880Y-94265400D01*
X146213615Y-94477352D01*
X145977352Y-94713615D01*
X145765400Y-94971880D01*
X145579773Y-95249687D01*
X145422286Y-95544327D01*
X145422273Y-95544354D01*
X145294414Y-95853032D01*
X145197431Y-96172746D01*
X145132248Y-96500444D01*
X145099500Y-96832946D01*
X145099500Y-97083384D01*
X145097116Y-97090719D01*
X145098365Y-97098330D01*
X145087838Y-97119275D01*
X145080593Y-97141575D01*
X145074352Y-97146108D01*
X145070890Y-97152999D01*
X145050062Y-97163756D01*
X145031093Y-97177539D01*
X145023380Y-97177539D01*
X145016528Y-97181078D01*
X144993354Y-97177539D01*
X144969907Y-97177539D01*
X144956043Y-97171841D01*
X144861360Y-97124255D01*
X144796251Y-97091532D01*
X144793526Y-97090108D01*
X144574261Y-96971094D01*
X144571545Y-96969564D01*
X144466626Y-96908251D01*
X144356149Y-96843689D01*
X144353476Y-96842070D01*
X144142176Y-96709467D01*
X144139555Y-96707764D01*
X143932539Y-96568552D01*
X143930007Y-96566791D01*
X143727409Y-96421057D01*
X143724944Y-96419223D01*
X143527133Y-96267230D01*
X143524685Y-96265287D01*
X143331760Y-96107117D01*
X143329374Y-96105097D01*
X143141548Y-95940924D01*
X143139227Y-95938830D01*
X142956665Y-95768796D01*
X142954412Y-95766630D01*
X142777307Y-95590918D01*
X142775124Y-95588682D01*
X142603686Y-95407501D01*
X142601573Y-95405197D01*
X142518260Y-95311386D01*
X142515874Y-95308699D01*
X142491372Y-95252635D01*
X142491423Y-95232774D01*
X142491549Y-95231565D01*
X142499503Y-95077257D01*
X142499503Y-94922743D01*
X142491549Y-94768435D01*
X142475661Y-94614741D01*
X142451883Y-94462069D01*
X142420277Y-94310823D01*
X142380927Y-94161404D01*
X142333938Y-94014209D01*
X142279433Y-93869629D01*
X142279429Y-93869621D01*
X142279425Y-93869609D01*
X142217559Y-93728050D01*
X142169675Y-93632249D01*
X142148476Y-93589836D01*
X142072370Y-93455365D01*
X141989444Y-93324991D01*
X141899916Y-93199059D01*
X141804023Y-93077902D01*
X141702021Y-92961842D01*
X141702015Y-92961835D01*
X141644546Y-92902867D01*
X141594180Y-92851187D01*
X141480785Y-92746231D01*
X141362137Y-92647250D01*
X141362136Y-92647249D01*
X141362121Y-92647237D01*
X141300492Y-92600991D01*
X141238552Y-92554510D01*
X141138272Y-92487037D01*
X141110361Y-92468257D01*
X140977884Y-92388708D01*
X140879781Y-92336474D01*
X140873821Y-92330295D01*
X140865742Y-92327400D01*
X140853003Y-92308713D01*
X140837304Y-92292437D01*
X140831281Y-92276851D01*
X140786339Y-92122972D01*
X140785510Y-92119959D01*
X140754789Y-92000934D01*
X140723155Y-91878369D01*
X140722429Y-91875359D01*
X140667731Y-91631923D01*
X140667111Y-91628944D01*
X140620119Y-91383858D01*
X140619591Y-91380847D01*
X140580355Y-91134384D01*
X140579927Y-91131387D01*
X140548494Y-90883829D01*
X140548160Y-90880826D01*
X140524560Y-90632409D01*
X140524315Y-90629317D01*
X140508568Y-90380281D01*
X140508425Y-90377253D01*
X140500539Y-90127607D01*
X140500492Y-90124946D01*
X140500001Y-90000253D01*
X140500001Y-89999746D01*
X140500492Y-89875052D01*
X140500539Y-89872394D01*
X140508425Y-89622743D01*
X140508568Y-89619721D01*
X140524317Y-89370650D01*
X140524562Y-89367567D01*
X140548161Y-89119166D01*
X140548493Y-89116177D01*
X140579928Y-88868603D01*
X140580353Y-88865624D01*
X140619592Y-88619141D01*
X140620117Y-88616152D01*
X140667114Y-88371042D01*
X140667728Y-88368089D01*
X140722435Y-88124612D01*
X140723151Y-88121644D01*
X140785518Y-87880009D01*
X140786339Y-87877027D01*
X140856298Y-87637493D01*
X140857181Y-87634640D01*
X140934680Y-87397398D01*
X140935664Y-87394539D01*
X141020599Y-87159903D01*
X141021708Y-87156986D01*
X141067407Y-87042198D01*
X141113995Y-86925176D01*
X141115164Y-86922370D01*
X141214764Y-86693498D01*
X141215999Y-86690781D01*
X141322761Y-86465196D01*
X141324082Y-86462514D01*
X141437909Y-86240416D01*
X141439366Y-86237681D01*
X141499236Y-86129427D01*
X141560135Y-86019312D01*
X141561658Y-86016660D01*
X141689255Y-85802219D01*
X141690847Y-85799638D01*
X141825142Y-85589345D01*
X141826829Y-85586792D01*
X141967749Y-85380767D01*
X141969481Y-85378319D01*
X142116809Y-85176881D01*
X142118623Y-85174481D01*
X142272251Y-84977774D01*
X142274156Y-84975413D01*
X142433871Y-84783711D01*
X142435907Y-84781345D01*
X142518261Y-84688613D01*
X142601609Y-84594762D01*
X142603649Y-84592537D01*
X142775144Y-84411296D01*
X142777287Y-84409101D01*
X142954420Y-84233361D01*
X142956665Y-84231203D01*
X143049853Y-84144410D01*
X143139253Y-84061145D01*
X143141522Y-84059098D01*
X143329397Y-83894881D01*
X143331736Y-83892901D01*
X143524720Y-83734684D01*
X143527097Y-83732797D01*
X143724988Y-83580742D01*
X143727369Y-83578971D01*
X143930048Y-83433178D01*
X143932503Y-83431471D01*
X144139578Y-83292220D01*
X144142153Y-83290546D01*
X144353523Y-83157900D01*
X144356103Y-83156337D01*
X144571600Y-83030403D01*
X144574213Y-83028931D01*
X144793576Y-82909864D01*
X144796201Y-82908492D01*
X145019259Y-82796386D01*
X145021964Y-82795080D01*
X145248338Y-82690124D01*
X145251147Y-82688875D01*
X145480768Y-82591097D01*
X145483561Y-82589960D01*
X145716138Y-82499485D01*
X145719020Y-82498417D01*
X145954319Y-82415337D01*
X145957205Y-82414370D01*
X146194994Y-82338764D01*
X146197934Y-82337879D01*
X146438054Y-82269800D01*
X146440944Y-82269030D01*
X146683110Y-82208561D01*
X146686029Y-82207881D01*
X146929964Y-82155092D01*
X146932911Y-82154502D01*
X147178376Y-82109442D01*
X147181384Y-82108939D01*
X147428138Y-82071651D01*
X147431167Y-82071242D01*
X147678931Y-82041769D01*
X147682023Y-82041450D01*
X147930612Y-82019812D01*
X147933611Y-82019599D01*
X148182822Y-82005815D01*
X148185847Y-82005695D01*
X148435292Y-81999787D01*
X148438384Y-81999763D01*
X148687914Y-82001732D01*
G37*
%TD.AperFunction*%
%TD*%
M02*
