M48
; DRILL file {KiCad 9.0.7+1} date 2026-04-25T08:01:43+0000
; FORMAT={-:-/ absolute / metric / decimal}
; #@! TF.CreationDate,2026-04-25T08:01:43+00:00
; #@! TF.GenerationSoftware,Kicad,Pcbnew,9.0.7+1
; #@! TF.FileFunction,Plated,1,2,PTH
FMAT,2
METRIC
; #@! TA.AperFunction,Plated,PTH,ViaDrill
T1C0.250
; #@! TA.AperFunction,Plated,PTH,ComponentDrill
T2C0.500
; #@! TA.AperFunction,Plated,PTH,ComponentDrill
T3C3.200
%
G90
G05
T1
X130.5Y-76.0
X130.5Y-77.0
X130.5Y-78.0
X130.5Y-80.0
X130.5Y-81.0
X130.5Y-82.0
X130.5Y-83.0
X130.5Y-84.0
X130.5Y-85.0
X130.5Y-86.0
X130.5Y-87.0
X130.5Y-88.0
X130.5Y-102.0
X130.5Y-103.0
X130.5Y-104.0
X131.0Y-90.5
X131.0Y-91.5
X131.0Y-92.5
X131.0Y-93.5
X131.0Y-94.5
X131.0Y-95.5
X131.5Y-76.0
X131.5Y-77.0
X131.5Y-78.0
X131.5Y-80.0
X131.5Y-81.0
X131.5Y-82.0
X131.5Y-83.0
X131.5Y-84.0
X131.5Y-88.0
X131.5Y-102.0
X131.5Y-103.0
X131.5Y-104.0
X132.0Y-96.5
X132.5Y-80.0
X132.5Y-84.0
X132.5Y-88.0
X133.0Y-97.5
X133.5Y-88.0
X134.0Y-97.5
X134.5Y-73.0
X134.5Y-88.0
X134.5Y-107.0
X134.5Y-108.0
X135.0Y-97.5
X135.5Y-107.0
X135.5Y-108.0
X136.0Y-97.5
X136.5Y-73.0
X136.5Y-91.0
X136.5Y-107.0
X136.5Y-108.0
X137.0Y-97.5
X137.5Y-73.0
X137.5Y-91.0
X138.0Y-97.5
X138.0Y-106.5
X138.5Y-73.0
X138.5Y-91.0
X138.5Y-107.0
X139.0Y-97.5
X139.0Y-105.5
X139.5Y-73.0
X139.5Y-74.0
X139.5Y-75.0
X139.5Y-76.0
X139.5Y-77.0
X139.5Y-78.0
X139.5Y-79.0
X139.5Y-84.0
X139.5Y-85.0
X139.5Y-86.0
X139.5Y-87.0
X139.5Y-88.0
X139.5Y-89.0
X139.5Y-90.0
X139.5Y-91.0
X139.5Y-106.0
X140.0Y-97.5
X140.5Y-83.0
X141.0Y-97.5
X141.5Y-82.0
X142.0Y-97.5
X142.5Y-79.0
X142.5Y-81.0
X142.5Y-104.0
X143.0Y-97.5
X143.5Y-79.0
X143.5Y-81.0
X143.5Y-95.0
X143.5Y-104.0
X144.0Y-97.5
X144.5Y-79.0
X144.5Y-81.0
X144.5Y-95.0
X145.0Y-97.5
X145.5Y-79.0
X145.5Y-81.0
X146.5Y-81.0
X147.5Y-81.0
X148.5Y-81.0
X148.5Y-107.0
X149.5Y-81.0
X150.5Y-81.0
X151.5Y-79.0
X151.5Y-81.0
X152.5Y-79.0
X152.5Y-81.0
X152.5Y-99.0
X153.5Y-79.0
X153.5Y-81.0
X153.5Y-99.0
X154.5Y-79.0
X154.5Y-81.0
X154.5Y-98.0
X154.5Y-104.0
X155.5Y-82.0
X155.5Y-97.0
X155.5Y-104.0
X156.5Y-83.0
X156.5Y-96.0
X157.5Y-73.0
X157.5Y-74.0
X157.5Y-75.0
X157.5Y-76.0
X157.5Y-77.0
X157.5Y-78.0
X157.5Y-84.0
X157.5Y-85.0
X157.5Y-86.0
X157.5Y-87.0
X157.5Y-88.0
X157.5Y-89.0
X157.5Y-90.0
X157.5Y-91.0
X157.5Y-92.0
X157.5Y-93.0
X157.5Y-94.0
X157.5Y-95.0
X157.5Y-106.0
X158.0Y-105.5
X158.5Y-73.0
X158.5Y-107.0
X159.0Y-106.5
X159.5Y-73.0
X160.0Y-95.0
X160.0Y-96.0
X160.5Y-73.0
X160.5Y-107.0
X161.5Y-73.0
X161.5Y-107.0
X162.5Y-73.0
X162.5Y-81.0
X162.5Y-85.0
X162.5Y-107.0
X163.0Y-95.0
X163.0Y-96.0
X163.0Y-97.0
X163.0Y-98.0
X163.0Y-99.0
X163.5Y-81.0
X163.5Y-85.0
X164.5Y-81.0
X164.5Y-82.0
X164.5Y-83.0
X164.5Y-84.0
X164.5Y-85.0
X165.5Y-76.0
X165.5Y-78.0
X165.5Y-79.0
X165.5Y-80.0
X165.5Y-81.0
X165.5Y-82.0
X165.5Y-83.0
X165.5Y-84.0
X165.5Y-85.0
X165.5Y-86.0
X165.5Y-87.0
X165.5Y-88.0
X165.5Y-89.0
X165.5Y-102.0
X165.5Y-103.0
X165.5Y-104.0
T2
X133.1Y-77.0
X133.1Y-103.0
X133.803Y-75.303
X133.803Y-78.697
X133.803Y-101.303
X133.803Y-104.697
X135.5Y-74.6
X135.5Y-79.4
X135.5Y-100.6
X135.5Y-105.4
X137.197Y-75.303
X137.197Y-78.697
X137.197Y-101.303
X137.197Y-104.697
X137.9Y-77.0
X137.9Y-103.0
X146.1Y-100.0
X146.803Y-98.303
X146.803Y-101.697
X148.5Y-97.6
X148.5Y-102.4
X150.197Y-98.303
X150.197Y-101.697
X150.9Y-100.0
X159.1Y-77.0
X159.1Y-103.0
X159.803Y-75.303
X159.803Y-78.697
X159.803Y-101.303
X159.803Y-104.697
X161.5Y-74.6
X161.5Y-79.4
X161.5Y-100.6
X161.5Y-105.4
X163.197Y-75.303
X163.197Y-78.697
X163.197Y-101.303
X163.197Y-104.697
X163.9Y-77.0
X163.9Y-103.0
T3
X135.5Y-77.0
X135.5Y-103.0
X148.5Y-100.0
X161.5Y-77.0
X161.5Y-103.0
M30
