%TF.GenerationSoftware,KiCad,Pcbnew,9.0.7+1*%
%TF.CreationDate,Date%
%TF.ProjectId,Sienkiewicz_TOUCH,5369656e-6b69-4657-9769-637a5f544f55,+ (Unreleased)*%
%TF.SameCoordinates,Original*%
%TF.FileFunction,Copper,L2,Bot*%
%TF.FilePolarity,Positive*%
%FSLAX46Y46*%
G04 Gerber Fmt 4.6, Leading zero omitted, Abs format (unit mm)*
G04 Created by KiCad*
%MOMM*%
%LPD*%
G01*
G04 APERTURE LIST*
%TA.AperFunction,Conductor*%
%ADD10C,0.400000*%
%TD*%
%TA.AperFunction,ComponentPad*%
%ADD11C,0.800000*%
%TD*%
%TA.AperFunction,ComponentPad*%
%ADD12C,6.400000*%
%TD*%
%TA.AperFunction,SMDPad,CuDef*%
%ADD13C,4.000000*%
%TD*%
%TA.AperFunction,ViaPad*%
%ADD14C,0.550000*%
%TD*%
%TA.AperFunction,Conductor*%
%ADD15C,0.200000*%
%TD*%
G04 APERTURE END LIST*
D10*
%TO.N,VCC*%
X152000000Y-103500000D02*
G75*
G02*
X153500000Y-105000000I0J-1500000D01*
G01*
X166500000Y-103000000D02*
G75*
G02*
X161500000Y-108000000I-5000000J0D01*
G01*
X165500000Y-77000000D02*
G75*
G02*
X166500000Y-78000000I0J-1000000D01*
G01*
X155000000Y-108000000D02*
G75*
G02*
X153500000Y-106500000I0J1500000D01*
G01*
%TD*%
D11*
%TO.P,B1,1,SDI*%
%TO.N,/Project Architecture/Section B - uC/SR_SDI*%
X133100000Y-77000000D03*
X133802944Y-75302944D03*
X133802944Y-78697056D03*
X135500000Y-74600000D03*
D12*
X135500000Y-77000000D03*
D11*
X135500000Y-79400000D03*
X137197056Y-75302944D03*
X137197056Y-78697056D03*
X137900000Y-77000000D03*
%TO.P,B1,2,VCC*%
%TO.N,VCC*%
X159100000Y-77000000D03*
X159802944Y-75302944D03*
X159802944Y-78697056D03*
X161500000Y-74600000D03*
D12*
X161500000Y-77000000D03*
D11*
X161500000Y-79400000D03*
X163197056Y-75302944D03*
X163197056Y-78697056D03*
X163900000Y-77000000D03*
%TO.P,B1,3,GND*%
%TO.N,GND*%
X159100000Y-103000000D03*
X159802944Y-101302944D03*
X159802944Y-104697056D03*
X161500000Y-100600000D03*
D12*
X161500000Y-103000000D03*
D11*
X161500000Y-105400000D03*
X163197056Y-101302944D03*
X163197056Y-104697056D03*
X163900000Y-103000000D03*
%TO.P,B1,4,CLK*%
%TO.N,/Project Architecture/Section B - uC/SR_CLK*%
X133100000Y-103000000D03*
X133802944Y-101302944D03*
X133802944Y-104697056D03*
X135500000Y-100600000D03*
D12*
X135500000Y-103000000D03*
D11*
X135500000Y-105400000D03*
X137197056Y-101302944D03*
X137197056Y-104697056D03*
X137900000Y-103000000D03*
%TO.P,B1,5,LATCH*%
%TO.N,/Project Architecture/Section B - uC/SR_LATCH*%
X146100000Y-97000000D03*
X146802944Y-95302944D03*
X146802944Y-98697056D03*
X148500000Y-94600000D03*
D12*
X148500000Y-97000000D03*
D11*
X148500000Y-99400000D03*
X150197056Y-95302944D03*
X150197056Y-98697056D03*
X150900000Y-97000000D03*
%TD*%
D13*
%TO.P,TouP1,1,TOUCH*%
%TO.N,/Project Architecture/Section C - Touch sensor/TOUCH*%
X148500000Y-90000000D03*
%TD*%
D14*
%TO.N,GND*%
X164500000Y-82000000D03*
X139500000Y-84000000D03*
X162500000Y-81000000D03*
X165500000Y-88000000D03*
X148500000Y-76000000D03*
X130500000Y-102000000D03*
X135500000Y-82000000D03*
X165500000Y-89000000D03*
X141500000Y-78500000D03*
X139500000Y-78500000D03*
X140500000Y-78500000D03*
X157500000Y-78500000D03*
X133500000Y-88000000D03*
X165500000Y-86000000D03*
X165500000Y-104000000D03*
X157500000Y-85000000D03*
X142500000Y-99000000D03*
X157500000Y-84000000D03*
X140500000Y-74500000D03*
X164500000Y-95000000D03*
X165500000Y-100000000D03*
X156500000Y-98000000D03*
X157500000Y-107000000D03*
X165500000Y-84000000D03*
X161500000Y-73000000D03*
X157500000Y-88000000D03*
X141500000Y-99000000D03*
X155500000Y-78500000D03*
X130500000Y-86000000D03*
X163500000Y-85000000D03*
X138500000Y-99000000D03*
X133500000Y-84000000D03*
X147500000Y-73000000D03*
X140500000Y-108000000D03*
X135500000Y-108000000D03*
X164500000Y-81000000D03*
X157500000Y-95000000D03*
X164500000Y-84000000D03*
X165500000Y-87000000D03*
X136500000Y-73000000D03*
X130500000Y-76000000D03*
X160500000Y-99000000D03*
X131500000Y-77000000D03*
X130500000Y-104000000D03*
X145500000Y-100000000D03*
X134500000Y-82000000D03*
X165500000Y-82000000D03*
X164500000Y-83000000D03*
X143500000Y-99000000D03*
X137500000Y-99000000D03*
X131500000Y-100000000D03*
X142500000Y-81000000D03*
X156500000Y-74500000D03*
X160500000Y-73000000D03*
X161500000Y-98000000D03*
X149500000Y-75000000D03*
X137500000Y-91000000D03*
X136500000Y-91000000D03*
X163500000Y-81000000D03*
X134500000Y-72000000D03*
X140500000Y-104000000D03*
X157500000Y-92000000D03*
X134500000Y-84000000D03*
X146500000Y-74000000D03*
X136500000Y-108000000D03*
X137500000Y-108000000D03*
X165500000Y-83000000D03*
X130500000Y-77000000D03*
X134500000Y-108000000D03*
X130500000Y-84000000D03*
X135500000Y-99000000D03*
X137500000Y-89000000D03*
X154500000Y-81000000D03*
X157500000Y-86000000D03*
X139500000Y-108000000D03*
X155500000Y-104000000D03*
X157500000Y-106000000D03*
X165500000Y-98000000D03*
X155500000Y-82000000D03*
X144500000Y-100000000D03*
X157500000Y-93000000D03*
X157500000Y-94000000D03*
X163500000Y-95000000D03*
X135500000Y-72000000D03*
X151500000Y-73000000D03*
X157500000Y-87000000D03*
X131500000Y-78000000D03*
X132500000Y-84000000D03*
X157500000Y-105000000D03*
X156500000Y-83000000D03*
X130500000Y-89000000D03*
X139500000Y-99000000D03*
X148500000Y-74000000D03*
X162500000Y-97000000D03*
X141500000Y-108000000D03*
X157500000Y-102000000D03*
X163500000Y-96000000D03*
X165500000Y-76000000D03*
X134500000Y-73000000D03*
X165500000Y-90000000D03*
X165500000Y-81000000D03*
X130500000Y-78000000D03*
X139500000Y-74500000D03*
X164500000Y-85000000D03*
X141500000Y-82000000D03*
X157500000Y-97000000D03*
X134500000Y-81000000D03*
X136500000Y-81000000D03*
X165500000Y-96000000D03*
X130500000Y-87000000D03*
X137500000Y-87000000D03*
X131500000Y-84000000D03*
X140500000Y-83000000D03*
X159500000Y-100000000D03*
X165500000Y-80000000D03*
X136500000Y-72000000D03*
X165500000Y-78000000D03*
X157500000Y-104000000D03*
X165500000Y-85000000D03*
X130500000Y-103000000D03*
X132500000Y-88000000D03*
X157500000Y-74500000D03*
X141500000Y-104000000D03*
X165500000Y-91000000D03*
X157500000Y-96000000D03*
X158500000Y-101000000D03*
X138500000Y-91000000D03*
X165500000Y-103000000D03*
X165500000Y-99000000D03*
X155500000Y-99000000D03*
X131500000Y-88000000D03*
X141500000Y-74500000D03*
X140500000Y-99000000D03*
X165500000Y-97000000D03*
X138500000Y-108000000D03*
X165500000Y-79000000D03*
X130500000Y-88000000D03*
X165500000Y-95000000D03*
X165500000Y-102000000D03*
X160500000Y-107000000D03*
X149500000Y-73000000D03*
X156500000Y-78500000D03*
X157500000Y-103000000D03*
X150500000Y-74000000D03*
X162500000Y-107000000D03*
X137500000Y-88000000D03*
X156500000Y-104000000D03*
X155500000Y-74500000D03*
X162500000Y-73000000D03*
X165500000Y-94000000D03*
X147500000Y-75000000D03*
X136500000Y-82000000D03*
X134500000Y-88000000D03*
X135500000Y-81000000D03*
X165500000Y-101000000D03*
X162500000Y-85000000D03*
X145500000Y-73000000D03*
X130500000Y-85000000D03*
X135500000Y-73000000D03*
X161500000Y-107000000D03*
X136500000Y-99000000D03*
X131500000Y-99000000D03*
X131500000Y-76000000D03*
%TO.N,/Project Architecture/Section C - Touch sensor/TOUCH*%
X139500000Y-95000000D03*
%TO.N,VCC*%
X145500000Y-103000000D03*
X146500000Y-103000000D03*
X146500000Y-104000000D03*
X147500000Y-104000000D03*
X147500000Y-103000000D03*
X145500000Y-104000000D03*
%TD*%
D15*
%TO.N,/Project Architecture/Section C - Touch sensor/TOUCH*%
X143000000Y-91500000D02*
X144500000Y-90000000D01*
X143000000Y-91500000D02*
X143500000Y-91000000D01*
X144500000Y-90000000D02*
X148500000Y-90000000D01*
X141500000Y-93000000D02*
X143000000Y-91500000D01*
X139500000Y-95000000D02*
X141500000Y-93000000D01*
D10*
%TO.N,VCC*%
X166500000Y-103000000D02*
X166500000Y-78000000D01*
X147500000Y-103500000D02*
X147500000Y-104000000D01*
X161500000Y-108000000D02*
X155000000Y-108000000D01*
X147500000Y-103500000D02*
X152000000Y-103500000D01*
X165500000Y-77000000D02*
X161500000Y-77000000D01*
X153500000Y-105000000D02*
X153500000Y-106500000D01*
D15*
X161500000Y-77000000D02*
X163900000Y-77000000D01*
D10*
X147500000Y-103000000D02*
X147500000Y-103500000D01*
%TD*%
%TA.AperFunction,Conductor*%
%TO.N,GND*%
G36*
X161501934Y-71250576D02*
G01*
X161947225Y-71268071D01*
X161954956Y-71268680D01*
X162395572Y-71320830D01*
X162403217Y-71322041D01*
X162838394Y-71408603D01*
X162845928Y-71410412D01*
X163272958Y-71530847D01*
X163280329Y-71533242D01*
X163696608Y-71686816D01*
X163703762Y-71689779D01*
X164106701Y-71875536D01*
X164113597Y-71879050D01*
X164500719Y-72095848D01*
X164507326Y-72099897D01*
X164745413Y-72258982D01*
X164876241Y-72346399D01*
X164882529Y-72350968D01*
X165230943Y-72625635D01*
X165236854Y-72630683D01*
X165562653Y-72931849D01*
X165568150Y-72937346D01*
X165869316Y-73263145D01*
X165874364Y-73269056D01*
X166149031Y-73617470D01*
X166153600Y-73623758D01*
X166400095Y-73992662D01*
X166404155Y-73999288D01*
X166553184Y-74265399D01*
X166620941Y-74386387D01*
X166624468Y-74393309D01*
X166772131Y-74713615D01*
X166810214Y-74796224D01*
X166813189Y-74803405D01*
X166966753Y-75219659D01*
X166969155Y-75227052D01*
X167089584Y-75654059D01*
X167091399Y-75661618D01*
X167177955Y-76096765D01*
X167179171Y-76104443D01*
X167231318Y-76545034D01*
X167231928Y-76552783D01*
X167249424Y-76998065D01*
X167249500Y-77001952D01*
X167249500Y-102998047D01*
X167249424Y-103001934D01*
X167231928Y-103447216D01*
X167231318Y-103454965D01*
X167179171Y-103895556D01*
X167177955Y-103903234D01*
X167091399Y-104338381D01*
X167089584Y-104345940D01*
X166969155Y-104772947D01*
X166966753Y-104780340D01*
X166813189Y-105196594D01*
X166810214Y-105203775D01*
X166624470Y-105606686D01*
X166620941Y-105613612D01*
X166404157Y-106000708D01*
X166400095Y-106007337D01*
X166153600Y-106376241D01*
X166149031Y-106382529D01*
X165874364Y-106730943D01*
X165869316Y-106736854D01*
X165568150Y-107062653D01*
X165562653Y-107068150D01*
X165236854Y-107369316D01*
X165230943Y-107374364D01*
X164882529Y-107649031D01*
X164876241Y-107653600D01*
X164507337Y-107900095D01*
X164500708Y-107904157D01*
X164113612Y-108120941D01*
X164106686Y-108124470D01*
X163703775Y-108310214D01*
X163696594Y-108313189D01*
X163280340Y-108466753D01*
X163272947Y-108469155D01*
X162845940Y-108589584D01*
X162838381Y-108591399D01*
X162403234Y-108677955D01*
X162395556Y-108679171D01*
X161954965Y-108731318D01*
X161947216Y-108731928D01*
X161501934Y-108749424D01*
X161498047Y-108749500D01*
X135501953Y-108749500D01*
X135498066Y-108749424D01*
X135052783Y-108731928D01*
X135045034Y-108731318D01*
X134604443Y-108679171D01*
X134596765Y-108677955D01*
X134161618Y-108591399D01*
X134154059Y-108589584D01*
X133727052Y-108469155D01*
X133719659Y-108466753D01*
X133303405Y-108313189D01*
X133296224Y-108310214D01*
X133252548Y-108290079D01*
X132893309Y-108124468D01*
X132886392Y-108120943D01*
X132499288Y-107904155D01*
X132492662Y-107900095D01*
X132123758Y-107653600D01*
X132117470Y-107649031D01*
X131769056Y-107374364D01*
X131763145Y-107369316D01*
X131437346Y-107068150D01*
X131431849Y-107062653D01*
X131382999Y-107009807D01*
X131325372Y-106947467D01*
X150344200Y-106947467D01*
X150344200Y-107084532D01*
X150360518Y-107166566D01*
X150369727Y-107212866D01*
X150370939Y-107218956D01*
X150370939Y-107218958D01*
X150423387Y-107345580D01*
X150423393Y-107345591D01*
X150469202Y-107414148D01*
X150499537Y-107459547D01*
X150596453Y-107556463D01*
X150660298Y-107599123D01*
X150710408Y-107632606D01*
X150710419Y-107632612D01*
X150750059Y-107649031D01*
X150837043Y-107685061D01*
X150971470Y-107711800D01*
X150971471Y-107711800D01*
X151108529Y-107711800D01*
X151108530Y-107711800D01*
X151242957Y-107685061D01*
X151369585Y-107632610D01*
X151483547Y-107556463D01*
X151580463Y-107459547D01*
X151656610Y-107345585D01*
X151709061Y-107218957D01*
X151735800Y-107084530D01*
X151735800Y-106947470D01*
X151709061Y-106813043D01*
X151661942Y-106699288D01*
X151656612Y-106686419D01*
X151656606Y-106686408D01*
X151609969Y-106616612D01*
X151580463Y-106572453D01*
X151483547Y-106475537D01*
X151435669Y-106443546D01*
X151369591Y-106399393D01*
X151369580Y-106399387D01*
X151242957Y-106346939D01*
X151108532Y-106320200D01*
X151108530Y-106320200D01*
X150971470Y-106320200D01*
X150971467Y-106320200D01*
X150837043Y-106346939D01*
X150837041Y-106346939D01*
X150710419Y-106399387D01*
X150710408Y-106399393D01*
X150596453Y-106475537D01*
X150596449Y-106475540D01*
X150499540Y-106572449D01*
X150499537Y-106572453D01*
X150423393Y-106686408D01*
X150423387Y-106686419D01*
X150370939Y-106813041D01*
X150370939Y-106813043D01*
X150344200Y-106947467D01*
X131325372Y-106947467D01*
X131130683Y-106736854D01*
X131125635Y-106730943D01*
X130850968Y-106382529D01*
X130846399Y-106376241D01*
X130732368Y-106205582D01*
X130599897Y-106007326D01*
X130595848Y-106000719D01*
X130379050Y-105613597D01*
X130375536Y-105606701D01*
X130189779Y-105203762D01*
X130186816Y-105196608D01*
X130033242Y-104780329D01*
X130030847Y-104772958D01*
X129910412Y-104345928D01*
X129908603Y-104338394D01*
X129822041Y-103903217D01*
X129820830Y-103895572D01*
X129768680Y-103454956D01*
X129768071Y-103447216D01*
X129766860Y-103416403D01*
X129750576Y-103001934D01*
X129750500Y-102998047D01*
X129750500Y-102832946D01*
X132099500Y-102832946D01*
X132099500Y-103167053D01*
X132132248Y-103499555D01*
X132197431Y-103827253D01*
X132294414Y-104146967D01*
X132422273Y-104455645D01*
X132422286Y-104455672D01*
X132579773Y-104750312D01*
X132690130Y-104915471D01*
X132765399Y-105028118D01*
X132977357Y-105286390D01*
X133213610Y-105522643D01*
X133471882Y-105734601D01*
X133565330Y-105797041D01*
X133749687Y-105920226D01*
X134044327Y-106077713D01*
X134044346Y-106077723D01*
X134353024Y-106205582D01*
X134353026Y-106205582D01*
X134353032Y-106205585D01*
X134629376Y-106289412D01*
X134672749Y-106302569D01*
X135000441Y-106367751D01*
X135332944Y-106400500D01*
X135332947Y-106400500D01*
X135667053Y-106400500D01*
X135667056Y-106400500D01*
X135999559Y-106367751D01*
X136327251Y-106302569D01*
X136516857Y-106245052D01*
X136646967Y-106205585D01*
X136646969Y-106205583D01*
X136646976Y-106205582D01*
X136955654Y-106077723D01*
X137099739Y-106000708D01*
X137229281Y-105931467D01*
X145264200Y-105931467D01*
X145264200Y-106068532D01*
X145290939Y-106202956D01*
X145290939Y-106202958D01*
X145343387Y-106329580D01*
X145343393Y-106329591D01*
X145378766Y-106382529D01*
X145419537Y-106443547D01*
X145516453Y-106540463D01*
X145584394Y-106585860D01*
X145630408Y-106616606D01*
X145630419Y-106616612D01*
X145649620Y-106624565D01*
X145757043Y-106669061D01*
X145891470Y-106695800D01*
X145891471Y-106695800D01*
X146028529Y-106695800D01*
X146028530Y-106695800D01*
X146162957Y-106669061D01*
X146289585Y-106616610D01*
X146403547Y-106540463D01*
X146500463Y-106443547D01*
X146576610Y-106329585D01*
X146629061Y-106202957D01*
X146655800Y-106068530D01*
X146655800Y-105931470D01*
X146629061Y-105797043D01*
X146603196Y-105734599D01*
X146576612Y-105670419D01*
X146576606Y-105670408D01*
X146538655Y-105613612D01*
X146500463Y-105556453D01*
X146403547Y-105459537D01*
X146355669Y-105427546D01*
X146289591Y-105383393D01*
X146289580Y-105383387D01*
X146162957Y-105330939D01*
X146028532Y-105304200D01*
X146028530Y-105304200D01*
X145891470Y-105304200D01*
X145891467Y-105304200D01*
X145757043Y-105330939D01*
X145757041Y-105330939D01*
X145630419Y-105383387D01*
X145630408Y-105383393D01*
X145516453Y-105459537D01*
X145516449Y-105459540D01*
X145419540Y-105556449D01*
X145419537Y-105556453D01*
X145343393Y-105670408D01*
X145343387Y-105670419D01*
X145290939Y-105797041D01*
X145290939Y-105797043D01*
X145264200Y-105931467D01*
X137229281Y-105931467D01*
X137250312Y-105920226D01*
X137363957Y-105844291D01*
X137434670Y-105797041D01*
X137528118Y-105734601D01*
X137786390Y-105522643D01*
X138022643Y-105286390D01*
X138234601Y-105028118D01*
X138309872Y-104915467D01*
X150344200Y-104915467D01*
X150344200Y-105052532D01*
X150370939Y-105186956D01*
X150370939Y-105186958D01*
X150423387Y-105313580D01*
X150423393Y-105313591D01*
X150463696Y-105373907D01*
X150499537Y-105427547D01*
X150596453Y-105524463D01*
X150664394Y-105569860D01*
X150710408Y-105600606D01*
X150710419Y-105600612D01*
X150757193Y-105619986D01*
X150837043Y-105653061D01*
X150971470Y-105679800D01*
X150971471Y-105679800D01*
X151108529Y-105679800D01*
X151108530Y-105679800D01*
X151242957Y-105653061D01*
X151369585Y-105600610D01*
X151483547Y-105524463D01*
X151580463Y-105427547D01*
X151656610Y-105313585D01*
X151709061Y-105186957D01*
X151735800Y-105052530D01*
X151735800Y-104915470D01*
X151709061Y-104781043D01*
X151677769Y-104705497D01*
X151656612Y-104654419D01*
X151656606Y-104654408D01*
X151606536Y-104579474D01*
X151580463Y-104540453D01*
X151483547Y-104443537D01*
X151422327Y-104402631D01*
X151369591Y-104367393D01*
X151369580Y-104367387D01*
X151242957Y-104314939D01*
X151108532Y-104288200D01*
X151108530Y-104288200D01*
X150971470Y-104288200D01*
X150971467Y-104288200D01*
X150837043Y-104314939D01*
X150837041Y-104314939D01*
X150710419Y-104367387D01*
X150710408Y-104367393D01*
X150596453Y-104443537D01*
X150596449Y-104443540D01*
X150499540Y-104540449D01*
X150499537Y-104540453D01*
X150423393Y-104654408D01*
X150423387Y-104654419D01*
X150370939Y-104781041D01*
X150370939Y-104781043D01*
X150344200Y-104915467D01*
X138309872Y-104915467D01*
X138420224Y-104750315D01*
X138444185Y-104705488D01*
X138511544Y-104579466D01*
X138577723Y-104455654D01*
X138705582Y-104146976D01*
X138802569Y-103827251D01*
X138867751Y-103499559D01*
X138900500Y-103167056D01*
X138900500Y-103000679D01*
X144794500Y-103000679D01*
X144794500Y-103999320D01*
X144794503Y-104000504D01*
X144794504Y-104000646D01*
X144794510Y-104001763D01*
X144794520Y-104002899D01*
X144794756Y-104024105D01*
X144795034Y-104031716D01*
X144795135Y-104034468D01*
X144795137Y-104034503D01*
X144795905Y-104046933D01*
X144796809Y-104057315D01*
X144801608Y-104099901D01*
X144801611Y-104099921D01*
X144801612Y-104099930D01*
X144803225Y-104111351D01*
X144805553Y-104125050D01*
X144805554Y-104125053D01*
X144805556Y-104125064D01*
X144807800Y-104136351D01*
X144817187Y-104177480D01*
X144820066Y-104188643D01*
X144823911Y-104201988D01*
X144823916Y-104202005D01*
X144823917Y-104202007D01*
X144827418Y-104212992D01*
X144841355Y-104252821D01*
X144845467Y-104263592D01*
X144850789Y-104276440D01*
X144850793Y-104276449D01*
X144855499Y-104286968D01*
X144873810Y-104324987D01*
X144879091Y-104335212D01*
X144879097Y-104335222D01*
X144885822Y-104347390D01*
X144891679Y-104357318D01*
X144891688Y-104357333D01*
X144914114Y-104393025D01*
X144920532Y-104402631D01*
X144928573Y-104413964D01*
X144935500Y-104423170D01*
X144950511Y-104441992D01*
X144961820Y-104456173D01*
X144961827Y-104456181D01*
X144969257Y-104464980D01*
X144969261Y-104464984D01*
X144978527Y-104475352D01*
X144986442Y-104483723D01*
X145016276Y-104513557D01*
X145016294Y-104513574D01*
X145016295Y-104513575D01*
X145024645Y-104521470D01*
X145035018Y-104530741D01*
X145039758Y-104534743D01*
X145043826Y-104538179D01*
X145062639Y-104553182D01*
X145076828Y-104564498D01*
X145086034Y-104571425D01*
X145097367Y-104579466D01*
X145106973Y-104585884D01*
X145142665Y-104608310D01*
X145142681Y-104608320D01*
X145152609Y-104614177D01*
X145164386Y-104620686D01*
X145164786Y-104620907D01*
X145169457Y-104623319D01*
X145175016Y-104626191D01*
X145187732Y-104632315D01*
X145213030Y-104644499D01*
X145218550Y-104646968D01*
X145223559Y-104649210D01*
X145236407Y-104654532D01*
X145247178Y-104658644D01*
X145287007Y-104672581D01*
X145297992Y-104676082D01*
X145303238Y-104677593D01*
X145311355Y-104679932D01*
X145322518Y-104682811D01*
X145339789Y-104686752D01*
X145363653Y-104692199D01*
X145374954Y-104694447D01*
X145388661Y-104696776D01*
X145400075Y-104698388D01*
X145442700Y-104703191D01*
X145453032Y-104704092D01*
X145465522Y-104704864D01*
X145475891Y-104705242D01*
X145496980Y-104705479D01*
X145498106Y-104705489D01*
X145499496Y-104705497D01*
X145500679Y-104705500D01*
X145500823Y-104705500D01*
X147499177Y-104705500D01*
X147499321Y-104705500D01*
X147500505Y-104705497D01*
X147501894Y-104705489D01*
X147503019Y-104705479D01*
X147524108Y-104705242D01*
X147534477Y-104704864D01*
X147546967Y-104704092D01*
X147557299Y-104703191D01*
X147599924Y-104698388D01*
X147611338Y-104696776D01*
X147625045Y-104694447D01*
X147636346Y-104692199D01*
X147677480Y-104682811D01*
X147688643Y-104679932D01*
X147702007Y-104676082D01*
X147712992Y-104672581D01*
X147752821Y-104658644D01*
X147763592Y-104654532D01*
X147776440Y-104649210D01*
X147786961Y-104644502D01*
X147786968Y-104644499D01*
X147796734Y-104639795D01*
X147824983Y-104626191D01*
X147835222Y-104620902D01*
X147847390Y-104614177D01*
X147857318Y-104608320D01*
X147893041Y-104585874D01*
X147902620Y-104579474D01*
X147913962Y-104571427D01*
X147923179Y-104564491D01*
X147956173Y-104538179D01*
X147964984Y-104530738D01*
X147975352Y-104521472D01*
X147983723Y-104513557D01*
X148013557Y-104483723D01*
X148021472Y-104475352D01*
X148030738Y-104464984D01*
X148038179Y-104456173D01*
X148064491Y-104423179D01*
X148071427Y-104413962D01*
X148079474Y-104402620D01*
X148085874Y-104393041D01*
X148108320Y-104357318D01*
X148114177Y-104347390D01*
X148120902Y-104335222D01*
X148126191Y-104324983D01*
X148141471Y-104293255D01*
X148144499Y-104286968D01*
X148145062Y-104285707D01*
X148149210Y-104276440D01*
X148154532Y-104263592D01*
X148158644Y-104252821D01*
X148172581Y-104212992D01*
X148176082Y-104202007D01*
X148179932Y-104188643D01*
X148182811Y-104177480D01*
X148192199Y-104136346D01*
X148194447Y-104125045D01*
X148196776Y-104111338D01*
X148198388Y-104099924D01*
X148203191Y-104057299D01*
X148204092Y-104046967D01*
X148204864Y-104034477D01*
X148205242Y-104024103D01*
X148205530Y-103998391D01*
X148225088Y-103940416D01*
X148274988Y-103905009D01*
X148304524Y-103900500D01*
X151942417Y-103900500D01*
X151995681Y-103900500D01*
X152004309Y-103900877D01*
X152182300Y-103916449D01*
X152199281Y-103919442D01*
X152367684Y-103964566D01*
X152383899Y-103970467D01*
X152541905Y-104044147D01*
X152556843Y-104052772D01*
X152676200Y-104136346D01*
X152699646Y-104152763D01*
X152712866Y-104163855D01*
X152836144Y-104287133D01*
X152847236Y-104300353D01*
X152947225Y-104443152D01*
X152955854Y-104458097D01*
X153029531Y-104616099D01*
X153035433Y-104632315D01*
X153080555Y-104800711D01*
X153083551Y-104817705D01*
X153099123Y-104995689D01*
X153099500Y-105004318D01*
X153099500Y-106624566D01*
X153132017Y-106871557D01*
X153132017Y-106871562D01*
X153132018Y-106871565D01*
X153189082Y-107084532D01*
X153196496Y-107112199D01*
X153196500Y-107112212D01*
X153291832Y-107342365D01*
X153291834Y-107342369D01*
X153291836Y-107342373D01*
X153416401Y-107558127D01*
X153416403Y-107558130D01*
X153568056Y-107755769D01*
X153568058Y-107755771D01*
X153568062Y-107755776D01*
X153744224Y-107931938D01*
X153744228Y-107931941D01*
X153744230Y-107931943D01*
X153875485Y-108032658D01*
X153941873Y-108083599D01*
X154157627Y-108208164D01*
X154387793Y-108303502D01*
X154628435Y-108367982D01*
X154875435Y-108400500D01*
X154875436Y-108400500D01*
X161723358Y-108400500D01*
X161723366Y-108400500D01*
X162168573Y-108363609D01*
X162609213Y-108290079D01*
X163042276Y-108180413D01*
X163464803Y-108035359D01*
X163873909Y-107855908D01*
X164266799Y-107643287D01*
X164640788Y-107398948D01*
X164993323Y-107124559D01*
X165321995Y-106821995D01*
X165624559Y-106493323D01*
X165898948Y-106140788D01*
X166143287Y-105766799D01*
X166355908Y-105373909D01*
X166535359Y-104964803D01*
X166680413Y-104542276D01*
X166790079Y-104109213D01*
X166863609Y-103668573D01*
X166900500Y-103223366D01*
X166900500Y-103000000D01*
X166900500Y-102942417D01*
X166900500Y-77947273D01*
X166900500Y-77889778D01*
X166900500Y-77889774D01*
X166877510Y-77744625D01*
X166866015Y-77672049D01*
X166797895Y-77462394D01*
X166697815Y-77265978D01*
X166568242Y-77087635D01*
X166412365Y-76931758D01*
X166234022Y-76802185D01*
X166234021Y-76802184D01*
X166234019Y-76802183D01*
X166144825Y-76756736D01*
X166037606Y-76702105D01*
X166037602Y-76702104D01*
X166037599Y-76702102D01*
X165827948Y-76633984D01*
X165610225Y-76599500D01*
X165610222Y-76599500D01*
X165552727Y-76599500D01*
X164967236Y-76599500D01*
X164909045Y-76580593D01*
X164873081Y-76531093D01*
X164868713Y-76510205D01*
X164867752Y-76500450D01*
X164867751Y-76500444D01*
X164867751Y-76500441D01*
X164802569Y-76172749D01*
X164779520Y-76096765D01*
X164705585Y-75853032D01*
X164626299Y-75661618D01*
X164577723Y-75544346D01*
X164490477Y-75381119D01*
X164420226Y-75249687D01*
X164327412Y-75110783D01*
X164234601Y-74971882D01*
X164022643Y-74713610D01*
X163786390Y-74477357D01*
X163528118Y-74265399D01*
X163458667Y-74218993D01*
X163250312Y-74079773D01*
X162955672Y-73922286D01*
X162955660Y-73922280D01*
X162955654Y-73922277D01*
X162955649Y-73922274D01*
X162955645Y-73922273D01*
X162646967Y-73794414D01*
X162327253Y-73697431D01*
X162106777Y-73653576D01*
X161999559Y-73632249D01*
X161999557Y-73632248D01*
X161756491Y-73608308D01*
X161667056Y-73599500D01*
X161332944Y-73599500D01*
X161234700Y-73609176D01*
X161000444Y-73632248D01*
X160672746Y-73697431D01*
X160353032Y-73794414D01*
X160044354Y-73922273D01*
X160044327Y-73922286D01*
X159749687Y-74079773D01*
X159471880Y-74265400D01*
X159213615Y-74477352D01*
X158977352Y-74713615D01*
X158765400Y-74971880D01*
X158579773Y-75249687D01*
X158422286Y-75544327D01*
X158422273Y-75544354D01*
X158294414Y-75853032D01*
X158197431Y-76172746D01*
X158132248Y-76500444D01*
X158099500Y-76832946D01*
X158099500Y-77167053D01*
X158132248Y-77499555D01*
X158197431Y-77827253D01*
X158294414Y-78146967D01*
X158422273Y-78455645D01*
X158422286Y-78455672D01*
X158579773Y-78750312D01*
X158718993Y-78958667D01*
X158765399Y-79028118D01*
X158977357Y-79286390D01*
X159213610Y-79522643D01*
X159471882Y-79734601D01*
X159610783Y-79827412D01*
X159749687Y-79920226D01*
X160044327Y-80077713D01*
X160044346Y-80077723D01*
X160353024Y-80205582D01*
X160353026Y-80205582D01*
X160353032Y-80205585D01*
X160629376Y-80289412D01*
X160672749Y-80302569D01*
X161000441Y-80367751D01*
X161332944Y-80400500D01*
X161332947Y-80400500D01*
X161667053Y-80400500D01*
X161667056Y-80400500D01*
X161999559Y-80367751D01*
X162327251Y-80302569D01*
X162516857Y-80245052D01*
X162646967Y-80205585D01*
X162646969Y-80205583D01*
X162646976Y-80205582D01*
X162955654Y-80077723D01*
X163099640Y-80000760D01*
X163250312Y-79920226D01*
X163250315Y-79920224D01*
X163528118Y-79734601D01*
X163786390Y-79522643D01*
X164022643Y-79286390D01*
X164234601Y-79028118D01*
X164420224Y-78750315D01*
X164577723Y-78455654D01*
X164705582Y-78146976D01*
X164802569Y-77827251D01*
X164867751Y-77499559D01*
X164868713Y-77489795D01*
X164893234Y-77433738D01*
X164946021Y-77402800D01*
X164967236Y-77400500D01*
X165442417Y-77400500D01*
X165494444Y-77400500D01*
X165505512Y-77401121D01*
X165622325Y-77414283D01*
X165643921Y-77419212D01*
X165749589Y-77456186D01*
X165769556Y-77465802D01*
X165807740Y-77489795D01*
X165864336Y-77525357D01*
X165881668Y-77539178D01*
X165960821Y-77618331D01*
X165974642Y-77635663D01*
X166034195Y-77730440D01*
X166043815Y-77750415D01*
X166080786Y-77856074D01*
X166085718Y-77877686D01*
X166098877Y-77994470D01*
X166099500Y-78005555D01*
X166099500Y-102997835D01*
X166099406Y-103002153D01*
X166082186Y-103396557D01*
X166081433Y-103405161D01*
X166030186Y-103794413D01*
X166028686Y-103802918D01*
X165943712Y-104186212D01*
X165941477Y-104194555D01*
X165823415Y-104568999D01*
X165820461Y-104577114D01*
X165670216Y-104939840D01*
X165666566Y-104947668D01*
X165485282Y-105295910D01*
X165480964Y-105303390D01*
X165270008Y-105634525D01*
X165265054Y-105641599D01*
X165026054Y-105953069D01*
X165020503Y-105959685D01*
X164755258Y-106249150D01*
X164749150Y-106255258D01*
X164459685Y-106520503D01*
X164453069Y-106526054D01*
X164141599Y-106765054D01*
X164134525Y-106770008D01*
X163803390Y-106980964D01*
X163795910Y-106985282D01*
X163447668Y-107166566D01*
X163439840Y-107170216D01*
X163077114Y-107320461D01*
X163068999Y-107323415D01*
X162694555Y-107441477D01*
X162686212Y-107443712D01*
X162302918Y-107528686D01*
X162294413Y-107530186D01*
X161905161Y-107581433D01*
X161896557Y-107582186D01*
X161502153Y-107599406D01*
X161497835Y-107599500D01*
X155004319Y-107599500D01*
X154995691Y-107599123D01*
X154925216Y-107592957D01*
X154817705Y-107583551D01*
X154800711Y-107580555D01*
X154632315Y-107535433D01*
X154616099Y-107529531D01*
X154458097Y-107455854D01*
X154443152Y-107447225D01*
X154300353Y-107347236D01*
X154287133Y-107336144D01*
X154163855Y-107212866D01*
X154152763Y-107199646D01*
X154132156Y-107170216D01*
X154052772Y-107056843D01*
X154044145Y-107041902D01*
X154015729Y-106980964D01*
X153970467Y-106883899D01*
X153964566Y-106867684D01*
X153949925Y-106813043D01*
X153919442Y-106699281D01*
X153916449Y-106682300D01*
X153900877Y-106504309D01*
X153900500Y-106495681D01*
X153900500Y-104875436D01*
X153900500Y-104875435D01*
X153867982Y-104628435D01*
X153803502Y-104387793D01*
X153708164Y-104157627D01*
X153583599Y-103941873D01*
X153552142Y-103900877D01*
X153431943Y-103744230D01*
X153431941Y-103744228D01*
X153431938Y-103744224D01*
X153255776Y-103568062D01*
X153255771Y-103568058D01*
X153255769Y-103568056D01*
X153058130Y-103416403D01*
X153058127Y-103416401D01*
X152842373Y-103291836D01*
X152842369Y-103291834D01*
X152842365Y-103291832D01*
X152612212Y-103196500D01*
X152612211Y-103196499D01*
X152612207Y-103196498D01*
X152371565Y-103132018D01*
X152371562Y-103132017D01*
X152371560Y-103132017D01*
X152124566Y-103099500D01*
X152124565Y-103099500D01*
X152052727Y-103099500D01*
X148304524Y-103099500D01*
X148246333Y-103080593D01*
X148210369Y-103031093D01*
X148205530Y-103001609D01*
X148205478Y-102996992D01*
X148205242Y-102975896D01*
X148204864Y-102965522D01*
X148204092Y-102953032D01*
X148203191Y-102942700D01*
X148198388Y-102900075D01*
X148196776Y-102888661D01*
X148194447Y-102874954D01*
X148192199Y-102863653D01*
X148182811Y-102822519D01*
X148179932Y-102811356D01*
X148176082Y-102797992D01*
X148172581Y-102787007D01*
X148158644Y-102747178D01*
X148154532Y-102736407D01*
X148149210Y-102723559D01*
X148144511Y-102713057D01*
X148144499Y-102713030D01*
X148133691Y-102690590D01*
X148126191Y-102675016D01*
X148123319Y-102669457D01*
X148120907Y-102664786D01*
X148114181Y-102652617D01*
X148114177Y-102652609D01*
X148108320Y-102642681D01*
X148108310Y-102642665D01*
X148085884Y-102606973D01*
X148079466Y-102597367D01*
X148071425Y-102586034D01*
X148064498Y-102576828D01*
X148053182Y-102562639D01*
X148038179Y-102543826D01*
X148030738Y-102535015D01*
X148030711Y-102534985D01*
X148025178Y-102528794D01*
X148021472Y-102524647D01*
X148013557Y-102516276D01*
X147983723Y-102486442D01*
X147975352Y-102478527D01*
X147964984Y-102469261D01*
X147964980Y-102469257D01*
X147956181Y-102461827D01*
X147956173Y-102461820D01*
X147941992Y-102450511D01*
X147923170Y-102435500D01*
X147913964Y-102428573D01*
X147902631Y-102420532D01*
X147893025Y-102414114D01*
X147857333Y-102391688D01*
X147857318Y-102391679D01*
X147847390Y-102385822D01*
X147842509Y-102383124D01*
X147835212Y-102379091D01*
X147824987Y-102373810D01*
X147786961Y-102355497D01*
X147776445Y-102350791D01*
X147776440Y-102350789D01*
X147763625Y-102345480D01*
X147763613Y-102345475D01*
X147763606Y-102345472D01*
X147763598Y-102345469D01*
X147752827Y-102341357D01*
X147737656Y-102336048D01*
X147712993Y-102327417D01*
X147702007Y-102323916D01*
X147688629Y-102320062D01*
X147677487Y-102317188D01*
X147636346Y-102307799D01*
X147625034Y-102305548D01*
X147611337Y-102303222D01*
X147599917Y-102301610D01*
X147557314Y-102296809D01*
X147548279Y-102296022D01*
X147546957Y-102295907D01*
X147546953Y-102295906D01*
X147546933Y-102295905D01*
X147534503Y-102295137D01*
X147534500Y-102295136D01*
X147534486Y-102295136D01*
X147531716Y-102295034D01*
X147524105Y-102294756D01*
X147506520Y-102294560D01*
X147503008Y-102294521D01*
X147502914Y-102294520D01*
X147502900Y-102294520D01*
X147502900Y-102294519D01*
X147501895Y-102294511D01*
X147500647Y-102294503D01*
X147500505Y-102294503D01*
X147499321Y-102294500D01*
X145500679Y-102294500D01*
X145499495Y-102294503D01*
X145499352Y-102294503D01*
X145498104Y-102294511D01*
X145497099Y-102294519D01*
X145497100Y-102294520D01*
X145497085Y-102294520D01*
X145496992Y-102294521D01*
X145478836Y-102294724D01*
X145475891Y-102294757D01*
X145473724Y-102294836D01*
X145465510Y-102295136D01*
X145465494Y-102295137D01*
X145453062Y-102295905D01*
X145446237Y-102296500D01*
X145442718Y-102296807D01*
X145432373Y-102297972D01*
X145400056Y-102301613D01*
X145388642Y-102303225D01*
X145374966Y-102305549D01*
X145363655Y-102307799D01*
X145322505Y-102317191D01*
X145311343Y-102320070D01*
X145298017Y-102323908D01*
X145286993Y-102327422D01*
X145247189Y-102341350D01*
X145239192Y-102344402D01*
X145236400Y-102345469D01*
X145236371Y-102345480D01*
X145223564Y-102350785D01*
X145213050Y-102355490D01*
X145191511Y-102365863D01*
X145175015Y-102373808D01*
X145164790Y-102379091D01*
X145164763Y-102379105D01*
X145152612Y-102385820D01*
X145142704Y-102391664D01*
X145119682Y-102406129D01*
X145106953Y-102414128D01*
X145106945Y-102414133D01*
X145106936Y-102414139D01*
X145097379Y-102420524D01*
X145086055Y-102428557D01*
X145076832Y-102435498D01*
X145043810Y-102461832D01*
X145034985Y-102469285D01*
X145024651Y-102478521D01*
X145016308Y-102486410D01*
X144986410Y-102516308D01*
X144978521Y-102524651D01*
X144969285Y-102534985D01*
X144961832Y-102543810D01*
X144935498Y-102576832D01*
X144928557Y-102586055D01*
X144920524Y-102597379D01*
X144914139Y-102606936D01*
X144914128Y-102606953D01*
X144906129Y-102619682D01*
X144891664Y-102642704D01*
X144885827Y-102652600D01*
X144879090Y-102664791D01*
X144873816Y-102674999D01*
X144855488Y-102713057D01*
X144850798Y-102723537D01*
X144850795Y-102723545D01*
X144845476Y-102736383D01*
X144841968Y-102745570D01*
X144841359Y-102747167D01*
X144827416Y-102787013D01*
X144823914Y-102798000D01*
X144820074Y-102811328D01*
X144817192Y-102822503D01*
X144807799Y-102863655D01*
X144805549Y-102874966D01*
X144803225Y-102888642D01*
X144801613Y-102900056D01*
X144796807Y-102942719D01*
X144795905Y-102953062D01*
X144795148Y-102965307D01*
X144795136Y-102965510D01*
X144794757Y-102975894D01*
X144794521Y-102996992D01*
X144794514Y-102997835D01*
X144794510Y-102998236D01*
X144794503Y-102999352D01*
X144794503Y-102999495D01*
X144794500Y-103000679D01*
X138900500Y-103000679D01*
X138900500Y-102832944D01*
X138867751Y-102500441D01*
X138802569Y-102172749D01*
X138789412Y-102129376D01*
X138705585Y-101853032D01*
X138577726Y-101544354D01*
X138577723Y-101544346D01*
X138577713Y-101544327D01*
X138420226Y-101249687D01*
X138327412Y-101110783D01*
X138234601Y-100971882D01*
X138022643Y-100713610D01*
X137786390Y-100477357D01*
X137528118Y-100265399D01*
X137458667Y-100218993D01*
X137250312Y-100079773D01*
X136955672Y-99922286D01*
X136955660Y-99922280D01*
X136955654Y-99922277D01*
X136955649Y-99922274D01*
X136955645Y-99922273D01*
X136646967Y-99794414D01*
X136327253Y-99697431D01*
X136106777Y-99653576D01*
X135999559Y-99632249D01*
X135999557Y-99632248D01*
X135756491Y-99608308D01*
X135667056Y-99599500D01*
X135332944Y-99599500D01*
X135234700Y-99609176D01*
X135000444Y-99632248D01*
X134672746Y-99697431D01*
X134353032Y-99794414D01*
X134044354Y-99922273D01*
X134044327Y-99922286D01*
X133749687Y-100079773D01*
X133471880Y-100265400D01*
X133213615Y-100477352D01*
X132977352Y-100713615D01*
X132765400Y-100971880D01*
X132579773Y-101249687D01*
X132422286Y-101544327D01*
X132422273Y-101544354D01*
X132294414Y-101853032D01*
X132197431Y-102172746D01*
X132132248Y-102500444D01*
X132109009Y-102736400D01*
X132100529Y-102822503D01*
X132099500Y-102832946D01*
X129750500Y-102832946D01*
X129750500Y-94977694D01*
X136687959Y-94977694D01*
X136689532Y-95127979D01*
X136699132Y-95277965D01*
X136699133Y-95277975D01*
X136716730Y-95427227D01*
X136742275Y-95575322D01*
X136742279Y-95575341D01*
X136775699Y-95721863D01*
X136816899Y-95866392D01*
X136816901Y-95866396D01*
X136865765Y-96008524D01*
X136865771Y-96008540D01*
X136865779Y-96008561D01*
X136922145Y-96147823D01*
X136922160Y-96147858D01*
X136985887Y-96283917D01*
X136985893Y-96283930D01*
X136985900Y-96283943D01*
X137056829Y-96416447D01*
X137056836Y-96416458D01*
X137056843Y-96416471D01*
X137134720Y-96544950D01*
X137134732Y-96544969D01*
X137134734Y-96544972D01*
X137219394Y-96669153D01*
X137310567Y-96788633D01*
X137407992Y-96903073D01*
X137408005Y-96903087D01*
X137408007Y-96903089D01*
X137511371Y-97012122D01*
X137511392Y-97012144D01*
X137511410Y-97012161D01*
X137620471Y-97115537D01*
X137734917Y-97212954D01*
X137854399Y-97304116D01*
X137854398Y-97304116D01*
X137970382Y-97383176D01*
X137978589Y-97388770D01*
X138107120Y-97466667D01*
X138107133Y-97466674D01*
X138107145Y-97466681D01*
X138201164Y-97516999D01*
X138225135Y-97529829D01*
X138239622Y-97537582D01*
X138239637Y-97537590D01*
X138263763Y-97548888D01*
X138375737Y-97601325D01*
X138515056Y-97657703D01*
X138657187Y-97706557D01*
X138801725Y-97747749D01*
X138948258Y-97781161D01*
X139096366Y-97806697D01*
X139245626Y-97824285D01*
X139395597Y-97833874D01*
X139395598Y-97833874D01*
X139395613Y-97833875D01*
X139545898Y-97835438D01*
X139696053Y-97828971D01*
X139845647Y-97814492D01*
X139994254Y-97792042D01*
X140141450Y-97761686D01*
X140286813Y-97723509D01*
X140429930Y-97677622D01*
X140570392Y-97624155D01*
X140707796Y-97563261D01*
X140841751Y-97495114D01*
X140971875Y-97419908D01*
X141097795Y-97337858D01*
X141219153Y-97249199D01*
X141335601Y-97154183D01*
X141446806Y-97053082D01*
X141500000Y-97000000D01*
X142204149Y-96295849D01*
X142258664Y-96268074D01*
X142319096Y-96277645D01*
X142343877Y-96295575D01*
X142387091Y-96338449D01*
X142396159Y-96347306D01*
X142398412Y-96349472D01*
X142398446Y-96349504D01*
X142407674Y-96358237D01*
X142500861Y-96445028D01*
X142590236Y-96528270D01*
X142599650Y-96536900D01*
X142601665Y-96538718D01*
X142602003Y-96539023D01*
X142604600Y-96541328D01*
X142611442Y-96547404D01*
X142796264Y-96708951D01*
X142799292Y-96711598D01*
X142808867Y-96719835D01*
X142811295Y-96721891D01*
X142815503Y-96725396D01*
X142821064Y-96730029D01*
X143013989Y-96888199D01*
X143014008Y-96888214D01*
X143023873Y-96896173D01*
X143023910Y-96896202D01*
X143023917Y-96896208D01*
X143026365Y-96898151D01*
X143036355Y-96905953D01*
X143227834Y-97053081D01*
X143234183Y-97057959D01*
X143244056Y-97065425D01*
X143244122Y-97065474D01*
X143246587Y-97067308D01*
X143257042Y-97074957D01*
X143444615Y-97209883D01*
X143459683Y-97220722D01*
X143466240Y-97225360D01*
X143470083Y-97228078D01*
X143472615Y-97229839D01*
X143483046Y-97236973D01*
X143690062Y-97376185D01*
X143690070Y-97376190D01*
X143700637Y-97383176D01*
X143700685Y-97383207D01*
X143703306Y-97384910D01*
X143714008Y-97391744D01*
X143923780Y-97523388D01*
X143975403Y-97553181D01*
X143988353Y-97560029D01*
X143988357Y-97560031D01*
X143995900Y-97563260D01*
X144109549Y-97611914D01*
X144285947Y-97649580D01*
X144285951Y-97649580D01*
X144285955Y-97649581D01*
X144301736Y-97651135D01*
X144346837Y-97655577D01*
X144445638Y-97656408D01*
X144491233Y-97656792D01*
X144491239Y-97656792D01*
X144491242Y-97656792D01*
X144627467Y-97630091D01*
X144668246Y-97622099D01*
X144833095Y-97548889D01*
X144885882Y-97517950D01*
X144980104Y-97450697D01*
X145038451Y-97432281D01*
X145096480Y-97451677D01*
X145132027Y-97501478D01*
X145134716Y-97511963D01*
X145197431Y-97827253D01*
X145294414Y-98146967D01*
X145422273Y-98455645D01*
X145422286Y-98455672D01*
X145579773Y-98750312D01*
X145718993Y-98958667D01*
X145765399Y-99028118D01*
X145977357Y-99286390D01*
X146213610Y-99522643D01*
X146471882Y-99734601D01*
X146561398Y-99794414D01*
X146749687Y-99920226D01*
X147044327Y-100077713D01*
X147044346Y-100077723D01*
X147353024Y-100205582D01*
X147353026Y-100205582D01*
X147353032Y-100205585D01*
X147629376Y-100289412D01*
X147672749Y-100302569D01*
X148000441Y-100367751D01*
X148332944Y-100400500D01*
X148332947Y-100400500D01*
X148667053Y-100400500D01*
X148667056Y-100400500D01*
X148999559Y-100367751D01*
X149327251Y-100302569D01*
X149516857Y-100245052D01*
X149646967Y-100205585D01*
X149646969Y-100205583D01*
X149646976Y-100205582D01*
X149955654Y-100077723D01*
X150099640Y-100000760D01*
X150250312Y-99920226D01*
X150250315Y-99920224D01*
X150528118Y-99734601D01*
X150786390Y-99522643D01*
X151022643Y-99286390D01*
X151234601Y-99028118D01*
X151420224Y-98750315D01*
X151577723Y-98455654D01*
X151705582Y-98146976D01*
X151802569Y-97827251D01*
X151865519Y-97510775D01*
X151895414Y-97457395D01*
X151950979Y-97431779D01*
X152010989Y-97443716D01*
X152028962Y-97456614D01*
X152052985Y-97478304D01*
X152061152Y-97485679D01*
X152061154Y-97485680D01*
X152218571Y-97573741D01*
X152269820Y-97595277D01*
X152274977Y-97597445D01*
X152412593Y-97641236D01*
X152591953Y-97660340D01*
X152771067Y-97639054D01*
X152830635Y-97625076D01*
X152900193Y-97605423D01*
X153063963Y-97529828D01*
X153168716Y-97466372D01*
X153168731Y-97466362D01*
X153168790Y-97466327D01*
X153172177Y-97464236D01*
X153179697Y-97459599D01*
X153182344Y-97457937D01*
X153192904Y-97451191D01*
X153402076Y-97315274D01*
X153412614Y-97308309D01*
X153415208Y-97306565D01*
X153425772Y-97299340D01*
X153630574Y-97156871D01*
X153640965Y-97149520D01*
X153643502Y-97147695D01*
X153653757Y-97140195D01*
X153853952Y-96991337D01*
X153864129Y-96983644D01*
X153866608Y-96981739D01*
X153871064Y-96978258D01*
X153876579Y-96973952D01*
X153936458Y-96926419D01*
X154071974Y-96818849D01*
X154081781Y-96810938D01*
X154084198Y-96808957D01*
X154094058Y-96800744D01*
X154284474Y-96639538D01*
X154294160Y-96631205D01*
X154296513Y-96629148D01*
X154296516Y-96629145D01*
X154296561Y-96629106D01*
X154301281Y-96624912D01*
X154305976Y-96620743D01*
X154491188Y-96453624D01*
X154500565Y-96445028D01*
X154502853Y-96442897D01*
X154512085Y-96434161D01*
X154691939Y-96261269D01*
X154700965Y-96252455D01*
X154703184Y-96250254D01*
X154712212Y-96241156D01*
X154886504Y-96062687D01*
X154895428Y-96053402D01*
X154897576Y-96051131D01*
X154906132Y-96041943D01*
X155074721Y-95858041D01*
X155083300Y-95848532D01*
X155085375Y-95846195D01*
X155093683Y-95836689D01*
X155256356Y-95647588D01*
X155264492Y-95637979D01*
X155266493Y-95635578D01*
X155274634Y-95625649D01*
X155431289Y-95431467D01*
X155439246Y-95421443D01*
X155441170Y-95418979D01*
X155448869Y-95408958D01*
X155599287Y-95209964D01*
X155606817Y-95199838D01*
X155608662Y-95197316D01*
X155616144Y-95186916D01*
X155760221Y-94983251D01*
X155767448Y-94972864D01*
X155769213Y-94970284D01*
X155776345Y-94959678D01*
X155913932Y-94751548D01*
X155920872Y-94740867D01*
X155922554Y-94738233D01*
X155929300Y-94727483D01*
X156060214Y-94515171D01*
X156066785Y-94504324D01*
X156068384Y-94501637D01*
X156074820Y-94490626D01*
X156199004Y-94274219D01*
X156205309Y-94263025D01*
X156206821Y-94260290D01*
X156212823Y-94249230D01*
X156330086Y-94029063D01*
X156335955Y-94017832D01*
X156337381Y-94015050D01*
X156343111Y-94003649D01*
X156453377Y-93779866D01*
X156458905Y-93768420D01*
X156460242Y-93765595D01*
X156465593Y-93754054D01*
X156568741Y-93526899D01*
X156573928Y-93515232D01*
X156575175Y-93512366D01*
X156580136Y-93500714D01*
X156676058Y-93270425D01*
X156680868Y-93258616D01*
X156682024Y-93255712D01*
X156686621Y-93243893D01*
X156775223Y-93010696D01*
X156779635Y-92998802D01*
X156780699Y-92995863D01*
X156784943Y-92983843D01*
X156866138Y-92747968D01*
X156870146Y-92736023D01*
X156871117Y-92733052D01*
X156875006Y-92720823D01*
X156948726Y-92482465D01*
X156952422Y-92470169D01*
X156953298Y-92467168D01*
X156956733Y-92455051D01*
X157022880Y-92214525D01*
X157026155Y-92202234D01*
X157026936Y-92199208D01*
X157030016Y-92186876D01*
X157088543Y-91944360D01*
X157091432Y-91931958D01*
X157092117Y-91928909D01*
X157094803Y-91916499D01*
X157145638Y-91672290D01*
X157148114Y-91659907D01*
X157148703Y-91656837D01*
X157151016Y-91644243D01*
X157194126Y-91398496D01*
X157196248Y-91385805D01*
X157196739Y-91382717D01*
X157198616Y-91370288D01*
X157233938Y-91123353D01*
X157235626Y-91110853D01*
X157236020Y-91107753D01*
X157237534Y-91095031D01*
X157265047Y-90847087D01*
X157266342Y-90834521D01*
X157266638Y-90831409D01*
X157267749Y-90818652D01*
X157287421Y-90569942D01*
X157288327Y-90557203D01*
X157288524Y-90554084D01*
X157289223Y-90541444D01*
X157301033Y-90292270D01*
X157301532Y-90279649D01*
X157301631Y-90276525D01*
X157301935Y-90263729D01*
X157305874Y-90014281D01*
X157305974Y-90001563D01*
X157305974Y-89998437D01*
X157305874Y-89985719D01*
X157301935Y-89736270D01*
X157301631Y-89723474D01*
X157301532Y-89720350D01*
X157301033Y-89707729D01*
X157289223Y-89458555D01*
X157288524Y-89445915D01*
X157288327Y-89442796D01*
X157287421Y-89430057D01*
X157267749Y-89181347D01*
X157266638Y-89168590D01*
X157266342Y-89165478D01*
X157265047Y-89152912D01*
X157237534Y-88904968D01*
X157236020Y-88892246D01*
X157235626Y-88889146D01*
X157233938Y-88876646D01*
X157198616Y-88629711D01*
X157196739Y-88617282D01*
X157196248Y-88614194D01*
X157194126Y-88601503D01*
X157151016Y-88355756D01*
X157148703Y-88343162D01*
X157148114Y-88340092D01*
X157145638Y-88327709D01*
X157094803Y-88083500D01*
X157092117Y-88071090D01*
X157091432Y-88068041D01*
X157088543Y-88055639D01*
X157030016Y-87813123D01*
X157028509Y-87807091D01*
X157026951Y-87800849D01*
X157026915Y-87800711D01*
X157026155Y-87797765D01*
X157022880Y-87785474D01*
X156956733Y-87544948D01*
X156953298Y-87532831D01*
X156952422Y-87529830D01*
X156948726Y-87517534D01*
X156875006Y-87279176D01*
X156871117Y-87266947D01*
X156870146Y-87263976D01*
X156866138Y-87252031D01*
X156824932Y-87132326D01*
X156784955Y-87016190D01*
X156784943Y-87016156D01*
X156780699Y-87004136D01*
X156779635Y-87001197D01*
X156775223Y-86989303D01*
X156686621Y-86756106D01*
X156682024Y-86744287D01*
X156681649Y-86743346D01*
X156680874Y-86741396D01*
X156678583Y-86735775D01*
X156676058Y-86729574D01*
X156580136Y-86499285D01*
X156575175Y-86487633D01*
X156573928Y-86484767D01*
X156568741Y-86473100D01*
X156465593Y-86245945D01*
X156460242Y-86234404D01*
X156458905Y-86231579D01*
X156456695Y-86227003D01*
X156453418Y-86220216D01*
X156398757Y-86109283D01*
X156343111Y-85996350D01*
X156343052Y-85996232D01*
X156337392Y-85984969D01*
X156335995Y-85982244D01*
X156330055Y-85970877D01*
X156212814Y-85750753D01*
X156206831Y-85739727D01*
X156206746Y-85739573D01*
X156205309Y-85736974D01*
X156199004Y-85725780D01*
X156074820Y-85509373D01*
X156068384Y-85498362D01*
X156066785Y-85495675D01*
X156065093Y-85492882D01*
X156060217Y-85484832D01*
X156001945Y-85390329D01*
X155929300Y-85272516D01*
X155922554Y-85261766D01*
X155920872Y-85259132D01*
X155913932Y-85248451D01*
X155852708Y-85155837D01*
X155776369Y-85040357D01*
X155776345Y-85040321D01*
X155769213Y-85029715D01*
X155767448Y-85027135D01*
X155760221Y-85016748D01*
X155760142Y-85016636D01*
X155616187Y-84813143D01*
X155616144Y-84813083D01*
X155608662Y-84802683D01*
X155606817Y-84800161D01*
X155599287Y-84790035D01*
X155448869Y-84591041D01*
X155441170Y-84581020D01*
X155441149Y-84580994D01*
X155441099Y-84580928D01*
X155439263Y-84578577D01*
X155431298Y-84568543D01*
X155353383Y-84471964D01*
X155274634Y-84374350D01*
X155266493Y-84364421D01*
X155264492Y-84362020D01*
X155256356Y-84352411D01*
X155183883Y-84268164D01*
X155093697Y-84163325D01*
X155085363Y-84153789D01*
X155083313Y-84151481D01*
X155074739Y-84141978D01*
X154906136Y-83958060D01*
X154897609Y-83948902D01*
X154895536Y-83946711D01*
X154895490Y-83946662D01*
X154886526Y-83937335D01*
X154712169Y-83758800D01*
X154712158Y-83758789D01*
X154712120Y-83758750D01*
X154708611Y-83755214D01*
X154703097Y-83749658D01*
X154701745Y-83748317D01*
X154700970Y-83747548D01*
X154691891Y-83738683D01*
X154512082Y-83565835D01*
X154502896Y-83557142D01*
X154502820Y-83557071D01*
X154500565Y-83554971D01*
X154491188Y-83546375D01*
X154305976Y-83379256D01*
X154305910Y-83379197D01*
X154296561Y-83370892D01*
X154294148Y-83368783D01*
X154284520Y-83360500D01*
X154094053Y-83199251D01*
X154084198Y-83191042D01*
X154081781Y-83189061D01*
X154071974Y-83181150D01*
X154054897Y-83167594D01*
X153876579Y-83026046D01*
X153866670Y-83018308D01*
X153866608Y-83018260D01*
X153864129Y-83016355D01*
X153853952Y-83008662D01*
X153653757Y-82859804D01*
X153643502Y-82852304D01*
X153643457Y-82852271D01*
X153642099Y-82851294D01*
X153640965Y-82850479D01*
X153630575Y-82843128D01*
X153425762Y-82700651D01*
X153421539Y-82697764D01*
X153415097Y-82693359D01*
X153412515Y-82691624D01*
X153412506Y-82691618D01*
X153402077Y-82684725D01*
X153192899Y-82548804D01*
X153182179Y-82541958D01*
X153182129Y-82541926D01*
X153179566Y-82540318D01*
X153168695Y-82533615D01*
X152955390Y-82404401D01*
X152944256Y-82397777D01*
X152941641Y-82396249D01*
X152930692Y-82389968D01*
X152930685Y-82389964D01*
X152713317Y-82267499D01*
X152710285Y-82265823D01*
X152702079Y-82261285D01*
X152700483Y-82260419D01*
X152699356Y-82259808D01*
X152694703Y-82257330D01*
X152688250Y-82253893D01*
X152540796Y-82176845D01*
X152467118Y-82138347D01*
X152467087Y-82138331D01*
X152467060Y-82138317D01*
X152455945Y-82132619D01*
X152455168Y-82132228D01*
X152453120Y-82131199D01*
X152446790Y-82128079D01*
X152441644Y-82125543D01*
X152340451Y-82076671D01*
X152216945Y-82017022D01*
X152205269Y-82011498D01*
X152205208Y-82011469D01*
X152202517Y-82010222D01*
X152198077Y-82008206D01*
X152191052Y-82005018D01*
X151963106Y-81903673D01*
X151963086Y-81903664D01*
X151951620Y-81898673D01*
X151948754Y-81897452D01*
X151948745Y-81897448D01*
X151936851Y-81892492D01*
X151765283Y-81822613D01*
X151705753Y-81798367D01*
X151693674Y-81793560D01*
X151690938Y-81792496D01*
X151679228Y-81788049D01*
X151546652Y-81738872D01*
X151445276Y-81701268D01*
X151445243Y-81701256D01*
X151433517Y-81697009D01*
X151431753Y-81696386D01*
X151430484Y-81695938D01*
X151430462Y-81695930D01*
X151430356Y-81695893D01*
X151418473Y-81691802D01*
X151181834Y-81612428D01*
X151181828Y-81612426D01*
X151169752Y-81608481D01*
X151169699Y-81608464D01*
X151169671Y-81608455D01*
X151166767Y-81607532D01*
X151154734Y-81603809D01*
X151154651Y-81603784D01*
X151154625Y-81603776D01*
X150915658Y-81531928D01*
X150903069Y-81528255D01*
X150900129Y-81527423D01*
X150900080Y-81527409D01*
X150900064Y-81527405D01*
X150888242Y-81524156D01*
X150647175Y-81459902D01*
X150635157Y-81456798D01*
X150635077Y-81456778D01*
X150632125Y-81456040D01*
X150619542Y-81453001D01*
X150619534Y-81452999D01*
X150376409Y-81396353D01*
X150364172Y-81393604D01*
X150364143Y-81393597D01*
X150364122Y-81393593D01*
X150362612Y-81393266D01*
X150361148Y-81392949D01*
X150358432Y-81392383D01*
X150348628Y-81390343D01*
X150186784Y-81357984D01*
X150103861Y-81341405D01*
X150091532Y-81339040D01*
X150088406Y-81338466D01*
X150078416Y-81336714D01*
X150075911Y-81336275D01*
X149829807Y-81295102D01*
X149817205Y-81293097D01*
X149817209Y-81293097D01*
X149817111Y-81293082D01*
X149814223Y-81292646D01*
X149801625Y-81290843D01*
X149554374Y-81257463D01*
X149541517Y-81255833D01*
X149538444Y-81255469D01*
X149525964Y-81254085D01*
X149277850Y-81228536D01*
X149265173Y-81227331D01*
X149262159Y-81227069D01*
X149249393Y-81226059D01*
X149000560Y-81208353D01*
X149000551Y-81208352D01*
X149000531Y-81208351D01*
X148998000Y-81208190D01*
X148988090Y-81207561D01*
X148985063Y-81207393D01*
X148972164Y-81206780D01*
X148972117Y-81206778D01*
X148972114Y-81206778D01*
X148722735Y-81196932D01*
X148722707Y-81196931D01*
X148722679Y-81196930D01*
X148710276Y-81196537D01*
X148707223Y-81196463D01*
X148694321Y-81196257D01*
X148444730Y-81194287D01*
X148432126Y-81194287D01*
X148429072Y-81194310D01*
X148416155Y-81194513D01*
X148166753Y-81200421D01*
X148153949Y-81200826D01*
X148150977Y-81200944D01*
X148150893Y-81200948D01*
X148138337Y-81201544D01*
X148015232Y-81208353D01*
X147889071Y-81215331D01*
X147876627Y-81216117D01*
X147875752Y-81216179D01*
X147873546Y-81216336D01*
X147873488Y-81216340D01*
X147873468Y-81216342D01*
X147860805Y-81217342D01*
X147612168Y-81238984D01*
X147599390Y-81240199D01*
X147596306Y-81240517D01*
X147583738Y-81241913D01*
X147336011Y-81271381D01*
X147323330Y-81272992D01*
X147320410Y-81273386D01*
X147307967Y-81275166D01*
X147307782Y-81275193D01*
X147061028Y-81312481D01*
X147048532Y-81314470D01*
X147048492Y-81314476D01*
X147048490Y-81314477D01*
X147045488Y-81314979D01*
X147032970Y-81317174D01*
X146787408Y-81362252D01*
X146774793Y-81364672D01*
X146771895Y-81365253D01*
X146759548Y-81367825D01*
X146515717Y-81420591D01*
X146503282Y-81423385D01*
X146500290Y-81424082D01*
X146488033Y-81427040D01*
X146487995Y-81427049D01*
X146487968Y-81427056D01*
X146442516Y-81438405D01*
X146245790Y-81487527D01*
X146233550Y-81490686D01*
X146230720Y-81491440D01*
X146218328Y-81494847D01*
X145978263Y-81562911D01*
X145978235Y-81562919D01*
X145978218Y-81562924D01*
X145975262Y-81563787D01*
X145965635Y-81566601D01*
X145962857Y-81567437D01*
X145950958Y-81571120D01*
X145713125Y-81646740D01*
X145701314Y-81650596D01*
X145698374Y-81651581D01*
X145686148Y-81655787D01*
X145450793Y-81738888D01*
X145439134Y-81743106D01*
X145436206Y-81744191D01*
X145424188Y-81748754D01*
X145191501Y-81839272D01*
X145179810Y-81843926D01*
X145177106Y-81845027D01*
X145165220Y-81849976D01*
X144935561Y-81947770D01*
X144923840Y-81952871D01*
X144921062Y-81954106D01*
X144909498Y-81959357D01*
X144683113Y-82064318D01*
X144671785Y-82069680D01*
X144669101Y-82070975D01*
X144657418Y-82076730D01*
X144434564Y-82188735D01*
X144423107Y-82194608D01*
X144420362Y-82196042D01*
X144409346Y-82201910D01*
X144190018Y-82320957D01*
X144178838Y-82327140D01*
X144176231Y-82328609D01*
X144165243Y-82334915D01*
X144165184Y-82334949D01*
X143949687Y-82460883D01*
X143949617Y-82460924D01*
X143938816Y-82467351D01*
X143936129Y-82468978D01*
X143925298Y-82475658D01*
X143714006Y-82608255D01*
X143703139Y-82615197D01*
X143700561Y-82616873D01*
X143690035Y-82623832D01*
X143482986Y-82763066D01*
X143472743Y-82770071D01*
X143470093Y-82771913D01*
X143459729Y-82779242D01*
X143257043Y-82925040D01*
X143246566Y-82932704D01*
X143244302Y-82934388D01*
X143234166Y-82942051D01*
X143036359Y-83094042D01*
X143026244Y-83101942D01*
X143023858Y-83103835D01*
X143014057Y-83111745D01*
X142821071Y-83269963D01*
X142811299Y-83278103D01*
X142808908Y-83280127D01*
X142799313Y-83288381D01*
X142611460Y-83452579D01*
X142601911Y-83461058D01*
X142599751Y-83463007D01*
X142590222Y-83471742D01*
X142407639Y-83641796D01*
X142398494Y-83650448D01*
X142396174Y-83652678D01*
X142387111Y-83661528D01*
X142209969Y-83837277D01*
X142200877Y-83846442D01*
X142198803Y-83848567D01*
X142190045Y-83857679D01*
X142018551Y-84038919D01*
X142010003Y-84048097D01*
X142007842Y-84050454D01*
X141999360Y-84059853D01*
X141833600Y-84246501D01*
X141825410Y-84255869D01*
X141824360Y-84257089D01*
X141823311Y-84258309D01*
X141823279Y-84258347D01*
X141814965Y-84268164D01*
X141655358Y-84459738D01*
X141647282Y-84469588D01*
X141645297Y-84472048D01*
X141637479Y-84481897D01*
X141483760Y-84678719D01*
X141476025Y-84688787D01*
X141474253Y-84691131D01*
X141466624Y-84701391D01*
X141319283Y-84902846D01*
X141311960Y-84913027D01*
X141310172Y-84915554D01*
X141302918Y-84925980D01*
X141161947Y-85132081D01*
X141154786Y-85142732D01*
X141153111Y-85145267D01*
X141146244Y-85155837D01*
X141011994Y-85366059D01*
X141005297Y-85376728D01*
X141003643Y-85379408D01*
X140997028Y-85390329D01*
X140869431Y-85604769D01*
X140863200Y-85615429D01*
X140861562Y-85618281D01*
X140855259Y-85629465D01*
X140734529Y-85847763D01*
X140728430Y-85858998D01*
X140727011Y-85861661D01*
X140721029Y-85873108D01*
X140607255Y-86095104D01*
X140601482Y-86106592D01*
X140600142Y-86109313D01*
X140594670Y-86120646D01*
X140487978Y-86346083D01*
X140482674Y-86357516D01*
X140481470Y-86360166D01*
X140476168Y-86372086D01*
X140376572Y-86600947D01*
X140371586Y-86612655D01*
X140370449Y-86615384D01*
X140365632Y-86627211D01*
X140273342Y-86859026D01*
X140268756Y-86870813D01*
X140267709Y-86873567D01*
X140263191Y-86885741D01*
X140178227Y-87120457D01*
X140174036Y-87132326D01*
X140173039Y-87135225D01*
X140168975Y-87147342D01*
X140091527Y-87384429D01*
X140087689Y-87396497D01*
X140086792Y-87399392D01*
X140083109Y-87411641D01*
X140013121Y-87651272D01*
X140009742Y-87663184D01*
X140008905Y-87666225D01*
X140005599Y-87678622D01*
X139943213Y-87920331D01*
X139940102Y-87932790D01*
X139939385Y-87935764D01*
X139936544Y-87947957D01*
X139881825Y-88191489D01*
X139879078Y-88204186D01*
X139878481Y-88207063D01*
X139876038Y-88219287D01*
X139829022Y-88464494D01*
X139826760Y-88476811D01*
X139826239Y-88479779D01*
X139824107Y-88492508D01*
X139784860Y-88739044D01*
X139782940Y-88751767D01*
X139782494Y-88754891D01*
X139780836Y-88767194D01*
X139749412Y-89014685D01*
X139747922Y-89027197D01*
X139747584Y-89030236D01*
X139746266Y-89043044D01*
X139722674Y-89291370D01*
X139721592Y-89303769D01*
X139721344Y-89306880D01*
X139720428Y-89319724D01*
X139704671Y-89568921D01*
X139703964Y-89581709D01*
X139703824Y-89584669D01*
X139703331Y-89597207D01*
X139703327Y-89597311D01*
X139698940Y-89736199D01*
X139695440Y-89847001D01*
X139695164Y-89858188D01*
X139695116Y-89860845D01*
X139694997Y-89871880D01*
X139694506Y-89996460D01*
X139694507Y-89996461D01*
X139694501Y-89999828D01*
X139694501Y-90000347D01*
X139694507Y-90003538D01*
X139694997Y-90128113D01*
X139695116Y-90139138D01*
X139695165Y-90141844D01*
X139695438Y-90152963D01*
X139698938Y-90263729D01*
X139703327Y-90402685D01*
X139703330Y-90402780D01*
X139703331Y-90402788D01*
X139703821Y-90415254D01*
X139703961Y-90418202D01*
X139704671Y-90431093D01*
X139720426Y-90680249D01*
X139721324Y-90692848D01*
X139721583Y-90696115D01*
X139722668Y-90708565D01*
X139746267Y-90956968D01*
X139747599Y-90969905D01*
X139747921Y-90972795D01*
X139749409Y-90985286D01*
X139759365Y-91063699D01*
X139747937Y-91123807D01*
X139703361Y-91165720D01*
X139642663Y-91173426D01*
X139589027Y-91143983D01*
X139576263Y-91127106D01*
X139500000Y-91000000D01*
X139499999Y-90999999D01*
X137522172Y-93024652D01*
X137521415Y-93025418D01*
X137470189Y-93076727D01*
X137369081Y-93187957D01*
X137274083Y-93304400D01*
X137185437Y-93425756D01*
X137185417Y-93425785D01*
X137103403Y-93551670D01*
X137103379Y-93551710D01*
X137028206Y-93681797D01*
X137028194Y-93681818D01*
X136960063Y-93815760D01*
X136960050Y-93815788D01*
X136899178Y-93953171D01*
X136899174Y-93953181D01*
X136899172Y-93953186D01*
X136875636Y-94015029D01*
X136845716Y-94093646D01*
X136845709Y-94093665D01*
X136799837Y-94236770D01*
X136761671Y-94382134D01*
X136731321Y-94529347D01*
X136708885Y-94677940D01*
X136694416Y-94827524D01*
X136688735Y-94959641D01*
X136687959Y-94977694D01*
X129750500Y-94977694D01*
X129750500Y-77001952D01*
X129750576Y-76998065D01*
X129757064Y-76832946D01*
X132099500Y-76832946D01*
X132099500Y-77167053D01*
X132132248Y-77499555D01*
X132197431Y-77827253D01*
X132294414Y-78146967D01*
X132422273Y-78455645D01*
X132422286Y-78455672D01*
X132579773Y-78750312D01*
X132718993Y-78958667D01*
X132765399Y-79028118D01*
X132977357Y-79286390D01*
X133213610Y-79522643D01*
X133471882Y-79734601D01*
X133610783Y-79827412D01*
X133749687Y-79920226D01*
X134044327Y-80077713D01*
X134044346Y-80077723D01*
X134353024Y-80205582D01*
X134353026Y-80205582D01*
X134353032Y-80205585D01*
X134629376Y-80289412D01*
X134672749Y-80302569D01*
X135000441Y-80367751D01*
X135332944Y-80400500D01*
X135332947Y-80400500D01*
X135667053Y-80400500D01*
X135667056Y-80400500D01*
X135999559Y-80367751D01*
X136327251Y-80302569D01*
X136516857Y-80245052D01*
X136646967Y-80205585D01*
X136646969Y-80205583D01*
X136646976Y-80205582D01*
X136955654Y-80077723D01*
X137099640Y-80000760D01*
X137250312Y-79920226D01*
X137250315Y-79920224D01*
X137528118Y-79734601D01*
X137786390Y-79522643D01*
X138022643Y-79286390D01*
X138234601Y-79028118D01*
X138420224Y-78750315D01*
X138577723Y-78455654D01*
X138705582Y-78146976D01*
X138802569Y-77827251D01*
X138867751Y-77499559D01*
X138900500Y-77167056D01*
X138900500Y-76832944D01*
X138867751Y-76500441D01*
X138802569Y-76172749D01*
X138779520Y-76096765D01*
X138705585Y-75853032D01*
X138626299Y-75661618D01*
X138577723Y-75544346D01*
X138490477Y-75381119D01*
X138420226Y-75249687D01*
X138327412Y-75110783D01*
X138234601Y-74971882D01*
X138022643Y-74713610D01*
X137786390Y-74477357D01*
X137528118Y-74265399D01*
X137458667Y-74218993D01*
X137250312Y-74079773D01*
X136955672Y-73922286D01*
X136955660Y-73922280D01*
X136955654Y-73922277D01*
X136955649Y-73922274D01*
X136955645Y-73922273D01*
X136646967Y-73794414D01*
X136327253Y-73697431D01*
X136106777Y-73653576D01*
X135999559Y-73632249D01*
X135999557Y-73632248D01*
X135756491Y-73608308D01*
X135667056Y-73599500D01*
X135332944Y-73599500D01*
X135234700Y-73609176D01*
X135000444Y-73632248D01*
X134672746Y-73697431D01*
X134353032Y-73794414D01*
X134044354Y-73922273D01*
X134044327Y-73922286D01*
X133749687Y-74079773D01*
X133471880Y-74265400D01*
X133213615Y-74477352D01*
X132977352Y-74713615D01*
X132765400Y-74971880D01*
X132579773Y-75249687D01*
X132422286Y-75544327D01*
X132422273Y-75544354D01*
X132294414Y-75853032D01*
X132197431Y-76172746D01*
X132132248Y-76500444D01*
X132099500Y-76832946D01*
X129757064Y-76832946D01*
X129757312Y-76826627D01*
X129762204Y-76702105D01*
X129768071Y-76552772D01*
X129768681Y-76545034D01*
X129770331Y-76531093D01*
X129820831Y-76104423D01*
X129822040Y-76096785D01*
X129908604Y-75661599D01*
X129910410Y-75654077D01*
X130030850Y-75227033D01*
X130033239Y-75219677D01*
X130186819Y-74803382D01*
X130189775Y-74796246D01*
X130375541Y-74393288D01*
X130379044Y-74386412D01*
X130595855Y-73999269D01*
X130599890Y-73992684D01*
X130846404Y-73623750D01*
X130850961Y-73617478D01*
X131125638Y-73269051D01*
X131130683Y-73263145D01*
X131431861Y-72937333D01*
X131437333Y-72931861D01*
X131763149Y-72630679D01*
X131769056Y-72625635D01*
X131830577Y-72577136D01*
X132117478Y-72350961D01*
X132123750Y-72346404D01*
X132492684Y-72099890D01*
X132499269Y-72095855D01*
X132886412Y-71879044D01*
X132893288Y-71875541D01*
X133296246Y-71689775D01*
X133303382Y-71686819D01*
X133719677Y-71533239D01*
X133727033Y-71530850D01*
X134154077Y-71410410D01*
X134161599Y-71408604D01*
X134596785Y-71322040D01*
X134604423Y-71320831D01*
X135045045Y-71268680D01*
X135052772Y-71268071D01*
X135498066Y-71250576D01*
X135501953Y-71250500D01*
X135544170Y-71250500D01*
X161455830Y-71250500D01*
X161498047Y-71250500D01*
X161501934Y-71250576D01*
G37*
%TD.AperFunction*%
%TD*%
%TA.AperFunction,Conductor*%
%TO.N,VCC*%
G36*
X147500709Y-102500008D02*
G01*
X147502009Y-102500022D01*
X147521805Y-102500244D01*
X147534276Y-102501015D01*
X147576922Y-102505820D01*
X147590613Y-102508146D01*
X147631761Y-102517537D01*
X147645118Y-102521385D01*
X147684951Y-102535324D01*
X147697796Y-102540645D01*
X147735818Y-102558956D01*
X147747986Y-102565681D01*
X147783709Y-102588127D01*
X147795051Y-102596174D01*
X147828045Y-102622486D01*
X147838413Y-102631752D01*
X147868247Y-102661586D01*
X147877513Y-102671954D01*
X147903825Y-102704948D01*
X147911872Y-102716290D01*
X147934318Y-102752013D01*
X147941043Y-102764181D01*
X147959354Y-102802203D01*
X147964676Y-102815051D01*
X147978613Y-102854880D01*
X147982463Y-102868244D01*
X147991851Y-102909378D01*
X147994180Y-102923085D01*
X147998983Y-102965710D01*
X147999755Y-102978200D01*
X148000000Y-102999998D01*
X148000000Y-103000001D01*
X148000314Y-103028064D01*
X148000315Y-103028066D01*
X148006597Y-103083821D01*
X148006598Y-103083827D01*
X148006599Y-103083832D01*
X148013191Y-103112715D01*
X148019087Y-103138551D01*
X148037621Y-103191516D01*
X148037627Y-103191530D01*
X148061971Y-103242082D01*
X148061976Y-103242090D01*
X148091830Y-103289604D01*
X148091831Y-103289605D01*
X148091834Y-103289609D01*
X148126827Y-103333488D01*
X148166512Y-103373173D01*
X148201024Y-103400696D01*
X148203982Y-103403055D01*
X148244120Y-103460245D01*
X148246968Y-103530056D01*
X148211621Y-103590325D01*
X148203982Y-103596945D01*
X148166506Y-103626832D01*
X148126830Y-103666509D01*
X148126829Y-103666509D01*
X148091831Y-103710394D01*
X148091830Y-103710395D01*
X148061976Y-103757909D01*
X148061971Y-103757917D01*
X148037627Y-103808469D01*
X148037621Y-103808483D01*
X148019087Y-103861448D01*
X148006597Y-103916178D01*
X148000315Y-103971933D01*
X148000314Y-103971935D01*
X148000000Y-103999999D01*
X148000000Y-104000002D01*
X147999755Y-104021799D01*
X147998983Y-104034289D01*
X147994180Y-104076914D01*
X147991851Y-104090621D01*
X147982463Y-104131755D01*
X147978613Y-104145119D01*
X147964676Y-104184948D01*
X147959354Y-104197796D01*
X147941043Y-104235818D01*
X147934318Y-104247986D01*
X147911872Y-104283709D01*
X147903825Y-104295051D01*
X147877513Y-104328045D01*
X147868247Y-104338413D01*
X147838413Y-104368247D01*
X147828045Y-104377513D01*
X147795051Y-104403825D01*
X147783709Y-104411872D01*
X147747986Y-104434318D01*
X147735818Y-104441043D01*
X147697796Y-104459354D01*
X147684948Y-104464676D01*
X147645119Y-104478613D01*
X147631755Y-104482463D01*
X147590621Y-104491851D01*
X147576914Y-104494180D01*
X147534289Y-104498983D01*
X147521799Y-104499755D01*
X147502379Y-104499973D01*
X147500710Y-104499992D01*
X147499321Y-104500000D01*
X145500679Y-104500000D01*
X145499289Y-104499992D01*
X145497561Y-104499972D01*
X145478200Y-104499755D01*
X145465710Y-104498983D01*
X145423085Y-104494180D01*
X145409378Y-104491851D01*
X145368244Y-104482463D01*
X145354880Y-104478613D01*
X145315051Y-104464676D01*
X145302203Y-104459354D01*
X145264181Y-104441043D01*
X145252013Y-104434318D01*
X145216290Y-104411872D01*
X145204948Y-104403825D01*
X145171954Y-104377513D01*
X145161586Y-104368247D01*
X145131752Y-104338413D01*
X145122486Y-104328045D01*
X145096174Y-104295051D01*
X145088127Y-104283709D01*
X145065681Y-104247986D01*
X145058956Y-104235818D01*
X145040645Y-104197796D01*
X145035323Y-104184948D01*
X145021386Y-104145119D01*
X145017536Y-104131755D01*
X145008148Y-104090621D01*
X145005820Y-104076922D01*
X145001015Y-104034276D01*
X145000244Y-104021805D01*
X145000008Y-104000708D01*
X145000000Y-103999320D01*
X145000000Y-103000679D01*
X145000008Y-102999291D01*
X145000022Y-102998012D01*
X145000244Y-102978193D01*
X145001015Y-102965724D01*
X145005820Y-102923074D01*
X145008146Y-102909389D01*
X145017539Y-102868233D01*
X145021386Y-102854880D01*
X145035326Y-102815041D01*
X145040645Y-102802203D01*
X145058956Y-102764181D01*
X145065677Y-102752020D01*
X145088131Y-102716284D01*
X145096168Y-102704956D01*
X145122495Y-102671942D01*
X145131743Y-102661595D01*
X145161595Y-102631743D01*
X145171942Y-102622495D01*
X145204956Y-102596168D01*
X145216284Y-102588131D01*
X145252020Y-102565677D01*
X145264181Y-102558956D01*
X145265363Y-102558386D01*
X145302209Y-102540642D01*
X145315041Y-102535326D01*
X145354885Y-102521384D01*
X145368233Y-102517539D01*
X145409389Y-102508146D01*
X145423074Y-102505820D01*
X145465724Y-102501015D01*
X145478193Y-102500244D01*
X145498012Y-102500022D01*
X145499291Y-102500008D01*
X145500679Y-102500000D01*
X147499321Y-102500000D01*
X147500709Y-102500008D01*
G37*
%TD.AperFunction*%
%TD*%
%TA.AperFunction,Conductor*%
%TO.N,/Project Architecture/Section C - Touch sensor/TOUCH*%
G36*
X148687914Y-82001732D02*
G01*
X148690957Y-82001805D01*
X148940336Y-82011651D01*
X148943356Y-82011819D01*
X149192285Y-82029533D01*
X149195294Y-82029795D01*
X149443498Y-82055354D01*
X149446599Y-82055722D01*
X149693863Y-82089103D01*
X149696895Y-82089561D01*
X149942999Y-82130734D01*
X149946022Y-82131289D01*
X150190705Y-82180210D01*
X150193689Y-82180856D01*
X150436763Y-82237490D01*
X150439715Y-82238228D01*
X150680792Y-82302485D01*
X150683732Y-82303317D01*
X150922699Y-82375165D01*
X150925671Y-82376110D01*
X151162220Y-82455454D01*
X151165139Y-82456485D01*
X151399050Y-82543251D01*
X151401905Y-82544361D01*
X151633011Y-82638489D01*
X151635865Y-82639705D01*
X151863811Y-82741050D01*
X151866634Y-82742358D01*
X152091324Y-82850875D01*
X152094081Y-82852261D01*
X152315208Y-82967805D01*
X152317932Y-82969283D01*
X152425078Y-83029649D01*
X152535300Y-83091748D01*
X152537991Y-83093320D01*
X152643272Y-83157096D01*
X152751370Y-83222578D01*
X152754012Y-83224236D01*
X152857319Y-83291364D01*
X152963190Y-83360157D01*
X152965773Y-83361893D01*
X153068322Y-83433231D01*
X153170586Y-83504370D01*
X153173123Y-83506195D01*
X153373318Y-83655053D01*
X153375797Y-83656958D01*
X153571175Y-83812047D01*
X153573592Y-83814028D01*
X153764008Y-83975234D01*
X153766361Y-83977291D01*
X153951573Y-84144410D01*
X153953861Y-84146541D01*
X154133715Y-84319433D01*
X154135892Y-84321592D01*
X154310249Y-84500127D01*
X154312374Y-84502374D01*
X154480963Y-84686276D01*
X154483038Y-84688613D01*
X154645711Y-84877714D01*
X154647712Y-84880115D01*
X154804367Y-85074297D01*
X154806291Y-85076761D01*
X154956709Y-85275755D01*
X154958554Y-85278277D01*
X155102631Y-85481942D01*
X155104396Y-85484522D01*
X155241983Y-85692652D01*
X155243665Y-85695286D01*
X155374579Y-85907598D01*
X155376178Y-85910285D01*
X155500362Y-86126692D01*
X155501874Y-86129427D01*
X155619137Y-86349594D01*
X155620563Y-86352376D01*
X155730829Y-86576159D01*
X155732166Y-86578984D01*
X155835314Y-86806139D01*
X155836561Y-86809005D01*
X155932483Y-87039294D01*
X155933639Y-87042198D01*
X156022241Y-87275395D01*
X156023305Y-87278334D01*
X156104500Y-87514209D01*
X156105471Y-87517180D01*
X156179191Y-87755538D01*
X156180067Y-87758539D01*
X156246214Y-87999065D01*
X156246995Y-88002091D01*
X156305522Y-88244607D01*
X156306207Y-88247656D01*
X156331902Y-88371096D01*
X156357042Y-88491865D01*
X156357631Y-88494935D01*
X156400741Y-88740682D01*
X156401232Y-88743770D01*
X156436554Y-88990705D01*
X156436948Y-88993805D01*
X156464461Y-89241749D01*
X156464757Y-89244861D01*
X156484429Y-89493571D01*
X156484626Y-89496690D01*
X156496436Y-89745864D01*
X156496535Y-89748988D01*
X156500474Y-89998437D01*
X156500474Y-90001563D01*
X156496535Y-90251011D01*
X156496436Y-90254135D01*
X156484626Y-90503309D01*
X156484429Y-90506428D01*
X156464757Y-90755138D01*
X156464461Y-90758250D01*
X156436948Y-91006194D01*
X156436554Y-91009294D01*
X156401232Y-91256229D01*
X156400741Y-91259317D01*
X156357631Y-91505064D01*
X156357042Y-91508134D01*
X156306207Y-91752343D01*
X156305522Y-91755392D01*
X156246995Y-91997908D01*
X156246214Y-92000934D01*
X156180067Y-92241460D01*
X156179191Y-92244461D01*
X156105471Y-92482819D01*
X156104500Y-92485790D01*
X156023305Y-92721665D01*
X156022241Y-92724604D01*
X155933639Y-92957801D01*
X155932483Y-92960705D01*
X155836561Y-93190994D01*
X155835314Y-93193860D01*
X155732166Y-93421015D01*
X155730829Y-93423840D01*
X155620563Y-93647623D01*
X155619137Y-93650405D01*
X155501874Y-93870572D01*
X155500362Y-93873307D01*
X155376178Y-94089714D01*
X155374579Y-94092401D01*
X155243665Y-94304713D01*
X155241983Y-94307347D01*
X155104396Y-94515477D01*
X155102631Y-94518057D01*
X154958554Y-94721722D01*
X154956709Y-94724244D01*
X154806291Y-94923238D01*
X154804367Y-94925702D01*
X154647712Y-95119884D01*
X154645711Y-95122285D01*
X154483038Y-95311386D01*
X154480963Y-95313723D01*
X154312374Y-95497625D01*
X154310226Y-95499896D01*
X154135934Y-95678365D01*
X154133715Y-95680566D01*
X153953861Y-95853458D01*
X153951573Y-95855589D01*
X153766361Y-96022708D01*
X153764008Y-96024765D01*
X153573592Y-96185971D01*
X153571175Y-96187952D01*
X153375797Y-96343041D01*
X153373318Y-96344946D01*
X153173123Y-96493804D01*
X153170586Y-96495629D01*
X152965784Y-96638098D01*
X152963190Y-96639842D01*
X152754018Y-96775759D01*
X152751371Y-96777421D01*
X152646618Y-96840877D01*
X152587050Y-96854855D01*
X152530643Y-96831150D01*
X152498942Y-96778818D01*
X152496801Y-96765905D01*
X152462655Y-96419223D01*
X152461973Y-96412297D01*
X152385290Y-96026785D01*
X152358609Y-95938830D01*
X152271193Y-95650655D01*
X152178646Y-95427225D01*
X152120771Y-95287503D01*
X152083971Y-95218654D01*
X151935484Y-94940853D01*
X151759812Y-94677944D01*
X151717107Y-94614031D01*
X151467750Y-94310188D01*
X151189812Y-94032250D01*
X150885969Y-93782893D01*
X150734699Y-93681817D01*
X150559146Y-93564515D01*
X150212515Y-93379238D01*
X150212503Y-93379232D01*
X150212497Y-93379229D01*
X150212492Y-93379226D01*
X150212488Y-93379225D01*
X149849344Y-93228806D01*
X149473217Y-93114710D01*
X149213839Y-93063117D01*
X149087703Y-93038027D01*
X149087701Y-93038026D01*
X148696540Y-92999500D01*
X148696532Y-92999500D01*
X148303468Y-92999500D01*
X148303460Y-92999500D01*
X147912300Y-93038026D01*
X147526782Y-93114710D01*
X147150655Y-93228806D01*
X146787511Y-93379225D01*
X146787484Y-93379238D01*
X146440853Y-93564515D01*
X146114029Y-93782894D01*
X145810193Y-94032245D01*
X145532245Y-94310193D01*
X145282894Y-94614029D01*
X145064515Y-94940853D01*
X144879238Y-95287484D01*
X144879225Y-95287511D01*
X144728806Y-95650655D01*
X144614710Y-96026782D01*
X144538026Y-96412300D01*
X144503095Y-96766960D01*
X144478575Y-96823017D01*
X144425788Y-96853956D01*
X144364898Y-96847959D01*
X144351948Y-96841111D01*
X144142176Y-96709467D01*
X144139555Y-96707764D01*
X143932539Y-96568552D01*
X143930007Y-96566791D01*
X143727409Y-96421057D01*
X143724944Y-96419223D01*
X143527133Y-96267230D01*
X143524685Y-96265287D01*
X143331760Y-96107117D01*
X143329374Y-96105097D01*
X143141548Y-95940924D01*
X143139227Y-95938830D01*
X142956665Y-95768796D01*
X142954412Y-95766630D01*
X142777307Y-95590918D01*
X142775124Y-95588682D01*
X142603686Y-95407501D01*
X142601573Y-95405197D01*
X142435907Y-95218654D01*
X142433869Y-95216285D01*
X142274185Y-95024621D01*
X142272222Y-95022188D01*
X142118646Y-94825547D01*
X142116774Y-94823070D01*
X141969503Y-94621710D01*
X141967729Y-94619202D01*
X141826847Y-94413233D01*
X141825124Y-94410625D01*
X141690872Y-94200401D01*
X141689231Y-94197740D01*
X141561675Y-93983368D01*
X141560119Y-93980658D01*
X141439366Y-93762318D01*
X141437897Y-93759559D01*
X141430229Y-93744597D01*
X141324094Y-93537509D01*
X141322748Y-93534777D01*
X141216010Y-93309242D01*
X141214754Y-93306478D01*
X141115174Y-93077651D01*
X141113979Y-93074782D01*
X141021708Y-92843013D01*
X141020598Y-92840092D01*
X140935678Y-92605498D01*
X140934674Y-92602581D01*
X140857187Y-92365377D01*
X140856293Y-92362488D01*
X140786339Y-92122972D01*
X140785510Y-92119959D01*
X140754789Y-92000934D01*
X140723155Y-91878369D01*
X140722429Y-91875359D01*
X140667731Y-91631923D01*
X140667111Y-91628944D01*
X140620119Y-91383858D01*
X140619591Y-91380847D01*
X140580355Y-91134384D01*
X140579927Y-91131387D01*
X140548494Y-90883829D01*
X140548160Y-90880826D01*
X140524560Y-90632409D01*
X140524315Y-90629317D01*
X140508568Y-90380281D01*
X140508425Y-90377253D01*
X140500539Y-90127607D01*
X140500492Y-90124946D01*
X140500001Y-90000253D01*
X140500001Y-89999746D01*
X140500492Y-89875052D01*
X140500539Y-89872394D01*
X140508425Y-89622743D01*
X140508568Y-89619721D01*
X140524317Y-89370650D01*
X140524562Y-89367567D01*
X140548161Y-89119166D01*
X140548493Y-89116177D01*
X140579928Y-88868603D01*
X140580353Y-88865624D01*
X140619592Y-88619141D01*
X140620117Y-88616152D01*
X140667114Y-88371042D01*
X140667728Y-88368089D01*
X140722435Y-88124612D01*
X140723151Y-88121644D01*
X140785518Y-87880009D01*
X140786339Y-87877027D01*
X140856298Y-87637493D01*
X140857181Y-87634640D01*
X140934680Y-87397398D01*
X140935664Y-87394539D01*
X141020599Y-87159903D01*
X141021708Y-87156986D01*
X141067407Y-87042198D01*
X141113995Y-86925176D01*
X141115164Y-86922370D01*
X141214764Y-86693498D01*
X141215999Y-86690781D01*
X141322761Y-86465196D01*
X141324082Y-86462514D01*
X141437909Y-86240416D01*
X141439366Y-86237681D01*
X141499236Y-86129427D01*
X141560135Y-86019312D01*
X141561658Y-86016660D01*
X141689255Y-85802219D01*
X141690847Y-85799638D01*
X141825142Y-85589345D01*
X141826829Y-85586792D01*
X141967749Y-85380767D01*
X141969481Y-85378319D01*
X142116809Y-85176881D01*
X142118623Y-85174481D01*
X142272251Y-84977774D01*
X142274156Y-84975413D01*
X142433871Y-84783711D01*
X142435907Y-84781345D01*
X142518261Y-84688613D01*
X142601609Y-84594762D01*
X142603649Y-84592537D01*
X142775144Y-84411296D01*
X142777287Y-84409101D01*
X142954420Y-84233361D01*
X142956665Y-84231203D01*
X143049853Y-84144410D01*
X143139253Y-84061145D01*
X143141522Y-84059098D01*
X143329397Y-83894881D01*
X143331736Y-83892901D01*
X143524720Y-83734684D01*
X143527097Y-83732797D01*
X143724988Y-83580742D01*
X143727369Y-83578971D01*
X143930048Y-83433178D01*
X143932503Y-83431471D01*
X144139578Y-83292220D01*
X144142153Y-83290546D01*
X144353523Y-83157900D01*
X144356103Y-83156337D01*
X144571600Y-83030403D01*
X144574213Y-83028931D01*
X144793576Y-82909864D01*
X144796201Y-82908492D01*
X145019259Y-82796386D01*
X145021964Y-82795080D01*
X145248338Y-82690124D01*
X145251147Y-82688875D01*
X145480768Y-82591097D01*
X145483561Y-82589960D01*
X145716138Y-82499485D01*
X145719020Y-82498417D01*
X145954319Y-82415337D01*
X145957205Y-82414370D01*
X146194994Y-82338764D01*
X146197934Y-82337879D01*
X146438054Y-82269800D01*
X146440944Y-82269030D01*
X146683110Y-82208561D01*
X146686029Y-82207881D01*
X146929964Y-82155092D01*
X146932911Y-82154502D01*
X147178376Y-82109442D01*
X147181384Y-82108939D01*
X147428138Y-82071651D01*
X147431167Y-82071242D01*
X147678931Y-82041769D01*
X147682023Y-82041450D01*
X147930612Y-82019812D01*
X147933611Y-82019599D01*
X148182822Y-82005815D01*
X148185847Y-82005695D01*
X148435292Y-81999787D01*
X148438384Y-81999763D01*
X148687914Y-82001732D01*
G37*
%TD.AperFunction*%
%TD*%
M02*
