%TF.GenerationSoftware,KiCad,Pcbnew,9.0.7+1*%
%TF.CreationDate,Date%
%TF.ProjectId,Sienkiewicz_TOUCH,5369656e-6b69-4657-9769-637a5f544f55,+ (Unreleased)*%
%TF.SameCoordinates,Original*%
%TF.FileFunction,Legend,Top*%
%TF.FilePolarity,Positive*%
%FSLAX46Y46*%
G04 Gerber Fmt 4.6, Leading zero omitted, Abs format (unit mm)*
G04 Created by KiCad*
%MOMM*%
%LPD*%
G01*
G04 APERTURE LIST*
G04 Aperture macros list*
%AMRoundRect*
0 Rectangle with rounded corners*
0 $1 Rounding radius*
0 $2 $3 $4 $5 $6 $7 $8 $9 X,Y pos of 4 corners*
0 Add a 4 corners polygon primitive as box body*
4,1,4,$2,$3,$4,$5,$6,$7,$8,$9,$2,$3,0*
0 Add four circle primitives for the rounded corners*
1,1,$1+$1,$2,$3*
1,1,$1+$1,$4,$5*
1,1,$1+$1,$6,$7*
1,1,$1+$1,$8,$9*
0 Add four rect primitives between the rounded corners*
20,1,$1+$1,$2,$3,$4,$5,0*
20,1,$1+$1,$4,$5,$6,$7,0*
20,1,$1+$1,$6,$7,$8,$9,0*
20,1,$1+$1,$8,$9,$2,$3,0*%
G04 Aperture macros list end*
%ADD10C,0.150000*%
%ADD11C,0.100000*%
%ADD12C,0.120000*%
%ADD13C,0.200000*%
%ADD14RoundRect,0.274390X0.475610X-0.288110X0.475610X0.288110X-0.475610X0.288110X-0.475610X-0.288110X0*%
%ADD15RoundRect,0.270000X0.655000X-0.405000X0.655000X0.405000X-0.655000X0.405000X-0.655000X-0.405000X0*%
%ADD16RoundRect,0.175000X-0.850000X-0.175000X0.850000X-0.175000X0.850000X0.175000X-0.850000X0.175000X0*%
%ADD17RoundRect,0.275000X-0.500000X0.275000X-0.500000X-0.275000X0.500000X-0.275000X0.500000X0.275000X0*%
%ADD18C,1.600000*%
%ADD19RoundRect,0.274390X-0.288110X-0.475610X0.288110X-0.475610X0.288110X0.475610X-0.288110X0.475610X0*%
%ADD20RoundRect,0.274390X0.288110X0.475610X-0.288110X0.475610X-0.288110X-0.475610X0.288110X-0.475610X0*%
%ADD21RoundRect,0.274390X-0.475610X0.288110X-0.475610X-0.288110X0.475610X-0.288110X0.475610X0.288110X0*%
%ADD22RoundRect,0.271739X0.353261X1.128261X-0.353261X1.128261X-0.353261X-1.128261X0.353261X-1.128261X0*%
%ADD23RoundRect,0.271739X-0.353261X-1.128261X0.353261X-1.128261X0.353261X1.128261X-0.353261X1.128261X0*%
%ADD24C,0.900000*%
%ADD25C,6.500000*%
%ADD26RoundRect,0.275000X-0.275000X-0.500000X0.275000X-0.500000X0.275000X0.500000X-0.275000X0.500000X0*%
%ADD27C,1.090600*%
%ADD28C,0.887400*%
%ADD29RoundRect,0.102000X0.350000X0.600000X-0.350000X0.600000X-0.350000X-0.600000X0.350000X-0.600000X0*%
%ADD30RoundRect,0.102000X0.380000X0.600000X-0.380000X0.600000X-0.380000X-0.600000X0.380000X-0.600000X0*%
%ADD31RoundRect,0.102000X0.400000X0.600000X-0.400000X0.600000X-0.400000X-0.600000X0.400000X-0.600000X0*%
%ADD32RoundRect,0.102000X0.900000X0.675000X-0.900000X0.675000X-0.900000X-0.675000X0.900000X-0.675000X0*%
%ADD33RoundRect,0.102000X0.900000X0.750000X-0.900000X0.750000X-0.900000X-0.750000X0.900000X-0.750000X0*%
%ADD34RoundRect,0.175000X-0.537500X-0.175000X0.537500X-0.175000X0.537500X0.175000X-0.537500X0.175000X0*%
G04 APERTURE END LIST*
D10*
X150042857Y-102698342D02*
X149985715Y-102669771D01*
X149985715Y-102669771D02*
X149900000Y-102669771D01*
X149900000Y-102669771D02*
X149814286Y-102698342D01*
X149814286Y-102698342D02*
X149757143Y-102755485D01*
X149757143Y-102755485D02*
X149728572Y-102812628D01*
X149728572Y-102812628D02*
X149700000Y-102926914D01*
X149700000Y-102926914D02*
X149700000Y-103012628D01*
X149700000Y-103012628D02*
X149728572Y-103126914D01*
X149728572Y-103126914D02*
X149757143Y-103184057D01*
X149757143Y-103184057D02*
X149814286Y-103241200D01*
X149814286Y-103241200D02*
X149900000Y-103269771D01*
X149900000Y-103269771D02*
X149957143Y-103269771D01*
X149957143Y-103269771D02*
X150042857Y-103241200D01*
X150042857Y-103241200D02*
X150071429Y-103212628D01*
X150071429Y-103212628D02*
X150071429Y-103012628D01*
X150071429Y-103012628D02*
X149957143Y-103012628D01*
X150328572Y-103269771D02*
X150328572Y-102669771D01*
X150328572Y-102669771D02*
X150671429Y-103269771D01*
X150671429Y-103269771D02*
X150671429Y-102669771D01*
X150957143Y-103269771D02*
X150957143Y-102669771D01*
X150957143Y-102669771D02*
X151100000Y-102669771D01*
X151100000Y-102669771D02*
X151185714Y-102698342D01*
X151185714Y-102698342D02*
X151242857Y-102755485D01*
X151242857Y-102755485D02*
X151271428Y-102812628D01*
X151271428Y-102812628D02*
X151300000Y-102926914D01*
X151300000Y-102926914D02*
X151300000Y-103012628D01*
X151300000Y-103012628D02*
X151271428Y-103126914D01*
X151271428Y-103126914D02*
X151242857Y-103184057D01*
X151242857Y-103184057D02*
X151185714Y-103241200D01*
X151185714Y-103241200D02*
X151100000Y-103269771D01*
X151100000Y-103269771D02*
X150957143Y-103269771D01*
X145800000Y-102669771D02*
X146200000Y-103269771D01*
X146200000Y-102669771D02*
X145800000Y-103269771D01*
X148300000Y-102669771D02*
X148700000Y-103269771D01*
X148700000Y-102669771D02*
X148300000Y-103269771D01*
X147585715Y-101169771D02*
X147585715Y-101655485D01*
X147585715Y-101655485D02*
X147614286Y-101712628D01*
X147614286Y-101712628D02*
X147642858Y-101741200D01*
X147642858Y-101741200D02*
X147700000Y-101769771D01*
X147700000Y-101769771D02*
X147814286Y-101769771D01*
X147814286Y-101769771D02*
X147871429Y-101741200D01*
X147871429Y-101741200D02*
X147900000Y-101712628D01*
X147900000Y-101712628D02*
X147928572Y-101655485D01*
X147928572Y-101655485D02*
X147928572Y-101169771D01*
X148214286Y-101769771D02*
X148214286Y-101169771D01*
X148214286Y-101169771D02*
X148442857Y-101169771D01*
X148442857Y-101169771D02*
X148500000Y-101198342D01*
X148500000Y-101198342D02*
X148528571Y-101226914D01*
X148528571Y-101226914D02*
X148557143Y-101284057D01*
X148557143Y-101284057D02*
X148557143Y-101369771D01*
X148557143Y-101369771D02*
X148528571Y-101426914D01*
X148528571Y-101426914D02*
X148500000Y-101455485D01*
X148500000Y-101455485D02*
X148442857Y-101484057D01*
X148442857Y-101484057D02*
X148214286Y-101484057D01*
X148814286Y-101769771D02*
X148814286Y-101169771D01*
X148814286Y-101169771D02*
X148957143Y-101169771D01*
X148957143Y-101169771D02*
X149042857Y-101198342D01*
X149042857Y-101198342D02*
X149100000Y-101255485D01*
X149100000Y-101255485D02*
X149128571Y-101312628D01*
X149128571Y-101312628D02*
X149157143Y-101426914D01*
X149157143Y-101426914D02*
X149157143Y-101512628D01*
X149157143Y-101512628D02*
X149128571Y-101626914D01*
X149128571Y-101626914D02*
X149100000Y-101684057D01*
X149100000Y-101684057D02*
X149042857Y-101741200D01*
X149042857Y-101741200D02*
X148957143Y-101769771D01*
X148957143Y-101769771D02*
X148814286Y-101769771D01*
X149414286Y-101769771D02*
X149414286Y-101169771D01*
X150300000Y-101169771D02*
X150700000Y-101769771D01*
X150700000Y-101169771D02*
X150300000Y-101769771D01*
X145199999Y-101169771D02*
X145399999Y-101769771D01*
X145399999Y-101769771D02*
X145599999Y-101169771D01*
X146142857Y-101712628D02*
X146114285Y-101741200D01*
X146114285Y-101741200D02*
X146028571Y-101769771D01*
X146028571Y-101769771D02*
X145971428Y-101769771D01*
X145971428Y-101769771D02*
X145885714Y-101741200D01*
X145885714Y-101741200D02*
X145828571Y-101684057D01*
X145828571Y-101684057D02*
X145800000Y-101626914D01*
X145800000Y-101626914D02*
X145771428Y-101512628D01*
X145771428Y-101512628D02*
X145771428Y-101426914D01*
X145771428Y-101426914D02*
X145800000Y-101312628D01*
X145800000Y-101312628D02*
X145828571Y-101255485D01*
X145828571Y-101255485D02*
X145885714Y-101198342D01*
X145885714Y-101198342D02*
X145971428Y-101169771D01*
X145971428Y-101169771D02*
X146028571Y-101169771D01*
X146028571Y-101169771D02*
X146114285Y-101198342D01*
X146114285Y-101198342D02*
X146142857Y-101226914D01*
X146742857Y-101712628D02*
X146714285Y-101741200D01*
X146714285Y-101741200D02*
X146628571Y-101769771D01*
X146628571Y-101769771D02*
X146571428Y-101769771D01*
X146571428Y-101769771D02*
X146485714Y-101741200D01*
X146485714Y-101741200D02*
X146428571Y-101684057D01*
X146428571Y-101684057D02*
X146400000Y-101626914D01*
X146400000Y-101626914D02*
X146371428Y-101512628D01*
X146371428Y-101512628D02*
X146371428Y-101426914D01*
X146371428Y-101426914D02*
X146400000Y-101312628D01*
X146400000Y-101312628D02*
X146428571Y-101255485D01*
X146428571Y-101255485D02*
X146485714Y-101198342D01*
X146485714Y-101198342D02*
X146571428Y-101169771D01*
X146571428Y-101169771D02*
X146628571Y-101169771D01*
X146628571Y-101169771D02*
X146714285Y-101198342D01*
X146714285Y-101198342D02*
X146742857Y-101226914D01*
X140833333Y-103454819D02*
X140500000Y-102978628D01*
X140261905Y-103454819D02*
X140261905Y-102454819D01*
X140261905Y-102454819D02*
X140642857Y-102454819D01*
X140642857Y-102454819D02*
X140738095Y-102502438D01*
X140738095Y-102502438D02*
X140785714Y-102550057D01*
X140785714Y-102550057D02*
X140833333Y-102645295D01*
X140833333Y-102645295D02*
X140833333Y-102788152D01*
X140833333Y-102788152D02*
X140785714Y-102883390D01*
X140785714Y-102883390D02*
X140738095Y-102931009D01*
X140738095Y-102931009D02*
X140642857Y-102978628D01*
X140642857Y-102978628D02*
X140261905Y-102978628D01*
X141214286Y-102550057D02*
X141261905Y-102502438D01*
X141261905Y-102502438D02*
X141357143Y-102454819D01*
X141357143Y-102454819D02*
X141595238Y-102454819D01*
X141595238Y-102454819D02*
X141690476Y-102502438D01*
X141690476Y-102502438D02*
X141738095Y-102550057D01*
X141738095Y-102550057D02*
X141785714Y-102645295D01*
X141785714Y-102645295D02*
X141785714Y-102740533D01*
X141785714Y-102740533D02*
X141738095Y-102883390D01*
X141738095Y-102883390D02*
X141166667Y-103454819D01*
X141166667Y-103454819D02*
X141785714Y-103454819D01*
X152761905Y-103454819D02*
X152761905Y-102454819D01*
X152761905Y-102454819D02*
X153000000Y-102454819D01*
X153000000Y-102454819D02*
X153142857Y-102502438D01*
X153142857Y-102502438D02*
X153238095Y-102597676D01*
X153238095Y-102597676D02*
X153285714Y-102692914D01*
X153285714Y-102692914D02*
X153333333Y-102883390D01*
X153333333Y-102883390D02*
X153333333Y-103026247D01*
X153333333Y-103026247D02*
X153285714Y-103216723D01*
X153285714Y-103216723D02*
X153238095Y-103311961D01*
X153238095Y-103311961D02*
X153142857Y-103407200D01*
X153142857Y-103407200D02*
X153000000Y-103454819D01*
X153000000Y-103454819D02*
X152761905Y-103454819D01*
X154285714Y-103454819D02*
X153714286Y-103454819D01*
X154000000Y-103454819D02*
X154000000Y-102454819D01*
X154000000Y-102454819D02*
X153904762Y-102597676D01*
X153904762Y-102597676D02*
X153809524Y-102692914D01*
X153809524Y-102692914D02*
X153714286Y-102740533D01*
X160738095Y-94954819D02*
X160738095Y-95764342D01*
X160738095Y-95764342D02*
X160785714Y-95859580D01*
X160785714Y-95859580D02*
X160833333Y-95907200D01*
X160833333Y-95907200D02*
X160928571Y-95954819D01*
X160928571Y-95954819D02*
X161119047Y-95954819D01*
X161119047Y-95954819D02*
X161214285Y-95907200D01*
X161214285Y-95907200D02*
X161261904Y-95859580D01*
X161261904Y-95859580D02*
X161309523Y-95764342D01*
X161309523Y-95764342D02*
X161309523Y-94954819D01*
X162309523Y-95954819D02*
X161738095Y-95954819D01*
X162023809Y-95954819D02*
X162023809Y-94954819D01*
X162023809Y-94954819D02*
X161928571Y-95097676D01*
X161928571Y-95097676D02*
X161833333Y-95192914D01*
X161833333Y-95192914D02*
X161738095Y-95240533D01*
X155380952Y-81359580D02*
X155333333Y-81407200D01*
X155333333Y-81407200D02*
X155190476Y-81454819D01*
X155190476Y-81454819D02*
X155095238Y-81454819D01*
X155095238Y-81454819D02*
X154952381Y-81407200D01*
X154952381Y-81407200D02*
X154857143Y-81311961D01*
X154857143Y-81311961D02*
X154809524Y-81216723D01*
X154809524Y-81216723D02*
X154761905Y-81026247D01*
X154761905Y-81026247D02*
X154761905Y-80883390D01*
X154761905Y-80883390D02*
X154809524Y-80692914D01*
X154809524Y-80692914D02*
X154857143Y-80597676D01*
X154857143Y-80597676D02*
X154952381Y-80502438D01*
X154952381Y-80502438D02*
X155095238Y-80454819D01*
X155095238Y-80454819D02*
X155190476Y-80454819D01*
X155190476Y-80454819D02*
X155333333Y-80502438D01*
X155333333Y-80502438D02*
X155380952Y-80550057D01*
X155809524Y-81454819D02*
X155809524Y-80454819D01*
X155809524Y-80835771D02*
X155904762Y-80788152D01*
X155904762Y-80788152D02*
X156095238Y-80788152D01*
X156095238Y-80788152D02*
X156190476Y-80835771D01*
X156190476Y-80835771D02*
X156238095Y-80883390D01*
X156238095Y-80883390D02*
X156285714Y-80978628D01*
X156285714Y-80978628D02*
X156285714Y-81264342D01*
X156285714Y-81264342D02*
X156238095Y-81359580D01*
X156238095Y-81359580D02*
X156190476Y-81407200D01*
X156190476Y-81407200D02*
X156095238Y-81454819D01*
X156095238Y-81454819D02*
X155904762Y-81454819D01*
X155904762Y-81454819D02*
X155809524Y-81407200D01*
X156666667Y-80550057D02*
X156714286Y-80502438D01*
X156714286Y-80502438D02*
X156809524Y-80454819D01*
X156809524Y-80454819D02*
X157047619Y-80454819D01*
X157047619Y-80454819D02*
X157142857Y-80502438D01*
X157142857Y-80502438D02*
X157190476Y-80550057D01*
X157190476Y-80550057D02*
X157238095Y-80645295D01*
X157238095Y-80645295D02*
X157238095Y-80740533D01*
X157238095Y-80740533D02*
X157190476Y-80883390D01*
X157190476Y-80883390D02*
X156619048Y-81454819D01*
X156619048Y-81454819D02*
X157238095Y-81454819D01*
X132738095Y-81454819D02*
X133309523Y-81454819D01*
X133023809Y-82454819D02*
X133023809Y-81454819D01*
X133642857Y-82454819D02*
X133642857Y-81454819D01*
X133642857Y-81454819D02*
X134023809Y-81454819D01*
X134023809Y-81454819D02*
X134119047Y-81502438D01*
X134119047Y-81502438D02*
X134166666Y-81550057D01*
X134166666Y-81550057D02*
X134214285Y-81645295D01*
X134214285Y-81645295D02*
X134214285Y-81788152D01*
X134214285Y-81788152D02*
X134166666Y-81883390D01*
X134166666Y-81883390D02*
X134119047Y-81931009D01*
X134119047Y-81931009D02*
X134023809Y-81978628D01*
X134023809Y-81978628D02*
X133642857Y-81978628D01*
X135166666Y-82454819D02*
X134595238Y-82454819D01*
X134880952Y-82454819D02*
X134880952Y-81454819D01*
X134880952Y-81454819D02*
X134785714Y-81597676D01*
X134785714Y-81597676D02*
X134690476Y-81692914D01*
X134690476Y-81692914D02*
X134595238Y-81740533D01*
X140666666Y-93454819D02*
X140333333Y-92978628D01*
X140095238Y-93454819D02*
X140095238Y-92454819D01*
X140095238Y-92454819D02*
X140476190Y-92454819D01*
X140476190Y-92454819D02*
X140571428Y-92502438D01*
X140571428Y-92502438D02*
X140619047Y-92550057D01*
X140619047Y-92550057D02*
X140666666Y-92645295D01*
X140666666Y-92645295D02*
X140666666Y-92788152D01*
X140666666Y-92788152D02*
X140619047Y-92883390D01*
X140619047Y-92883390D02*
X140571428Y-92931009D01*
X140571428Y-92931009D02*
X140476190Y-92978628D01*
X140476190Y-92978628D02*
X140095238Y-92978628D01*
X141095238Y-93454819D02*
X141095238Y-92788152D01*
X141095238Y-92883390D02*
X141142857Y-92835771D01*
X141142857Y-92835771D02*
X141238095Y-92788152D01*
X141238095Y-92788152D02*
X141380952Y-92788152D01*
X141380952Y-92788152D02*
X141476190Y-92835771D01*
X141476190Y-92835771D02*
X141523809Y-92931009D01*
X141523809Y-92931009D02*
X141523809Y-93454819D01*
X141523809Y-92931009D02*
X141571428Y-92835771D01*
X141571428Y-92835771D02*
X141666666Y-92788152D01*
X141666666Y-92788152D02*
X141809523Y-92788152D01*
X141809523Y-92788152D02*
X141904762Y-92835771D01*
X141904762Y-92835771D02*
X141952381Y-92931009D01*
X141952381Y-92931009D02*
X141952381Y-93454819D01*
X142952380Y-93454819D02*
X142380952Y-93454819D01*
X142666666Y-93454819D02*
X142666666Y-92454819D01*
X142666666Y-92454819D02*
X142571428Y-92597676D01*
X142571428Y-92597676D02*
X142476190Y-92692914D01*
X142476190Y-92692914D02*
X142380952Y-92740533D01*
X136428571Y-98454819D02*
X136095238Y-97978628D01*
X135857143Y-98454819D02*
X135857143Y-97454819D01*
X135857143Y-97454819D02*
X136238095Y-97454819D01*
X136238095Y-97454819D02*
X136333333Y-97502438D01*
X136333333Y-97502438D02*
X136380952Y-97550057D01*
X136380952Y-97550057D02*
X136428571Y-97645295D01*
X136428571Y-97645295D02*
X136428571Y-97788152D01*
X136428571Y-97788152D02*
X136380952Y-97883390D01*
X136380952Y-97883390D02*
X136333333Y-97931009D01*
X136333333Y-97931009D02*
X136238095Y-97978628D01*
X136238095Y-97978628D02*
X135857143Y-97978628D01*
X137000000Y-98454819D02*
X136904762Y-98407200D01*
X136904762Y-98407200D02*
X136857143Y-98359580D01*
X136857143Y-98359580D02*
X136809524Y-98264342D01*
X136809524Y-98264342D02*
X136809524Y-97978628D01*
X136809524Y-97978628D02*
X136857143Y-97883390D01*
X136857143Y-97883390D02*
X136904762Y-97835771D01*
X136904762Y-97835771D02*
X137000000Y-97788152D01*
X137000000Y-97788152D02*
X137142857Y-97788152D01*
X137142857Y-97788152D02*
X137238095Y-97835771D01*
X137238095Y-97835771D02*
X137285714Y-97883390D01*
X137285714Y-97883390D02*
X137333333Y-97978628D01*
X137333333Y-97978628D02*
X137333333Y-98264342D01*
X137333333Y-98264342D02*
X137285714Y-98359580D01*
X137285714Y-98359580D02*
X137238095Y-98407200D01*
X137238095Y-98407200D02*
X137142857Y-98454819D01*
X137142857Y-98454819D02*
X137000000Y-98454819D01*
X137761905Y-97788152D02*
X137761905Y-98788152D01*
X137761905Y-97835771D02*
X137857143Y-97788152D01*
X137857143Y-97788152D02*
X138047619Y-97788152D01*
X138047619Y-97788152D02*
X138142857Y-97835771D01*
X138142857Y-97835771D02*
X138190476Y-97883390D01*
X138190476Y-97883390D02*
X138238095Y-97978628D01*
X138238095Y-97978628D02*
X138238095Y-98264342D01*
X138238095Y-98264342D02*
X138190476Y-98359580D01*
X138190476Y-98359580D02*
X138142857Y-98407200D01*
X138142857Y-98407200D02*
X138047619Y-98454819D01*
X138047619Y-98454819D02*
X137857143Y-98454819D01*
X137857143Y-98454819D02*
X137761905Y-98407200D01*
X139190476Y-98454819D02*
X138619048Y-98454819D01*
X138904762Y-98454819D02*
X138904762Y-97454819D01*
X138904762Y-97454819D02*
X138809524Y-97597676D01*
X138809524Y-97597676D02*
X138714286Y-97692914D01*
X138714286Y-97692914D02*
X138619048Y-97740533D01*
X155380952Y-72454819D02*
X155047619Y-71978628D01*
X154809524Y-72454819D02*
X154809524Y-71454819D01*
X154809524Y-71454819D02*
X155190476Y-71454819D01*
X155190476Y-71454819D02*
X155285714Y-71502438D01*
X155285714Y-71502438D02*
X155333333Y-71550057D01*
X155333333Y-71550057D02*
X155380952Y-71645295D01*
X155380952Y-71645295D02*
X155380952Y-71788152D01*
X155380952Y-71788152D02*
X155333333Y-71883390D01*
X155333333Y-71883390D02*
X155285714Y-71931009D01*
X155285714Y-71931009D02*
X155190476Y-71978628D01*
X155190476Y-71978628D02*
X154809524Y-71978628D01*
X156238095Y-72454819D02*
X156238095Y-71454819D01*
X156238095Y-72407200D02*
X156142857Y-72454819D01*
X156142857Y-72454819D02*
X155952381Y-72454819D01*
X155952381Y-72454819D02*
X155857143Y-72407200D01*
X155857143Y-72407200D02*
X155809524Y-72359580D01*
X155809524Y-72359580D02*
X155761905Y-72264342D01*
X155761905Y-72264342D02*
X155761905Y-71978628D01*
X155761905Y-71978628D02*
X155809524Y-71883390D01*
X155809524Y-71883390D02*
X155857143Y-71835771D01*
X155857143Y-71835771D02*
X155952381Y-71788152D01*
X155952381Y-71788152D02*
X156142857Y-71788152D01*
X156142857Y-71788152D02*
X156238095Y-71835771D01*
X156666667Y-71550057D02*
X156714286Y-71502438D01*
X156714286Y-71502438D02*
X156809524Y-71454819D01*
X156809524Y-71454819D02*
X157047619Y-71454819D01*
X157047619Y-71454819D02*
X157142857Y-71502438D01*
X157142857Y-71502438D02*
X157190476Y-71550057D01*
X157190476Y-71550057D02*
X157238095Y-71645295D01*
X157238095Y-71645295D02*
X157238095Y-71740533D01*
X157238095Y-71740533D02*
X157190476Y-71883390D01*
X157190476Y-71883390D02*
X156619048Y-72454819D01*
X156619048Y-72454819D02*
X157238095Y-72454819D01*
X140380952Y-72454819D02*
X140047619Y-71978628D01*
X139809524Y-72454819D02*
X139809524Y-71454819D01*
X139809524Y-71454819D02*
X140190476Y-71454819D01*
X140190476Y-71454819D02*
X140285714Y-71502438D01*
X140285714Y-71502438D02*
X140333333Y-71550057D01*
X140333333Y-71550057D02*
X140380952Y-71645295D01*
X140380952Y-71645295D02*
X140380952Y-71788152D01*
X140380952Y-71788152D02*
X140333333Y-71883390D01*
X140333333Y-71883390D02*
X140285714Y-71931009D01*
X140285714Y-71931009D02*
X140190476Y-71978628D01*
X140190476Y-71978628D02*
X139809524Y-71978628D01*
X141238095Y-72454819D02*
X141238095Y-71454819D01*
X141238095Y-72407200D02*
X141142857Y-72454819D01*
X141142857Y-72454819D02*
X140952381Y-72454819D01*
X140952381Y-72454819D02*
X140857143Y-72407200D01*
X140857143Y-72407200D02*
X140809524Y-72359580D01*
X140809524Y-72359580D02*
X140761905Y-72264342D01*
X140761905Y-72264342D02*
X140761905Y-71978628D01*
X140761905Y-71978628D02*
X140809524Y-71883390D01*
X140809524Y-71883390D02*
X140857143Y-71835771D01*
X140857143Y-71835771D02*
X140952381Y-71788152D01*
X140952381Y-71788152D02*
X141142857Y-71788152D01*
X141142857Y-71788152D02*
X141238095Y-71835771D01*
X142238095Y-72454819D02*
X141666667Y-72454819D01*
X141952381Y-72454819D02*
X141952381Y-71454819D01*
X141952381Y-71454819D02*
X141857143Y-71597676D01*
X141857143Y-71597676D02*
X141761905Y-71692914D01*
X141761905Y-71692914D02*
X141666667Y-71740533D01*
X158859580Y-83166666D02*
X158907200Y-83214285D01*
X158907200Y-83214285D02*
X158954819Y-83357142D01*
X158954819Y-83357142D02*
X158954819Y-83452380D01*
X158954819Y-83452380D02*
X158907200Y-83595237D01*
X158907200Y-83595237D02*
X158811961Y-83690475D01*
X158811961Y-83690475D02*
X158716723Y-83738094D01*
X158716723Y-83738094D02*
X158526247Y-83785713D01*
X158526247Y-83785713D02*
X158383390Y-83785713D01*
X158383390Y-83785713D02*
X158192914Y-83738094D01*
X158192914Y-83738094D02*
X158097676Y-83690475D01*
X158097676Y-83690475D02*
X158002438Y-83595237D01*
X158002438Y-83595237D02*
X157954819Y-83452380D01*
X157954819Y-83452380D02*
X157954819Y-83357142D01*
X157954819Y-83357142D02*
X158002438Y-83214285D01*
X158002438Y-83214285D02*
X158050057Y-83166666D01*
X158954819Y-82214285D02*
X158954819Y-82785713D01*
X158954819Y-82499999D02*
X157954819Y-82499999D01*
X157954819Y-82499999D02*
X158097676Y-82595237D01*
X158097676Y-82595237D02*
X158192914Y-82690475D01*
X158192914Y-82690475D02*
X158240533Y-82785713D01*
X140380952Y-81359580D02*
X140333333Y-81407200D01*
X140333333Y-81407200D02*
X140190476Y-81454819D01*
X140190476Y-81454819D02*
X140095238Y-81454819D01*
X140095238Y-81454819D02*
X139952381Y-81407200D01*
X139952381Y-81407200D02*
X139857143Y-81311961D01*
X139857143Y-81311961D02*
X139809524Y-81216723D01*
X139809524Y-81216723D02*
X139761905Y-81026247D01*
X139761905Y-81026247D02*
X139761905Y-80883390D01*
X139761905Y-80883390D02*
X139809524Y-80692914D01*
X139809524Y-80692914D02*
X139857143Y-80597676D01*
X139857143Y-80597676D02*
X139952381Y-80502438D01*
X139952381Y-80502438D02*
X140095238Y-80454819D01*
X140095238Y-80454819D02*
X140190476Y-80454819D01*
X140190476Y-80454819D02*
X140333333Y-80502438D01*
X140333333Y-80502438D02*
X140380952Y-80550057D01*
X140809524Y-81454819D02*
X140809524Y-80454819D01*
X140809524Y-80835771D02*
X140904762Y-80788152D01*
X140904762Y-80788152D02*
X141095238Y-80788152D01*
X141095238Y-80788152D02*
X141190476Y-80835771D01*
X141190476Y-80835771D02*
X141238095Y-80883390D01*
X141238095Y-80883390D02*
X141285714Y-80978628D01*
X141285714Y-80978628D02*
X141285714Y-81264342D01*
X141285714Y-81264342D02*
X141238095Y-81359580D01*
X141238095Y-81359580D02*
X141190476Y-81407200D01*
X141190476Y-81407200D02*
X141095238Y-81454819D01*
X141095238Y-81454819D02*
X140904762Y-81454819D01*
X140904762Y-81454819D02*
X140809524Y-81407200D01*
X142238095Y-81454819D02*
X141666667Y-81454819D01*
X141952381Y-81454819D02*
X141952381Y-80454819D01*
X141952381Y-80454819D02*
X141857143Y-80597676D01*
X141857143Y-80597676D02*
X141761905Y-80692914D01*
X141761905Y-80692914D02*
X141666667Y-80740533D01*
X142761905Y-103454819D02*
X142761905Y-102454819D01*
X142761905Y-102454819D02*
X143000000Y-102454819D01*
X143000000Y-102454819D02*
X143142857Y-102502438D01*
X143142857Y-102502438D02*
X143238095Y-102597676D01*
X143238095Y-102597676D02*
X143285714Y-102692914D01*
X143285714Y-102692914D02*
X143333333Y-102883390D01*
X143333333Y-102883390D02*
X143333333Y-103026247D01*
X143333333Y-103026247D02*
X143285714Y-103216723D01*
X143285714Y-103216723D02*
X143238095Y-103311961D01*
X143238095Y-103311961D02*
X143142857Y-103407200D01*
X143142857Y-103407200D02*
X143000000Y-103454819D01*
X143000000Y-103454819D02*
X142761905Y-103454819D01*
X143714286Y-102550057D02*
X143761905Y-102502438D01*
X143761905Y-102502438D02*
X143857143Y-102454819D01*
X143857143Y-102454819D02*
X144095238Y-102454819D01*
X144095238Y-102454819D02*
X144190476Y-102502438D01*
X144190476Y-102502438D02*
X144238095Y-102550057D01*
X144238095Y-102550057D02*
X144285714Y-102645295D01*
X144285714Y-102645295D02*
X144285714Y-102740533D01*
X144285714Y-102740533D02*
X144238095Y-102883390D01*
X144238095Y-102883390D02*
X143666667Y-103454819D01*
X143666667Y-103454819D02*
X144285714Y-103454819D01*
X136859580Y-86619047D02*
X136907200Y-86666666D01*
X136907200Y-86666666D02*
X136954819Y-86809523D01*
X136954819Y-86809523D02*
X136954819Y-86904761D01*
X136954819Y-86904761D02*
X136907200Y-87047618D01*
X136907200Y-87047618D02*
X136811961Y-87142856D01*
X136811961Y-87142856D02*
X136716723Y-87190475D01*
X136716723Y-87190475D02*
X136526247Y-87238094D01*
X136526247Y-87238094D02*
X136383390Y-87238094D01*
X136383390Y-87238094D02*
X136192914Y-87190475D01*
X136192914Y-87190475D02*
X136097676Y-87142856D01*
X136097676Y-87142856D02*
X136002438Y-87047618D01*
X136002438Y-87047618D02*
X135954819Y-86904761D01*
X135954819Y-86904761D02*
X135954819Y-86809523D01*
X135954819Y-86809523D02*
X136002438Y-86666666D01*
X136002438Y-86666666D02*
X136050057Y-86619047D01*
X136954819Y-85761904D02*
X135954819Y-85761904D01*
X136907200Y-85761904D02*
X136954819Y-85857142D01*
X136954819Y-85857142D02*
X136954819Y-86047618D01*
X136954819Y-86047618D02*
X136907200Y-86142856D01*
X136907200Y-86142856D02*
X136859580Y-86190475D01*
X136859580Y-86190475D02*
X136764342Y-86238094D01*
X136764342Y-86238094D02*
X136478628Y-86238094D01*
X136478628Y-86238094D02*
X136383390Y-86190475D01*
X136383390Y-86190475D02*
X136335771Y-86142856D01*
X136335771Y-86142856D02*
X136288152Y-86047618D01*
X136288152Y-86047618D02*
X136288152Y-85857142D01*
X136288152Y-85857142D02*
X136335771Y-85761904D01*
X136050057Y-85333332D02*
X136002438Y-85285713D01*
X136002438Y-85285713D02*
X135954819Y-85190475D01*
X135954819Y-85190475D02*
X135954819Y-84952380D01*
X135954819Y-84952380D02*
X136002438Y-84857142D01*
X136002438Y-84857142D02*
X136050057Y-84809523D01*
X136050057Y-84809523D02*
X136145295Y-84761904D01*
X136145295Y-84761904D02*
X136240533Y-84761904D01*
X136240533Y-84761904D02*
X136383390Y-84809523D01*
X136383390Y-84809523D02*
X136954819Y-85380951D01*
X136954819Y-85380951D02*
X136954819Y-84761904D01*
X140928571Y-95454819D02*
X140595238Y-94978628D01*
X140357143Y-95454819D02*
X140357143Y-94454819D01*
X140357143Y-94454819D02*
X140738095Y-94454819D01*
X140738095Y-94454819D02*
X140833333Y-94502438D01*
X140833333Y-94502438D02*
X140880952Y-94550057D01*
X140880952Y-94550057D02*
X140928571Y-94645295D01*
X140928571Y-94645295D02*
X140928571Y-94788152D01*
X140928571Y-94788152D02*
X140880952Y-94883390D01*
X140880952Y-94883390D02*
X140833333Y-94931009D01*
X140833333Y-94931009D02*
X140738095Y-94978628D01*
X140738095Y-94978628D02*
X140357143Y-94978628D01*
X141309524Y-95407200D02*
X141404762Y-95454819D01*
X141404762Y-95454819D02*
X141595238Y-95454819D01*
X141595238Y-95454819D02*
X141690476Y-95407200D01*
X141690476Y-95407200D02*
X141738095Y-95311961D01*
X141738095Y-95311961D02*
X141738095Y-95264342D01*
X141738095Y-95264342D02*
X141690476Y-95169104D01*
X141690476Y-95169104D02*
X141595238Y-95121485D01*
X141595238Y-95121485D02*
X141452381Y-95121485D01*
X141452381Y-95121485D02*
X141357143Y-95073866D01*
X141357143Y-95073866D02*
X141309524Y-94978628D01*
X141309524Y-94978628D02*
X141309524Y-94931009D01*
X141309524Y-94931009D02*
X141357143Y-94835771D01*
X141357143Y-94835771D02*
X141452381Y-94788152D01*
X141452381Y-94788152D02*
X141595238Y-94788152D01*
X141595238Y-94788152D02*
X141690476Y-94835771D01*
X142690476Y-95454819D02*
X142119048Y-95454819D01*
X142404762Y-95454819D02*
X142404762Y-94454819D01*
X142404762Y-94454819D02*
X142309524Y-94597676D01*
X142309524Y-94597676D02*
X142214286Y-94692914D01*
X142214286Y-94692914D02*
X142119048Y-94740533D01*
X155833333Y-103454819D02*
X155500000Y-102978628D01*
X155261905Y-103454819D02*
X155261905Y-102454819D01*
X155261905Y-102454819D02*
X155642857Y-102454819D01*
X155642857Y-102454819D02*
X155738095Y-102502438D01*
X155738095Y-102502438D02*
X155785714Y-102550057D01*
X155785714Y-102550057D02*
X155833333Y-102645295D01*
X155833333Y-102645295D02*
X155833333Y-102788152D01*
X155833333Y-102788152D02*
X155785714Y-102883390D01*
X155785714Y-102883390D02*
X155738095Y-102931009D01*
X155738095Y-102931009D02*
X155642857Y-102978628D01*
X155642857Y-102978628D02*
X155261905Y-102978628D01*
X156785714Y-103454819D02*
X156214286Y-103454819D01*
X156500000Y-103454819D02*
X156500000Y-102454819D01*
X156500000Y-102454819D02*
X156404762Y-102597676D01*
X156404762Y-102597676D02*
X156309524Y-102692914D01*
X156309524Y-102692914D02*
X156214286Y-102740533D01*
D11*
X148095238Y-72933609D02*
X148238095Y-72981228D01*
X148238095Y-72981228D02*
X148285714Y-73028847D01*
X148285714Y-73028847D02*
X148333333Y-73124085D01*
X148333333Y-73124085D02*
X148333333Y-73266942D01*
X148333333Y-73266942D02*
X148285714Y-73362180D01*
X148285714Y-73362180D02*
X148238095Y-73409800D01*
X148238095Y-73409800D02*
X148142857Y-73457419D01*
X148142857Y-73457419D02*
X147761905Y-73457419D01*
X147761905Y-73457419D02*
X147761905Y-72457419D01*
X147761905Y-72457419D02*
X148095238Y-72457419D01*
X148095238Y-72457419D02*
X148190476Y-72505038D01*
X148190476Y-72505038D02*
X148238095Y-72552657D01*
X148238095Y-72552657D02*
X148285714Y-72647895D01*
X148285714Y-72647895D02*
X148285714Y-72743133D01*
X148285714Y-72743133D02*
X148238095Y-72838371D01*
X148238095Y-72838371D02*
X148190476Y-72885990D01*
X148190476Y-72885990D02*
X148095238Y-72933609D01*
X148095238Y-72933609D02*
X147761905Y-72933609D01*
X149285714Y-73457419D02*
X148714286Y-73457419D01*
X149000000Y-73457419D02*
X149000000Y-72457419D01*
X149000000Y-72457419D02*
X148904762Y-72600276D01*
X148904762Y-72600276D02*
X148809524Y-72695514D01*
X148809524Y-72695514D02*
X148714286Y-72743133D01*
D10*
X131359580Y-93571428D02*
X131407200Y-93619047D01*
X131407200Y-93619047D02*
X131454819Y-93761904D01*
X131454819Y-93761904D02*
X131454819Y-93857142D01*
X131454819Y-93857142D02*
X131407200Y-93999999D01*
X131407200Y-93999999D02*
X131311961Y-94095237D01*
X131311961Y-94095237D02*
X131216723Y-94142856D01*
X131216723Y-94142856D02*
X131026247Y-94190475D01*
X131026247Y-94190475D02*
X130883390Y-94190475D01*
X130883390Y-94190475D02*
X130692914Y-94142856D01*
X130692914Y-94142856D02*
X130597676Y-94095237D01*
X130597676Y-94095237D02*
X130502438Y-93999999D01*
X130502438Y-93999999D02*
X130454819Y-93857142D01*
X130454819Y-93857142D02*
X130454819Y-93761904D01*
X130454819Y-93761904D02*
X130502438Y-93619047D01*
X130502438Y-93619047D02*
X130550057Y-93571428D01*
X131407200Y-93190475D02*
X131454819Y-93095237D01*
X131454819Y-93095237D02*
X131454819Y-92904761D01*
X131454819Y-92904761D02*
X131407200Y-92809523D01*
X131407200Y-92809523D02*
X131311961Y-92761904D01*
X131311961Y-92761904D02*
X131264342Y-92761904D01*
X131264342Y-92761904D02*
X131169104Y-92809523D01*
X131169104Y-92809523D02*
X131121485Y-92904761D01*
X131121485Y-92904761D02*
X131121485Y-93047618D01*
X131121485Y-93047618D02*
X131073866Y-93142856D01*
X131073866Y-93142856D02*
X130978628Y-93190475D01*
X130978628Y-93190475D02*
X130931009Y-93190475D01*
X130931009Y-93190475D02*
X130835771Y-93142856D01*
X130835771Y-93142856D02*
X130788152Y-93047618D01*
X130788152Y-93047618D02*
X130788152Y-92904761D01*
X130788152Y-92904761D02*
X130835771Y-92809523D01*
X131454819Y-91809523D02*
X131454819Y-92380951D01*
X131454819Y-92095237D02*
X130454819Y-92095237D01*
X130454819Y-92095237D02*
X130597676Y-92190475D01*
X130597676Y-92190475D02*
X130692914Y-92285713D01*
X130692914Y-92285713D02*
X130740533Y-92380951D01*
X148233333Y-107562295D02*
X148233333Y-108133723D01*
X148233333Y-108133723D02*
X148195238Y-108248009D01*
X148195238Y-108248009D02*
X148119047Y-108324200D01*
X148119047Y-108324200D02*
X148004762Y-108362295D01*
X148004762Y-108362295D02*
X147928571Y-108362295D01*
X149033333Y-108362295D02*
X148576190Y-108362295D01*
X148804762Y-108362295D02*
X148804762Y-107562295D01*
X148804762Y-107562295D02*
X148728571Y-107676580D01*
X148728571Y-107676580D02*
X148652381Y-107752771D01*
X148652381Y-107752771D02*
X148576190Y-107790866D01*
X148166666Y-78954819D02*
X148166666Y-79669104D01*
X148166666Y-79669104D02*
X148119047Y-79811961D01*
X148119047Y-79811961D02*
X148023809Y-79907200D01*
X148023809Y-79907200D02*
X147880952Y-79954819D01*
X147880952Y-79954819D02*
X147785714Y-79954819D01*
X148595238Y-79050057D02*
X148642857Y-79002438D01*
X148642857Y-79002438D02*
X148738095Y-78954819D01*
X148738095Y-78954819D02*
X148976190Y-78954819D01*
X148976190Y-78954819D02*
X149071428Y-79002438D01*
X149071428Y-79002438D02*
X149119047Y-79050057D01*
X149119047Y-79050057D02*
X149166666Y-79145295D01*
X149166666Y-79145295D02*
X149166666Y-79240533D01*
X149166666Y-79240533D02*
X149119047Y-79383390D01*
X149119047Y-79383390D02*
X148547619Y-79954819D01*
X148547619Y-79954819D02*
X149166666Y-79954819D01*
X136238095Y-89954819D02*
X136238095Y-90764342D01*
X136238095Y-90764342D02*
X136285714Y-90859580D01*
X136285714Y-90859580D02*
X136333333Y-90907200D01*
X136333333Y-90907200D02*
X136428571Y-90954819D01*
X136428571Y-90954819D02*
X136619047Y-90954819D01*
X136619047Y-90954819D02*
X136714285Y-90907200D01*
X136714285Y-90907200D02*
X136761904Y-90859580D01*
X136761904Y-90859580D02*
X136809523Y-90764342D01*
X136809523Y-90764342D02*
X136809523Y-89954819D01*
X137238095Y-90050057D02*
X137285714Y-90002438D01*
X137285714Y-90002438D02*
X137380952Y-89954819D01*
X137380952Y-89954819D02*
X137619047Y-89954819D01*
X137619047Y-89954819D02*
X137714285Y-90002438D01*
X137714285Y-90002438D02*
X137761904Y-90050057D01*
X137761904Y-90050057D02*
X137809523Y-90145295D01*
X137809523Y-90145295D02*
X137809523Y-90240533D01*
X137809523Y-90240533D02*
X137761904Y-90383390D01*
X137761904Y-90383390D02*
X137190476Y-90954819D01*
X137190476Y-90954819D02*
X137809523Y-90954819D01*
D12*
%TO.C,R2*%
X140265000Y-106227064D02*
X140265000Y-105772936D01*
X141735000Y-106227064D02*
X141735000Y-105772936D01*
%TO.C,D1*%
X152365000Y-104400000D02*
X152365000Y-108285000D01*
X152365000Y-108285000D02*
X154635000Y-108285000D01*
X154635000Y-108285000D02*
X154635000Y-104400000D01*
%TO.C,U1*%
X159440000Y-85565000D02*
X163560000Y-85565000D01*
X159440000Y-85630000D02*
X159440000Y-85565000D01*
X159440000Y-94435000D02*
X159440000Y-94370000D01*
X163560000Y-85565000D02*
X163560000Y-85630000D01*
X163560000Y-94370000D02*
X163560000Y-94435000D01*
X163560000Y-94435000D02*
X159440000Y-94435000D01*
X158900000Y-85630000D02*
X158660000Y-85300000D01*
X159140000Y-85300000D01*
X158900000Y-85630000D01*
G36*
X158900000Y-85630000D02*
G01*
X158660000Y-85300000D01*
X159140000Y-85300000D01*
X158900000Y-85630000D01*
G37*
%TO.C,Cb2*%
X155265000Y-78238748D02*
X155265000Y-78761252D01*
X156735000Y-78238748D02*
X156735000Y-78761252D01*
%TO.C,TP1*%
X132450000Y-82000000D02*
G75*
G02*
X130550000Y-82000000I-950000J0D01*
G01*
X130550000Y-82000000D02*
G75*
G02*
X132450000Y-82000000I950000J0D01*
G01*
%TO.C,Rm1*%
X136772936Y-92265000D02*
X137227064Y-92265000D01*
X136772936Y-93735000D02*
X137227064Y-93735000D01*
%TO.C,Rop1*%
X133727064Y-97265000D02*
X133272936Y-97265000D01*
X133727064Y-98735000D02*
X133272936Y-98735000D01*
%TO.C,Rd2*%
X155265000Y-74272936D02*
X155265000Y-74727064D01*
X156735000Y-74272936D02*
X156735000Y-74727064D01*
%TO.C,Rd1*%
X140265000Y-74272936D02*
X140265000Y-74727064D01*
X141735000Y-74272936D02*
X141735000Y-74727064D01*
%TO.C,C1*%
X162211252Y-81640000D02*
X160788748Y-81640000D01*
X162211252Y-84360000D02*
X160788748Y-84360000D01*
%TO.C,Cb1*%
X140265000Y-78238748D02*
X140265000Y-78761252D01*
X141735000Y-78238748D02*
X141735000Y-78761252D01*
%TO.C,D2*%
X142365000Y-104400000D02*
X142365000Y-108285000D01*
X142365000Y-108285000D02*
X144635000Y-108285000D01*
X144635000Y-108285000D02*
X144635000Y-104400000D01*
%TO.C,Cd2*%
X132788748Y-84640000D02*
X134211252Y-84640000D01*
X132788748Y-87360000D02*
X134211252Y-87360000D01*
%TO.C,Rs1*%
X136772936Y-94265000D02*
X137227064Y-94265000D01*
X136772936Y-95735000D02*
X137227064Y-95735000D01*
%TO.C,R1*%
X155265000Y-106227064D02*
X155265000Y-105772936D01*
X156735000Y-106227064D02*
X156735000Y-105772936D01*
%TO.C,Cs1*%
X133238748Y-92265000D02*
X133761252Y-92265000D01*
X133238748Y-93735000D02*
X133761252Y-93735000D01*
%TO.C,J1*%
X146595000Y-107270000D02*
X146595000Y-106635000D01*
X147230000Y-107270000D02*
X146595000Y-107270000D01*
D13*
%TO.C,J2*%
X144030000Y-71150000D02*
X144030000Y-72930000D01*
X144030000Y-71150000D02*
X152970000Y-71150000D01*
X144030000Y-76585000D02*
X144030000Y-75070000D01*
X152970000Y-71150000D02*
X152970000Y-72930000D01*
X152970000Y-76585000D02*
X152970000Y-75070000D01*
D12*
%TO.C,U2*%
X132590000Y-88440000D02*
X134410000Y-88440000D01*
X132590000Y-88490000D02*
X132590000Y-88440000D01*
X132590000Y-91560000D02*
X132590000Y-91510000D01*
X134410000Y-88440000D02*
X134410000Y-88490000D01*
X134410000Y-91510000D02*
X134410000Y-91560000D01*
X134410000Y-91560000D02*
X132590000Y-91560000D01*
X132050000Y-88490000D02*
X131810000Y-88160000D01*
X132290000Y-88160000D01*
X132050000Y-88490000D01*
G36*
X132050000Y-88490000D02*
G01*
X131810000Y-88160000D01*
X132290000Y-88160000D01*
X132050000Y-88490000D01*
G37*
%TD*%
%LPC*%
D14*
%TO.C,R2*%
X141000000Y-106912500D03*
X141000000Y-105087500D03*
%TD*%
D15*
%TO.C,D1*%
X153500000Y-107400000D03*
X153500000Y-104600000D03*
%TD*%
D16*
%TO.C,U1*%
X159025000Y-86190000D03*
X159025000Y-87460000D03*
X159025000Y-88730000D03*
X159025000Y-90000000D03*
X159025000Y-91270000D03*
X159025000Y-92540000D03*
X159025000Y-93810000D03*
X163975000Y-93810000D03*
X163975000Y-92540000D03*
X163975000Y-91270000D03*
X163975000Y-90000000D03*
X163975000Y-88730000D03*
X163975000Y-87460000D03*
X163975000Y-86190000D03*
%TD*%
D17*
%TO.C,Cb2*%
X156000000Y-77550000D03*
X156000000Y-79450000D03*
%TD*%
D18*
%TO.C,TP1*%
X131500000Y-82000000D03*
%TD*%
D19*
%TO.C,Rm1*%
X136087500Y-93000000D03*
X137912500Y-93000000D03*
%TD*%
D20*
%TO.C,Rop1*%
X134412500Y-98000000D03*
X132587500Y-98000000D03*
%TD*%
D21*
%TO.C,Rd2*%
X156000000Y-73587500D03*
X156000000Y-75412500D03*
%TD*%
%TO.C,Rd1*%
X141000000Y-73587500D03*
X141000000Y-75412500D03*
%TD*%
D22*
%TO.C,C1*%
X162975000Y-83000000D03*
X160025000Y-83000000D03*
%TD*%
D17*
%TO.C,Cb1*%
X141000000Y-77550000D03*
X141000000Y-79450000D03*
%TD*%
D15*
%TO.C,D2*%
X143500000Y-107400000D03*
X143500000Y-104600000D03*
%TD*%
D23*
%TO.C,Cd2*%
X132025000Y-86000000D03*
X134975000Y-86000000D03*
%TD*%
D19*
%TO.C,Rs1*%
X136087500Y-95000000D03*
X137912500Y-95000000D03*
%TD*%
D14*
%TO.C,R1*%
X156000000Y-106912500D03*
X156000000Y-105087500D03*
%TD*%
D24*
%TO.C,B1*%
X133100000Y-77000000D03*
X133802944Y-75302944D03*
X133802944Y-78697056D03*
X135500000Y-74600000D03*
D25*
X135500000Y-77000000D03*
D24*
X135500000Y-79400000D03*
X137197056Y-75302944D03*
X137197056Y-78697056D03*
X137900000Y-77000000D03*
X159100000Y-77000000D03*
X159802944Y-75302944D03*
X159802944Y-78697056D03*
X161500000Y-74600000D03*
D25*
X161500000Y-77000000D03*
D24*
X161500000Y-79400000D03*
X163197056Y-75302944D03*
X163197056Y-78697056D03*
X163900000Y-77000000D03*
X159100000Y-103000000D03*
X159802944Y-101302944D03*
X159802944Y-104697056D03*
X161500000Y-100600000D03*
D25*
X161500000Y-103000000D03*
D24*
X161500000Y-105400000D03*
X163197056Y-101302944D03*
X163197056Y-104697056D03*
X163900000Y-103000000D03*
X133100000Y-103000000D03*
X133802944Y-101302944D03*
X133802944Y-104697056D03*
X135500000Y-100600000D03*
D25*
X135500000Y-103000000D03*
D24*
X135500000Y-105400000D03*
X137197056Y-101302944D03*
X137197056Y-104697056D03*
X137900000Y-103000000D03*
X146100000Y-97000000D03*
X146802944Y-95302944D03*
X146802944Y-98697056D03*
X148500000Y-94600000D03*
D25*
X148500000Y-97000000D03*
D24*
X148500000Y-99400000D03*
X150197056Y-95302944D03*
X150197056Y-98697056D03*
X150900000Y-97000000D03*
%TD*%
D26*
%TO.C,Cs1*%
X132550000Y-93000000D03*
X134450000Y-93000000D03*
%TD*%
D27*
%TO.C,J1*%
X145960000Y-106000000D03*
X151040000Y-104984000D03*
X151040000Y-107016000D03*
D28*
X147230000Y-106635000D03*
X147230000Y-105365000D03*
X148500000Y-106635000D03*
X148500000Y-105365000D03*
X149770000Y-106635000D03*
X149770000Y-105365000D03*
%TD*%
D29*
%TO.C,J2*%
X149000000Y-77635000D03*
D30*
X146980000Y-77635000D03*
D31*
X145750000Y-77635000D03*
D29*
X148000000Y-77635000D03*
D30*
X150020000Y-77635000D03*
D31*
X151250000Y-77635000D03*
D32*
X153625000Y-77580000D03*
D33*
X153625000Y-74000000D03*
X143375000Y-74000000D03*
D32*
X143375000Y-77580000D03*
%TD*%
D34*
%TO.C,U2*%
X132362500Y-89050000D03*
X132362500Y-90000000D03*
X132362500Y-90950000D03*
X134637500Y-90950000D03*
X134637500Y-90000000D03*
X134637500Y-89050000D03*
%TD*%
%LPD*%
M02*
