%TF.GenerationSoftware,KiCad,Pcbnew,9.0.7+1*%
%TF.CreationDate,Date%
%TF.ProjectId,Sienkiewicz_TOUCH,5369656e-6b69-4657-9769-637a5f544f55,+ (Unreleased)*%
%TF.SameCoordinates,Original*%
%TF.FileFunction,Paste,Top*%
%TF.FilePolarity,Positive*%
%FSLAX46Y46*%
G04 Gerber Fmt 4.6, Leading zero omitted, Abs format (unit mm)*
G04 Created by KiCad*
%MOMM*%
%LPD*%
G01*
G04 APERTURE LIST*
G04 Aperture macros list*
%AMRoundRect*
0 Rectangle with rounded corners*
0 $1 Rounding radius*
0 $2 $3 $4 $5 $6 $7 $8 $9 X,Y pos of 4 corners*
0 Add a 4 corners polygon primitive as box body*
4,1,4,$2,$3,$4,$5,$6,$7,$8,$9,$2,$3,0*
0 Add four circle primitives for the rounded corners*
1,1,$1+$1,$2,$3*
1,1,$1+$1,$4,$5*
1,1,$1+$1,$6,$7*
1,1,$1+$1,$8,$9*
0 Add four rect primitives between the rounded corners*
20,1,$1+$1,$2,$3,$4,$5,0*
20,1,$1+$1,$4,$5,$6,$7,0*
20,1,$1+$1,$6,$7,$8,$9,0*
20,1,$1+$1,$8,$9,$2,$3,0*%
G04 Aperture macros list end*
%ADD10RoundRect,0.250000X0.450000X-0.262500X0.450000X0.262500X-0.450000X0.262500X-0.450000X-0.262500X0*%
%ADD11RoundRect,0.250000X0.625000X-0.375000X0.625000X0.375000X-0.625000X0.375000X-0.625000X-0.375000X0*%
%ADD12RoundRect,0.150000X-0.825000X-0.150000X0.825000X-0.150000X0.825000X0.150000X-0.825000X0.150000X0*%
%ADD13RoundRect,0.250000X-0.475000X0.250000X-0.475000X-0.250000X0.475000X-0.250000X0.475000X0.250000X0*%
%ADD14RoundRect,0.250000X-0.262500X-0.450000X0.262500X-0.450000X0.262500X0.450000X-0.262500X0.450000X0*%
%ADD15RoundRect,0.250000X0.262500X0.450000X-0.262500X0.450000X-0.262500X-0.450000X0.262500X-0.450000X0*%
%ADD16RoundRect,0.250000X-0.450000X0.262500X-0.450000X-0.262500X0.450000X-0.262500X0.450000X0.262500X0*%
%ADD17RoundRect,0.250000X0.325000X1.100000X-0.325000X1.100000X-0.325000X-1.100000X0.325000X-1.100000X0*%
%ADD18RoundRect,0.250000X-0.325000X-1.100000X0.325000X-1.100000X0.325000X1.100000X-0.325000X1.100000X0*%
%ADD19RoundRect,0.250000X-0.250000X-0.475000X0.250000X-0.475000X0.250000X0.475000X-0.250000X0.475000X0*%
%ADD20R,0.700000X1.200000*%
%ADD21R,0.760000X1.200000*%
%ADD22R,0.800000X1.200000*%
%ADD23R,1.800000X1.350000*%
%ADD24R,1.800000X1.500000*%
%ADD25RoundRect,0.150000X-0.512500X-0.150000X0.512500X-0.150000X0.512500X0.150000X-0.512500X0.150000X0*%
G04 APERTURE END LIST*
D10*
%TO.C,R2*%
X141000000Y-106912500D03*
X141000000Y-105087500D03*
%TD*%
D11*
%TO.C,D1*%
X153500000Y-107400000D03*
X153500000Y-104600000D03*
%TD*%
D12*
%TO.C,U1*%
X159025000Y-86190000D03*
X159025000Y-87460000D03*
X159025000Y-88730000D03*
X159025000Y-90000000D03*
X159025000Y-91270000D03*
X159025000Y-92540000D03*
X159025000Y-93810000D03*
X163975000Y-93810000D03*
X163975000Y-92540000D03*
X163975000Y-91270000D03*
X163975000Y-90000000D03*
X163975000Y-88730000D03*
X163975000Y-87460000D03*
X163975000Y-86190000D03*
%TD*%
D13*
%TO.C,Cb2*%
X156000000Y-77550000D03*
X156000000Y-79450000D03*
%TD*%
D14*
%TO.C,Rm1*%
X136087500Y-93000000D03*
X137912500Y-93000000D03*
%TD*%
D15*
%TO.C,Rop1*%
X134412500Y-98000000D03*
X132587500Y-98000000D03*
%TD*%
D16*
%TO.C,Rd2*%
X156000000Y-73587500D03*
X156000000Y-75412500D03*
%TD*%
%TO.C,Rd1*%
X141000000Y-73587500D03*
X141000000Y-75412500D03*
%TD*%
D17*
%TO.C,C1*%
X162975000Y-83000000D03*
X160025000Y-83000000D03*
%TD*%
D13*
%TO.C,Cb1*%
X141000000Y-77550000D03*
X141000000Y-79450000D03*
%TD*%
D11*
%TO.C,D2*%
X143500000Y-107400000D03*
X143500000Y-104600000D03*
%TD*%
D18*
%TO.C,Cd2*%
X132025000Y-86000000D03*
X134975000Y-86000000D03*
%TD*%
D14*
%TO.C,Rs1*%
X136087500Y-95000000D03*
X137912500Y-95000000D03*
%TD*%
D10*
%TO.C,R1*%
X156000000Y-106912500D03*
X156000000Y-105087500D03*
%TD*%
D19*
%TO.C,Cs1*%
X132550000Y-93000000D03*
X134450000Y-93000000D03*
%TD*%
D20*
%TO.C,J2*%
X149000000Y-77635000D03*
D21*
X146980000Y-77635000D03*
D22*
X145750000Y-77635000D03*
D20*
X148000000Y-77635000D03*
D21*
X150020000Y-77635000D03*
D22*
X151250000Y-77635000D03*
D23*
X153625000Y-77580000D03*
D24*
X153625000Y-74000000D03*
X143375000Y-74000000D03*
D23*
X143375000Y-77580000D03*
%TD*%
D25*
%TO.C,U2*%
X132362500Y-89050000D03*
X132362500Y-90000000D03*
X132362500Y-90950000D03*
X134637500Y-90950000D03*
X134637500Y-90000000D03*
X134637500Y-89050000D03*
%TD*%
M02*
