%TF.GenerationSoftware,KiCad,Pcbnew,9.0.7+1*%
%TF.CreationDate,Date%
%TF.ProjectId,Sienkiewicz_TOUCH,5369656e-6b69-4657-9769-637a5f544f55,+ (Unreleased)*%
%TF.SameCoordinates,Original*%
%TF.FileFunction,Legend,Bot*%
%TF.FilePolarity,Positive*%
%FSLAX46Y46*%
G04 Gerber Fmt 4.6, Leading zero omitted, Abs format (unit mm)*
G04 Created by KiCad*
%MOMM*%
%LPD*%
G01*
G04 APERTURE LIST*
%ADD10C,0.900000*%
%ADD11C,6.500000*%
%ADD12C,1.090600*%
%ADD13C,0.400000*%
G04 APERTURE END LIST*
%LPC*%
D10*
%TO.C,B1*%
X133100000Y-77000000D03*
X133802944Y-75302944D03*
X133802944Y-78697056D03*
X135500000Y-74600000D03*
D11*
X135500000Y-77000000D03*
D10*
X135500000Y-79400000D03*
X137197056Y-75302944D03*
X137197056Y-78697056D03*
X137900000Y-77000000D03*
X159100000Y-77000000D03*
X159802944Y-75302944D03*
X159802944Y-78697056D03*
X161500000Y-74600000D03*
D11*
X161500000Y-77000000D03*
D10*
X161500000Y-79400000D03*
X163197056Y-75302944D03*
X163197056Y-78697056D03*
X163900000Y-77000000D03*
X159100000Y-103000000D03*
X159802944Y-101302944D03*
X159802944Y-104697056D03*
X161500000Y-100600000D03*
D11*
X161500000Y-103000000D03*
D10*
X161500000Y-105400000D03*
X163197056Y-101302944D03*
X163197056Y-104697056D03*
X163900000Y-103000000D03*
X133100000Y-103000000D03*
X133802944Y-101302944D03*
X133802944Y-104697056D03*
X135500000Y-100600000D03*
D11*
X135500000Y-103000000D03*
D10*
X135500000Y-105400000D03*
X137197056Y-101302944D03*
X137197056Y-104697056D03*
X137900000Y-103000000D03*
X146100000Y-97000000D03*
X146802944Y-95302944D03*
X146802944Y-98697056D03*
X148500000Y-94600000D03*
D11*
X148500000Y-97000000D03*
D10*
X148500000Y-99400000D03*
X150197056Y-95302944D03*
X150197056Y-98697056D03*
X150900000Y-97000000D03*
%TD*%
D12*
%TO.C,J1*%
X145960000Y-106000000D03*
X151040000Y-104984000D03*
X151040000Y-107016000D03*
%TD*%
D13*
%TO.C,TouP1*%
X148500000Y-90000000D03*
%TD*%
%LPD*%
M02*
