%TF.GenerationSoftware,KiCad,Pcbnew,9.0.7+1*%
%TF.CreationDate,Date%
%TF.ProjectId,Sienkiewicz_TOUCH,5369656e-6b69-4657-9769-637a5f544f55,+ (Unreleased)*%
%TF.SameCoordinates,Original*%
%TF.FileFunction,Soldermask,Top*%
%TF.FilePolarity,Negative*%
%FSLAX46Y46*%
G04 Gerber Fmt 4.6, Leading zero omitted, Abs format (unit mm)*
G04 Created by KiCad*
%MOMM*%
%LPD*%
G01*
G04 APERTURE LIST*
G04 Aperture macros list*
%AMRoundRect*
0 Rectangle with rounded corners*
0 $1 Rounding radius*
0 $2 $3 $4 $5 $6 $7 $8 $9 X,Y pos of 4 corners*
0 Add a 4 corners polygon primitive as box body*
4,1,4,$2,$3,$4,$5,$6,$7,$8,$9,$2,$3,0*
0 Add four circle primitives for the rounded corners*
1,1,$1+$1,$2,$3*
1,1,$1+$1,$4,$5*
1,1,$1+$1,$6,$7*
1,1,$1+$1,$8,$9*
0 Add four rect primitives between the rounded corners*
20,1,$1+$1,$2,$3,$4,$5,0*
20,1,$1+$1,$4,$5,$6,$7,0*
20,1,$1+$1,$6,$7,$8,$9,0*
20,1,$1+$1,$8,$9,$2,$3,0*%
G04 Aperture macros list end*
%ADD10RoundRect,0.274390X0.475610X-0.288110X0.475610X0.288110X-0.475610X0.288110X-0.475610X-0.288110X0*%
%ADD11RoundRect,0.270000X0.655000X-0.405000X0.655000X0.405000X-0.655000X0.405000X-0.655000X-0.405000X0*%
%ADD12RoundRect,0.175000X-0.850000X-0.175000X0.850000X-0.175000X0.850000X0.175000X-0.850000X0.175000X0*%
%ADD13RoundRect,0.275000X-0.500000X0.275000X-0.500000X-0.275000X0.500000X-0.275000X0.500000X0.275000X0*%
%ADD14C,1.600000*%
%ADD15RoundRect,0.274390X-0.288110X-0.475610X0.288110X-0.475610X0.288110X0.475610X-0.288110X0.475610X0*%
%ADD16RoundRect,0.274390X0.288110X0.475610X-0.288110X0.475610X-0.288110X-0.475610X0.288110X-0.475610X0*%
%ADD17RoundRect,0.274390X-0.475610X0.288110X-0.475610X-0.288110X0.475610X-0.288110X0.475610X0.288110X0*%
%ADD18RoundRect,0.271739X0.353261X1.128261X-0.353261X1.128261X-0.353261X-1.128261X0.353261X-1.128261X0*%
%ADD19RoundRect,0.271739X-0.353261X-1.128261X0.353261X-1.128261X0.353261X1.128261X-0.353261X1.128261X0*%
%ADD20C,0.900000*%
%ADD21C,6.500000*%
%ADD22RoundRect,0.275000X-0.275000X-0.500000X0.275000X-0.500000X0.275000X0.500000X-0.275000X0.500000X0*%
%ADD23C,1.090600*%
%ADD24C,0.887400*%
%ADD25RoundRect,0.102000X0.350000X0.600000X-0.350000X0.600000X-0.350000X-0.600000X0.350000X-0.600000X0*%
%ADD26RoundRect,0.102000X0.380000X0.600000X-0.380000X0.600000X-0.380000X-0.600000X0.380000X-0.600000X0*%
%ADD27RoundRect,0.102000X0.400000X0.600000X-0.400000X0.600000X-0.400000X-0.600000X0.400000X-0.600000X0*%
%ADD28RoundRect,0.102000X0.900000X0.675000X-0.900000X0.675000X-0.900000X-0.675000X0.900000X-0.675000X0*%
%ADD29RoundRect,0.102000X0.900000X0.750000X-0.900000X0.750000X-0.900000X-0.750000X0.900000X-0.750000X0*%
%ADD30RoundRect,0.175000X-0.537500X-0.175000X0.537500X-0.175000X0.537500X0.175000X-0.537500X0.175000X0*%
G04 APERTURE END LIST*
D10*
%TO.C,R2*%
X141000000Y-105912500D03*
X141000000Y-104087500D03*
%TD*%
D11*
%TO.C,D1*%
X153500000Y-106400000D03*
X153500000Y-103600000D03*
%TD*%
D12*
%TO.C,U1*%
X159025000Y-86190000D03*
X159025000Y-87460000D03*
X159025000Y-88730000D03*
X159025000Y-90000000D03*
X159025000Y-91270000D03*
X159025000Y-92540000D03*
X159025000Y-93810000D03*
X163975000Y-93810000D03*
X163975000Y-92540000D03*
X163975000Y-91270000D03*
X163975000Y-90000000D03*
X163975000Y-88730000D03*
X163975000Y-87460000D03*
X163975000Y-86190000D03*
%TD*%
D13*
%TO.C,Cb2*%
X141000000Y-77550000D03*
X141000000Y-79450000D03*
%TD*%
D14*
%TO.C,TP1*%
X133500000Y-82000000D03*
%TD*%
D15*
%TO.C,Rm1*%
X136087500Y-93000000D03*
X137912500Y-93000000D03*
%TD*%
D16*
%TO.C,Rop1*%
X132412500Y-97000000D03*
X130587500Y-97000000D03*
%TD*%
D17*
%TO.C,Rd2*%
X141000000Y-73587500D03*
X141000000Y-75412500D03*
%TD*%
%TO.C,Rd1*%
X156000000Y-73587500D03*
X156000000Y-75412500D03*
%TD*%
D18*
%TO.C,Cd1*%
X162975000Y-83000000D03*
X160025000Y-83000000D03*
%TD*%
D13*
%TO.C,Cb1*%
X156000000Y-77550000D03*
X156000000Y-79450000D03*
%TD*%
D11*
%TO.C,D2*%
X143500000Y-106400000D03*
X143500000Y-103600000D03*
%TD*%
D19*
%TO.C,Cd2*%
X132025000Y-86000000D03*
X134975000Y-86000000D03*
%TD*%
D15*
%TO.C,Rs1*%
X136087500Y-95000000D03*
X137912500Y-95000000D03*
%TD*%
D10*
%TO.C,R1*%
X156000000Y-105912500D03*
X156000000Y-104087500D03*
%TD*%
D20*
%TO.C,B1*%
X133100000Y-77000000D03*
X133802944Y-75302944D03*
X133802944Y-78697056D03*
X135500000Y-74600000D03*
D21*
X135500000Y-77000000D03*
D20*
X135500000Y-79400000D03*
X137197056Y-75302944D03*
X137197056Y-78697056D03*
X137900000Y-77000000D03*
X159100000Y-77000000D03*
X159802944Y-75302944D03*
X159802944Y-78697056D03*
X161500000Y-74600000D03*
D21*
X161500000Y-77000000D03*
D20*
X161500000Y-79400000D03*
X163197056Y-75302944D03*
X163197056Y-78697056D03*
X163900000Y-77000000D03*
X159100000Y-103000000D03*
X159802944Y-101302944D03*
X159802944Y-104697056D03*
X161500000Y-100600000D03*
D21*
X161500000Y-103000000D03*
D20*
X161500000Y-105400000D03*
X163197056Y-101302944D03*
X163197056Y-104697056D03*
X163900000Y-103000000D03*
X133100000Y-103000000D03*
X133802944Y-101302944D03*
X133802944Y-104697056D03*
X135500000Y-100600000D03*
D21*
X135500000Y-103000000D03*
D20*
X135500000Y-105400000D03*
X137197056Y-101302944D03*
X137197056Y-104697056D03*
X137900000Y-103000000D03*
X146100000Y-97000000D03*
X146802944Y-95302944D03*
X146802944Y-98697056D03*
X148500000Y-94600000D03*
D21*
X148500000Y-97000000D03*
D20*
X148500000Y-99400000D03*
X150197056Y-95302944D03*
X150197056Y-98697056D03*
X150900000Y-97000000D03*
%TD*%
D22*
%TO.C,Cs1*%
X132550000Y-93000000D03*
X134450000Y-93000000D03*
%TD*%
D23*
%TO.C,J1*%
X151040000Y-105000000D03*
X145960000Y-106016000D03*
X145960000Y-103984000D03*
D24*
X149770000Y-104365000D03*
X149770000Y-105635000D03*
X148500000Y-104365000D03*
X148500000Y-105635000D03*
X147230000Y-104365000D03*
X147230000Y-105635000D03*
%TD*%
D25*
%TO.C,J2*%
X149000000Y-77635000D03*
D26*
X146980000Y-77635000D03*
D27*
X145750000Y-77635000D03*
D25*
X148000000Y-77635000D03*
D26*
X150020000Y-77635000D03*
D27*
X151250000Y-77635000D03*
D28*
X153625000Y-77580000D03*
D29*
X153625000Y-74000000D03*
X143375000Y-74000000D03*
D28*
X143375000Y-77580000D03*
%TD*%
D30*
%TO.C,U2*%
X132362500Y-89050000D03*
X132362500Y-90000000D03*
X132362500Y-90950000D03*
X134637500Y-90950000D03*
X134637500Y-90000000D03*
X134637500Y-89050000D03*
%TD*%
M02*
