%TF.GenerationSoftware,KiCad,Pcbnew,9.0.7+1*%
%TF.CreationDate,Date%
%TF.ProjectId,Sienkiewicz_TOUCH,5369656e-6b69-4657-9769-637a5f544f55,+ (Unreleased)*%
%TF.SameCoordinates,Original*%
%TF.FileFunction,Copper,L1,Top*%
%TF.FilePolarity,Positive*%
%FSLAX46Y46*%
G04 Gerber Fmt 4.6, Leading zero omitted, Abs format (unit mm)*
G04 Created by KiCad*
%MOMM*%
%LPD*%
G01*
G04 APERTURE LIST*
G04 Aperture macros list*
%AMRoundRect*
0 Rectangle with rounded corners*
0 $1 Rounding radius*
0 $2 $3 $4 $5 $6 $7 $8 $9 X,Y pos of 4 corners*
0 Add a 4 corners polygon primitive as box body*
4,1,4,$2,$3,$4,$5,$6,$7,$8,$9,$2,$3,0*
0 Add four circle primitives for the rounded corners*
1,1,$1+$1,$2,$3*
1,1,$1+$1,$4,$5*
1,1,$1+$1,$6,$7*
1,1,$1+$1,$8,$9*
0 Add four rect primitives between the rounded corners*
20,1,$1+$1,$2,$3,$4,$5,0*
20,1,$1+$1,$4,$5,$6,$7,0*
20,1,$1+$1,$6,$7,$8,$9,0*
20,1,$1+$1,$8,$9,$2,$3,0*%
G04 Aperture macros list end*
%TA.AperFunction,SMDPad,CuDef*%
%ADD10RoundRect,0.250000X0.450000X-0.262500X0.450000X0.262500X-0.450000X0.262500X-0.450000X-0.262500X0*%
%TD*%
%TA.AperFunction,SMDPad,CuDef*%
%ADD11RoundRect,0.250000X-0.625000X0.375000X-0.625000X-0.375000X0.625000X-0.375000X0.625000X0.375000X0*%
%TD*%
%TA.AperFunction,SMDPad,CuDef*%
%ADD12RoundRect,0.150000X-0.825000X-0.150000X0.825000X-0.150000X0.825000X0.150000X-0.825000X0.150000X0*%
%TD*%
%TA.AperFunction,SMDPad,CuDef*%
%ADD13RoundRect,0.250000X-0.450000X0.262500X-0.450000X-0.262500X0.450000X-0.262500X0.450000X0.262500X0*%
%TD*%
%TA.AperFunction,SMDPad,CuDef*%
%ADD14RoundRect,0.250000X0.625000X-0.375000X0.625000X0.375000X-0.625000X0.375000X-0.625000X-0.375000X0*%
%TD*%
%TA.AperFunction,ComponentPad*%
%ADD15C,0.800000*%
%TD*%
%TA.AperFunction,ComponentPad*%
%ADD16C,6.400000*%
%TD*%
%TA.AperFunction,ConnectorPad*%
%ADD17C,0.787400*%
%TD*%
G04 APERTURE END LIST*
D10*
%TO.P,R2,1*%
%TO.N,Net-(U1-PA3)*%
X143587500Y-97912500D03*
%TO.P,R2,2*%
%TO.N,Net-(D2-A)*%
X143587500Y-96087500D03*
%TD*%
D11*
%TO.P,D1,1,K*%
%TO.N,GND*%
X165500000Y-95600000D03*
%TO.P,D1,2,A*%
%TO.N,Net-(D1-A)*%
X165500000Y-98400000D03*
%TD*%
D12*
%TO.P,U1,1,VCC*%
%TO.N,VCC*%
X159557500Y-86190000D03*
%TO.P,U1,2,PA4*%
%TO.N,unconnected-(U1-PA4-Pad2)*%
X159557500Y-87460000D03*
%TO.P,U1,3,PA5*%
%TO.N,SR_SDI*%
X159557500Y-88730000D03*
%TO.P,U1,4,PA6*%
%TO.N,SR_CLK*%
X159557500Y-90000000D03*
%TO.P,U1,5,PA7*%
%TO.N,SR_LATCH*%
X159557500Y-91270000D03*
%TO.P,U1,6,PB3*%
%TO.N,unconnected-(U1-PB3-Pad6)*%
X159557500Y-92540000D03*
%TO.P,U1,7,PB2*%
%TO.N,unconnected-(U1-PB2-Pad7)*%
X159557500Y-93810000D03*
%TO.P,U1,8,PB1*%
%TO.N,unconnected-(U1-PB1-Pad8)*%
X164507500Y-93810000D03*
%TO.P,U1,9,PB0*%
%TO.N,unconnected-(U1-PB0-Pad9)*%
X164507500Y-92540000D03*
%TO.P,U1,10,~{RESET}/PA0*%
%TO.N,/Project Architecture/Section B - uC/UPDI*%
X164507500Y-91270000D03*
%TO.P,U1,11,PA1*%
%TO.N,unconnected-(U1-PA1-Pad11)*%
X164507500Y-90000000D03*
%TO.P,U1,12,PA2*%
%TO.N,Net-(U1-PA2)*%
X164507500Y-88730000D03*
%TO.P,U1,13,PA3*%
%TO.N,Net-(U1-PA3)*%
X164507500Y-87460000D03*
%TO.P,U1,14,GND*%
%TO.N,GND*%
X164507500Y-86190000D03*
%TD*%
D13*
%TO.P,Rd2,1*%
%TO.N,Net-(P1-VCONN)*%
X156500000Y-72087500D03*
%TO.P,Rd2,2*%
%TO.N,GND*%
X156500000Y-73912500D03*
%TD*%
%TO.P,Rd1,1*%
%TO.N,Net-(P1-CC)*%
X140500000Y-72087500D03*
%TO.P,Rd1,2*%
%TO.N,GND*%
X140500000Y-73912500D03*
%TD*%
D14*
%TO.P,D2,1,K*%
%TO.N,GND*%
X165500000Y-84400000D03*
%TO.P,D2,2,A*%
%TO.N,Net-(D2-A)*%
X165500000Y-81600000D03*
%TD*%
D15*
%TO.P,U2,1,SDI*%
%TO.N,SR_SDI*%
X133100000Y-77000000D03*
X133802944Y-75302944D03*
X133802944Y-78697056D03*
X135500000Y-74600000D03*
D16*
X135500000Y-77000000D03*
D15*
X135500000Y-79400000D03*
X137197056Y-75302944D03*
X137197056Y-78697056D03*
X137900000Y-77000000D03*
%TO.P,U2,2,VCC*%
%TO.N,VCC*%
X159100000Y-77000000D03*
X159802944Y-75302944D03*
X159802944Y-78697056D03*
X161500000Y-74600000D03*
D16*
X161500000Y-77000000D03*
D15*
X161500000Y-79400000D03*
X163197056Y-75302944D03*
X163197056Y-78697056D03*
X163900000Y-77000000D03*
%TO.P,U2,3,GND*%
%TO.N,GND*%
X159100000Y-103000000D03*
X159802944Y-101302944D03*
X159802944Y-104697056D03*
X161500000Y-100600000D03*
D16*
X161500000Y-103000000D03*
D15*
X161500000Y-105400000D03*
X163197056Y-101302944D03*
X163197056Y-104697056D03*
X163900000Y-103000000D03*
%TO.P,U2,4,CLK*%
%TO.N,SR_CLK*%
X133100000Y-103000000D03*
X133802944Y-101302944D03*
X133802944Y-104697056D03*
X135500000Y-100600000D03*
D16*
X135500000Y-103000000D03*
D15*
X135500000Y-105400000D03*
X137197056Y-101302944D03*
X137197056Y-104697056D03*
X137900000Y-103000000D03*
%TO.P,U2,5,LATCH*%
%TO.N,SR_LATCH*%
X146100000Y-97000000D03*
X146802944Y-95302944D03*
X146802944Y-98697056D03*
X148500000Y-94600000D03*
D16*
X148500000Y-97000000D03*
D15*
X148500000Y-99400000D03*
X150197056Y-95302944D03*
X150197056Y-98697056D03*
X150900000Y-97000000D03*
%TD*%
D13*
%TO.P,R1,1*%
%TO.N,Net-(U1-PA2)*%
X153500000Y-96087500D03*
%TO.P,R1,2*%
%TO.N,Net-(D1-A)*%
X153500000Y-97912500D03*
%TD*%
D17*
%TO.P,J1,1,VCC*%
%TO.N,unconnected-(J1-VCC-Pad1)*%
X147230000Y-106270000D03*
%TO.P,J1,2,SWDIO*%
%TO.N,VCC*%
X147230000Y-105000000D03*
%TO.P,J1,3,~{RESET}*%
%TO.N,unconnected-(J1-~{RESET}-Pad3)*%
X148500000Y-106270000D03*
%TO.P,J1,4,SWCLK*%
%TO.N,/Project Architecture/Section B - uC/UPDI*%
X148500000Y-105000000D03*
%TO.P,J1,5,GND*%
%TO.N,GND*%
X149770000Y-106270000D03*
%TO.P,J1,6,SWO*%
%TO.N,unconnected-(J1-SWO-Pad6)*%
X149770000Y-105000000D03*
%TD*%
M02*
