%TF.GenerationSoftware,KiCad,Pcbnew,9.0.7+1*%
%TF.CreationDate,Date%
%TF.ProjectId,Sienkiewicz_TOUCH,5369656e-6b69-4657-9769-637a5f544f55,2.0.2*%
%TF.SameCoordinates,Original*%
%TF.FileFunction,Copper,L1,Top*%
%TF.FilePolarity,Positive*%
%FSLAX46Y46*%
G04 Gerber Fmt 4.6, Leading zero omitted, Abs format (unit mm)*
G04 Created by KiCad*
%MOMM*%
%LPD*%
G01*
G04 APERTURE LIST*
G04 Aperture macros list*
%AMRoundRect*
0 Rectangle with rounded corners*
0 $1 Rounding radius*
0 $2 $3 $4 $5 $6 $7 $8 $9 X,Y pos of 4 corners*
0 Add a 4 corners polygon primitive as box body*
4,1,4,$2,$3,$4,$5,$6,$7,$8,$9,$2,$3,0*
0 Add four circle primitives for the rounded corners*
1,1,$1+$1,$2,$3*
1,1,$1+$1,$4,$5*
1,1,$1+$1,$6,$7*
1,1,$1+$1,$8,$9*
0 Add four rect primitives between the rounded corners*
20,1,$1+$1,$2,$3,$4,$5,0*
20,1,$1+$1,$4,$5,$6,$7,0*
20,1,$1+$1,$6,$7,$8,$9,0*
20,1,$1+$1,$8,$9,$2,$3,0*%
G04 Aperture macros list end*
%TA.AperFunction,Conductor*%
%ADD10C,0.200000*%
%TD*%
%TA.AperFunction,SMDPad,CuDef*%
%ADD11RoundRect,0.250000X-0.262500X-0.450000X0.262500X-0.450000X0.262500X0.450000X-0.262500X0.450000X0*%
%TD*%
%TA.AperFunction,SMDPad,CuDef*%
%ADD12RoundRect,0.250000X-0.375000X-0.625000X0.375000X-0.625000X0.375000X0.625000X-0.375000X0.625000X0*%
%TD*%
%TA.AperFunction,SMDPad,CuDef*%
%ADD13RoundRect,0.150000X-0.825000X-0.150000X0.825000X-0.150000X0.825000X0.150000X-0.825000X0.150000X0*%
%TD*%
%TA.AperFunction,SMDPad,CuDef*%
%ADD14RoundRect,0.250000X-0.475000X0.250000X-0.475000X-0.250000X0.475000X-0.250000X0.475000X0.250000X0*%
%TD*%
%TA.AperFunction,SMDPad,CuDef*%
%ADD15C,1.500000*%
%TD*%
%TA.AperFunction,SMDPad,CuDef*%
%ADD16RoundRect,0.250000X0.262500X0.450000X-0.262500X0.450000X-0.262500X-0.450000X0.262500X-0.450000X0*%
%TD*%
%TA.AperFunction,SMDPad,CuDef*%
%ADD17RoundRect,0.250000X-0.450000X0.262500X-0.450000X-0.262500X0.450000X-0.262500X0.450000X0.262500X0*%
%TD*%
%TA.AperFunction,SMDPad,CuDef*%
%ADD18RoundRect,0.250000X0.325000X1.100000X-0.325000X1.100000X-0.325000X-1.100000X0.325000X-1.100000X0*%
%TD*%
%TA.AperFunction,SMDPad,CuDef*%
%ADD19RoundRect,0.250000X-0.325000X-1.100000X0.325000X-1.100000X0.325000X1.100000X-0.325000X1.100000X0*%
%TD*%
%TA.AperFunction,ComponentPad*%
%ADD20C,0.800000*%
%TD*%
%TA.AperFunction,ComponentPad*%
%ADD21C,6.400000*%
%TD*%
%TA.AperFunction,SMDPad,CuDef*%
%ADD22RoundRect,0.250000X-0.250000X-0.475000X0.250000X-0.475000X0.250000X0.475000X-0.250000X0.475000X0*%
%TD*%
%TA.AperFunction,SMDPad,CuDef*%
%ADD23R,0.700000X1.200000*%
%TD*%
%TA.AperFunction,SMDPad,CuDef*%
%ADD24R,0.760000X1.200000*%
%TD*%
%TA.AperFunction,SMDPad,CuDef*%
%ADD25R,0.800000X1.200000*%
%TD*%
%TA.AperFunction,SMDPad,CuDef*%
%ADD26R,1.800000X1.350000*%
%TD*%
%TA.AperFunction,SMDPad,CuDef*%
%ADD27R,1.800000X1.500000*%
%TD*%
%TA.AperFunction,SMDPad,CuDef*%
%ADD28RoundRect,0.150000X-0.512500X-0.150000X0.512500X-0.150000X0.512500X0.150000X-0.512500X0.150000X0*%
%TD*%
%TA.AperFunction,ViaPad*%
%ADD29C,0.550000*%
%TD*%
%TA.AperFunction,Conductor*%
%ADD30C,0.500000*%
%TD*%
%TA.AperFunction,Conductor*%
%ADD31C,0.400000*%
%TD*%
G04 APERTURE END LIST*
D10*
%TO.N,/Project Architecture/Section B - uC/SR_CLK*%
X161500000Y-72000000D02*
G75*
G02*
X166500000Y-77000000I0J-5000000D01*
G01*
X135500000Y-73000000D02*
G75*
G02*
X136500000Y-72000000I1000000J0D01*
G01*
%TO.N,/Project Architecture/Section B - uC/SR_SDI*%
X166500000Y-103000000D02*
G75*
G02*
X161500000Y-108000000I-5000000J0D01*
G01*
%TO.N,/Project Architecture/Section B - uC/UPDI*%
X159000000Y-105500000D02*
G75*
G02*
X159000000Y-100500000I2500000J2500000D01*
G01*
%TO.N,/Project Architecture/Section B - uC/TT*%
X151000000Y-102500000D02*
G75*
G02*
X144964466Y-100000000I-2500000J2500000D01*
G01*
%TO.N,LED2*%
X151328427Y-102828427D02*
G75*
G02*
X148500000Y-104000000I-2828427J2828427D01*
G01*
%TO.N,LED1*%
X157500000Y-103000000D02*
G75*
G02*
X158671573Y-100171573I4000000J0D01*
G01*
%TD*%
D11*
%TO.P,R2,1*%
%TO.N,Net-(D2-K)*%
X141587500Y-102500000D03*
%TO.P,R2,2*%
%TO.N,GND*%
X143412500Y-102500000D03*
%TD*%
D12*
%TO.P,D1,1,K*%
%TO.N,Net-(D1-K)*%
X153100001Y-105500000D03*
%TO.P,D1,2,A*%
%TO.N,LED1*%
X155899999Y-105500000D03*
%TD*%
D13*
%TO.P,U1,1,VCC*%
%TO.N,VCC*%
X159025000Y-86190000D03*
%TO.P,U1,2,PA4*%
%TO.N,unconnected-(U1-PA4-Pad2)*%
X159025000Y-87460000D03*
%TO.P,U1,3,PA5*%
%TO.N,unconnected-(U1-PA5-Pad3)*%
X159025000Y-88730000D03*
%TO.P,U1,4,PA6*%
%TO.N,LED1*%
X159025000Y-90000000D03*
%TO.P,U1,5,PA7*%
%TO.N,LED2*%
X159025000Y-91270000D03*
%TO.P,U1,6,PB3*%
%TO.N,unconnected-(U1-PB3-Pad6)*%
X159025000Y-92540000D03*
%TO.P,U1,7,PB2*%
%TO.N,/Project Architecture/Section B - uC/TT_uC*%
X159025000Y-93810000D03*
%TO.P,U1,8,PB1*%
%TO.N,/Project Architecture/Section B - uC/SR_LATCH*%
X163975000Y-93810000D03*
%TO.P,U1,9,PB0*%
%TO.N,/Project Architecture/Section B - uC/SR_SDI*%
X163975000Y-92540000D03*
%TO.P,U1,10,~{RESET}/PA0*%
%TO.N,/Project Architecture/Section B - uC/UPDI*%
X163975000Y-91270000D03*
%TO.P,U1,11,PA1*%
%TO.N,/Project Architecture/Section B - uC/SR_CLK*%
X163975000Y-90000000D03*
%TO.P,U1,12,PA2*%
%TO.N,unconnected-(U1-PA2-Pad12)*%
X163975000Y-88730000D03*
%TO.P,U1,13,PA3*%
%TO.N,unconnected-(U1-PA3-Pad13)*%
X163975000Y-87460000D03*
%TO.P,U1,14,GND*%
%TO.N,GND*%
X163975000Y-86190000D03*
%TD*%
D14*
%TO.P,Cb2,1*%
%TO.N,GND*%
X141000000Y-77550000D03*
%TO.P,Cb2,2*%
%TO.N,VCC*%
X141000000Y-79450000D03*
%TD*%
D15*
%TO.P,TP1,1,1*%
%TO.N,GND*%
X133500000Y-82000000D03*
%TD*%
D11*
%TO.P,Rm1,1*%
%TO.N,Net-(U2-SNS)*%
X136087500Y-93000000D03*
%TO.P,Rm1,2*%
%TO.N,GND*%
X137912500Y-93000000D03*
%TD*%
D16*
%TO.P,Rop1,1*%
%TO.N,GND*%
X143412500Y-100500000D03*
%TO.P,Rop1,2*%
%TO.N,/Project Architecture/Section B - uC/TT*%
X141587500Y-100500000D03*
%TD*%
D17*
%TO.P,Rd2,1*%
%TO.N,Net-(J2-VCONN)*%
X141000000Y-73587500D03*
%TO.P,Rd2,2*%
%TO.N,GND*%
X141000000Y-75412500D03*
%TD*%
%TO.P,Rd1,1*%
%TO.N,Net-(J2-CC)*%
X156000000Y-73587500D03*
%TO.P,Rd1,2*%
%TO.N,GND*%
X156000000Y-75412500D03*
%TD*%
D18*
%TO.P,Cd1,1*%
%TO.N,GND*%
X162975000Y-83000000D03*
%TO.P,Cd1,2*%
%TO.N,VCC*%
X160025000Y-83000000D03*
%TD*%
D14*
%TO.P,Cb1,1*%
%TO.N,GND*%
X156000000Y-77550000D03*
%TO.P,Cb1,2*%
%TO.N,VCC*%
X156000000Y-79450000D03*
%TD*%
D12*
%TO.P,D2,1,K*%
%TO.N,Net-(D2-K)*%
X141100001Y-105500000D03*
%TO.P,D2,2,A*%
%TO.N,LED2*%
X143899999Y-105500000D03*
%TD*%
D19*
%TO.P,Cd2,1*%
%TO.N,GND*%
X132025000Y-86000000D03*
%TO.P,Cd2,2*%
%TO.N,VCC*%
X134975000Y-86000000D03*
%TD*%
D11*
%TO.P,Rs1,1*%
%TO.N,Net-(U2-SNSK)*%
X136087500Y-95000000D03*
%TO.P,Rs1,2*%
%TO.N,/Project Architecture/Section C - Touch sensor/TOUCH*%
X137912500Y-95000000D03*
%TD*%
%TO.P,R1,1*%
%TO.N,Net-(D1-K)*%
X153587500Y-102500000D03*
%TO.P,R1,2*%
%TO.N,GND*%
X155412500Y-102500000D03*
%TD*%
D20*
%TO.P,B1,1,CLK*%
%TO.N,/Project Architecture/Section B - uC/SR_CLK*%
X133100000Y-77000000D03*
X133802944Y-75302944D03*
X133802944Y-78697056D03*
X135500000Y-74600000D03*
D21*
X135500000Y-77000000D03*
D20*
X135500000Y-79400000D03*
X137197056Y-75302944D03*
X137197056Y-78697056D03*
X137900000Y-77000000D03*
%TO.P,B1,2,VCC*%
%TO.N,VCC*%
X159100000Y-77000000D03*
X159802944Y-75302944D03*
X159802944Y-78697056D03*
X161500000Y-74600000D03*
D21*
X161500000Y-77000000D03*
D20*
X161500000Y-79400000D03*
X163197056Y-75302944D03*
X163197056Y-78697056D03*
X163900000Y-77000000D03*
%TO.P,B1,3,LATCH*%
%TO.N,/Project Architecture/Section B - uC/SR_LATCH*%
X159100000Y-103000000D03*
X159802944Y-101302944D03*
X159802944Y-104697056D03*
X161500000Y-100600000D03*
D21*
X161500000Y-103000000D03*
D20*
X161500000Y-105400000D03*
X163197056Y-101302944D03*
X163197056Y-104697056D03*
X163900000Y-103000000D03*
%TO.P,B1,4,SDI*%
%TO.N,/Project Architecture/Section B - uC/SR_SDI*%
X133100000Y-103000000D03*
X133802944Y-101302944D03*
X133802944Y-104697056D03*
X135500000Y-100600000D03*
D21*
X135500000Y-103000000D03*
D20*
X135500000Y-105400000D03*
X137197056Y-101302944D03*
X137197056Y-104697056D03*
X137900000Y-103000000D03*
%TO.P,B1,5,GND*%
%TO.N,GND*%
X146100000Y-100000000D03*
X146802944Y-98302944D03*
X146802944Y-101697056D03*
X148500000Y-97600000D03*
D21*
X148500000Y-100000000D03*
D20*
X148500000Y-102400000D03*
X150197056Y-98302944D03*
X150197056Y-101697056D03*
X150900000Y-100000000D03*
%TD*%
D22*
%TO.P,Cs1,1*%
%TO.N,Net-(U2-SNSK)*%
X132550000Y-93000000D03*
%TO.P,Cs1,2*%
%TO.N,Net-(U2-SNS)*%
X134450000Y-93000000D03*
%TD*%
D11*
%TO.P,R3,1*%
%TO.N,/Project Architecture/Section B - uC/TT*%
X153587500Y-100500000D03*
%TO.P,R3,2*%
%TO.N,/Project Architecture/Section B - uC/TT_uC*%
X155412500Y-100500000D03*
%TD*%
D23*
%TO.P,J2,A5,CC*%
%TO.N,Net-(J2-CC)*%
X149000000Y-77635000D03*
D24*
%TO.P,J2,A9,VBUS_A*%
%TO.N,VCC*%
X146980000Y-77635000D03*
D25*
%TO.P,J2,A12,GND_A*%
%TO.N,GND*%
X145750000Y-77635000D03*
D23*
%TO.P,J2,B5,VCONN*%
%TO.N,Net-(J2-VCONN)*%
X148000000Y-77635000D03*
D24*
%TO.P,J2,B9,VBUS_B*%
%TO.N,VCC*%
X150020000Y-77635000D03*
D25*
%TO.P,J2,B12,GND_B*%
%TO.N,GND*%
X151250000Y-77635000D03*
D26*
%TO.P,J2,S1,SHIELD*%
%TO.N,unconnected-(J2-SHIELD-PadS1)*%
X153625000Y-77580000D03*
D27*
%TO.P,J2,S2,SHIELD*%
%TO.N,unconnected-(J2-SHIELD-PadS1)_2*%
X153625000Y-74000000D03*
%TO.P,J2,S3,SHIELD*%
%TO.N,unconnected-(J2-SHIELD-PadS1)_3*%
X143375000Y-74000000D03*
D26*
%TO.P,J2,S4,SHIELD*%
%TO.N,unconnected-(J2-SHIELD-PadS1)_1*%
X143375000Y-77580000D03*
%TD*%
D28*
%TO.P,U2,1,OUT*%
%TO.N,/Project Architecture/Section B - uC/TT*%
X132362500Y-89050000D03*
%TO.P,U2,2,VSS*%
%TO.N,GND*%
X132362500Y-90000000D03*
%TO.P,U2,3,SNSK*%
%TO.N,Net-(U2-SNSK)*%
X132362500Y-90950000D03*
%TO.P,U2,4,SNS*%
%TO.N,Net-(U2-SNS)*%
X134637500Y-90950000D03*
%TO.P,U2,5,VDD*%
%TO.N,VCC*%
X134637500Y-90000000D03*
%TO.P,U2,6,TIME*%
%TO.N,GND*%
X134637500Y-89050000D03*
%TD*%
D29*
%TO.N,GND*%
X164500000Y-82000000D03*
X162500000Y-81000000D03*
X139500000Y-88000000D03*
X160000000Y-95000000D03*
X165500000Y-88000000D03*
X136500000Y-91000000D03*
X136500000Y-73000000D03*
X137000000Y-97500000D03*
X131000000Y-90500000D03*
X157500000Y-77000000D03*
X157500000Y-74000000D03*
X133500000Y-88000000D03*
X165500000Y-86000000D03*
X154500000Y-98000000D03*
X130500000Y-82000000D03*
X143500000Y-81000000D03*
X155500000Y-82000000D03*
X157500000Y-85000000D03*
X163000000Y-99000000D03*
X142500000Y-79000000D03*
X158000000Y-105500000D03*
X143500000Y-104000000D03*
X138500000Y-73000000D03*
X165500000Y-84000000D03*
X146500000Y-81000000D03*
X161500000Y-73000000D03*
X157500000Y-88000000D03*
X139500000Y-91000000D03*
X139500000Y-84000000D03*
X130500000Y-86000000D03*
X163500000Y-85000000D03*
X139500000Y-79000000D03*
X139500000Y-90000000D03*
X153500000Y-81000000D03*
X152500000Y-79000000D03*
X131000000Y-92500000D03*
X138500000Y-91000000D03*
X131500000Y-102000000D03*
X165500000Y-104000000D03*
X157500000Y-73000000D03*
X164500000Y-81000000D03*
X157500000Y-95000000D03*
X139500000Y-77000000D03*
X164500000Y-84000000D03*
X131000000Y-94500000D03*
X165500000Y-87000000D03*
X130500000Y-76000000D03*
X157500000Y-91000000D03*
X131500000Y-77000000D03*
X139500000Y-86000000D03*
X165500000Y-82000000D03*
X164500000Y-83000000D03*
X157500000Y-78000000D03*
X136500000Y-107000000D03*
X133000000Y-97500000D03*
X155500000Y-97000000D03*
X131500000Y-81000000D03*
X160500000Y-73000000D03*
X151500000Y-79000000D03*
X144500000Y-79000000D03*
X143500000Y-79000000D03*
X145000000Y-97500000D03*
X163500000Y-81000000D03*
X157500000Y-75000000D03*
X141000000Y-97500000D03*
X161500000Y-107000000D03*
X131500000Y-103000000D03*
X157500000Y-92000000D03*
X130500000Y-81000000D03*
X141500000Y-82000000D03*
X130500000Y-80000000D03*
X158500000Y-107000000D03*
X137500000Y-73000000D03*
X165500000Y-83000000D03*
X159500000Y-73000000D03*
X157500000Y-106000000D03*
X157500000Y-90000000D03*
X157500000Y-84000000D03*
X131500000Y-83000000D03*
X130500000Y-103000000D03*
X139000000Y-97500000D03*
X130500000Y-77000000D03*
X130500000Y-84000000D03*
X145500000Y-81000000D03*
X140000000Y-97500000D03*
X142500000Y-104000000D03*
X139500000Y-73000000D03*
X157500000Y-86000000D03*
X143000000Y-97500000D03*
X131500000Y-80000000D03*
X150500000Y-81000000D03*
X157500000Y-93000000D03*
X157500000Y-94000000D03*
X153500000Y-99000000D03*
X154500000Y-79000000D03*
X131000000Y-93500000D03*
X134000000Y-97500000D03*
X134500000Y-73000000D03*
X139500000Y-89000000D03*
X157500000Y-87000000D03*
X131500000Y-78000000D03*
X131000000Y-91500000D03*
X132500000Y-84000000D03*
X131500000Y-104000000D03*
X139500000Y-106000000D03*
X163000000Y-97000000D03*
X157500000Y-89000000D03*
X155500000Y-104000000D03*
X163000000Y-98000000D03*
X156500000Y-83000000D03*
X165500000Y-102000000D03*
X152500000Y-81000000D03*
X165500000Y-76000000D03*
X158500000Y-73000000D03*
X135000000Y-97500000D03*
X145500000Y-79000000D03*
X165500000Y-81000000D03*
X142500000Y-81000000D03*
X159000000Y-106500000D03*
X160000000Y-96000000D03*
X130500000Y-78000000D03*
X164500000Y-85000000D03*
X163000000Y-95000000D03*
X135500000Y-107000000D03*
X154500000Y-81000000D03*
X142000000Y-97500000D03*
X144500000Y-81000000D03*
X130500000Y-87000000D03*
X153500000Y-79000000D03*
X131500000Y-84000000D03*
X130500000Y-104000000D03*
X165500000Y-80000000D03*
X165500000Y-78000000D03*
X139000000Y-105500000D03*
X165500000Y-85000000D03*
X138000000Y-106500000D03*
X132000000Y-96500000D03*
X147500000Y-81000000D03*
X132500000Y-88000000D03*
X131500000Y-82000000D03*
X134500000Y-108000000D03*
X165500000Y-103000000D03*
X149500000Y-81000000D03*
X156500000Y-96000000D03*
X130500000Y-102000000D03*
X136000000Y-97500000D03*
X138500000Y-107000000D03*
X151500000Y-81000000D03*
X131500000Y-88000000D03*
X139500000Y-85000000D03*
X139500000Y-87000000D03*
X148500000Y-81000000D03*
X134500000Y-107000000D03*
X165500000Y-79000000D03*
X130500000Y-88000000D03*
X134500000Y-88000000D03*
X136500000Y-108000000D03*
X157500000Y-76000000D03*
X139500000Y-75000000D03*
X154500000Y-104000000D03*
X140500000Y-83000000D03*
X131000000Y-95500000D03*
X160500000Y-107000000D03*
X138000000Y-97500000D03*
X130500000Y-83000000D03*
X144000000Y-97500000D03*
X135500000Y-108000000D03*
X163000000Y-96000000D03*
X162500000Y-73000000D03*
X139500000Y-74000000D03*
X139500000Y-78000000D03*
X165500000Y-89000000D03*
X162500000Y-85000000D03*
X132500000Y-80000000D03*
X130500000Y-85000000D03*
X137500000Y-91000000D03*
X152500000Y-99000000D03*
X139500000Y-76000000D03*
X131500000Y-76000000D03*
X162500000Y-107000000D03*
%TO.N,/Project Architecture/Section B - uC/UPDI*%
X148500000Y-107000000D03*
%TO.N,/Project Architecture/Section C - Touch sensor/TOUCH*%
X144500000Y-95000000D03*
X143500000Y-95000000D03*
%TD*%
D30*
%TO.N,GND*%
X137912500Y-91412500D02*
X137912500Y-93000000D01*
D10*
X148500000Y-100000000D02*
X148500000Y-97000000D01*
D30*
X137500000Y-91000000D02*
X137912500Y-91412500D01*
D10*
%TO.N,/Project Architecture/Section B - uC/UPDI*%
X162000000Y-97500000D02*
X159000000Y-100500000D01*
X149000000Y-107500000D02*
X157000000Y-107500000D01*
X157000000Y-107500000D02*
X159000000Y-105500000D01*
X163975000Y-91270000D02*
X162730000Y-91270000D01*
X148500000Y-107000000D02*
X149000000Y-107500000D01*
X163230000Y-91270000D02*
X164507500Y-91270000D01*
X162000000Y-92000000D02*
X162000000Y-97500000D01*
X162730000Y-91270000D02*
X162000000Y-92000000D01*
D31*
%TO.N,Net-(U2-SNSK)*%
X133500000Y-95000000D02*
X132550000Y-94050000D01*
X132550000Y-93000000D02*
X132550000Y-91137500D01*
D10*
X132550000Y-92550000D02*
X132362500Y-92362500D01*
X132550000Y-93000000D02*
X132550000Y-92550000D01*
D31*
X132550000Y-94050000D02*
X132550000Y-93000000D01*
X136087500Y-95000000D02*
X133500000Y-95000000D01*
D10*
X132550000Y-91137500D02*
X132362500Y-90950000D01*
%TO.N,Net-(U2-SNS)*%
X134637500Y-92812500D02*
X134450000Y-93000000D01*
D31*
X136087500Y-93000000D02*
X134450000Y-93000000D01*
D10*
X134450000Y-91137500D02*
X134637500Y-90950000D01*
D31*
X134450000Y-93000000D02*
X134450000Y-91137500D01*
D10*
%TO.N,/Project Architecture/Section B - uC/TT*%
X130950000Y-89050000D02*
X132362500Y-89050000D01*
X153000000Y-100500000D02*
X151000000Y-102500000D01*
X141587500Y-99587500D02*
X141500000Y-99500000D01*
X141500000Y-99500000D02*
X137500000Y-99500000D01*
X137499000Y-99499000D02*
X133001000Y-99499000D01*
X153587500Y-100500000D02*
X153000000Y-100500000D01*
X133001000Y-99499000D02*
X133000000Y-99500000D01*
X144500000Y-99500000D02*
X141500000Y-99500000D01*
X137500000Y-99500000D02*
X137499000Y-99499000D01*
X130000000Y-90000000D02*
X130950000Y-89050000D01*
X130000000Y-96500000D02*
X130000000Y-90000000D01*
X141587500Y-100500000D02*
X141587500Y-99587500D01*
X133000000Y-99500000D02*
X130000000Y-96500000D01*
X145000000Y-100000000D02*
X144500000Y-99500000D01*
D31*
%TO.N,/Project Architecture/Section C - Touch sensor/TOUCH*%
X144500000Y-95000000D02*
X137912500Y-95000000D01*
D10*
%TO.N,unconnected-(U1-PA5-Pad3)*%
X159557500Y-88730000D02*
X159770000Y-88730000D01*
%TO.N,Net-(D2-K)*%
X141100001Y-105500000D02*
X141100001Y-105312499D01*
D31*
X141587500Y-103000000D02*
X141587500Y-103912500D01*
X141587500Y-103912500D02*
X141100001Y-104399999D01*
X141100001Y-104399999D02*
X141100001Y-105500000D01*
%TO.N,Net-(D1-K)*%
X153587500Y-103000000D02*
X153587500Y-103912500D01*
X153587500Y-103912500D02*
X153100001Y-104399999D01*
X153100001Y-104399999D02*
X153100001Y-105500000D01*
D10*
%TO.N,LED1*%
X158671573Y-100171573D02*
X161599000Y-97244146D01*
X157500000Y-103000000D02*
X157500000Y-105000000D01*
X161599000Y-97244146D02*
X161599000Y-97000000D01*
X157500000Y-105000000D02*
X157000000Y-105500000D01*
X155899999Y-105100001D02*
X155899999Y-105500000D01*
X157000000Y-105500000D02*
X155899999Y-105500000D01*
X161000000Y-90000000D02*
X161599000Y-90599000D01*
X159025000Y-90000000D02*
X161000000Y-90000000D01*
X161599000Y-90599000D02*
X161599000Y-97000000D01*
%TO.N,/Project Architecture/Section B - uC/SR_SDI*%
X163975000Y-92540000D02*
X165540000Y-92540000D01*
X166500000Y-93500000D02*
X166500000Y-103000000D01*
X137000000Y-103000000D02*
X135500000Y-103000000D01*
X140500000Y-108000000D02*
X135500000Y-103000000D01*
X165540000Y-92540000D02*
X166500000Y-93500000D01*
X161500000Y-108000000D02*
X140500000Y-108000000D01*
%TO.N,VCC*%
X136500000Y-85000000D02*
X141000000Y-80500000D01*
X136000000Y-90000000D02*
X136500000Y-89500000D01*
X134637500Y-90000000D02*
X136000000Y-90000000D01*
X134975000Y-85525000D02*
X135000000Y-85500000D01*
X136500000Y-89500000D02*
X136500000Y-85000000D01*
X141000000Y-80500000D02*
X141000000Y-79450000D01*
X134975000Y-86000000D02*
X134975000Y-85525000D01*
%TO.N,Net-(J2-VCONN)*%
X141000000Y-73000000D02*
X141000000Y-73587500D01*
X145500000Y-72500000D02*
X141500000Y-72500000D01*
X141500000Y-72500000D02*
X141000000Y-73000000D01*
X148000000Y-77635000D02*
X148000000Y-75000000D01*
X148000000Y-75000000D02*
X145500000Y-72500000D01*
%TO.N,Net-(J2-CC)*%
X156000000Y-73587500D02*
X156000000Y-73000000D01*
X149000000Y-75000000D02*
X149000000Y-77635000D01*
X151500000Y-72500000D02*
X149000000Y-75000000D01*
X156000000Y-73000000D02*
X155500000Y-72500000D01*
X155500000Y-72500000D02*
X151500000Y-72500000D01*
%TO.N,/Project Architecture/Section B - uC/SR_CLK*%
X163975000Y-90000000D02*
X165500000Y-90000000D01*
X166500000Y-89000000D02*
X166500000Y-77000000D01*
X161500000Y-72000000D02*
X136500000Y-72000000D01*
X135500000Y-73000000D02*
X135500000Y-77000000D01*
X165500000Y-90000000D02*
X166500000Y-89000000D01*
%TO.N,/Project Architecture/Section B - uC/SR_LATCH*%
X161500000Y-101950000D02*
X161500000Y-103000000D01*
D30*
X163975000Y-93810000D02*
X163975000Y-94892500D01*
X165000000Y-95917500D02*
X165000000Y-99500000D01*
X163975000Y-94892500D02*
X165000000Y-95917500D01*
X165000000Y-99500000D02*
X161500000Y-103000000D01*
D10*
%TO.N,LED2*%
X152656854Y-101500000D02*
X151328427Y-102828427D01*
X160270000Y-91270000D02*
X161198000Y-92198000D01*
X156776046Y-101500000D02*
X152656854Y-101500000D01*
X159025000Y-91270000D02*
X160270000Y-91270000D01*
X144500000Y-104000000D02*
X148500000Y-104000000D01*
X143899999Y-104600001D02*
X144500000Y-104000000D01*
X143899999Y-105500000D02*
X143899999Y-104600001D01*
X161198000Y-92198000D02*
X161198000Y-97078046D01*
X161198000Y-97078046D02*
X156776046Y-101500000D01*
%TO.N,/Project Architecture/Section B - uC/TT_uC*%
X155412500Y-100500000D02*
X157208946Y-100500000D01*
X160797000Y-96911946D02*
X160797000Y-94297000D01*
X157208946Y-100500000D02*
X160797000Y-96911946D01*
X160797000Y-94297000D02*
X160310000Y-93810000D01*
X160310000Y-93810000D02*
X159025000Y-93810000D01*
%TD*%
%TA.AperFunction,Conductor*%
%TO.N,VCC*%
G36*
X147408691Y-76983311D02*
G01*
X147444655Y-77032811D01*
X147449500Y-77063404D01*
X147449500Y-78254746D01*
X147449501Y-78254758D01*
X147461132Y-78313227D01*
X147461134Y-78313233D01*
X147505445Y-78379548D01*
X147505448Y-78379552D01*
X147571769Y-78423867D01*
X147616231Y-78432711D01*
X147630241Y-78435498D01*
X147630246Y-78435498D01*
X147630252Y-78435500D01*
X147630253Y-78435500D01*
X148369747Y-78435500D01*
X148369748Y-78435500D01*
X148428231Y-78423867D01*
X148444997Y-78412663D01*
X148503885Y-78396054D01*
X148555002Y-78412663D01*
X148571769Y-78423867D01*
X148616231Y-78432711D01*
X148630241Y-78435498D01*
X148630246Y-78435498D01*
X148630252Y-78435500D01*
X148630253Y-78435500D01*
X149369747Y-78435500D01*
X149369748Y-78435500D01*
X149428231Y-78423867D01*
X149494552Y-78379552D01*
X149538867Y-78313231D01*
X149550500Y-78254748D01*
X149550500Y-77063404D01*
X149569407Y-77005213D01*
X149618907Y-76969249D01*
X149649500Y-76964404D01*
X150401000Y-76964404D01*
X150459191Y-76983311D01*
X150495155Y-77032811D01*
X150500000Y-77063404D01*
X150500000Y-78964404D01*
X151000000Y-79464404D01*
X151000001Y-79464404D01*
X151382953Y-79464404D01*
X151408575Y-79467777D01*
X151437399Y-79475500D01*
X151562601Y-79475500D01*
X151591425Y-79467777D01*
X151617047Y-79464404D01*
X152382953Y-79464404D01*
X152408575Y-79467777D01*
X152437399Y-79475500D01*
X152562601Y-79475500D01*
X152591425Y-79467777D01*
X152617047Y-79464404D01*
X153382953Y-79464404D01*
X153408575Y-79467777D01*
X153437399Y-79475500D01*
X153562601Y-79475500D01*
X153591425Y-79467777D01*
X153617047Y-79464404D01*
X154382953Y-79464404D01*
X154408575Y-79467777D01*
X154437399Y-79475500D01*
X154562601Y-79475500D01*
X154591425Y-79467777D01*
X154617047Y-79464404D01*
X157499999Y-79464404D01*
X157500000Y-79464404D01*
X158971004Y-77993400D01*
X159025521Y-77965623D01*
X159041008Y-77964404D01*
X161401000Y-77964404D01*
X161459191Y-77983311D01*
X161495155Y-78032811D01*
X161500000Y-78063404D01*
X161500000Y-85423396D01*
X161481093Y-85481587D01*
X161471004Y-85493400D01*
X160528996Y-86435408D01*
X160474479Y-86463185D01*
X160458992Y-86464404D01*
X158599000Y-86464404D01*
X158540809Y-86445497D01*
X158504845Y-86395997D01*
X158500000Y-86365404D01*
X158500000Y-83964405D01*
X158500000Y-83964404D01*
X155000000Y-80464404D01*
X154999999Y-80464404D01*
X142000001Y-80464404D01*
X142000000Y-80464404D01*
X136500000Y-85964404D01*
X136500000Y-85964405D01*
X136500000Y-88225396D01*
X136481093Y-88283587D01*
X136431593Y-88319551D01*
X136370407Y-88319551D01*
X136330996Y-88295400D01*
X136260992Y-88225396D01*
X135500000Y-87464404D01*
X135499999Y-87464404D01*
X134599000Y-87464404D01*
X134540809Y-87445497D01*
X134504845Y-87395997D01*
X134500000Y-87365404D01*
X134500000Y-84507567D01*
X134518907Y-84449376D01*
X134531623Y-84435031D01*
X135000000Y-84000000D01*
X135500000Y-83500000D01*
X137500000Y-81500000D01*
X139471588Y-79528411D01*
X139526103Y-79500636D01*
X139540168Y-79499428D01*
X141999298Y-79464414D01*
X142000707Y-79464404D01*
X142382953Y-79464404D01*
X142408575Y-79467777D01*
X142437399Y-79475500D01*
X142562601Y-79475500D01*
X142591425Y-79467777D01*
X142617047Y-79464404D01*
X143382953Y-79464404D01*
X143408575Y-79467777D01*
X143437399Y-79475500D01*
X143562601Y-79475500D01*
X143591425Y-79467777D01*
X143617047Y-79464404D01*
X144382953Y-79464404D01*
X144408575Y-79467777D01*
X144437399Y-79475500D01*
X144562601Y-79475500D01*
X144591425Y-79467777D01*
X144617047Y-79464404D01*
X145382953Y-79464404D01*
X145408575Y-79467777D01*
X145437399Y-79475500D01*
X145562601Y-79475500D01*
X145591425Y-79467777D01*
X145617047Y-79464404D01*
X145999999Y-79464404D01*
X146000000Y-79464404D01*
X146500000Y-78964404D01*
X146500000Y-77063404D01*
X146518907Y-77005213D01*
X146568407Y-76969249D01*
X146599000Y-76964404D01*
X147350500Y-76964404D01*
X147408691Y-76983311D01*
G37*
%TD.AperFunction*%
%TD*%
%TA.AperFunction,Conductor*%
%TO.N,GND*%
G36*
X161501934Y-71250576D02*
G01*
X161947225Y-71268071D01*
X161954956Y-71268680D01*
X162395572Y-71320830D01*
X162403217Y-71322041D01*
X162838394Y-71408603D01*
X162845928Y-71410412D01*
X163272958Y-71530847D01*
X163280329Y-71533242D01*
X163696608Y-71686816D01*
X163703762Y-71689779D01*
X164106701Y-71875536D01*
X164113597Y-71879050D01*
X164500719Y-72095848D01*
X164507326Y-72099897D01*
X164586480Y-72152786D01*
X164876241Y-72346399D01*
X164882529Y-72350968D01*
X165230943Y-72625635D01*
X165236854Y-72630683D01*
X165562653Y-72931849D01*
X165568150Y-72937346D01*
X165869316Y-73263145D01*
X165874364Y-73269056D01*
X166149031Y-73617470D01*
X166153600Y-73623758D01*
X166400095Y-73992662D01*
X166404155Y-73999288D01*
X166577107Y-74308117D01*
X166620941Y-74386387D01*
X166624468Y-74393309D01*
X166798008Y-74769748D01*
X166810214Y-74796224D01*
X166813189Y-74803405D01*
X166966753Y-75219659D01*
X166969155Y-75227052D01*
X167089584Y-75654059D01*
X167091399Y-75661618D01*
X167177955Y-76096765D01*
X167179171Y-76104443D01*
X167231318Y-76545034D01*
X167231928Y-76552783D01*
X167249424Y-76998065D01*
X167249500Y-77001952D01*
X167249500Y-102998047D01*
X167249424Y-103001934D01*
X167231928Y-103447216D01*
X167231318Y-103454965D01*
X167179171Y-103895556D01*
X167177955Y-103903234D01*
X167091399Y-104338381D01*
X167089584Y-104345940D01*
X166969155Y-104772947D01*
X166966753Y-104780340D01*
X166813189Y-105196594D01*
X166810214Y-105203775D01*
X166624470Y-105606686D01*
X166620941Y-105613612D01*
X166404157Y-106000708D01*
X166400095Y-106007337D01*
X166153600Y-106376241D01*
X166149031Y-106382529D01*
X165874364Y-106730943D01*
X165869316Y-106736854D01*
X165568150Y-107062653D01*
X165562653Y-107068150D01*
X165236854Y-107369316D01*
X165230943Y-107374364D01*
X164882529Y-107649031D01*
X164876241Y-107653600D01*
X164507337Y-107900095D01*
X164500708Y-107904157D01*
X164113612Y-108120941D01*
X164106686Y-108124470D01*
X163703775Y-108310214D01*
X163696594Y-108313189D01*
X163280340Y-108466753D01*
X163272947Y-108469155D01*
X162845940Y-108589584D01*
X162838381Y-108591399D01*
X162403234Y-108677955D01*
X162395556Y-108679171D01*
X161954965Y-108731318D01*
X161947216Y-108731928D01*
X161501934Y-108749424D01*
X161498047Y-108749500D01*
X135501953Y-108749500D01*
X135498066Y-108749424D01*
X135052783Y-108731928D01*
X135045034Y-108731318D01*
X134604443Y-108679171D01*
X134596765Y-108677955D01*
X134161618Y-108591399D01*
X134154059Y-108589584D01*
X133727052Y-108469155D01*
X133719659Y-108466753D01*
X133303405Y-108313189D01*
X133296224Y-108310214D01*
X133275153Y-108300500D01*
X132893309Y-108124468D01*
X132886392Y-108120943D01*
X132499288Y-107904155D01*
X132492662Y-107900095D01*
X132123758Y-107653600D01*
X132117470Y-107649031D01*
X131769056Y-107374364D01*
X131763145Y-107369316D01*
X131437346Y-107068150D01*
X131431849Y-107062653D01*
X131130683Y-106736854D01*
X131125635Y-106730943D01*
X130850968Y-106382529D01*
X130846399Y-106376241D01*
X130725831Y-106195799D01*
X130599897Y-106007326D01*
X130595848Y-106000719D01*
X130379050Y-105613597D01*
X130375536Y-105606701D01*
X130189779Y-105203762D01*
X130186816Y-105196608D01*
X130033242Y-104780329D01*
X130030847Y-104772958D01*
X129910412Y-104345928D01*
X129908603Y-104338394D01*
X129822041Y-103903217D01*
X129820830Y-103895572D01*
X129768680Y-103454956D01*
X129768071Y-103447216D01*
X129765935Y-103392858D01*
X129750576Y-103001934D01*
X129750500Y-102998047D01*
X129750500Y-96914478D01*
X129769407Y-96856287D01*
X129818907Y-96820323D01*
X129880093Y-96820323D01*
X129919501Y-96844472D01*
X132815489Y-99740460D01*
X132815491Y-99740461D01*
X132815493Y-99740463D01*
X132884008Y-99780020D01*
X132884006Y-99780020D01*
X132884010Y-99780021D01*
X132884012Y-99780022D01*
X132960438Y-99800500D01*
X132960440Y-99800500D01*
X133039563Y-99800500D01*
X133040725Y-99800347D01*
X133053647Y-99799500D01*
X133878814Y-99799500D01*
X133937005Y-99818407D01*
X133972969Y-99867907D01*
X133972969Y-99929093D01*
X133937005Y-99978593D01*
X133925482Y-99985810D01*
X133749687Y-100079773D01*
X133471880Y-100265400D01*
X133213615Y-100477352D01*
X132977352Y-100713615D01*
X132765400Y-100971880D01*
X132579773Y-101249687D01*
X132422286Y-101544327D01*
X132422273Y-101544354D01*
X132294414Y-101853032D01*
X132197431Y-102172746D01*
X132132248Y-102500444D01*
X132116797Y-102657323D01*
X132099500Y-102832944D01*
X132099500Y-103167056D01*
X132105393Y-103226885D01*
X132132248Y-103499555D01*
X132197431Y-103827253D01*
X132294414Y-104146967D01*
X132422273Y-104455645D01*
X132422286Y-104455672D01*
X132579773Y-104750312D01*
X132698199Y-104927547D01*
X132765399Y-105028118D01*
X132977357Y-105286390D01*
X133213610Y-105522643D01*
X133471882Y-105734601D01*
X133599989Y-105820200D01*
X133749687Y-105920226D01*
X133974635Y-106040462D01*
X134044346Y-106077723D01*
X134353024Y-106205582D01*
X134353026Y-106205582D01*
X134353032Y-106205585D01*
X134629376Y-106289412D01*
X134672749Y-106302569D01*
X135000441Y-106367751D01*
X135332944Y-106400500D01*
X135332947Y-106400500D01*
X135667053Y-106400500D01*
X135667056Y-106400500D01*
X135999559Y-106367751D01*
X136327251Y-106302569D01*
X136516857Y-106245052D01*
X136646967Y-106205585D01*
X136646969Y-106205583D01*
X136646976Y-106205582D01*
X136955654Y-106077723D01*
X137146826Y-105975540D01*
X137250312Y-105920226D01*
X137281495Y-105899390D01*
X137528118Y-105734601D01*
X137613376Y-105664631D01*
X137670351Y-105642331D01*
X137729554Y-105657779D01*
X137746184Y-105671155D01*
X140259540Y-108184511D01*
X140259539Y-108184511D01*
X140315489Y-108240460D01*
X140384007Y-108280019D01*
X140384011Y-108280021D01*
X140460435Y-108300499D01*
X140460437Y-108300500D01*
X140460438Y-108300500D01*
X161719222Y-108300500D01*
X161719230Y-108300500D01*
X162156193Y-108264292D01*
X162588674Y-108192124D01*
X163013718Y-108084488D01*
X163428421Y-107942121D01*
X163829952Y-107765993D01*
X164215567Y-107557309D01*
X164582631Y-107317493D01*
X164928638Y-107048185D01*
X165251224Y-106751224D01*
X165548185Y-106428638D01*
X165817493Y-106082631D01*
X166057309Y-105715567D01*
X166265993Y-105329952D01*
X166442121Y-104928421D01*
X166584488Y-104513718D01*
X166692124Y-104088674D01*
X166764292Y-103656193D01*
X166800500Y-103219230D01*
X166800500Y-103000000D01*
X166800500Y-102952405D01*
X166800500Y-93460438D01*
X166780021Y-93384011D01*
X166740460Y-93315489D01*
X166734471Y-93309500D01*
X166684511Y-93259539D01*
X166684511Y-93259540D01*
X165724511Y-92299540D01*
X165724508Y-92299538D01*
X165724507Y-92299537D01*
X165705576Y-92288608D01*
X165705576Y-92288607D01*
X165705572Y-92288606D01*
X165674136Y-92270456D01*
X165655988Y-92259978D01*
X165579564Y-92239500D01*
X165579562Y-92239500D01*
X165178365Y-92239500D01*
X165120174Y-92220593D01*
X165094389Y-92189891D01*
X165093965Y-92190194D01*
X165090115Y-92184802D01*
X165089423Y-92183978D01*
X165089198Y-92183518D01*
X165089198Y-92183517D01*
X165006483Y-92100802D01*
X165006481Y-92100801D01*
X164901395Y-92049427D01*
X164874139Y-92045456D01*
X164833260Y-92039500D01*
X163116740Y-92039500D01*
X163082673Y-92044463D01*
X163048604Y-92049427D01*
X162943518Y-92100801D01*
X162860801Y-92183518D01*
X162809427Y-92288604D01*
X162807834Y-92299537D01*
X162799500Y-92356740D01*
X162799500Y-92723260D01*
X162806118Y-92768682D01*
X162809427Y-92791395D01*
X162847609Y-92869496D01*
X162860802Y-92896483D01*
X162943517Y-92979198D01*
X162986987Y-93000449D01*
X163048604Y-93030572D01*
X163048605Y-93030572D01*
X163048607Y-93030573D01*
X163116740Y-93040500D01*
X163116743Y-93040500D01*
X164833257Y-93040500D01*
X164833260Y-93040500D01*
X164901393Y-93030573D01*
X165006483Y-92979198D01*
X165089198Y-92896483D01*
X165089423Y-92896021D01*
X165089819Y-92895612D01*
X165093965Y-92889806D01*
X165094835Y-92890427D01*
X165106085Y-92878798D01*
X165120174Y-92859407D01*
X165126986Y-92857193D01*
X165131965Y-92852047D01*
X165178365Y-92840500D01*
X165374521Y-92840500D01*
X165432712Y-92859407D01*
X165444525Y-92869496D01*
X166170504Y-93595475D01*
X166198281Y-93649992D01*
X166199500Y-93665479D01*
X166199500Y-102997834D01*
X166199406Y-103002152D01*
X166181805Y-103405272D01*
X166181052Y-103413876D01*
X166128667Y-103811776D01*
X166127167Y-103820281D01*
X166040304Y-104212096D01*
X166038069Y-104220439D01*
X165917384Y-104603201D01*
X165914430Y-104611317D01*
X165760846Y-104982103D01*
X165757196Y-104989930D01*
X165571884Y-105345910D01*
X165567566Y-105353390D01*
X165351923Y-105691882D01*
X165346969Y-105698956D01*
X165102654Y-106017354D01*
X165097102Y-106023970D01*
X164825968Y-106319861D01*
X164819861Y-106325968D01*
X164523970Y-106597102D01*
X164517354Y-106602654D01*
X164198956Y-106846969D01*
X164191882Y-106851923D01*
X163853390Y-107067566D01*
X163845910Y-107071884D01*
X163489930Y-107257196D01*
X163482103Y-107260846D01*
X163111317Y-107414430D01*
X163103201Y-107417384D01*
X162720439Y-107538069D01*
X162712096Y-107540304D01*
X162320281Y-107627167D01*
X162311776Y-107628667D01*
X161913876Y-107681052D01*
X161905272Y-107681805D01*
X161502153Y-107699406D01*
X161497835Y-107699500D01*
X157464479Y-107699500D01*
X157406288Y-107680593D01*
X157370324Y-107631093D01*
X157370324Y-107569907D01*
X157394475Y-107530496D01*
X159251646Y-105673325D01*
X159253569Y-105675248D01*
X159292822Y-105646710D01*
X159354008Y-105646689D01*
X159386251Y-105664325D01*
X159471882Y-105734601D01*
X159599989Y-105820200D01*
X159749687Y-105920226D01*
X159974635Y-106040462D01*
X160044346Y-106077723D01*
X160353024Y-106205582D01*
X160353026Y-106205582D01*
X160353032Y-106205585D01*
X160629376Y-106289412D01*
X160672749Y-106302569D01*
X161000441Y-106367751D01*
X161332944Y-106400500D01*
X161332947Y-106400500D01*
X161667053Y-106400500D01*
X161667056Y-106400500D01*
X161999559Y-106367751D01*
X162327251Y-106302569D01*
X162516857Y-106245052D01*
X162646967Y-106205585D01*
X162646969Y-106205583D01*
X162646976Y-106205582D01*
X162955654Y-106077723D01*
X163146826Y-105975540D01*
X163250312Y-105920226D01*
X163281330Y-105899500D01*
X163528118Y-105734601D01*
X163786390Y-105522643D01*
X164022643Y-105286390D01*
X164234601Y-105028118D01*
X164420224Y-104750315D01*
X164454090Y-104686957D01*
X164525772Y-104552848D01*
X164577723Y-104455654D01*
X164705582Y-104146976D01*
X164802569Y-103827251D01*
X164867751Y-103499559D01*
X164900500Y-103167056D01*
X164900500Y-102832944D01*
X164867751Y-102500441D01*
X164802569Y-102172749D01*
X164770890Y-102068316D01*
X164705585Y-101853032D01*
X164698993Y-101837116D01*
X164577723Y-101544346D01*
X164577713Y-101544327D01*
X164420226Y-101249687D01*
X164251950Y-100997846D01*
X164235341Y-100938958D01*
X164256518Y-100881554D01*
X164264252Y-100872849D01*
X165360489Y-99776614D01*
X165402708Y-99703488D01*
X165419799Y-99673886D01*
X165450500Y-99559309D01*
X165450500Y-95858191D01*
X165419799Y-95743614D01*
X165419799Y-95743613D01*
X165419799Y-95743612D01*
X165360492Y-95640890D01*
X165360491Y-95640889D01*
X165360490Y-95640888D01*
X165360489Y-95640886D01*
X164454496Y-94734893D01*
X164426719Y-94680376D01*
X164425500Y-94664889D01*
X164425500Y-94409500D01*
X164444407Y-94351309D01*
X164493907Y-94315345D01*
X164524500Y-94310500D01*
X164833257Y-94310500D01*
X164833260Y-94310500D01*
X164901393Y-94300573D01*
X165006483Y-94249198D01*
X165089198Y-94166483D01*
X165140573Y-94061393D01*
X165150500Y-93993260D01*
X165150500Y-93626740D01*
X165140573Y-93558607D01*
X165089198Y-93453517D01*
X165006483Y-93370802D01*
X165006481Y-93370801D01*
X164901395Y-93319427D01*
X164874139Y-93315456D01*
X164833260Y-93309500D01*
X163116740Y-93309500D01*
X163082673Y-93314463D01*
X163048604Y-93319427D01*
X162943518Y-93370801D01*
X162860801Y-93453518D01*
X162809427Y-93558604D01*
X162807834Y-93569540D01*
X162799500Y-93626740D01*
X162799500Y-93993260D01*
X162806118Y-94038682D01*
X162809427Y-94061395D01*
X162856436Y-94157552D01*
X162860802Y-94166483D01*
X162943517Y-94249198D01*
X162997285Y-94275483D01*
X163048604Y-94300572D01*
X163048605Y-94300572D01*
X163048607Y-94300573D01*
X163116740Y-94310500D01*
X163425500Y-94310500D01*
X163483691Y-94329407D01*
X163519655Y-94378907D01*
X163524500Y-94409500D01*
X163524500Y-94951809D01*
X163537413Y-95000000D01*
X163555201Y-95066387D01*
X163555202Y-95066389D01*
X163555203Y-95066392D01*
X163614507Y-95169109D01*
X163614509Y-95169111D01*
X163614511Y-95169114D01*
X164520505Y-96075108D01*
X164548281Y-96129623D01*
X164549500Y-96145110D01*
X164549500Y-99272388D01*
X164530593Y-99330579D01*
X164520504Y-99342392D01*
X163627157Y-100235738D01*
X163572640Y-100263515D01*
X163512208Y-100253944D01*
X163502159Y-100248053D01*
X163366357Y-100157313D01*
X163250312Y-100079773D01*
X162955672Y-99922286D01*
X162955660Y-99922280D01*
X162955654Y-99922277D01*
X162955649Y-99922274D01*
X162955645Y-99922273D01*
X162646967Y-99794414D01*
X162327253Y-99697431D01*
X162074758Y-99647207D01*
X161999559Y-99632249D01*
X161999557Y-99632248D01*
X161756491Y-99608308D01*
X161667056Y-99599500D01*
X161332944Y-99599500D01*
X161234700Y-99609176D01*
X161000444Y-99632248D01*
X160672746Y-99697431D01*
X160411893Y-99776559D01*
X160350719Y-99775358D01*
X160301935Y-99738429D01*
X160284174Y-99679878D01*
X160304221Y-99622070D01*
X160313143Y-99611826D01*
X162240460Y-97684511D01*
X162280022Y-97615988D01*
X162300500Y-97539562D01*
X162300500Y-97460438D01*
X162300500Y-92165478D01*
X162319407Y-92107287D01*
X162329490Y-92095480D01*
X162759641Y-91665328D01*
X162814158Y-91637552D01*
X162874590Y-91647123D01*
X162899645Y-91665326D01*
X162943517Y-91709198D01*
X162983360Y-91728676D01*
X163048604Y-91760572D01*
X163048605Y-91760572D01*
X163048607Y-91760573D01*
X163116740Y-91770500D01*
X163116743Y-91770500D01*
X164833257Y-91770500D01*
X164833260Y-91770500D01*
X164901393Y-91760573D01*
X165006483Y-91709198D01*
X165089198Y-91626483D01*
X165140573Y-91521393D01*
X165150500Y-91453260D01*
X165150500Y-91086740D01*
X165140573Y-91018607D01*
X165089198Y-90913517D01*
X165006483Y-90830802D01*
X165006481Y-90830801D01*
X164901395Y-90779427D01*
X164874139Y-90775456D01*
X164833260Y-90769500D01*
X163116740Y-90769500D01*
X163082673Y-90774463D01*
X163048604Y-90779427D01*
X162943518Y-90830801D01*
X162860801Y-90913518D01*
X162860577Y-90913978D01*
X162860180Y-90914387D01*
X162856035Y-90920194D01*
X162855164Y-90919572D01*
X162818035Y-90957953D01*
X162771635Y-90969500D01*
X162690435Y-90969500D01*
X162614011Y-90989978D01*
X162564428Y-91018606D01*
X162564424Y-91018608D01*
X162545491Y-91029538D01*
X162545489Y-91029539D01*
X162068503Y-91506525D01*
X162013987Y-91534302D01*
X161953555Y-91524731D01*
X161910290Y-91481466D01*
X161899500Y-91436521D01*
X161899500Y-90559437D01*
X161899499Y-90559435D01*
X161898296Y-90554947D01*
X161879021Y-90483011D01*
X161868655Y-90465057D01*
X161839460Y-90414489D01*
X161783511Y-90358539D01*
X161783511Y-90358540D01*
X161184511Y-89759540D01*
X161184508Y-89759538D01*
X161151464Y-89740460D01*
X161151462Y-89740459D01*
X161115989Y-89719979D01*
X161115986Y-89719978D01*
X161039564Y-89699500D01*
X161039562Y-89699500D01*
X160228365Y-89699500D01*
X160170174Y-89680593D01*
X160144389Y-89649891D01*
X160143965Y-89650194D01*
X160140115Y-89644802D01*
X160139423Y-89643978D01*
X160139198Y-89643518D01*
X160139198Y-89643517D01*
X160056483Y-89560802D01*
X160054845Y-89560001D01*
X159951395Y-89509427D01*
X159924139Y-89505456D01*
X159883260Y-89499500D01*
X158166740Y-89499500D01*
X158132673Y-89504463D01*
X158098604Y-89509427D01*
X157993518Y-89560801D01*
X157910801Y-89643518D01*
X157859427Y-89748604D01*
X157859427Y-89748607D01*
X157849500Y-89816740D01*
X157849500Y-90183260D01*
X157856118Y-90228682D01*
X157859427Y-90251395D01*
X157895230Y-90324630D01*
X157910802Y-90356483D01*
X157993517Y-90439198D01*
X158046032Y-90464871D01*
X158098604Y-90490572D01*
X158098605Y-90490572D01*
X158098607Y-90490573D01*
X158166740Y-90500500D01*
X158166743Y-90500500D01*
X159883257Y-90500500D01*
X159883260Y-90500500D01*
X159951393Y-90490573D01*
X160056483Y-90439198D01*
X160139198Y-90356483D01*
X160139423Y-90356021D01*
X160139819Y-90355612D01*
X160143965Y-90349806D01*
X160144835Y-90350427D01*
X160181965Y-90312047D01*
X160228365Y-90300500D01*
X160834521Y-90300500D01*
X160892712Y-90319407D01*
X160904525Y-90329496D01*
X161269504Y-90694475D01*
X161297281Y-90748992D01*
X161298500Y-90764479D01*
X161298500Y-91634521D01*
X161279593Y-91692712D01*
X161230093Y-91728676D01*
X161168907Y-91728676D01*
X161129496Y-91704525D01*
X160814169Y-91389198D01*
X160454511Y-91029540D01*
X160454508Y-91029538D01*
X160454507Y-91029537D01*
X160435576Y-91018608D01*
X160435576Y-91018607D01*
X160435572Y-91018606D01*
X160404136Y-91000456D01*
X160385988Y-90989978D01*
X160309564Y-90969500D01*
X160309562Y-90969500D01*
X160228365Y-90969500D01*
X160170174Y-90950593D01*
X160144389Y-90919891D01*
X160143965Y-90920194D01*
X160140115Y-90914802D01*
X160139423Y-90913978D01*
X160139198Y-90913518D01*
X160139198Y-90913517D01*
X160056483Y-90830802D01*
X160056481Y-90830801D01*
X159951395Y-90779427D01*
X159924139Y-90775456D01*
X159883260Y-90769500D01*
X158166740Y-90769500D01*
X158132673Y-90774463D01*
X158098604Y-90779427D01*
X157993518Y-90830801D01*
X157910801Y-90913518D01*
X157859427Y-91018604D01*
X157857834Y-91029537D01*
X157849500Y-91086740D01*
X157849500Y-91453260D01*
X157851740Y-91468632D01*
X157859427Y-91521395D01*
X157890341Y-91584629D01*
X157910802Y-91626483D01*
X157993517Y-91709198D01*
X158033360Y-91728676D01*
X158098604Y-91760572D01*
X158098605Y-91760572D01*
X158098607Y-91760573D01*
X158166740Y-91770500D01*
X158166743Y-91770500D01*
X159883257Y-91770500D01*
X159883260Y-91770500D01*
X159951393Y-91760573D01*
X160056483Y-91709198D01*
X160100352Y-91665328D01*
X160154866Y-91637552D01*
X160215298Y-91647123D01*
X160240358Y-91665329D01*
X160868504Y-92293475D01*
X160896281Y-92347992D01*
X160897500Y-92363479D01*
X160897500Y-93733521D01*
X160878593Y-93791712D01*
X160829093Y-93827676D01*
X160767907Y-93827676D01*
X160728497Y-93803525D01*
X160494511Y-93569540D01*
X160442587Y-93539561D01*
X160442585Y-93539561D01*
X160425989Y-93529979D01*
X160425986Y-93529978D01*
X160349564Y-93509500D01*
X160349562Y-93509500D01*
X160228365Y-93509500D01*
X160170174Y-93490593D01*
X160144389Y-93459891D01*
X160143965Y-93460194D01*
X160140115Y-93454802D01*
X160139423Y-93453978D01*
X160139198Y-93453518D01*
X160139198Y-93453517D01*
X160056483Y-93370802D01*
X160056481Y-93370801D01*
X159951395Y-93319427D01*
X159924139Y-93315456D01*
X159883260Y-93309500D01*
X158166740Y-93309500D01*
X158132673Y-93314463D01*
X158098604Y-93319427D01*
X157993518Y-93370801D01*
X157910801Y-93453518D01*
X157859427Y-93558604D01*
X157857834Y-93569540D01*
X157849500Y-93626740D01*
X157849500Y-93993260D01*
X157856118Y-94038682D01*
X157859427Y-94061395D01*
X157906436Y-94157552D01*
X157910802Y-94166483D01*
X157993517Y-94249198D01*
X158047285Y-94275483D01*
X158098604Y-94300572D01*
X158098605Y-94300572D01*
X158098607Y-94300573D01*
X158166740Y-94310500D01*
X158166743Y-94310500D01*
X159883257Y-94310500D01*
X159883260Y-94310500D01*
X159951393Y-94300573D01*
X160056483Y-94249198D01*
X160120352Y-94185328D01*
X160174866Y-94157552D01*
X160235298Y-94167123D01*
X160260358Y-94185329D01*
X160467504Y-94392475D01*
X160495281Y-94446992D01*
X160496500Y-94462479D01*
X160496500Y-96746467D01*
X160477593Y-96804658D01*
X160467504Y-96816471D01*
X157113471Y-100170504D01*
X157058954Y-100198281D01*
X157043467Y-100199500D01*
X156224500Y-100199500D01*
X156166309Y-100180593D01*
X156130345Y-100131093D01*
X156125500Y-100100500D01*
X156125500Y-99995727D01*
X156125499Y-99995725D01*
X156124569Y-99985810D01*
X156122646Y-99965301D01*
X156077793Y-99837118D01*
X156066616Y-99821974D01*
X155997154Y-99727855D01*
X155997152Y-99727853D01*
X155997150Y-99727850D01*
X155997146Y-99727847D01*
X155997144Y-99727845D01*
X155887883Y-99647207D01*
X155759703Y-99602355D01*
X155759694Y-99602353D01*
X155729274Y-99599500D01*
X155729266Y-99599500D01*
X155095734Y-99599500D01*
X155095725Y-99599500D01*
X155065305Y-99602353D01*
X155065296Y-99602355D01*
X154937116Y-99647207D01*
X154827855Y-99727845D01*
X154827845Y-99727855D01*
X154747207Y-99837116D01*
X154702355Y-99965296D01*
X154702353Y-99965305D01*
X154699500Y-99995725D01*
X154699500Y-101004274D01*
X154702353Y-101034694D01*
X154702355Y-101034703D01*
X154713937Y-101067802D01*
X154715310Y-101128972D01*
X154680466Y-101179267D01*
X154622715Y-101199475D01*
X154620493Y-101199500D01*
X154379507Y-101199500D01*
X154321316Y-101180593D01*
X154285352Y-101131093D01*
X154285352Y-101069907D01*
X154286063Y-101067802D01*
X154289713Y-101057370D01*
X154297646Y-101034699D01*
X154300499Y-101004273D01*
X154300500Y-101004273D01*
X154300500Y-99995727D01*
X154300499Y-99995725D01*
X154299569Y-99985810D01*
X154297646Y-99965301D01*
X154252793Y-99837118D01*
X154241616Y-99821974D01*
X154172154Y-99727855D01*
X154172152Y-99727853D01*
X154172150Y-99727850D01*
X154172146Y-99727847D01*
X154172144Y-99727845D01*
X154062883Y-99647207D01*
X153934703Y-99602355D01*
X153934694Y-99602353D01*
X153904274Y-99599500D01*
X153904266Y-99599500D01*
X153270734Y-99599500D01*
X153270725Y-99599500D01*
X153240305Y-99602353D01*
X153240296Y-99602355D01*
X153112116Y-99647207D01*
X153002855Y-99727845D01*
X153002845Y-99727855D01*
X152922207Y-99837116D01*
X152877355Y-99965296D01*
X152877353Y-99965305D01*
X152874500Y-99995725D01*
X152874500Y-100168312D01*
X152855593Y-100226503D01*
X152825003Y-100254047D01*
X152815490Y-100259539D01*
X150821170Y-102253859D01*
X150821167Y-102253861D01*
X150789374Y-102285652D01*
X150785529Y-102289296D01*
X150533831Y-102515384D01*
X150525579Y-102522034D01*
X150253299Y-102718376D01*
X150244384Y-102724106D01*
X149952661Y-102890225D01*
X149943184Y-102894968D01*
X149635398Y-103028942D01*
X149625469Y-103032646D01*
X149305109Y-103132958D01*
X149294840Y-103135579D01*
X148965595Y-103201070D01*
X148955105Y-103202578D01*
X148620748Y-103232499D01*
X148610157Y-103232877D01*
X148274521Y-103226885D01*
X148263950Y-103226129D01*
X147930880Y-103184294D01*
X147920451Y-103182412D01*
X147593749Y-103105210D01*
X147583580Y-103102225D01*
X147386348Y-103032646D01*
X147267004Y-102990544D01*
X147257215Y-102986489D01*
X147202765Y-102960438D01*
X146954395Y-102841607D01*
X146945097Y-102836530D01*
X146659506Y-102660114D01*
X146650800Y-102654070D01*
X146385693Y-102448129D01*
X146377684Y-102441189D01*
X146136115Y-102208094D01*
X146128893Y-102200337D01*
X146018559Y-102068315D01*
X145913623Y-101942751D01*
X145907274Y-101934270D01*
X145905112Y-101931035D01*
X145777775Y-101740460D01*
X145720771Y-101655147D01*
X145715364Y-101646034D01*
X145713312Y-101642111D01*
X145559762Y-101348569D01*
X145555373Y-101338958D01*
X145432460Y-101026562D01*
X145429115Y-101016508D01*
X145340300Y-100692766D01*
X145338050Y-100682426D01*
X145284352Y-100351048D01*
X145283219Y-100340512D01*
X145280869Y-100296672D01*
X145273398Y-100157311D01*
X145279357Y-100122529D01*
X145278342Y-100122257D01*
X145280022Y-100115988D01*
X145300500Y-100039562D01*
X145300500Y-99960438D01*
X145280022Y-99884012D01*
X145280020Y-99884009D01*
X145280020Y-99884007D01*
X145240463Y-99815493D01*
X145240462Y-99815492D01*
X145240461Y-99815491D01*
X145240460Y-99815489D01*
X144684511Y-99259540D01*
X144682779Y-99258540D01*
X144615992Y-99219980D01*
X144615985Y-99219977D01*
X144539564Y-99199500D01*
X144539562Y-99199500D01*
X141539562Y-99199500D01*
X137552647Y-99199500D01*
X137539725Y-99198653D01*
X137538563Y-99198500D01*
X137538562Y-99198500D01*
X133164479Y-99198500D01*
X133106288Y-99179593D01*
X133094475Y-99169504D01*
X130329496Y-96404525D01*
X130301719Y-96350008D01*
X130300500Y-96334521D01*
X130300500Y-90165479D01*
X130302968Y-90157881D01*
X130301719Y-90149992D01*
X130312243Y-90129336D01*
X130313652Y-90125001D01*
X131450001Y-90125001D01*
X131450001Y-90181485D01*
X131464833Y-90275141D01*
X131464836Y-90275151D01*
X131522358Y-90388043D01*
X131574313Y-90439998D01*
X131602090Y-90494515D01*
X131592519Y-90554947D01*
X131574314Y-90580004D01*
X131560803Y-90593514D01*
X131560801Y-90593518D01*
X131509427Y-90698604D01*
X131509427Y-90698607D01*
X131499500Y-90766740D01*
X131499500Y-91133260D01*
X131506118Y-91178682D01*
X131509427Y-91201395D01*
X131560801Y-91306481D01*
X131560802Y-91306483D01*
X131643517Y-91389198D01*
X131697285Y-91415483D01*
X131748604Y-91440572D01*
X131748605Y-91440572D01*
X131748607Y-91440573D01*
X131816740Y-91450500D01*
X132050500Y-91450500D01*
X132108691Y-91469407D01*
X132144655Y-91518907D01*
X132149500Y-91549500D01*
X132149500Y-91901000D01*
X132130593Y-91959191D01*
X132081093Y-91995155D01*
X132050500Y-92000000D01*
X131500000Y-92000000D01*
X131500000Y-95000000D01*
X132500000Y-96000000D01*
X133500000Y-97000000D01*
X133500001Y-97000000D01*
X144500048Y-97000000D01*
X144561573Y-96999550D01*
X144561592Y-96999549D01*
X144561605Y-96999549D01*
X144684583Y-96991964D01*
X144806860Y-96976823D01*
X144927973Y-96954183D01*
X145047462Y-96924130D01*
X145164875Y-96886779D01*
X145279766Y-96842270D01*
X145391699Y-96790772D01*
X145500249Y-96732482D01*
X145605005Y-96667620D01*
X145705569Y-96596432D01*
X145801561Y-96519188D01*
X145892615Y-96436181D01*
X145978386Y-96347727D01*
X146058549Y-96254160D01*
X146132800Y-96155835D01*
X146200858Y-96053126D01*
X146262463Y-95946423D01*
X146317383Y-95836129D01*
X146365409Y-95722663D01*
X146406359Y-95606456D01*
X146440077Y-95487949D01*
X146466436Y-95367591D01*
X146485335Y-95245838D01*
X146496704Y-95123152D01*
X146500498Y-95000000D01*
X146496704Y-94876848D01*
X146485335Y-94754162D01*
X146466436Y-94632409D01*
X146440077Y-94512051D01*
X146406359Y-94393544D01*
X146365409Y-94277337D01*
X146317383Y-94163871D01*
X146314237Y-94157552D01*
X146262470Y-94053590D01*
X146262453Y-94053558D01*
X146200864Y-93946884D01*
X146200860Y-93946877D01*
X146132803Y-93844170D01*
X146132800Y-93844165D01*
X146058549Y-93745840D01*
X145978386Y-93652273D01*
X145892615Y-93563819D01*
X145886894Y-93558604D01*
X145801564Y-93480815D01*
X145801561Y-93480812D01*
X145768214Y-93453978D01*
X145705568Y-93403567D01*
X145705563Y-93403563D01*
X145659102Y-93370674D01*
X145605005Y-93332380D01*
X145500249Y-93267518D01*
X145391699Y-93209228D01*
X145391688Y-93209222D01*
X145279764Y-93157729D01*
X145164875Y-93113221D01*
X145164870Y-93113219D01*
X145047477Y-93075874D01*
X145047465Y-93075871D01*
X145047462Y-93075870D01*
X144927973Y-93045817D01*
X144927966Y-93045815D01*
X144927963Y-93045815D01*
X144806879Y-93023180D01*
X144806870Y-93023178D01*
X144806860Y-93023177D01*
X144684583Y-93008036D01*
X144658230Y-93006410D01*
X144561616Y-93000451D01*
X144561573Y-93000449D01*
X144500048Y-93000000D01*
X144500000Y-93000000D01*
X139541008Y-93000000D01*
X139482817Y-92981093D01*
X139471004Y-92971004D01*
X139223256Y-92723256D01*
X138856740Y-92356740D01*
X157849500Y-92356740D01*
X157849500Y-92723260D01*
X157856118Y-92768682D01*
X157859427Y-92791395D01*
X157897609Y-92869496D01*
X157910802Y-92896483D01*
X157993517Y-92979198D01*
X158036987Y-93000449D01*
X158098604Y-93030572D01*
X158098605Y-93030572D01*
X158098607Y-93030573D01*
X158166740Y-93040500D01*
X158166743Y-93040500D01*
X159883257Y-93040500D01*
X159883260Y-93040500D01*
X159951393Y-93030573D01*
X160056483Y-92979198D01*
X160139198Y-92896483D01*
X160190573Y-92791393D01*
X160200500Y-92723260D01*
X160200500Y-92356740D01*
X160190573Y-92288607D01*
X160139198Y-92183517D01*
X160056483Y-92100802D01*
X160056481Y-92100801D01*
X159951395Y-92049427D01*
X159924139Y-92045456D01*
X159883260Y-92039500D01*
X158166740Y-92039500D01*
X158132673Y-92044463D01*
X158098604Y-92049427D01*
X157993518Y-92100801D01*
X157910801Y-92183518D01*
X157859427Y-92288604D01*
X157857834Y-92299537D01*
X157849500Y-92356740D01*
X138856740Y-92356740D01*
X138500000Y-92000000D01*
X138499999Y-92000000D01*
X134949500Y-92000000D01*
X134891309Y-91981093D01*
X134855345Y-91931593D01*
X134850500Y-91901000D01*
X134850500Y-91549500D01*
X134869407Y-91491309D01*
X134918907Y-91455345D01*
X134949500Y-91450500D01*
X135183257Y-91450500D01*
X135183260Y-91450500D01*
X135251393Y-91440573D01*
X135356483Y-91389198D01*
X135439198Y-91306483D01*
X135490573Y-91201393D01*
X135500500Y-91133260D01*
X135500500Y-90766740D01*
X135490573Y-90698607D01*
X135439198Y-90593517D01*
X135390682Y-90545001D01*
X135384766Y-90533389D01*
X135375062Y-90524691D01*
X135371216Y-90506796D01*
X135362907Y-90490487D01*
X135364945Y-90477612D01*
X135362208Y-90464871D01*
X135369338Y-90449878D01*
X135372478Y-90430055D01*
X135386969Y-90408920D01*
X135388768Y-90406912D01*
X135439198Y-90356483D01*
X135445466Y-90343660D01*
X135454646Y-90333420D01*
X135469791Y-90324630D01*
X135481965Y-90312047D01*
X135498615Y-90307903D01*
X135507566Y-90302709D01*
X135516001Y-90303576D01*
X135528365Y-90300500D01*
X136039563Y-90300500D01*
X136039563Y-90300499D01*
X136115989Y-90280021D01*
X136184511Y-90240460D01*
X136240460Y-90184511D01*
X136740460Y-89684511D01*
X136763862Y-89643978D01*
X136780020Y-89615992D01*
X136780020Y-89615990D01*
X136780022Y-89615988D01*
X136800500Y-89539562D01*
X136800500Y-89460438D01*
X136800500Y-88546740D01*
X157849500Y-88546740D01*
X157849500Y-88913260D01*
X157851211Y-88925000D01*
X157859427Y-88981395D01*
X157910801Y-89086481D01*
X157910802Y-89086483D01*
X157993517Y-89169198D01*
X158047285Y-89195483D01*
X158098604Y-89220572D01*
X158098605Y-89220572D01*
X158098607Y-89220573D01*
X158166740Y-89230500D01*
X158166743Y-89230500D01*
X159883257Y-89230500D01*
X159883260Y-89230500D01*
X159951393Y-89220573D01*
X160056483Y-89169198D01*
X160139198Y-89086483D01*
X160190573Y-88981393D01*
X160200500Y-88913260D01*
X160200500Y-88546740D01*
X162799500Y-88546740D01*
X162799500Y-88913260D01*
X162801211Y-88925000D01*
X162809427Y-88981395D01*
X162860801Y-89086481D01*
X162860802Y-89086483D01*
X162943517Y-89169198D01*
X162997285Y-89195483D01*
X163048604Y-89220572D01*
X163048605Y-89220572D01*
X163048607Y-89220573D01*
X163116740Y-89230500D01*
X163116743Y-89230500D01*
X164833257Y-89230500D01*
X164833260Y-89230500D01*
X164901393Y-89220573D01*
X165006483Y-89169198D01*
X165089198Y-89086483D01*
X165140573Y-88981393D01*
X165150500Y-88913260D01*
X165150500Y-88546740D01*
X165140573Y-88478607D01*
X165122046Y-88440710D01*
X165089198Y-88373518D01*
X165089198Y-88373517D01*
X165006483Y-88290802D01*
X165006481Y-88290801D01*
X164901395Y-88239427D01*
X164874139Y-88235456D01*
X164833260Y-88229500D01*
X163116740Y-88229500D01*
X163082673Y-88234463D01*
X163048604Y-88239427D01*
X162943518Y-88290801D01*
X162860801Y-88373518D01*
X162809427Y-88478604D01*
X162806961Y-88495531D01*
X162799500Y-88546740D01*
X160200500Y-88546740D01*
X160190573Y-88478607D01*
X160172046Y-88440710D01*
X160139198Y-88373518D01*
X160139198Y-88373517D01*
X160056483Y-88290802D01*
X160056481Y-88290801D01*
X159951395Y-88239427D01*
X159924139Y-88235456D01*
X159883260Y-88229500D01*
X158166740Y-88229500D01*
X158132673Y-88234463D01*
X158098604Y-88239427D01*
X157993518Y-88290801D01*
X157910801Y-88373518D01*
X157859427Y-88478604D01*
X157856961Y-88495531D01*
X157849500Y-88546740D01*
X136800500Y-88546740D01*
X136800500Y-87276740D01*
X157849500Y-87276740D01*
X157849500Y-87643260D01*
X157851917Y-87659847D01*
X157859427Y-87711395D01*
X157910801Y-87816481D01*
X157910802Y-87816483D01*
X157993517Y-87899198D01*
X158047285Y-87925483D01*
X158098604Y-87950572D01*
X158098605Y-87950572D01*
X158098607Y-87950573D01*
X158166740Y-87960500D01*
X158166743Y-87960500D01*
X159883257Y-87960500D01*
X159883260Y-87960500D01*
X159951393Y-87950573D01*
X160056483Y-87899198D01*
X160139198Y-87816483D01*
X160190573Y-87711393D01*
X160200500Y-87643260D01*
X160200500Y-87276740D01*
X162799500Y-87276740D01*
X162799500Y-87643260D01*
X162801917Y-87659847D01*
X162809427Y-87711395D01*
X162860801Y-87816481D01*
X162860802Y-87816483D01*
X162943517Y-87899198D01*
X162997285Y-87925483D01*
X163048604Y-87950572D01*
X163048605Y-87950572D01*
X163048607Y-87950573D01*
X163116740Y-87960500D01*
X163116743Y-87960500D01*
X164833257Y-87960500D01*
X164833260Y-87960500D01*
X164901393Y-87950573D01*
X165006483Y-87899198D01*
X165089198Y-87816483D01*
X165140573Y-87711393D01*
X165150500Y-87643260D01*
X165150500Y-87276740D01*
X165140573Y-87208607D01*
X165139968Y-87207370D01*
X165089198Y-87103518D01*
X165089198Y-87103517D01*
X165006483Y-87020802D01*
X165006481Y-87020801D01*
X164901395Y-86969427D01*
X164874139Y-86965456D01*
X164833260Y-86959500D01*
X163116740Y-86959500D01*
X163082673Y-86964463D01*
X163048604Y-86969427D01*
X162943518Y-87020801D01*
X162860801Y-87103518D01*
X162809427Y-87208604D01*
X162809427Y-87208607D01*
X162799500Y-87276740D01*
X160200500Y-87276740D01*
X160190573Y-87208607D01*
X160189968Y-87207370D01*
X160139198Y-87103518D01*
X160139198Y-87103517D01*
X160056483Y-87020802D01*
X160056481Y-87020801D01*
X159951395Y-86969427D01*
X159924139Y-86965456D01*
X159883260Y-86959500D01*
X158166740Y-86959500D01*
X158132673Y-86964463D01*
X158098604Y-86969427D01*
X157993518Y-87020801D01*
X157910801Y-87103518D01*
X157859427Y-87208604D01*
X157859427Y-87208607D01*
X157849500Y-87276740D01*
X136800500Y-87276740D01*
X136800500Y-85995532D01*
X136819407Y-85937341D01*
X136829496Y-85925528D01*
X142056124Y-80698900D01*
X142110641Y-80671123D01*
X142126128Y-80669904D01*
X154873872Y-80669904D01*
X154932063Y-80688811D01*
X154943876Y-80698900D01*
X158265504Y-84020528D01*
X158293281Y-84075045D01*
X158294500Y-84090532D01*
X158294500Y-85590500D01*
X158275593Y-85648691D01*
X158226093Y-85684655D01*
X158195500Y-85689500D01*
X158166740Y-85689500D01*
X158132673Y-85694463D01*
X158098604Y-85699427D01*
X157993518Y-85750801D01*
X157910801Y-85833518D01*
X157859427Y-85938604D01*
X157859427Y-85938607D01*
X157849500Y-86006740D01*
X157849500Y-86373260D01*
X157856118Y-86418682D01*
X157859427Y-86441395D01*
X157871041Y-86465151D01*
X157910802Y-86546483D01*
X157993517Y-86629198D01*
X158047285Y-86655483D01*
X158098604Y-86680572D01*
X158098605Y-86680572D01*
X158098607Y-86680573D01*
X158166740Y-86690500D01*
X158166743Y-86690500D01*
X159883257Y-86690500D01*
X159883260Y-86690500D01*
X159951393Y-86680573D01*
X159952639Y-86679963D01*
X159955536Y-86679293D01*
X159958742Y-86678303D01*
X159958813Y-86678535D01*
X159996121Y-86669904D01*
X160458978Y-86669904D01*
X160458992Y-86669904D01*
X160475117Y-86669270D01*
X160490604Y-86668051D01*
X160567772Y-86646288D01*
X160622289Y-86618511D01*
X160674306Y-86580718D01*
X160940023Y-86315001D01*
X162750001Y-86315001D01*
X162750001Y-86371485D01*
X162764833Y-86465141D01*
X162764836Y-86465151D01*
X162822358Y-86578043D01*
X162911956Y-86667641D01*
X163024848Y-86725163D01*
X163024852Y-86725164D01*
X163118515Y-86739999D01*
X163849998Y-86739999D01*
X163850000Y-86739998D01*
X163850000Y-86315001D01*
X164100000Y-86315001D01*
X164100000Y-86739998D01*
X164100001Y-86739999D01*
X164831483Y-86739999D01*
X164831485Y-86739998D01*
X164925141Y-86725166D01*
X164925151Y-86725163D01*
X165038043Y-86667641D01*
X165127641Y-86578043D01*
X165185163Y-86465151D01*
X165185164Y-86465147D01*
X165200000Y-86371484D01*
X165200000Y-86315001D01*
X165199999Y-86315000D01*
X164100001Y-86315000D01*
X164100000Y-86315001D01*
X163850000Y-86315001D01*
X163849999Y-86315000D01*
X162750002Y-86315000D01*
X162750001Y-86315001D01*
X160940023Y-86315001D01*
X161246509Y-86008515D01*
X162750000Y-86008515D01*
X162750000Y-86064999D01*
X162750001Y-86065000D01*
X163849999Y-86065000D01*
X163850000Y-86064999D01*
X163850000Y-85640001D01*
X164100000Y-85640001D01*
X164100000Y-86064999D01*
X164100001Y-86065000D01*
X165199998Y-86065000D01*
X165199999Y-86064999D01*
X165199999Y-86008516D01*
X165199998Y-86008514D01*
X165185166Y-85914858D01*
X165185163Y-85914848D01*
X165127641Y-85801956D01*
X165038043Y-85712358D01*
X164925151Y-85654836D01*
X164925147Y-85654835D01*
X164831484Y-85640000D01*
X164100001Y-85640000D01*
X164100000Y-85640001D01*
X163850000Y-85640001D01*
X163849999Y-85640000D01*
X163118516Y-85640000D01*
X163118514Y-85640001D01*
X163024858Y-85654833D01*
X163024848Y-85654836D01*
X162911956Y-85712358D01*
X162822358Y-85801956D01*
X162764836Y-85914848D01*
X162764835Y-85914852D01*
X162750000Y-86008515D01*
X161246509Y-86008515D01*
X161616314Y-85638710D01*
X161627269Y-85626860D01*
X161637358Y-85615047D01*
X161676536Y-85545089D01*
X161695443Y-85486898D01*
X161705500Y-85423396D01*
X161705500Y-84147824D01*
X162149999Y-84147824D01*
X162156401Y-84207370D01*
X162156403Y-84207381D01*
X162206646Y-84342088D01*
X162206647Y-84342090D01*
X162292807Y-84457184D01*
X162292815Y-84457192D01*
X162407909Y-84543352D01*
X162407911Y-84543353D01*
X162542618Y-84593596D01*
X162542629Y-84593598D01*
X162602176Y-84600000D01*
X162849999Y-84600000D01*
X162850000Y-84599999D01*
X162850000Y-83125001D01*
X163100000Y-83125001D01*
X163100000Y-84599999D01*
X163100001Y-84600000D01*
X163347824Y-84600000D01*
X163407370Y-84593598D01*
X163407381Y-84593596D01*
X163542088Y-84543353D01*
X163542090Y-84543352D01*
X163657184Y-84457192D01*
X163657192Y-84457184D01*
X163743352Y-84342090D01*
X163743353Y-84342088D01*
X163793596Y-84207381D01*
X163793598Y-84207370D01*
X163800000Y-84147824D01*
X163800000Y-83125001D01*
X163799999Y-83125000D01*
X163100001Y-83125000D01*
X163100000Y-83125001D01*
X162850000Y-83125001D01*
X162849999Y-83125000D01*
X162150001Y-83125000D01*
X162150000Y-83125001D01*
X162150000Y-84147824D01*
X162149999Y-84147824D01*
X161705500Y-84147824D01*
X161705500Y-81852175D01*
X162150000Y-81852175D01*
X162150000Y-82874999D01*
X162150001Y-82875000D01*
X162849999Y-82875000D01*
X162850000Y-82874999D01*
X162850000Y-81400001D01*
X163100000Y-81400001D01*
X163100000Y-82874999D01*
X163100001Y-82875000D01*
X163799999Y-82875000D01*
X163800000Y-82874999D01*
X163800000Y-81852175D01*
X163793598Y-81792629D01*
X163793596Y-81792618D01*
X163743353Y-81657911D01*
X163743352Y-81657909D01*
X163657192Y-81542815D01*
X163657184Y-81542807D01*
X163542090Y-81456647D01*
X163542088Y-81456646D01*
X163407381Y-81406403D01*
X163407370Y-81406401D01*
X163347824Y-81400000D01*
X163100001Y-81400000D01*
X163100000Y-81400001D01*
X162850000Y-81400001D01*
X162849999Y-81400000D01*
X162602176Y-81400000D01*
X162542629Y-81406401D01*
X162542618Y-81406403D01*
X162407911Y-81456646D01*
X162407909Y-81456647D01*
X162292815Y-81542807D01*
X162292807Y-81542815D01*
X162206647Y-81657909D01*
X162206646Y-81657911D01*
X162156403Y-81792618D01*
X162156401Y-81792629D01*
X162150000Y-81852175D01*
X161705500Y-81852175D01*
X161705500Y-80486441D01*
X161724407Y-80428250D01*
X161773907Y-80392286D01*
X161794796Y-80387918D01*
X161999559Y-80367751D01*
X162327251Y-80302569D01*
X162516857Y-80245052D01*
X162646967Y-80205585D01*
X162646969Y-80205583D01*
X162646976Y-80205582D01*
X162955654Y-80077723D01*
X163099640Y-80000760D01*
X163250312Y-79920226D01*
X163250315Y-79920224D01*
X163528118Y-79734601D01*
X163786390Y-79522643D01*
X164022643Y-79286390D01*
X164234601Y-79028118D01*
X164420224Y-78750315D01*
X164577723Y-78455654D01*
X164705582Y-78146976D01*
X164802569Y-77827251D01*
X164867751Y-77499559D01*
X164900500Y-77167056D01*
X164900500Y-76832944D01*
X164867751Y-76500441D01*
X164802569Y-76172749D01*
X164759932Y-76032192D01*
X164705585Y-75853032D01*
X164676859Y-75783680D01*
X164577723Y-75544346D01*
X164574064Y-75537500D01*
X164420226Y-75249687D01*
X164281873Y-75042629D01*
X164234601Y-74971882D01*
X164022643Y-74713610D01*
X163786390Y-74477357D01*
X163528118Y-74265399D01*
X163388553Y-74172144D01*
X163250312Y-74079773D01*
X162955672Y-73922286D01*
X162955660Y-73922280D01*
X162955654Y-73922277D01*
X162955649Y-73922274D01*
X162955645Y-73922273D01*
X162646967Y-73794414D01*
X162327253Y-73697431D01*
X162106777Y-73653576D01*
X161999559Y-73632249D01*
X161999557Y-73632248D01*
X161756491Y-73608308D01*
X161667056Y-73599500D01*
X161332944Y-73599500D01*
X161234700Y-73609176D01*
X161000444Y-73632248D01*
X160672746Y-73697431D01*
X160353032Y-73794414D01*
X160044354Y-73922273D01*
X160044327Y-73922286D01*
X159749687Y-74079773D01*
X159471880Y-74265400D01*
X159213615Y-74477352D01*
X158977352Y-74713615D01*
X158765400Y-74971880D01*
X158579773Y-75249687D01*
X158422286Y-75544327D01*
X158422273Y-75544354D01*
X158294414Y-75853032D01*
X158197431Y-76172746D01*
X158132248Y-76500444D01*
X158112151Y-76704500D01*
X158099765Y-76830260D01*
X158099500Y-76832946D01*
X158099500Y-77167053D01*
X158132248Y-77499555D01*
X158197431Y-77827253D01*
X158294416Y-78146971D01*
X158337168Y-78250185D01*
X158341969Y-78311181D01*
X158315708Y-78358073D01*
X157443876Y-79229907D01*
X157389359Y-79257685D01*
X157373872Y-79258904D01*
X157024500Y-79258904D01*
X156966309Y-79239997D01*
X156930345Y-79190497D01*
X156925500Y-79159904D01*
X156925500Y-79145727D01*
X156925499Y-79145725D01*
X156922646Y-79115305D01*
X156922646Y-79115301D01*
X156877793Y-78987118D01*
X156819608Y-78908280D01*
X156797154Y-78877855D01*
X156797152Y-78877853D01*
X156797150Y-78877850D01*
X156797146Y-78877847D01*
X156797144Y-78877845D01*
X156687883Y-78797207D01*
X156559703Y-78752355D01*
X156559694Y-78752353D01*
X156529274Y-78749500D01*
X156529266Y-78749500D01*
X155470734Y-78749500D01*
X155470725Y-78749500D01*
X155440305Y-78752353D01*
X155440296Y-78752355D01*
X155312116Y-78797207D01*
X155202855Y-78877845D01*
X155202845Y-78877855D01*
X155122207Y-78987116D01*
X155077355Y-79115296D01*
X155077353Y-79115305D01*
X155074500Y-79145725D01*
X155074500Y-79159904D01*
X155055593Y-79218095D01*
X155006093Y-79254059D01*
X154975500Y-79258904D01*
X154617047Y-79258904D01*
X154590220Y-79260662D01*
X154590209Y-79260663D01*
X154564616Y-79264032D01*
X154564607Y-79264034D01*
X154544177Y-79268098D01*
X154524863Y-79270000D01*
X154475137Y-79270000D01*
X154455823Y-79268098D01*
X154435392Y-79264034D01*
X154435383Y-79264032D01*
X154409790Y-79260663D01*
X154409779Y-79260662D01*
X154382953Y-79258904D01*
X153617047Y-79258904D01*
X153590220Y-79260662D01*
X153590209Y-79260663D01*
X153564616Y-79264032D01*
X153564607Y-79264034D01*
X153544177Y-79268098D01*
X153524863Y-79270000D01*
X153475137Y-79270000D01*
X153455823Y-79268098D01*
X153435392Y-79264034D01*
X153435383Y-79264032D01*
X153409790Y-79260663D01*
X153409779Y-79260662D01*
X153382953Y-79258904D01*
X152617047Y-79258904D01*
X152590220Y-79260662D01*
X152590209Y-79260663D01*
X152564616Y-79264032D01*
X152564607Y-79264034D01*
X152544177Y-79268098D01*
X152524863Y-79270000D01*
X152475137Y-79270000D01*
X152455823Y-79268098D01*
X152435392Y-79264034D01*
X152435383Y-79264032D01*
X152409790Y-79260663D01*
X152409779Y-79260662D01*
X152382953Y-79258904D01*
X151617047Y-79258904D01*
X151590220Y-79260662D01*
X151590209Y-79260663D01*
X151564616Y-79264032D01*
X151564607Y-79264034D01*
X151544177Y-79268098D01*
X151524863Y-79270000D01*
X151475137Y-79270000D01*
X151455823Y-79268098D01*
X151435392Y-79264034D01*
X151435383Y-79264032D01*
X151409790Y-79260663D01*
X151409779Y-79260662D01*
X151382953Y-79258904D01*
X151126130Y-79258904D01*
X151067939Y-79239997D01*
X151056126Y-79229908D01*
X150734496Y-78908278D01*
X150706719Y-78853761D01*
X150705500Y-78838274D01*
X150705500Y-78581787D01*
X150724407Y-78523596D01*
X150773907Y-78487632D01*
X150820496Y-78484886D01*
X150820532Y-78484523D01*
X150822830Y-78484749D01*
X150823821Y-78484691D01*
X150825370Y-78484999D01*
X150825377Y-78485000D01*
X151124999Y-78485000D01*
X151125000Y-78484999D01*
X151125000Y-77760001D01*
X151375000Y-77760001D01*
X151375000Y-78484999D01*
X151375001Y-78485000D01*
X151674623Y-78485000D01*
X151674624Y-78484999D01*
X151747546Y-78470493D01*
X151747548Y-78470492D01*
X151830237Y-78415241D01*
X151830241Y-78415237D01*
X151885492Y-78332548D01*
X151885493Y-78332546D01*
X151899999Y-78259624D01*
X151900000Y-78259622D01*
X151900000Y-77760001D01*
X151899999Y-77760000D01*
X151375001Y-77760000D01*
X151375000Y-77760001D01*
X151125000Y-77760001D01*
X151125000Y-76785001D01*
X151375000Y-76785001D01*
X151375000Y-77509999D01*
X151375001Y-77510000D01*
X151899999Y-77510000D01*
X151900000Y-77509999D01*
X151900000Y-77010377D01*
X151899999Y-77010375D01*
X151885493Y-76937453D01*
X151885492Y-76937450D01*
X151884114Y-76935387D01*
X151850615Y-76885253D01*
X152524500Y-76885253D01*
X152524500Y-78274746D01*
X152524501Y-78274758D01*
X152535997Y-78332546D01*
X152536133Y-78333231D01*
X152580448Y-78399552D01*
X152646769Y-78443867D01*
X152691231Y-78452711D01*
X152705241Y-78455498D01*
X152705246Y-78455498D01*
X152705252Y-78455500D01*
X152705253Y-78455500D01*
X154544747Y-78455500D01*
X154544748Y-78455500D01*
X154603231Y-78443867D01*
X154669552Y-78399552D01*
X154713867Y-78333231D01*
X154725500Y-78274748D01*
X154725500Y-77847824D01*
X155024999Y-77847824D01*
X155031401Y-77907370D01*
X155031403Y-77907381D01*
X155081646Y-78042088D01*
X155081647Y-78042090D01*
X155167807Y-78157184D01*
X155167815Y-78157192D01*
X155282909Y-78243352D01*
X155282911Y-78243353D01*
X155417618Y-78293596D01*
X155417629Y-78293598D01*
X155477176Y-78300000D01*
X155874999Y-78300000D01*
X155875000Y-78299999D01*
X155875000Y-77675001D01*
X156125000Y-77675001D01*
X156125000Y-78299999D01*
X156125001Y-78300000D01*
X156522824Y-78300000D01*
X156582370Y-78293598D01*
X156582381Y-78293596D01*
X156717088Y-78243353D01*
X156717090Y-78243352D01*
X156832184Y-78157192D01*
X156832192Y-78157184D01*
X156918352Y-78042090D01*
X156918353Y-78042088D01*
X156968596Y-77907381D01*
X156968598Y-77907370D01*
X156975000Y-77847824D01*
X156975000Y-77675001D01*
X156974999Y-77675000D01*
X156125001Y-77675000D01*
X156125000Y-77675001D01*
X155875000Y-77675001D01*
X155874999Y-77675000D01*
X155025001Y-77675000D01*
X155025000Y-77675001D01*
X155025000Y-77847824D01*
X155024999Y-77847824D01*
X154725500Y-77847824D01*
X154725500Y-77252175D01*
X155025000Y-77252175D01*
X155025000Y-77424999D01*
X155025001Y-77425000D01*
X155874999Y-77425000D01*
X155875000Y-77424999D01*
X155875000Y-76800001D01*
X156125000Y-76800001D01*
X156125000Y-77424999D01*
X156125001Y-77425000D01*
X156974999Y-77425000D01*
X156975000Y-77424999D01*
X156975000Y-77252175D01*
X156968598Y-77192629D01*
X156968596Y-77192618D01*
X156918353Y-77057911D01*
X156918352Y-77057909D01*
X156832192Y-76942815D01*
X156832184Y-76942807D01*
X156717090Y-76856647D01*
X156717088Y-76856646D01*
X156582381Y-76806403D01*
X156582370Y-76806401D01*
X156522824Y-76800000D01*
X156125001Y-76800000D01*
X156125000Y-76800001D01*
X155875000Y-76800001D01*
X155874999Y-76800000D01*
X155477176Y-76800000D01*
X155417629Y-76806401D01*
X155417618Y-76806403D01*
X155282911Y-76856646D01*
X155282909Y-76856647D01*
X155167815Y-76942807D01*
X155167807Y-76942815D01*
X155081647Y-77057909D01*
X155081646Y-77057911D01*
X155031403Y-77192618D01*
X155031401Y-77192629D01*
X155025000Y-77252175D01*
X154725500Y-77252175D01*
X154725500Y-76885252D01*
X154713867Y-76826769D01*
X154669552Y-76760448D01*
X154669548Y-76760445D01*
X154603233Y-76716134D01*
X154603231Y-76716133D01*
X154603228Y-76716132D01*
X154603227Y-76716132D01*
X154544758Y-76704501D01*
X154544748Y-76704500D01*
X152705252Y-76704500D01*
X152705251Y-76704500D01*
X152705241Y-76704501D01*
X152646772Y-76716132D01*
X152646766Y-76716134D01*
X152580451Y-76760445D01*
X152580445Y-76760451D01*
X152536134Y-76826766D01*
X152536132Y-76826772D01*
X152524501Y-76885241D01*
X152524500Y-76885253D01*
X151850615Y-76885253D01*
X151830242Y-76854763D01*
X151830237Y-76854758D01*
X151747548Y-76799507D01*
X151747546Y-76799506D01*
X151674624Y-76785000D01*
X151375001Y-76785000D01*
X151375000Y-76785001D01*
X151125000Y-76785001D01*
X151124999Y-76785000D01*
X150825375Y-76785000D01*
X150752453Y-76799506D01*
X150752449Y-76799507D01*
X150705228Y-76831059D01*
X150646340Y-76847667D01*
X150599451Y-76833729D01*
X150542173Y-76799507D01*
X150522693Y-76787868D01*
X150522691Y-76787867D01*
X150522689Y-76787866D01*
X150464499Y-76768960D01*
X150464500Y-76768960D01*
X150401003Y-76758904D01*
X150401000Y-76758904D01*
X149649500Y-76758904D01*
X149617356Y-76761434D01*
X149586706Y-76766287D01*
X149582218Y-76767050D01*
X149582213Y-76767051D01*
X149498116Y-76802995D01*
X149471515Y-76822322D01*
X149462068Y-76825391D01*
X149454774Y-76832134D01*
X149433600Y-76834640D01*
X149413324Y-76841228D01*
X149394013Y-76839326D01*
X149380187Y-76836576D01*
X149326803Y-76806680D01*
X149301186Y-76751115D01*
X149300500Y-76739478D01*
X149300500Y-75722824D01*
X155049999Y-75722824D01*
X155056401Y-75782370D01*
X155056403Y-75782381D01*
X155106646Y-75917088D01*
X155106647Y-75917090D01*
X155192807Y-76032184D01*
X155192815Y-76032192D01*
X155307909Y-76118352D01*
X155307911Y-76118353D01*
X155442618Y-76168596D01*
X155442629Y-76168598D01*
X155502176Y-76175000D01*
X155874999Y-76175000D01*
X155875000Y-76174999D01*
X155875000Y-75537501D01*
X156125000Y-75537501D01*
X156125000Y-76174999D01*
X156125001Y-76175000D01*
X156497824Y-76175000D01*
X156557370Y-76168598D01*
X156557381Y-76168596D01*
X156692088Y-76118353D01*
X156692090Y-76118352D01*
X156807184Y-76032192D01*
X156807192Y-76032184D01*
X156893352Y-75917090D01*
X156893353Y-75917088D01*
X156943596Y-75782381D01*
X156943598Y-75782370D01*
X156950000Y-75722824D01*
X156950000Y-75537501D01*
X156949999Y-75537500D01*
X156125001Y-75537500D01*
X156125000Y-75537501D01*
X155875000Y-75537501D01*
X155874999Y-75537500D01*
X155050001Y-75537500D01*
X155050000Y-75537501D01*
X155050000Y-75722824D01*
X155049999Y-75722824D01*
X149300500Y-75722824D01*
X149300500Y-75165479D01*
X149302968Y-75157881D01*
X149301719Y-75149992D01*
X149312243Y-75129336D01*
X149319407Y-75107288D01*
X149323774Y-75102175D01*
X155050000Y-75102175D01*
X155050000Y-75287499D01*
X155050001Y-75287500D01*
X155874999Y-75287500D01*
X155875000Y-75287499D01*
X155875000Y-74650001D01*
X156125000Y-74650001D01*
X156125000Y-75287499D01*
X156125001Y-75287500D01*
X156949999Y-75287500D01*
X156950000Y-75287499D01*
X156950000Y-75102175D01*
X156943598Y-75042629D01*
X156943596Y-75042618D01*
X156893353Y-74907911D01*
X156893352Y-74907909D01*
X156807192Y-74792815D01*
X156807184Y-74792807D01*
X156692090Y-74706647D01*
X156692088Y-74706646D01*
X156557381Y-74656403D01*
X156557370Y-74656401D01*
X156497824Y-74650000D01*
X156125001Y-74650000D01*
X156125000Y-74650001D01*
X155875000Y-74650001D01*
X155874999Y-74650000D01*
X155502176Y-74650000D01*
X155442629Y-74656401D01*
X155442618Y-74656403D01*
X155307911Y-74706646D01*
X155307909Y-74706647D01*
X155192815Y-74792807D01*
X155192807Y-74792815D01*
X155106647Y-74907909D01*
X155106646Y-74907911D01*
X155056403Y-75042618D01*
X155056401Y-75042629D01*
X155050000Y-75102175D01*
X149323774Y-75102175D01*
X149329496Y-75095475D01*
X151194718Y-73230253D01*
X152524500Y-73230253D01*
X152524500Y-74769746D01*
X152524501Y-74769758D01*
X152536132Y-74828227D01*
X152536134Y-74828233D01*
X152580445Y-74894548D01*
X152580448Y-74894552D01*
X152646769Y-74938867D01*
X152691231Y-74947711D01*
X152705241Y-74950498D01*
X152705246Y-74950498D01*
X152705252Y-74950500D01*
X152705253Y-74950500D01*
X154544747Y-74950500D01*
X154544748Y-74950500D01*
X154603231Y-74938867D01*
X154669552Y-74894552D01*
X154713867Y-74828231D01*
X154725500Y-74769748D01*
X154725500Y-73230252D01*
X154713867Y-73171769D01*
X154669552Y-73105448D01*
X154669548Y-73105445D01*
X154603233Y-73061134D01*
X154603231Y-73061133D01*
X154603228Y-73061132D01*
X154603227Y-73061132D01*
X154544758Y-73049501D01*
X154544748Y-73049500D01*
X152705252Y-73049500D01*
X152705251Y-73049500D01*
X152705241Y-73049501D01*
X152646772Y-73061132D01*
X152646766Y-73061134D01*
X152580451Y-73105445D01*
X152580445Y-73105451D01*
X152536134Y-73171766D01*
X152536132Y-73171772D01*
X152524501Y-73230241D01*
X152524500Y-73230253D01*
X151194718Y-73230253D01*
X151595475Y-72829496D01*
X151649992Y-72801719D01*
X151665479Y-72800500D01*
X155201167Y-72800500D01*
X155259358Y-72819407D01*
X155295322Y-72868907D01*
X155295322Y-72930093D01*
X155259955Y-72979155D01*
X155227855Y-73002845D01*
X155227845Y-73002855D01*
X155147207Y-73112116D01*
X155102355Y-73240296D01*
X155102353Y-73240305D01*
X155099500Y-73270725D01*
X155099500Y-73904274D01*
X155102353Y-73934694D01*
X155102355Y-73934703D01*
X155147207Y-74062883D01*
X155227845Y-74172144D01*
X155227847Y-74172146D01*
X155227850Y-74172150D01*
X155227853Y-74172152D01*
X155227855Y-74172154D01*
X155337116Y-74252792D01*
X155337117Y-74252792D01*
X155337118Y-74252793D01*
X155465301Y-74297646D01*
X155495725Y-74300499D01*
X155495727Y-74300500D01*
X155495734Y-74300500D01*
X156504273Y-74300500D01*
X156504273Y-74300499D01*
X156534699Y-74297646D01*
X156662882Y-74252793D01*
X156772150Y-74172150D01*
X156852793Y-74062882D01*
X156897646Y-73934699D01*
X156900499Y-73904273D01*
X156900500Y-73904273D01*
X156900500Y-73270727D01*
X156900499Y-73270725D01*
X156900499Y-73270723D01*
X156897646Y-73240301D01*
X156852793Y-73112118D01*
X156847870Y-73105448D01*
X156772154Y-73002855D01*
X156772152Y-73002853D01*
X156772150Y-73002850D01*
X156772146Y-73002847D01*
X156772144Y-73002845D01*
X156662883Y-72922207D01*
X156534703Y-72877355D01*
X156534694Y-72877353D01*
X156504274Y-72874500D01*
X156504266Y-72874500D01*
X156331688Y-72874500D01*
X156273497Y-72855593D01*
X156245953Y-72825003D01*
X156240459Y-72815488D01*
X155894475Y-72469503D01*
X155866698Y-72414987D01*
X155876269Y-72354555D01*
X155919534Y-72311290D01*
X155964479Y-72300500D01*
X161452405Y-72300500D01*
X161497835Y-72300500D01*
X161502152Y-72300593D01*
X161905284Y-72318195D01*
X161913864Y-72318945D01*
X162293356Y-72368907D01*
X162311776Y-72371332D01*
X162320281Y-72372832D01*
X162431870Y-72397570D01*
X162712108Y-72459698D01*
X162720423Y-72461925D01*
X163085824Y-72577136D01*
X163103201Y-72582615D01*
X163111317Y-72585569D01*
X163482111Y-72739157D01*
X163489923Y-72742799D01*
X163830367Y-72920024D01*
X163845910Y-72928115D01*
X163853390Y-72932433D01*
X164191882Y-73148076D01*
X164198956Y-73153030D01*
X164517354Y-73397345D01*
X164523968Y-73402895D01*
X164819868Y-73674038D01*
X164825961Y-73680131D01*
X164930686Y-73794418D01*
X165097102Y-73976029D01*
X165102654Y-73982645D01*
X165346969Y-74301043D01*
X165351923Y-74308117D01*
X165567566Y-74646609D01*
X165571884Y-74654089D01*
X165757196Y-75010069D01*
X165760846Y-75017896D01*
X165914430Y-75388682D01*
X165917384Y-75396798D01*
X166038069Y-75779560D01*
X166040304Y-75787903D01*
X166127167Y-76179718D01*
X166128667Y-76188223D01*
X166181052Y-76586123D01*
X166181805Y-76594727D01*
X166199406Y-76997847D01*
X166199500Y-77002165D01*
X166199500Y-88834521D01*
X166180593Y-88892712D01*
X166170504Y-88904525D01*
X165404525Y-89670504D01*
X165397407Y-89674130D01*
X165392712Y-89680593D01*
X165370663Y-89687756D01*
X165350008Y-89698281D01*
X165334521Y-89699500D01*
X165178365Y-89699500D01*
X165120174Y-89680593D01*
X165094389Y-89649891D01*
X165093965Y-89650194D01*
X165090115Y-89644802D01*
X165089423Y-89643978D01*
X165089198Y-89643518D01*
X165089198Y-89643517D01*
X165006483Y-89560802D01*
X165004845Y-89560001D01*
X164901395Y-89509427D01*
X164874139Y-89505456D01*
X164833260Y-89499500D01*
X163116740Y-89499500D01*
X163082673Y-89504463D01*
X163048604Y-89509427D01*
X162943518Y-89560801D01*
X162860801Y-89643518D01*
X162809427Y-89748604D01*
X162809427Y-89748607D01*
X162799500Y-89816740D01*
X162799500Y-90183260D01*
X162806118Y-90228682D01*
X162809427Y-90251395D01*
X162845230Y-90324630D01*
X162860802Y-90356483D01*
X162943517Y-90439198D01*
X162996032Y-90464871D01*
X163048604Y-90490572D01*
X163048605Y-90490572D01*
X163048607Y-90490573D01*
X163116740Y-90500500D01*
X163116743Y-90500500D01*
X164833257Y-90500500D01*
X164833260Y-90500500D01*
X164901393Y-90490573D01*
X165006483Y-90439198D01*
X165089198Y-90356483D01*
X165089423Y-90356021D01*
X165089819Y-90355612D01*
X165093965Y-90349806D01*
X165094835Y-90350427D01*
X165131965Y-90312047D01*
X165178365Y-90300500D01*
X165539563Y-90300500D01*
X165539563Y-90300499D01*
X165615989Y-90280021D01*
X165684511Y-90240460D01*
X165740460Y-90184511D01*
X166740460Y-89184511D01*
X166780022Y-89115988D01*
X166800500Y-89039562D01*
X166800500Y-88960438D01*
X166800500Y-76960438D01*
X166800500Y-76780770D01*
X166764292Y-76343807D01*
X166692124Y-75911326D01*
X166584488Y-75486282D01*
X166442121Y-75071579D01*
X166265993Y-74670048D01*
X166057309Y-74284433D01*
X166057307Y-74284431D01*
X166057305Y-74284426D01*
X165817494Y-73917370D01*
X165548187Y-73571364D01*
X165387991Y-73397345D01*
X165251224Y-73248776D01*
X164984077Y-73002850D01*
X164928635Y-72951812D01*
X164582629Y-72682505D01*
X164215573Y-72442694D01*
X163829952Y-72234007D01*
X163829948Y-72234005D01*
X163428424Y-72057880D01*
X163013721Y-71915513D01*
X163013720Y-71915512D01*
X163013718Y-71915512D01*
X162855829Y-71875529D01*
X162588672Y-71807875D01*
X162156193Y-71735708D01*
X161719239Y-71699500D01*
X161719230Y-71699500D01*
X161539562Y-71699500D01*
X136547595Y-71699500D01*
X136500000Y-71699500D01*
X136397648Y-71699500D01*
X136397645Y-71699500D01*
X136195470Y-71731521D01*
X136000780Y-71794780D01*
X135818390Y-71887712D01*
X135818386Y-71887714D01*
X135652786Y-72008029D01*
X135508029Y-72152786D01*
X135387714Y-72318386D01*
X135387712Y-72318390D01*
X135294780Y-72500780D01*
X135231521Y-72695470D01*
X135199500Y-72897644D01*
X135199500Y-73522914D01*
X135180593Y-73581105D01*
X135131093Y-73617069D01*
X135110205Y-73621437D01*
X135000443Y-73632248D01*
X134672746Y-73697431D01*
X134353032Y-73794414D01*
X134044354Y-73922273D01*
X134044327Y-73922286D01*
X133749687Y-74079773D01*
X133471880Y-74265400D01*
X133213615Y-74477352D01*
X132977352Y-74713615D01*
X132765400Y-74971880D01*
X132579773Y-75249687D01*
X132422286Y-75544327D01*
X132422273Y-75544354D01*
X132294414Y-75853032D01*
X132197431Y-76172746D01*
X132132248Y-76500444D01*
X132112151Y-76704500D01*
X132099765Y-76830260D01*
X132099500Y-76832946D01*
X132099500Y-77167053D01*
X132132248Y-77499555D01*
X132197431Y-77827253D01*
X132294414Y-78146967D01*
X132422273Y-78455645D01*
X132422286Y-78455672D01*
X132579773Y-78750312D01*
X132677432Y-78896467D01*
X132765399Y-79028118D01*
X132977357Y-79286390D01*
X133213610Y-79522643D01*
X133471882Y-79734601D01*
X133610783Y-79827412D01*
X133749687Y-79920226D01*
X134044327Y-80077713D01*
X134044346Y-80077723D01*
X134353024Y-80205582D01*
X134353026Y-80205582D01*
X134353032Y-80205585D01*
X134629376Y-80289412D01*
X134672749Y-80302569D01*
X135000441Y-80367751D01*
X135332944Y-80400500D01*
X135332947Y-80400500D01*
X135667053Y-80400500D01*
X135667056Y-80400500D01*
X135999559Y-80367751D01*
X136327251Y-80302569D01*
X136516857Y-80245052D01*
X136646967Y-80205585D01*
X136646969Y-80205583D01*
X136646976Y-80205582D01*
X136955654Y-80077723D01*
X137099640Y-80000760D01*
X137250312Y-79920226D01*
X137250315Y-79920224D01*
X137528118Y-79734601D01*
X137786390Y-79522643D01*
X138022643Y-79286390D01*
X138234601Y-79028118D01*
X138420224Y-78750315D01*
X138577723Y-78455654D01*
X138705582Y-78146976D01*
X138796328Y-77847824D01*
X140024999Y-77847824D01*
X140031401Y-77907370D01*
X140031403Y-77907381D01*
X140081646Y-78042088D01*
X140081647Y-78042090D01*
X140167807Y-78157184D01*
X140167815Y-78157192D01*
X140282909Y-78243352D01*
X140282911Y-78243353D01*
X140417618Y-78293596D01*
X140417629Y-78293598D01*
X140477176Y-78300000D01*
X140874999Y-78300000D01*
X140875000Y-78299999D01*
X140875000Y-77675001D01*
X141125000Y-77675001D01*
X141125000Y-78299999D01*
X141125001Y-78300000D01*
X141522824Y-78300000D01*
X141582370Y-78293598D01*
X141582381Y-78293596D01*
X141717088Y-78243353D01*
X141717090Y-78243352D01*
X141832184Y-78157192D01*
X141832192Y-78157184D01*
X141918352Y-78042090D01*
X141918353Y-78042088D01*
X141968596Y-77907381D01*
X141968598Y-77907370D01*
X141975000Y-77847824D01*
X141975000Y-77675001D01*
X141974999Y-77675000D01*
X141125001Y-77675000D01*
X141125000Y-77675001D01*
X140875000Y-77675001D01*
X140874999Y-77675000D01*
X140025001Y-77675000D01*
X140025000Y-77675001D01*
X140025000Y-77847824D01*
X140024999Y-77847824D01*
X138796328Y-77847824D01*
X138802569Y-77827251D01*
X138867751Y-77499559D01*
X138892116Y-77252175D01*
X140025000Y-77252175D01*
X140025000Y-77424999D01*
X140025001Y-77425000D01*
X140874999Y-77425000D01*
X140875000Y-77424999D01*
X140875000Y-76800001D01*
X141125000Y-76800001D01*
X141125000Y-77424999D01*
X141125001Y-77425000D01*
X141974999Y-77425000D01*
X141975000Y-77424999D01*
X141975000Y-77252175D01*
X141968598Y-77192629D01*
X141968596Y-77192618D01*
X141918353Y-77057911D01*
X141918352Y-77057909D01*
X141832192Y-76942815D01*
X141832184Y-76942807D01*
X141755302Y-76885253D01*
X142274500Y-76885253D01*
X142274500Y-78274746D01*
X142274501Y-78274758D01*
X142285997Y-78332546D01*
X142286133Y-78333231D01*
X142330448Y-78399552D01*
X142396769Y-78443867D01*
X142441231Y-78452711D01*
X142455241Y-78455498D01*
X142455246Y-78455498D01*
X142455252Y-78455500D01*
X142455253Y-78455500D01*
X144294747Y-78455500D01*
X144294748Y-78455500D01*
X144353231Y-78443867D01*
X144419552Y-78399552D01*
X144463867Y-78333231D01*
X144475500Y-78274748D01*
X144475500Y-77760001D01*
X145100000Y-77760001D01*
X145100000Y-78259624D01*
X145114506Y-78332546D01*
X145114507Y-78332548D01*
X145169758Y-78415237D01*
X145169762Y-78415241D01*
X145252451Y-78470492D01*
X145252453Y-78470493D01*
X145325375Y-78484999D01*
X145325377Y-78485000D01*
X145624999Y-78485000D01*
X145625000Y-78484999D01*
X145625000Y-77760001D01*
X145624999Y-77760000D01*
X145100001Y-77760000D01*
X145100000Y-77760001D01*
X144475500Y-77760001D01*
X144475500Y-77010375D01*
X145100000Y-77010375D01*
X145100000Y-77509999D01*
X145100001Y-77510000D01*
X145624999Y-77510000D01*
X145625000Y-77509999D01*
X145625000Y-76785001D01*
X145624999Y-76785000D01*
X145325375Y-76785000D01*
X145252453Y-76799506D01*
X145252451Y-76799507D01*
X145169762Y-76854758D01*
X145169758Y-76854762D01*
X145114507Y-76937451D01*
X145114506Y-76937453D01*
X145100000Y-77010375D01*
X144475500Y-77010375D01*
X144475500Y-76885252D01*
X144463867Y-76826769D01*
X144419552Y-76760448D01*
X144419548Y-76760445D01*
X144353233Y-76716134D01*
X144353231Y-76716133D01*
X144353228Y-76716132D01*
X144353227Y-76716132D01*
X144294758Y-76704501D01*
X144294748Y-76704500D01*
X142455252Y-76704500D01*
X142455251Y-76704500D01*
X142455241Y-76704501D01*
X142396772Y-76716132D01*
X142396766Y-76716134D01*
X142330451Y-76760445D01*
X142330445Y-76760451D01*
X142286134Y-76826766D01*
X142286132Y-76826772D01*
X142274501Y-76885241D01*
X142274500Y-76885253D01*
X141755302Y-76885253D01*
X141717090Y-76856647D01*
X141717088Y-76856646D01*
X141582381Y-76806403D01*
X141582370Y-76806401D01*
X141522824Y-76800000D01*
X141125001Y-76800000D01*
X141125000Y-76800001D01*
X140875000Y-76800001D01*
X140874999Y-76800000D01*
X140477176Y-76800000D01*
X140417629Y-76806401D01*
X140417618Y-76806403D01*
X140282911Y-76856646D01*
X140282909Y-76856647D01*
X140167815Y-76942807D01*
X140167807Y-76942815D01*
X140081647Y-77057909D01*
X140081646Y-77057911D01*
X140031403Y-77192618D01*
X140031401Y-77192629D01*
X140025000Y-77252175D01*
X138892116Y-77252175D01*
X138900500Y-77167056D01*
X138900500Y-76832944D01*
X138867751Y-76500441D01*
X138802569Y-76172749D01*
X138759932Y-76032192D01*
X138705585Y-75853032D01*
X138676859Y-75783680D01*
X138651651Y-75722824D01*
X140049999Y-75722824D01*
X140056401Y-75782370D01*
X140056403Y-75782381D01*
X140106646Y-75917088D01*
X140106647Y-75917090D01*
X140192807Y-76032184D01*
X140192815Y-76032192D01*
X140307909Y-76118352D01*
X140307911Y-76118353D01*
X140442618Y-76168596D01*
X140442629Y-76168598D01*
X140502176Y-76175000D01*
X140874999Y-76175000D01*
X140875000Y-76174999D01*
X140875000Y-75537501D01*
X141125000Y-75537501D01*
X141125000Y-76174999D01*
X141125001Y-76175000D01*
X141497824Y-76175000D01*
X141557370Y-76168598D01*
X141557381Y-76168596D01*
X141692088Y-76118353D01*
X141692090Y-76118352D01*
X141807184Y-76032192D01*
X141807192Y-76032184D01*
X141893352Y-75917090D01*
X141893353Y-75917088D01*
X141943596Y-75782381D01*
X141943598Y-75782370D01*
X141950000Y-75722824D01*
X141950000Y-75537501D01*
X141949999Y-75537500D01*
X141125001Y-75537500D01*
X141125000Y-75537501D01*
X140875000Y-75537501D01*
X140874999Y-75537500D01*
X140050001Y-75537500D01*
X140050000Y-75537501D01*
X140050000Y-75722824D01*
X140049999Y-75722824D01*
X138651651Y-75722824D01*
X138577723Y-75544346D01*
X138577090Y-75543161D01*
X138420226Y-75249687D01*
X138356639Y-75154523D01*
X138321661Y-75102175D01*
X140050000Y-75102175D01*
X140050000Y-75287499D01*
X140050001Y-75287500D01*
X140874999Y-75287500D01*
X140875000Y-75287499D01*
X140875000Y-74650001D01*
X141125000Y-74650001D01*
X141125000Y-75287499D01*
X141125001Y-75287500D01*
X141949999Y-75287500D01*
X141950000Y-75287499D01*
X141950000Y-75102175D01*
X141943598Y-75042629D01*
X141943596Y-75042618D01*
X141893353Y-74907911D01*
X141893352Y-74907909D01*
X141807192Y-74792815D01*
X141807184Y-74792807D01*
X141692090Y-74706647D01*
X141692088Y-74706646D01*
X141557381Y-74656403D01*
X141557370Y-74656401D01*
X141497824Y-74650000D01*
X141125001Y-74650000D01*
X141125000Y-74650001D01*
X140875000Y-74650001D01*
X140874999Y-74650000D01*
X140502176Y-74650000D01*
X140442629Y-74656401D01*
X140442618Y-74656403D01*
X140307911Y-74706646D01*
X140307909Y-74706647D01*
X140192815Y-74792807D01*
X140192807Y-74792815D01*
X140106647Y-74907909D01*
X140106646Y-74907911D01*
X140056403Y-75042618D01*
X140056401Y-75042629D01*
X140050000Y-75102175D01*
X138321661Y-75102175D01*
X138281873Y-75042629D01*
X138234601Y-74971882D01*
X138022643Y-74713610D01*
X137786390Y-74477357D01*
X137528118Y-74265399D01*
X137388553Y-74172144D01*
X137250312Y-74079773D01*
X136955672Y-73922286D01*
X136955660Y-73922280D01*
X136955654Y-73922277D01*
X136955649Y-73922274D01*
X136955645Y-73922273D01*
X136646967Y-73794414D01*
X136327253Y-73697431D01*
X136106777Y-73653576D01*
X135999559Y-73632249D01*
X135999557Y-73632248D01*
X135999559Y-73632248D01*
X135889795Y-73621437D01*
X135833738Y-73596917D01*
X135802800Y-73544130D01*
X135800500Y-73522914D01*
X135800500Y-73004861D01*
X135800977Y-72995157D01*
X135812250Y-72880702D01*
X135812985Y-72873233D01*
X135816771Y-72854203D01*
X135827327Y-72819407D01*
X135850915Y-72741643D01*
X135858342Y-72723714D01*
X135908069Y-72630683D01*
X135913792Y-72619975D01*
X135924573Y-72603841D01*
X135999196Y-72512912D01*
X136012912Y-72499196D01*
X136103842Y-72424571D01*
X136119977Y-72413791D01*
X136223716Y-72358340D01*
X136241643Y-72350915D01*
X136354207Y-72316770D01*
X136373233Y-72312985D01*
X136495157Y-72300976D01*
X136504861Y-72300500D01*
X136547595Y-72300500D01*
X141035521Y-72300500D01*
X141093712Y-72319407D01*
X141129676Y-72368907D01*
X141129676Y-72430093D01*
X141105525Y-72469504D01*
X140815489Y-72759540D01*
X140815488Y-72759539D01*
X140759540Y-72815488D01*
X140754047Y-72825003D01*
X140708576Y-72865942D01*
X140668312Y-72874500D01*
X140495725Y-72874500D01*
X140465305Y-72877353D01*
X140465296Y-72877355D01*
X140337116Y-72922207D01*
X140227855Y-73002845D01*
X140227845Y-73002855D01*
X140147207Y-73112116D01*
X140102355Y-73240296D01*
X140102353Y-73240305D01*
X140099500Y-73270725D01*
X140099500Y-73904274D01*
X140102353Y-73934694D01*
X140102355Y-73934703D01*
X140147207Y-74062883D01*
X140227845Y-74172144D01*
X140227847Y-74172146D01*
X140227850Y-74172150D01*
X140227853Y-74172152D01*
X140227855Y-74172154D01*
X140337116Y-74252792D01*
X140337117Y-74252792D01*
X140337118Y-74252793D01*
X140465301Y-74297646D01*
X140495725Y-74300499D01*
X140495727Y-74300500D01*
X140495734Y-74300500D01*
X141504273Y-74300500D01*
X141504273Y-74300499D01*
X141534699Y-74297646D01*
X141662882Y-74252793D01*
X141772150Y-74172150D01*
X141852793Y-74062882D01*
X141897646Y-73934699D01*
X141900499Y-73904273D01*
X141900500Y-73904273D01*
X141900500Y-73270727D01*
X141900499Y-73270723D01*
X141897647Y-73240307D01*
X141897646Y-73240304D01*
X141897646Y-73240301D01*
X141894130Y-73230253D01*
X142274500Y-73230253D01*
X142274500Y-74769746D01*
X142274501Y-74769758D01*
X142286132Y-74828227D01*
X142286134Y-74828233D01*
X142330445Y-74894548D01*
X142330448Y-74894552D01*
X142396769Y-74938867D01*
X142441231Y-74947711D01*
X142455241Y-74950498D01*
X142455246Y-74950498D01*
X142455252Y-74950500D01*
X142455253Y-74950500D01*
X144294747Y-74950500D01*
X144294748Y-74950500D01*
X144353231Y-74938867D01*
X144419552Y-74894552D01*
X144463867Y-74828231D01*
X144475500Y-74769748D01*
X144475500Y-73230252D01*
X144463867Y-73171769D01*
X144419552Y-73105448D01*
X144419548Y-73105445D01*
X144353233Y-73061134D01*
X144353231Y-73061133D01*
X144353228Y-73061132D01*
X144353227Y-73061132D01*
X144294758Y-73049501D01*
X144294748Y-73049500D01*
X142455252Y-73049500D01*
X142455251Y-73049500D01*
X142455241Y-73049501D01*
X142396772Y-73061132D01*
X142396766Y-73061134D01*
X142330451Y-73105445D01*
X142330445Y-73105451D01*
X142286134Y-73171766D01*
X142286132Y-73171772D01*
X142274501Y-73230241D01*
X142274500Y-73230253D01*
X141894130Y-73230253D01*
X141852793Y-73112118D01*
X141847870Y-73105448D01*
X141772154Y-73002855D01*
X141772152Y-73002853D01*
X141772150Y-73002850D01*
X141772146Y-73002847D01*
X141772144Y-73002845D01*
X141740045Y-72979155D01*
X141704452Y-72929387D01*
X141704910Y-72868204D01*
X141741243Y-72818974D01*
X141798833Y-72800500D01*
X145334521Y-72800500D01*
X145392712Y-72819407D01*
X145404525Y-72829496D01*
X147670504Y-75095475D01*
X147698281Y-75149992D01*
X147699500Y-75165479D01*
X147699500Y-76739478D01*
X147697637Y-76745209D01*
X147698813Y-76751118D01*
X147688331Y-76773851D01*
X147680593Y-76797669D01*
X147675717Y-76801211D01*
X147673195Y-76806682D01*
X147651352Y-76818913D01*
X147631093Y-76833633D01*
X147619810Y-76836577D01*
X147607596Y-76839006D01*
X147546835Y-76831811D01*
X147537518Y-76826898D01*
X147472193Y-76787868D01*
X147472191Y-76787867D01*
X147472189Y-76787866D01*
X147413999Y-76768960D01*
X147414000Y-76768960D01*
X147350503Y-76758904D01*
X147350500Y-76758904D01*
X146599000Y-76758904D01*
X146566856Y-76761434D01*
X146536206Y-76766287D01*
X146531718Y-76767050D01*
X146531713Y-76767051D01*
X146447616Y-76802995D01*
X146447615Y-76802996D01*
X146410090Y-76830260D01*
X146351900Y-76849167D01*
X146296898Y-76832482D01*
X146247547Y-76799506D01*
X146174624Y-76785000D01*
X145875001Y-76785000D01*
X145875000Y-76785001D01*
X145875000Y-78484999D01*
X145875001Y-78485000D01*
X146174623Y-78485000D01*
X146174629Y-78484999D01*
X146176179Y-78484691D01*
X146176897Y-78484776D01*
X146179468Y-78484523D01*
X146179523Y-78485086D01*
X146236941Y-78491878D01*
X146281874Y-78533407D01*
X146294500Y-78581787D01*
X146294500Y-78838276D01*
X146275593Y-78896467D01*
X146265504Y-78908280D01*
X145943876Y-79229908D01*
X145889359Y-79257685D01*
X145873872Y-79258904D01*
X145617047Y-79258904D01*
X145590220Y-79260662D01*
X145590209Y-79260663D01*
X145564616Y-79264032D01*
X145564607Y-79264034D01*
X145544177Y-79268098D01*
X145524863Y-79270000D01*
X145475137Y-79270000D01*
X145455823Y-79268098D01*
X145435392Y-79264034D01*
X145435383Y-79264032D01*
X145409790Y-79260663D01*
X145409779Y-79260662D01*
X145382953Y-79258904D01*
X144617047Y-79258904D01*
X144590220Y-79260662D01*
X144590209Y-79260663D01*
X144564616Y-79264032D01*
X144564607Y-79264034D01*
X144544177Y-79268098D01*
X144524863Y-79270000D01*
X144475137Y-79270000D01*
X144455823Y-79268098D01*
X144435392Y-79264034D01*
X144435383Y-79264032D01*
X144409790Y-79260663D01*
X144409779Y-79260662D01*
X144382953Y-79258904D01*
X143617047Y-79258904D01*
X143590220Y-79260662D01*
X143590209Y-79260663D01*
X143564616Y-79264032D01*
X143564607Y-79264034D01*
X143544177Y-79268098D01*
X143524863Y-79270000D01*
X143475137Y-79270000D01*
X143455823Y-79268098D01*
X143435392Y-79264034D01*
X143435383Y-79264032D01*
X143409790Y-79260663D01*
X143409779Y-79260662D01*
X143382953Y-79258904D01*
X142617047Y-79258904D01*
X142590220Y-79260662D01*
X142590209Y-79260663D01*
X142564616Y-79264032D01*
X142564607Y-79264034D01*
X142544177Y-79268098D01*
X142524863Y-79270000D01*
X142475137Y-79270000D01*
X142455823Y-79268098D01*
X142435392Y-79264034D01*
X142435383Y-79264032D01*
X142409790Y-79260663D01*
X142409779Y-79260662D01*
X142382953Y-79258904D01*
X142024500Y-79258904D01*
X141966309Y-79239997D01*
X141930345Y-79190497D01*
X141925500Y-79159904D01*
X141925500Y-79145727D01*
X141925499Y-79145725D01*
X141922646Y-79115305D01*
X141922646Y-79115301D01*
X141877793Y-78987118D01*
X141819608Y-78908280D01*
X141797154Y-78877855D01*
X141797152Y-78877853D01*
X141797150Y-78877850D01*
X141797146Y-78877847D01*
X141797144Y-78877845D01*
X141687883Y-78797207D01*
X141559703Y-78752355D01*
X141559694Y-78752353D01*
X141529274Y-78749500D01*
X141529266Y-78749500D01*
X140470734Y-78749500D01*
X140470725Y-78749500D01*
X140440305Y-78752353D01*
X140440296Y-78752355D01*
X140312116Y-78797207D01*
X140202855Y-78877845D01*
X140202845Y-78877855D01*
X140122207Y-78987116D01*
X140077355Y-79115296D01*
X140077353Y-79115305D01*
X140074500Y-79145725D01*
X140074500Y-79188698D01*
X140055593Y-79246889D01*
X140006093Y-79282853D01*
X139976910Y-79287688D01*
X139537231Y-79293948D01*
X139522599Y-79294680D01*
X139508517Y-79295890D01*
X139508516Y-79295890D01*
X139432817Y-79317530D01*
X139432815Y-79317531D01*
X139378296Y-79345307D01*
X139326283Y-79383096D01*
X134858675Y-83850703D01*
X134856045Y-83853237D01*
X134391772Y-84284457D01*
X134377847Y-84298711D01*
X134377836Y-84298723D01*
X134365125Y-84313062D01*
X134323467Y-84385866D01*
X134323466Y-84385868D01*
X134304555Y-84444069D01*
X134294500Y-84507563D01*
X134294500Y-84590460D01*
X134275593Y-84648651D01*
X134275156Y-84649247D01*
X134247208Y-84687116D01*
X134247205Y-84687121D01*
X134202355Y-84815296D01*
X134202353Y-84815305D01*
X134199500Y-84845725D01*
X134199500Y-87154274D01*
X134202353Y-87184694D01*
X134202355Y-87184703D01*
X134247206Y-87312881D01*
X134247207Y-87312882D01*
X134279224Y-87356263D01*
X134297350Y-87399566D01*
X134301885Y-87428210D01*
X134302646Y-87432685D01*
X134302647Y-87432690D01*
X134338591Y-87516786D01*
X134338592Y-87516787D01*
X134374556Y-87566287D01*
X134398797Y-87594032D01*
X134477307Y-87640940D01*
X134535498Y-87659847D01*
X134548198Y-87661858D01*
X134598996Y-87669904D01*
X134599000Y-87669904D01*
X135373872Y-87669904D01*
X135432063Y-87688811D01*
X135443876Y-87698900D01*
X136170505Y-88425529D01*
X136198281Y-88480044D01*
X136199500Y-88495531D01*
X136199500Y-89334521D01*
X136180593Y-89392712D01*
X136170504Y-89404525D01*
X135904525Y-89670504D01*
X135850008Y-89698281D01*
X135834521Y-89699500D01*
X135528365Y-89699500D01*
X135470174Y-89680593D01*
X135451316Y-89662665D01*
X135444319Y-89653993D01*
X135439198Y-89643517D01*
X135421953Y-89626272D01*
X135418641Y-89622167D01*
X135409519Y-89598276D01*
X135397909Y-89575489D01*
X135398762Y-89570101D01*
X135396817Y-89565007D01*
X135403479Y-89540319D01*
X135407480Y-89515057D01*
X135411960Y-89508890D01*
X135412758Y-89505934D01*
X135416021Y-89503300D01*
X135425687Y-89489998D01*
X135477639Y-89438046D01*
X135477640Y-89438044D01*
X135535163Y-89325151D01*
X135535164Y-89325147D01*
X135550000Y-89231484D01*
X135550000Y-89175001D01*
X135549999Y-89175000D01*
X133725002Y-89175000D01*
X133725001Y-89175001D01*
X133725001Y-89231485D01*
X133739833Y-89325141D01*
X133739836Y-89325151D01*
X133797358Y-89438043D01*
X133849313Y-89489998D01*
X133877090Y-89544515D01*
X133867519Y-89604947D01*
X133849314Y-89630004D01*
X133835803Y-89643514D01*
X133835801Y-89643518D01*
X133784427Y-89748604D01*
X133784427Y-89748607D01*
X133774500Y-89816740D01*
X133774500Y-90183260D01*
X133781118Y-90228682D01*
X133784427Y-90251395D01*
X133820230Y-90324630D01*
X133835802Y-90356483D01*
X133884317Y-90404998D01*
X133912093Y-90459513D01*
X133902522Y-90519945D01*
X133884318Y-90545000D01*
X133849315Y-90580004D01*
X133835801Y-90593518D01*
X133784427Y-90698604D01*
X133784427Y-90698607D01*
X133774500Y-90766740D01*
X133774500Y-91133260D01*
X133781118Y-91178682D01*
X133784427Y-91201395D01*
X133835801Y-91306481D01*
X133835802Y-91306483D01*
X133918517Y-91389198D01*
X133993980Y-91426089D01*
X134037954Y-91468632D01*
X134049500Y-91515030D01*
X134049500Y-91901000D01*
X134030593Y-91959191D01*
X133981093Y-91995155D01*
X133950500Y-92000000D01*
X133049500Y-92000000D01*
X132991309Y-91981093D01*
X132955345Y-91931593D01*
X132950500Y-91901000D01*
X132950500Y-91515030D01*
X132969407Y-91456839D01*
X133006019Y-91426089D01*
X133081483Y-91389198D01*
X133164198Y-91306483D01*
X133215573Y-91201393D01*
X133225500Y-91133260D01*
X133225500Y-90766740D01*
X133215573Y-90698607D01*
X133164198Y-90593517D01*
X133150684Y-90580003D01*
X133122909Y-90525489D01*
X133132480Y-90465057D01*
X133150687Y-90439998D01*
X133202639Y-90388046D01*
X133202640Y-90388044D01*
X133260163Y-90275151D01*
X133260164Y-90275147D01*
X133275000Y-90181484D01*
X133275000Y-90125001D01*
X133274999Y-90125000D01*
X131450002Y-90125000D01*
X131450001Y-90125001D01*
X130313652Y-90125001D01*
X130319407Y-90107288D01*
X130329496Y-90095475D01*
X131045475Y-89379496D01*
X131099992Y-89351719D01*
X131115479Y-89350500D01*
X131471635Y-89350500D01*
X131529826Y-89369407D01*
X131548684Y-89387335D01*
X131555680Y-89396006D01*
X131560802Y-89406483D01*
X131578045Y-89423726D01*
X131581358Y-89427832D01*
X131590478Y-89451721D01*
X131602090Y-89474510D01*
X131601236Y-89479897D01*
X131603182Y-89484993D01*
X131596519Y-89509681D01*
X131592519Y-89534942D01*
X131588038Y-89541108D01*
X131587241Y-89544065D01*
X131583977Y-89546697D01*
X131574313Y-89560000D01*
X131522360Y-89611953D01*
X131522359Y-89611955D01*
X131464836Y-89724848D01*
X131464835Y-89724852D01*
X131450000Y-89818515D01*
X131450000Y-89874999D01*
X131450001Y-89875000D01*
X133274998Y-89875000D01*
X133274999Y-89874999D01*
X133274999Y-89818516D01*
X133274998Y-89818514D01*
X133260166Y-89724858D01*
X133260163Y-89724848D01*
X133202641Y-89611956D01*
X133150686Y-89560001D01*
X133122909Y-89505484D01*
X133132480Y-89445052D01*
X133150685Y-89419995D01*
X133164198Y-89406483D01*
X133215573Y-89301393D01*
X133225500Y-89233260D01*
X133225500Y-88868515D01*
X133725000Y-88868515D01*
X133725000Y-88924999D01*
X133725001Y-88925000D01*
X134512499Y-88925000D01*
X134512500Y-88924999D01*
X134512500Y-88500001D01*
X134762500Y-88500001D01*
X134762500Y-88924999D01*
X134762501Y-88925000D01*
X135549998Y-88925000D01*
X135549999Y-88924999D01*
X135549999Y-88868516D01*
X135549998Y-88868514D01*
X135535166Y-88774858D01*
X135535163Y-88774848D01*
X135477641Y-88661956D01*
X135388043Y-88572358D01*
X135275151Y-88514836D01*
X135275147Y-88514835D01*
X135181484Y-88500000D01*
X134762501Y-88500000D01*
X134762500Y-88500001D01*
X134512500Y-88500001D01*
X134512499Y-88500000D01*
X134093516Y-88500000D01*
X134093514Y-88500001D01*
X133999858Y-88514833D01*
X133999848Y-88514836D01*
X133886956Y-88572358D01*
X133797358Y-88661956D01*
X133739836Y-88774848D01*
X133739835Y-88774852D01*
X133725000Y-88868515D01*
X133225500Y-88868515D01*
X133225500Y-88866740D01*
X133215573Y-88798607D01*
X133164198Y-88693517D01*
X133081483Y-88610802D01*
X133081481Y-88610801D01*
X132976395Y-88559427D01*
X132949139Y-88555456D01*
X132908260Y-88549500D01*
X131816740Y-88549500D01*
X131782673Y-88554463D01*
X131748604Y-88559427D01*
X131643518Y-88610801D01*
X131560801Y-88693518D01*
X131560577Y-88693978D01*
X131560180Y-88694387D01*
X131556035Y-88700194D01*
X131555164Y-88699572D01*
X131518035Y-88737953D01*
X131471635Y-88749500D01*
X130910435Y-88749500D01*
X130834011Y-88769978D01*
X130784428Y-88798606D01*
X130784424Y-88798608D01*
X130765492Y-88809537D01*
X129919504Y-89655525D01*
X129864987Y-89683302D01*
X129804555Y-89673731D01*
X129761290Y-89630466D01*
X129750500Y-89585521D01*
X129750500Y-87147824D01*
X131199999Y-87147824D01*
X131206401Y-87207370D01*
X131206403Y-87207381D01*
X131256646Y-87342088D01*
X131256647Y-87342090D01*
X131342807Y-87457184D01*
X131342815Y-87457192D01*
X131457909Y-87543352D01*
X131457911Y-87543353D01*
X131592618Y-87593596D01*
X131592629Y-87593598D01*
X131652176Y-87600000D01*
X131899999Y-87600000D01*
X131900000Y-87599999D01*
X131900000Y-86125001D01*
X132150000Y-86125001D01*
X132150000Y-87599999D01*
X132150001Y-87600000D01*
X132397824Y-87600000D01*
X132457370Y-87593598D01*
X132457381Y-87593596D01*
X132592088Y-87543353D01*
X132592090Y-87543352D01*
X132707184Y-87457192D01*
X132707192Y-87457184D01*
X132793352Y-87342090D01*
X132793353Y-87342088D01*
X132843596Y-87207381D01*
X132843598Y-87207370D01*
X132850000Y-87147824D01*
X132850000Y-86125001D01*
X132849999Y-86125000D01*
X132150001Y-86125000D01*
X132150000Y-86125001D01*
X131900000Y-86125001D01*
X131899999Y-86125000D01*
X131200001Y-86125000D01*
X131200000Y-86125001D01*
X131200000Y-87147824D01*
X131199999Y-87147824D01*
X129750500Y-87147824D01*
X129750500Y-84852175D01*
X131200000Y-84852175D01*
X131200000Y-85874999D01*
X131200001Y-85875000D01*
X131899999Y-85875000D01*
X131900000Y-85874999D01*
X131900000Y-84400001D01*
X132150000Y-84400001D01*
X132150000Y-85874999D01*
X132150001Y-85875000D01*
X132849999Y-85875000D01*
X132850000Y-85874999D01*
X132850000Y-84852175D01*
X132843598Y-84792629D01*
X132843596Y-84792618D01*
X132793353Y-84657911D01*
X132793352Y-84657909D01*
X132707192Y-84542815D01*
X132707184Y-84542807D01*
X132592090Y-84456647D01*
X132592088Y-84456646D01*
X132457381Y-84406403D01*
X132457370Y-84406401D01*
X132397824Y-84400000D01*
X132150001Y-84400000D01*
X132150000Y-84400001D01*
X131900000Y-84400001D01*
X131899999Y-84400000D01*
X131652176Y-84400000D01*
X131592629Y-84406401D01*
X131592618Y-84406403D01*
X131457911Y-84456646D01*
X131457909Y-84456647D01*
X131342815Y-84542807D01*
X131342807Y-84542815D01*
X131256647Y-84657909D01*
X131256646Y-84657911D01*
X131206403Y-84792618D01*
X131206401Y-84792629D01*
X131200000Y-84852175D01*
X129750500Y-84852175D01*
X129750500Y-82791766D01*
X132885009Y-82791766D01*
X133026324Y-82886190D01*
X133208310Y-82961570D01*
X133401506Y-82999999D01*
X133401510Y-83000000D01*
X133598490Y-83000000D01*
X133598493Y-82999999D01*
X133791688Y-82961570D01*
X133791690Y-82961570D01*
X133973675Y-82886190D01*
X134114989Y-82791766D01*
X133499999Y-82176776D01*
X132885009Y-82791766D01*
X129750500Y-82791766D01*
X129750500Y-81901506D01*
X132500000Y-81901506D01*
X132500000Y-82098493D01*
X132538429Y-82291688D01*
X132538429Y-82291690D01*
X132613809Y-82473674D01*
X132708232Y-82614989D01*
X133323222Y-81999999D01*
X133676776Y-81999999D01*
X134291766Y-82614989D01*
X134386190Y-82473675D01*
X134461570Y-82291690D01*
X134461570Y-82291688D01*
X134499999Y-82098493D01*
X134500000Y-82098490D01*
X134500000Y-81901509D01*
X134499999Y-81901506D01*
X134461570Y-81708311D01*
X134461570Y-81708309D01*
X134386190Y-81526324D01*
X134386190Y-81526323D01*
X134291766Y-81385009D01*
X133676776Y-81999999D01*
X133323222Y-81999999D01*
X132708232Y-81385009D01*
X132613809Y-81526324D01*
X132538429Y-81708309D01*
X132538429Y-81708311D01*
X132500000Y-81901506D01*
X129750500Y-81901506D01*
X129750500Y-81208232D01*
X132885009Y-81208232D01*
X133499999Y-81823222D01*
X134114989Y-81208232D01*
X133973674Y-81113809D01*
X133791689Y-81038429D01*
X133598493Y-81000000D01*
X133401506Y-81000000D01*
X133208311Y-81038429D01*
X133208309Y-81038429D01*
X133026324Y-81113809D01*
X132885009Y-81208232D01*
X129750500Y-81208232D01*
X129750500Y-77001952D01*
X129750576Y-76998065D01*
X129752790Y-76941711D01*
X129768071Y-76552772D01*
X129768681Y-76545034D01*
X129797721Y-76299676D01*
X129820831Y-76104423D01*
X129822040Y-76096785D01*
X129908604Y-75661599D01*
X129910410Y-75654077D01*
X130030850Y-75227033D01*
X130033239Y-75219677D01*
X130186819Y-74803382D01*
X130189775Y-74796246D01*
X130375541Y-74393288D01*
X130379044Y-74386412D01*
X130595855Y-73999269D01*
X130599890Y-73992684D01*
X130846404Y-73623750D01*
X130850961Y-73617478D01*
X131125638Y-73269051D01*
X131130683Y-73263145D01*
X131143966Y-73248776D01*
X131431861Y-72937333D01*
X131437333Y-72931861D01*
X131763149Y-72630679D01*
X131769056Y-72625635D01*
X132117478Y-72350961D01*
X132123750Y-72346404D01*
X132492684Y-72099890D01*
X132499269Y-72095855D01*
X132886412Y-71879044D01*
X132893288Y-71875541D01*
X133296246Y-71689775D01*
X133303382Y-71686819D01*
X133719677Y-71533239D01*
X133727033Y-71530850D01*
X134154077Y-71410410D01*
X134161599Y-71408604D01*
X134596785Y-71322040D01*
X134604423Y-71320831D01*
X135045045Y-71268680D01*
X135052772Y-71268071D01*
X135498066Y-71250576D01*
X135501953Y-71250500D01*
X135544170Y-71250500D01*
X161455830Y-71250500D01*
X161498047Y-71250500D01*
X161501934Y-71250576D01*
G37*
%TD.AperFunction*%
%TA.AperFunction,Conductor*%
G36*
X137459275Y-99800347D02*
G01*
X137460437Y-99800500D01*
X137460438Y-99800500D01*
X137539562Y-99800500D01*
X140795493Y-99800500D01*
X140853684Y-99819407D01*
X140889648Y-99868907D01*
X140889648Y-99930093D01*
X140888937Y-99932198D01*
X140877355Y-99965296D01*
X140877353Y-99965305D01*
X140874500Y-99995725D01*
X140874500Y-101004274D01*
X140877353Y-101034694D01*
X140877355Y-101034703D01*
X140922207Y-101162883D01*
X141002845Y-101272144D01*
X141002847Y-101272146D01*
X141002850Y-101272150D01*
X141002853Y-101272152D01*
X141002855Y-101272154D01*
X141112116Y-101352792D01*
X141112117Y-101352792D01*
X141112118Y-101352793D01*
X141240301Y-101397646D01*
X141270725Y-101400499D01*
X141270727Y-101400500D01*
X141270734Y-101400500D01*
X141904273Y-101400500D01*
X141904273Y-101400499D01*
X141934699Y-101397646D01*
X142062882Y-101352793D01*
X142172150Y-101272150D01*
X142252793Y-101162882D01*
X142297646Y-101034699D01*
X142300499Y-101004273D01*
X142300500Y-101004273D01*
X142300500Y-100997824D01*
X142649999Y-100997824D01*
X142656401Y-101057370D01*
X142656403Y-101057381D01*
X142706646Y-101192088D01*
X142706647Y-101192090D01*
X142792807Y-101307184D01*
X142792815Y-101307192D01*
X142907909Y-101393352D01*
X142945148Y-101407242D01*
X142993062Y-101445293D01*
X143009460Y-101504240D01*
X142988078Y-101561567D01*
X142945148Y-101592758D01*
X142907909Y-101606647D01*
X142792815Y-101692807D01*
X142792807Y-101692815D01*
X142706647Y-101807909D01*
X142706646Y-101807911D01*
X142656403Y-101942618D01*
X142656401Y-101942629D01*
X142650000Y-102002175D01*
X142650000Y-102374999D01*
X142650001Y-102375000D01*
X143287499Y-102375000D01*
X143287500Y-102374999D01*
X143287500Y-101536302D01*
X143283352Y-101530593D01*
X143283352Y-101522603D01*
X143279726Y-101515487D01*
X143283352Y-101492592D01*
X143283352Y-101469407D01*
X143287500Y-101462638D01*
X143287500Y-100625001D01*
X143537500Y-100625001D01*
X143537500Y-101463697D01*
X143541648Y-101469407D01*
X143541648Y-101477396D01*
X143545274Y-101484513D01*
X143541648Y-101507407D01*
X143541648Y-101530593D01*
X143537500Y-101536302D01*
X143537500Y-102374999D01*
X143537501Y-102375000D01*
X144174999Y-102375000D01*
X144175000Y-102374999D01*
X144175000Y-102002175D01*
X144168598Y-101942629D01*
X144168596Y-101942618D01*
X144118353Y-101807911D01*
X144118352Y-101807909D01*
X144032192Y-101692815D01*
X144032184Y-101692807D01*
X143917090Y-101606647D01*
X143917088Y-101606646D01*
X143879852Y-101592758D01*
X143831937Y-101554708D01*
X143815539Y-101495761D01*
X143836920Y-101438433D01*
X143879852Y-101407242D01*
X143917088Y-101393353D01*
X143917090Y-101393352D01*
X144032184Y-101307192D01*
X144032192Y-101307184D01*
X144118352Y-101192090D01*
X144118353Y-101192088D01*
X144168596Y-101057381D01*
X144168598Y-101057370D01*
X144175000Y-100997824D01*
X144175000Y-100625001D01*
X144174999Y-100625000D01*
X143537501Y-100625000D01*
X143537500Y-100625001D01*
X143287500Y-100625001D01*
X143287499Y-100625000D01*
X142650001Y-100625000D01*
X142650000Y-100625001D01*
X142650000Y-100997824D01*
X142649999Y-100997824D01*
X142300500Y-100997824D01*
X142300500Y-99995727D01*
X142300499Y-99995725D01*
X142299569Y-99985810D01*
X142297646Y-99965301D01*
X142289711Y-99942625D01*
X142286063Y-99932198D01*
X142286036Y-99931035D01*
X142285352Y-99930093D01*
X142285352Y-99900521D01*
X142284690Y-99871028D01*
X142285352Y-99870072D01*
X142285352Y-99868907D01*
X142302731Y-99844985D01*
X142319534Y-99820733D01*
X142320631Y-99820348D01*
X142321316Y-99819407D01*
X142349410Y-99810278D01*
X142377285Y-99800525D01*
X142379507Y-99800500D01*
X142566825Y-99800500D01*
X142625016Y-99819407D01*
X142660980Y-99868907D01*
X142660980Y-99930093D01*
X142659583Y-99934098D01*
X142656402Y-99942625D01*
X142656401Y-99942629D01*
X142650000Y-100002175D01*
X142650000Y-100374999D01*
X142650001Y-100375000D01*
X144174999Y-100375000D01*
X144175000Y-100374999D01*
X144175000Y-100002175D01*
X144168598Y-99942629D01*
X144168597Y-99942625D01*
X144165417Y-99934098D01*
X144165322Y-99931885D01*
X144164020Y-99930093D01*
X144164020Y-99901516D01*
X144162796Y-99872969D01*
X144164020Y-99871122D01*
X144164020Y-99868907D01*
X144180825Y-99845776D01*
X144196607Y-99821974D01*
X144198681Y-99821200D01*
X144199984Y-99819407D01*
X144227171Y-99810573D01*
X144253934Y-99800591D01*
X144258175Y-99800500D01*
X144334521Y-99800500D01*
X144392712Y-99819407D01*
X144404525Y-99829496D01*
X144634971Y-100059942D01*
X144662748Y-100114459D01*
X144663967Y-100129946D01*
X144663967Y-100188459D01*
X144700909Y-100563538D01*
X144774441Y-100933206D01*
X144883846Y-101293870D01*
X145028081Y-101642084D01*
X145028094Y-101642111D01*
X145205754Y-101974490D01*
X145361844Y-102208094D01*
X145415154Y-102287878D01*
X145654259Y-102579229D01*
X145920771Y-102845741D01*
X146212122Y-103084846D01*
X146328911Y-103162882D01*
X146525509Y-103294245D01*
X146857888Y-103471905D01*
X146857907Y-103471915D01*
X146924636Y-103499555D01*
X146947525Y-103509036D01*
X146994050Y-103548773D01*
X147008334Y-103608268D01*
X146984919Y-103664795D01*
X146932750Y-103696765D01*
X146909639Y-103699500D01*
X144539562Y-103699500D01*
X144460438Y-103699500D01*
X144413661Y-103712033D01*
X144384007Y-103719979D01*
X144315493Y-103759536D01*
X144315489Y-103759540D01*
X143715488Y-104359541D01*
X143679524Y-104395504D01*
X143625010Y-104423281D01*
X143609522Y-104424500D01*
X143470724Y-104424500D01*
X143440304Y-104427353D01*
X143440295Y-104427355D01*
X143312115Y-104472207D01*
X143202854Y-104552845D01*
X143202844Y-104552855D01*
X143122206Y-104662116D01*
X143077354Y-104790296D01*
X143077352Y-104790305D01*
X143074499Y-104820725D01*
X143074499Y-106179274D01*
X143077352Y-106209694D01*
X143077354Y-106209703D01*
X143122206Y-106337883D01*
X143202844Y-106447144D01*
X143202846Y-106447146D01*
X143202849Y-106447150D01*
X143202852Y-106447152D01*
X143202854Y-106447154D01*
X143312115Y-106527792D01*
X143312116Y-106527792D01*
X143312117Y-106527793D01*
X143440300Y-106572646D01*
X143470724Y-106575499D01*
X143470726Y-106575500D01*
X143470733Y-106575500D01*
X144329272Y-106575500D01*
X144329272Y-106575499D01*
X144359698Y-106572646D01*
X144487881Y-106527793D01*
X144597149Y-106447150D01*
X144677792Y-106337882D01*
X144722645Y-106209699D01*
X144725498Y-106179273D01*
X144725499Y-106179273D01*
X144725499Y-105431467D01*
X145264200Y-105431467D01*
X145264200Y-105568532D01*
X145290939Y-105702956D01*
X145290939Y-105702958D01*
X145343387Y-105829580D01*
X145343393Y-105829591D01*
X145389202Y-105898148D01*
X145419537Y-105943547D01*
X145516453Y-106040463D01*
X145572202Y-106077713D01*
X145630408Y-106116606D01*
X145630419Y-106116612D01*
X145677193Y-106135986D01*
X145757043Y-106169061D01*
X145891470Y-106195800D01*
X145891471Y-106195800D01*
X146028529Y-106195800D01*
X146028530Y-106195800D01*
X146162957Y-106169061D01*
X146289585Y-106116610D01*
X146403547Y-106040463D01*
X146500463Y-105943547D01*
X146576610Y-105829585D01*
X146629061Y-105702957D01*
X146655800Y-105568530D01*
X146655800Y-105431470D01*
X146629061Y-105297043D01*
X146588963Y-105200238D01*
X146576612Y-105170419D01*
X146576606Y-105170408D01*
X146529969Y-105100612D01*
X146500463Y-105056453D01*
X146403547Y-104959537D01*
X146355669Y-104927546D01*
X146289591Y-104883393D01*
X146289580Y-104883387D01*
X146162957Y-104830939D01*
X146028532Y-104804200D01*
X146028530Y-104804200D01*
X145891470Y-104804200D01*
X145891467Y-104804200D01*
X145757043Y-104830939D01*
X145757041Y-104830939D01*
X145630419Y-104883387D01*
X145630408Y-104883393D01*
X145516453Y-104959537D01*
X145516449Y-104959540D01*
X145419540Y-105056449D01*
X145419537Y-105056453D01*
X145343393Y-105170408D01*
X145343387Y-105170419D01*
X145290939Y-105297041D01*
X145290939Y-105297043D01*
X145264200Y-105431467D01*
X144725499Y-105431467D01*
X144725499Y-104820727D01*
X144725498Y-104820725D01*
X144724829Y-104813591D01*
X144722645Y-104790301D01*
X144677792Y-104662118D01*
X144663026Y-104642111D01*
X144597153Y-104552855D01*
X144597151Y-104552853D01*
X144597149Y-104552850D01*
X144560236Y-104525607D01*
X144546955Y-104507036D01*
X144530815Y-104490896D01*
X144529507Y-104482639D01*
X144524644Y-104475839D01*
X144524814Y-104453010D01*
X144521244Y-104430464D01*
X144525039Y-104423015D01*
X144525102Y-104414655D01*
X144549021Y-104375949D01*
X144595475Y-104329496D01*
X144649992Y-104301719D01*
X144665478Y-104300500D01*
X148545625Y-104300500D01*
X148545641Y-104300499D01*
X148687772Y-104300499D01*
X148887283Y-104283043D01*
X149061863Y-104267770D01*
X149431685Y-104202560D01*
X149794417Y-104105366D01*
X150147298Y-103976928D01*
X150417477Y-103850940D01*
X150478206Y-103843484D01*
X150531720Y-103873147D01*
X150557578Y-103928600D01*
X150545903Y-103988661D01*
X150529321Y-104010668D01*
X150499540Y-104040448D01*
X150499537Y-104040453D01*
X150423393Y-104154408D01*
X150423387Y-104154419D01*
X150370939Y-104281041D01*
X150370939Y-104281043D01*
X150344200Y-104415467D01*
X150344200Y-104552532D01*
X150370939Y-104686956D01*
X150370939Y-104686958D01*
X150423387Y-104813580D01*
X150423393Y-104813591D01*
X150464780Y-104875529D01*
X150499537Y-104927547D01*
X150596453Y-105024463D01*
X150658399Y-105065854D01*
X150710408Y-105100606D01*
X150710419Y-105100612D01*
X150741230Y-105113374D01*
X150837043Y-105153061D01*
X150971470Y-105179800D01*
X150971471Y-105179800D01*
X151108529Y-105179800D01*
X151108530Y-105179800D01*
X151242957Y-105153061D01*
X151369585Y-105100610D01*
X151483547Y-105024463D01*
X151580463Y-104927547D01*
X151656610Y-104813585D01*
X151709061Y-104686957D01*
X151735800Y-104552530D01*
X151735800Y-104415470D01*
X151709061Y-104281043D01*
X151656610Y-104154415D01*
X151656609Y-104154413D01*
X151656606Y-104154408D01*
X151612681Y-104088671D01*
X151580463Y-104040453D01*
X151483547Y-103943537D01*
X151438148Y-103913202D01*
X151369591Y-103867393D01*
X151369580Y-103867387D01*
X151242957Y-103814939D01*
X151108532Y-103788200D01*
X151108530Y-103788200D01*
X150971470Y-103788200D01*
X150971467Y-103788200D01*
X150897014Y-103803010D01*
X150836253Y-103795818D01*
X150791323Y-103754285D01*
X150779386Y-103694276D01*
X150805002Y-103638711D01*
X150820911Y-103624819D01*
X151120472Y-103415066D01*
X151408143Y-103173681D01*
X151506690Y-103075132D01*
X151510152Y-103071673D01*
X151511918Y-103069907D01*
X151511936Y-103069890D01*
X151574567Y-103007259D01*
X151574567Y-103007258D01*
X152140636Y-102441189D01*
X152711464Y-101870360D01*
X152765979Y-101842585D01*
X152826411Y-101852156D01*
X152869676Y-101895421D01*
X152879247Y-101955853D01*
X152878187Y-101961488D01*
X152877353Y-101965306D01*
X152874500Y-101995725D01*
X152874500Y-103004274D01*
X152877353Y-103034694D01*
X152877355Y-103034703D01*
X152922207Y-103162883D01*
X153002845Y-103272144D01*
X153002847Y-103272146D01*
X153002850Y-103272150D01*
X153002853Y-103272152D01*
X153002855Y-103272154D01*
X153050330Y-103307192D01*
X153112118Y-103352793D01*
X153120697Y-103355794D01*
X153169377Y-103392858D01*
X153187000Y-103449239D01*
X153187000Y-103705599D01*
X153168093Y-103763790D01*
X153158004Y-103775602D01*
X152779521Y-104154085D01*
X152779517Y-104154090D01*
X152726795Y-104245407D01*
X152726793Y-104245411D01*
X152713806Y-104293876D01*
X152713807Y-104293877D01*
X152699500Y-104347273D01*
X152699258Y-104349114D01*
X152698686Y-104350312D01*
X152697822Y-104353538D01*
X152697223Y-104353377D01*
X152672912Y-104404337D01*
X152633804Y-104429627D01*
X152512117Y-104472207D01*
X152402856Y-104552845D01*
X152402846Y-104552855D01*
X152322208Y-104662116D01*
X152277356Y-104790296D01*
X152277354Y-104790305D01*
X152274501Y-104820725D01*
X152274501Y-106179274D01*
X152277354Y-106209694D01*
X152277356Y-106209703D01*
X152322208Y-106337883D01*
X152402846Y-106447144D01*
X152402848Y-106447146D01*
X152402851Y-106447150D01*
X152402854Y-106447152D01*
X152402856Y-106447154D01*
X152512117Y-106527792D01*
X152512118Y-106527792D01*
X152512119Y-106527793D01*
X152640302Y-106572646D01*
X152670726Y-106575499D01*
X152670728Y-106575500D01*
X152670735Y-106575500D01*
X153529274Y-106575500D01*
X153529274Y-106575499D01*
X153559700Y-106572646D01*
X153687883Y-106527793D01*
X153797151Y-106447150D01*
X153877794Y-106337882D01*
X153922647Y-106209699D01*
X153925500Y-106179273D01*
X153925501Y-106179273D01*
X153925501Y-104820727D01*
X153925500Y-104820725D01*
X153924831Y-104813591D01*
X153922647Y-104790301D01*
X153877794Y-104662118D01*
X153863028Y-104642111D01*
X153797155Y-104552855D01*
X153797153Y-104552853D01*
X153797151Y-104552850D01*
X153797147Y-104552847D01*
X153797145Y-104552845D01*
X153726533Y-104500731D01*
X153713254Y-104482164D01*
X153697111Y-104466021D01*
X153695803Y-104457762D01*
X153690940Y-104450963D01*
X153691110Y-104428135D01*
X153687540Y-104405589D01*
X153691335Y-104398139D01*
X153691398Y-104389780D01*
X153715312Y-104351078D01*
X153833410Y-104232981D01*
X153833413Y-104232980D01*
X153907980Y-104158413D01*
X153948244Y-104088674D01*
X153960705Y-104067091D01*
X153960705Y-104067089D01*
X153960707Y-104067087D01*
X153965930Y-104047595D01*
X153988001Y-103965227D01*
X153988001Y-103859773D01*
X153988001Y-103853711D01*
X153988000Y-103853693D01*
X153988000Y-103449239D01*
X154006907Y-103391048D01*
X154054302Y-103355795D01*
X154062882Y-103352793D01*
X154172150Y-103272150D01*
X154252793Y-103162882D01*
X154297646Y-103034699D01*
X154300499Y-103004273D01*
X154300500Y-103004273D01*
X154300500Y-102997824D01*
X154649999Y-102997824D01*
X154656401Y-103057370D01*
X154656403Y-103057381D01*
X154706646Y-103192088D01*
X154706647Y-103192090D01*
X154792807Y-103307184D01*
X154792815Y-103307192D01*
X154907909Y-103393352D01*
X154907911Y-103393353D01*
X155042618Y-103443596D01*
X155042629Y-103443598D01*
X155102176Y-103450000D01*
X155287499Y-103450000D01*
X155287500Y-103449999D01*
X155287500Y-102625001D01*
X155537500Y-102625001D01*
X155537500Y-103449999D01*
X155537501Y-103450000D01*
X155722824Y-103450000D01*
X155782370Y-103443598D01*
X155782381Y-103443596D01*
X155917088Y-103393353D01*
X155917090Y-103393352D01*
X156032184Y-103307192D01*
X156032192Y-103307184D01*
X156118352Y-103192090D01*
X156118353Y-103192088D01*
X156168596Y-103057381D01*
X156168598Y-103057370D01*
X156175000Y-102997824D01*
X156175000Y-102625001D01*
X156174999Y-102625000D01*
X155537501Y-102625000D01*
X155537500Y-102625001D01*
X155287500Y-102625001D01*
X155287499Y-102625000D01*
X154650001Y-102625000D01*
X154650000Y-102625001D01*
X154650000Y-102997824D01*
X154649999Y-102997824D01*
X154300500Y-102997824D01*
X154300500Y-101995727D01*
X154300499Y-101995725D01*
X154298508Y-101974493D01*
X154297646Y-101965301D01*
X154291152Y-101946744D01*
X154286063Y-101932198D01*
X154286036Y-101931035D01*
X154285352Y-101930093D01*
X154285352Y-101900521D01*
X154284690Y-101871028D01*
X154285352Y-101870072D01*
X154285352Y-101868907D01*
X154302731Y-101844985D01*
X154319534Y-101820733D01*
X154320631Y-101820348D01*
X154321316Y-101819407D01*
X154349410Y-101810278D01*
X154377285Y-101800525D01*
X154379507Y-101800500D01*
X154566825Y-101800500D01*
X154625016Y-101819407D01*
X154660980Y-101868907D01*
X154660980Y-101930093D01*
X154659583Y-101934098D01*
X154656402Y-101942625D01*
X154656401Y-101942629D01*
X154650000Y-102002175D01*
X154650000Y-102374999D01*
X154650001Y-102375000D01*
X156174999Y-102375000D01*
X156175000Y-102374999D01*
X156175000Y-102002175D01*
X156168598Y-101942629D01*
X156168597Y-101942625D01*
X156165417Y-101934098D01*
X156162796Y-101872969D01*
X156196607Y-101821974D01*
X156253934Y-101800591D01*
X156258175Y-101800500D01*
X156815609Y-101800500D01*
X156815609Y-101800499D01*
X156892035Y-101780021D01*
X156960557Y-101740460D01*
X156995434Y-101705583D01*
X157016507Y-101684511D01*
X157307309Y-101393708D01*
X157361826Y-101365930D01*
X157422258Y-101375501D01*
X157465523Y-101418766D01*
X157475094Y-101479198D01*
X157470343Y-101497571D01*
X157394629Y-101705594D01*
X157297438Y-102068316D01*
X157232228Y-102438138D01*
X157232228Y-102438143D01*
X157199500Y-102812227D01*
X157199500Y-104834521D01*
X157180593Y-104892712D01*
X157170504Y-104904525D01*
X156904525Y-105170504D01*
X156897407Y-105174130D01*
X156892712Y-105180593D01*
X156870663Y-105187756D01*
X156850008Y-105198281D01*
X156834521Y-105199500D01*
X156824499Y-105199500D01*
X156766308Y-105180593D01*
X156730344Y-105131093D01*
X156725499Y-105100500D01*
X156725499Y-104820727D01*
X156725498Y-104820725D01*
X156724829Y-104813591D01*
X156722645Y-104790301D01*
X156677792Y-104662118D01*
X156663026Y-104642111D01*
X156597153Y-104552855D01*
X156597151Y-104552853D01*
X156597149Y-104552850D01*
X156597145Y-104552847D01*
X156597143Y-104552845D01*
X156487882Y-104472207D01*
X156359702Y-104427355D01*
X156359693Y-104427353D01*
X156329273Y-104424500D01*
X156329265Y-104424500D01*
X155470733Y-104424500D01*
X155470724Y-104424500D01*
X155440304Y-104427353D01*
X155440295Y-104427355D01*
X155312115Y-104472207D01*
X155202854Y-104552845D01*
X155202844Y-104552855D01*
X155122206Y-104662116D01*
X155077354Y-104790296D01*
X155077352Y-104790305D01*
X155074499Y-104820725D01*
X155074499Y-106179274D01*
X155077352Y-106209694D01*
X155077354Y-106209703D01*
X155122206Y-106337883D01*
X155202844Y-106447144D01*
X155202846Y-106447146D01*
X155202849Y-106447150D01*
X155202852Y-106447152D01*
X155202854Y-106447154D01*
X155312115Y-106527792D01*
X155312116Y-106527792D01*
X155312117Y-106527793D01*
X155440300Y-106572646D01*
X155470724Y-106575499D01*
X155470726Y-106575500D01*
X155470733Y-106575500D01*
X156329272Y-106575500D01*
X156329272Y-106575499D01*
X156359698Y-106572646D01*
X156487881Y-106527793D01*
X156597149Y-106447150D01*
X156677792Y-106337882D01*
X156722645Y-106209699D01*
X156725498Y-106179273D01*
X156725499Y-106179273D01*
X156725499Y-105899500D01*
X156744406Y-105841309D01*
X156793906Y-105805345D01*
X156824499Y-105800500D01*
X157039563Y-105800500D01*
X157039563Y-105800499D01*
X157115989Y-105780021D01*
X157184511Y-105740460D01*
X157240460Y-105684511D01*
X157740460Y-105184511D01*
X157743180Y-105179800D01*
X157780020Y-105115992D01*
X157780020Y-105115990D01*
X157780022Y-105115988D01*
X157800500Y-105039562D01*
X157800500Y-104960438D01*
X157800500Y-104590360D01*
X157819407Y-104532169D01*
X157868907Y-104496205D01*
X157930093Y-104496205D01*
X157979593Y-104532169D01*
X157990963Y-104552474D01*
X158028085Y-104642093D01*
X158028089Y-104642101D01*
X158028094Y-104642111D01*
X158205754Y-104974490D01*
X158344901Y-105182737D01*
X158415154Y-105287878D01*
X158525909Y-105422833D01*
X158548209Y-105479810D01*
X158532761Y-105539013D01*
X158519385Y-105555642D01*
X156904525Y-107170504D01*
X156850008Y-107198281D01*
X156834521Y-107199500D01*
X151579518Y-107199500D01*
X151521327Y-107180593D01*
X151485363Y-107131093D01*
X151485363Y-107069907D01*
X151509514Y-107030496D01*
X151530489Y-107009521D01*
X151580463Y-106959547D01*
X151656610Y-106845585D01*
X151709061Y-106718957D01*
X151735800Y-106584530D01*
X151735800Y-106447470D01*
X151709061Y-106313043D01*
X151666255Y-106209699D01*
X151656612Y-106186419D01*
X151656606Y-106186408D01*
X151609969Y-106116612D01*
X151580463Y-106072453D01*
X151483547Y-105975537D01*
X151435669Y-105943546D01*
X151369591Y-105899393D01*
X151369580Y-105899387D01*
X151242957Y-105846939D01*
X151108532Y-105820200D01*
X151108530Y-105820200D01*
X150971470Y-105820200D01*
X150971467Y-105820200D01*
X150837043Y-105846939D01*
X150837041Y-105846939D01*
X150710419Y-105899387D01*
X150710408Y-105899393D01*
X150596453Y-105975537D01*
X150596449Y-105975540D01*
X150499540Y-106072449D01*
X150499537Y-106072453D01*
X150423393Y-106186408D01*
X150423387Y-106186419D01*
X150370939Y-106313041D01*
X150370939Y-106313043D01*
X150344200Y-106447467D01*
X150344200Y-106584532D01*
X150370939Y-106718956D01*
X150370939Y-106718958D01*
X150423387Y-106845580D01*
X150423393Y-106845591D01*
X150469202Y-106914148D01*
X150499537Y-106959547D01*
X150499540Y-106959550D01*
X150570486Y-107030496D01*
X150598263Y-107085013D01*
X150588692Y-107145445D01*
X150545427Y-107188710D01*
X150500482Y-107199500D01*
X149165479Y-107199500D01*
X149157881Y-107197031D01*
X149149992Y-107198281D01*
X149129336Y-107187756D01*
X149107288Y-107180593D01*
X149095475Y-107170504D01*
X149004496Y-107079525D01*
X148976719Y-107025008D01*
X148975500Y-107009521D01*
X148975500Y-106937401D01*
X148975500Y-106937399D01*
X148943095Y-106816464D01*
X148880495Y-106708036D01*
X148791964Y-106619505D01*
X148683536Y-106556905D01*
X148562601Y-106524500D01*
X148437399Y-106524500D01*
X148356775Y-106546103D01*
X148316463Y-106556905D01*
X148208036Y-106619505D01*
X148119505Y-106708036D01*
X148056905Y-106816463D01*
X148056905Y-106816464D01*
X148024500Y-106937399D01*
X148024500Y-107062601D01*
X148056905Y-107183536D01*
X148119505Y-107291964D01*
X148208036Y-107380495D01*
X148316464Y-107443095D01*
X148437399Y-107475500D01*
X148509521Y-107475500D01*
X148517118Y-107477968D01*
X148525008Y-107476719D01*
X148545663Y-107487243D01*
X148567712Y-107494407D01*
X148579525Y-107504496D01*
X148605525Y-107530496D01*
X148633302Y-107585013D01*
X148623731Y-107645445D01*
X148580466Y-107688710D01*
X148535521Y-107699500D01*
X140665479Y-107699500D01*
X140607288Y-107680593D01*
X140595475Y-107670504D01*
X138171155Y-105246184D01*
X138143378Y-105191667D01*
X138152949Y-105131235D01*
X138164628Y-105113379D01*
X138234601Y-105028118D01*
X138363959Y-104834521D01*
X138373177Y-104820725D01*
X140274501Y-104820725D01*
X140274501Y-106179274D01*
X140277354Y-106209694D01*
X140277356Y-106209703D01*
X140322208Y-106337883D01*
X140402846Y-106447144D01*
X140402848Y-106447146D01*
X140402851Y-106447150D01*
X140402854Y-106447152D01*
X140402856Y-106447154D01*
X140512117Y-106527792D01*
X140512118Y-106527792D01*
X140512119Y-106527793D01*
X140640302Y-106572646D01*
X140670726Y-106575499D01*
X140670728Y-106575500D01*
X140670735Y-106575500D01*
X141529274Y-106575500D01*
X141529274Y-106575499D01*
X141559700Y-106572646D01*
X141687883Y-106527793D01*
X141797151Y-106447150D01*
X141877794Y-106337882D01*
X141922647Y-106209699D01*
X141925500Y-106179273D01*
X141925501Y-106179273D01*
X141925501Y-104820727D01*
X141925500Y-104820725D01*
X141924831Y-104813591D01*
X141922647Y-104790301D01*
X141877794Y-104662118D01*
X141863028Y-104642111D01*
X141797155Y-104552855D01*
X141797153Y-104552853D01*
X141797151Y-104552850D01*
X141797147Y-104552847D01*
X141797145Y-104552845D01*
X141726533Y-104500731D01*
X141713254Y-104482164D01*
X141697111Y-104466021D01*
X141695803Y-104457762D01*
X141690940Y-104450963D01*
X141691110Y-104428135D01*
X141687540Y-104405589D01*
X141691335Y-104398139D01*
X141691398Y-104389780D01*
X141715312Y-104351078D01*
X141833410Y-104232981D01*
X141833413Y-104232980D01*
X141907980Y-104158413D01*
X141948244Y-104088674D01*
X141960705Y-104067091D01*
X141960705Y-104067089D01*
X141960707Y-104067087D01*
X141965930Y-104047595D01*
X141988001Y-103965227D01*
X141988001Y-103859773D01*
X141988001Y-103853711D01*
X141988000Y-103853693D01*
X141988000Y-103449239D01*
X142006907Y-103391048D01*
X142054302Y-103355795D01*
X142062882Y-103352793D01*
X142172150Y-103272150D01*
X142252793Y-103162882D01*
X142297646Y-103034699D01*
X142300499Y-103004273D01*
X142300500Y-103004273D01*
X142300500Y-102997824D01*
X142649999Y-102997824D01*
X142656401Y-103057370D01*
X142656403Y-103057381D01*
X142706646Y-103192088D01*
X142706647Y-103192090D01*
X142792807Y-103307184D01*
X142792815Y-103307192D01*
X142907909Y-103393352D01*
X142907911Y-103393353D01*
X143042618Y-103443596D01*
X143042629Y-103443598D01*
X143102176Y-103450000D01*
X143287499Y-103450000D01*
X143287500Y-103449999D01*
X143287500Y-102625001D01*
X143537500Y-102625001D01*
X143537500Y-103449999D01*
X143537501Y-103450000D01*
X143722824Y-103450000D01*
X143782370Y-103443598D01*
X143782381Y-103443596D01*
X143917088Y-103393353D01*
X143917090Y-103393352D01*
X144032184Y-103307192D01*
X144032192Y-103307184D01*
X144118352Y-103192090D01*
X144118353Y-103192088D01*
X144168596Y-103057381D01*
X144168598Y-103057370D01*
X144175000Y-102997824D01*
X144175000Y-102625001D01*
X144174999Y-102625000D01*
X143537501Y-102625000D01*
X143537500Y-102625001D01*
X143287500Y-102625001D01*
X143287499Y-102625000D01*
X142650001Y-102625000D01*
X142650000Y-102625001D01*
X142650000Y-102997824D01*
X142649999Y-102997824D01*
X142300500Y-102997824D01*
X142300500Y-101995727D01*
X142300499Y-101995725D01*
X142298508Y-101974493D01*
X142297646Y-101965301D01*
X142252793Y-101837118D01*
X142241616Y-101821974D01*
X142172154Y-101727855D01*
X142172152Y-101727853D01*
X142172150Y-101727850D01*
X142172146Y-101727847D01*
X142172144Y-101727845D01*
X142062883Y-101647207D01*
X141934703Y-101602355D01*
X141934694Y-101602353D01*
X141904274Y-101599500D01*
X141904266Y-101599500D01*
X141270734Y-101599500D01*
X141270725Y-101599500D01*
X141240305Y-101602353D01*
X141240296Y-101602355D01*
X141112116Y-101647207D01*
X141002855Y-101727845D01*
X141002845Y-101727855D01*
X140922207Y-101837116D01*
X140877355Y-101965296D01*
X140877353Y-101965305D01*
X140874500Y-101995725D01*
X140874500Y-103004274D01*
X140877353Y-103034694D01*
X140877355Y-103034703D01*
X140922207Y-103162883D01*
X141002845Y-103272144D01*
X141002847Y-103272146D01*
X141002850Y-103272150D01*
X141002853Y-103272152D01*
X141002855Y-103272154D01*
X141050330Y-103307192D01*
X141112118Y-103352793D01*
X141120697Y-103355794D01*
X141169377Y-103392858D01*
X141187000Y-103449239D01*
X141187000Y-103705599D01*
X141168093Y-103763790D01*
X141158004Y-103775602D01*
X140779521Y-104154085D01*
X140779517Y-104154090D01*
X140726795Y-104245407D01*
X140726793Y-104245411D01*
X140713806Y-104293876D01*
X140713807Y-104293877D01*
X140699500Y-104347273D01*
X140699258Y-104349114D01*
X140698686Y-104350312D01*
X140697822Y-104353538D01*
X140697223Y-104353377D01*
X140672912Y-104404337D01*
X140633804Y-104429627D01*
X140512117Y-104472207D01*
X140402856Y-104552845D01*
X140402846Y-104552855D01*
X140322208Y-104662116D01*
X140277356Y-104790296D01*
X140277354Y-104790305D01*
X140274501Y-104820725D01*
X138373177Y-104820725D01*
X138411470Y-104763417D01*
X138420226Y-104750312D01*
X138525772Y-104552848D01*
X138577723Y-104455654D01*
X138705582Y-104146976D01*
X138802569Y-103827251D01*
X138867751Y-103499559D01*
X138900500Y-103167056D01*
X138900500Y-102832944D01*
X138867751Y-102500441D01*
X138802569Y-102172749D01*
X138770890Y-102068316D01*
X138705585Y-101853032D01*
X138698993Y-101837116D01*
X138577723Y-101544346D01*
X138577713Y-101544327D01*
X138420226Y-101249687D01*
X138327412Y-101110783D01*
X138234601Y-100971882D01*
X138022643Y-100713610D01*
X137786390Y-100477357D01*
X137528118Y-100265399D01*
X137429494Y-100199500D01*
X137250312Y-100079773D01*
X137074518Y-99985810D01*
X137032111Y-99941705D01*
X137023728Y-99881096D01*
X137052570Y-99827136D01*
X137107622Y-99800434D01*
X137121186Y-99799500D01*
X137446353Y-99799500D01*
X137459275Y-99800347D01*
G37*
%TD.AperFunction*%
%TD*%
M02*
