M48
; DRILL file {KiCad 9.0.7+1} date 2026-04-13T19:06:13+0000
; FORMAT={-:-/ absolute / metric / decimal}
; #@! TF.CreationDate,2026-04-13T19:06:13+00:00
; #@! TF.GenerationSoftware,Kicad,Pcbnew,9.0.7+1
; #@! TF.FileFunction,Plated,1,6,PTH
FMAT,2
METRIC
; #@! TA.AperFunction,Plated,PTH,ComponentDrill
T1C0.500
; #@! TA.AperFunction,Plated,PTH,ComponentDrill
T2C3.200
%
G90
G05
T1
X133.1Y-77.0
X133.1Y-103.0
X133.803Y-75.303
X133.803Y-78.697
X133.803Y-101.303
X133.803Y-104.697
X135.5Y-74.6
X135.5Y-79.4
X135.5Y-100.6
X135.5Y-105.4
X137.197Y-75.303
X137.197Y-78.697
X137.197Y-101.303
X137.197Y-104.697
X137.9Y-77.0
X137.9Y-103.0
X146.1Y-97.0
X146.803Y-95.303
X146.803Y-98.697
X148.5Y-94.6
X148.5Y-99.4
X150.197Y-95.303
X150.197Y-98.697
X150.9Y-97.0
X159.1Y-77.0
X159.1Y-103.0
X159.803Y-75.303
X159.803Y-78.697
X159.803Y-101.303
X159.803Y-104.697
X161.5Y-74.6
X161.5Y-79.4
X161.5Y-100.6
X161.5Y-105.4
X163.197Y-75.303
X163.197Y-78.697
X163.197Y-101.303
X163.197Y-104.697
X163.9Y-77.0
X163.9Y-103.0
T2
X135.5Y-77.0
X135.5Y-103.0
X148.5Y-97.0
X161.5Y-77.0
X161.5Y-103.0
M30
